<svg width="32" height="32" viewBox="0 0 32 32" fill="none" xmlns="http://www.w3.org/2000/svg">
    <path fill-rule="evenodd" clip-rule="evenodd" d="M17.7273 5.09106C17.7273 4.53878 18.175 4.09106 18.7273 4.09106H31C31.5523 4.09106 32 4.53878 32 5.09106C32 5.64335 31.5523 6.09106 31 6.09106H18.7273C18.175 6.09106 17.7273 5.64335 17.7273 5.09106Z" fill="#2D2E32" />
    <path fill-rule="evenodd" clip-rule="evenodd" d="M0 5.09106C0 4.53878 0.447715 4.09106 1 4.09106H5.09091C5.64319 4.09106 6.09091 4.53878 6.09091 5.09106C6.09091 5.64335 5.64319 6.09106 5.09091 6.09106H1C0.447715 6.09106 0 5.64335 0 5.09106Z" fill="#2D2E32" />
    <path fill-rule="evenodd" clip-rule="evenodd" d="M28.6365 16.0002C28.6365 15.448 29.0842 15.0002 29.6365 15.0002H31.0001C31.5524 15.0002 32.0001 15.448 32.0001 16.0002C32.0001 16.5525 31.5524 17.0002 31.0001 17.0002H29.6365C29.0842 17.0002 28.6365 16.5525 28.6365 16.0002Z" fill="#2D2E32" />
    <path fill-rule="evenodd" clip-rule="evenodd" d="M0 16.0002C0 15.448 0.447715 15.0002 1 15.0002H16C16.5523 15.0002 17 15.448 17 16.0002C17 16.5525 16.5523 17.0002 16 17.0002H1C0.447715 17.0002 0 16.5525 0 16.0002Z" fill="#2D2E32" />
    <path fill-rule="evenodd" clip-rule="evenodd" d="M17.7273 26.9092C17.7273 26.3569 18.175 25.9092 18.7273 25.9092H31C31.5523 25.9092 32 26.3569 32 26.9092C32 27.4615 31.5523 27.9092 31 27.9092H18.7273C18.175 27.9092 17.7273 27.4615 17.7273 26.9092Z" fill="#2D2E32" />
    <path fill-rule="evenodd" clip-rule="evenodd" d="M0 26.9092C0 26.3569 0.447715 25.9092 1 25.9092H5.09091C5.64319 25.9092 6.09091 26.3569 6.09091 26.9092C6.09091 27.4615 5.64319 27.9092 5.09091 27.9092H1C0.447715 27.9092 0 27.4615 0 26.9092Z" fill="#2D2E32" />
    <path fill-rule="evenodd" clip-rule="evenodd" d="M9.18173 2C7.47467 2 6.09082 3.38385 6.09082 5.09091C6.09082 6.79797 7.47467 8.18182 9.18173 8.18182C10.8888 8.18182 12.2726 6.79797 12.2726 5.09091C12.2726 3.38385 10.8888 2 9.18173 2ZM4.09082 5.09091C4.09082 2.27928 6.3701 0 9.18173 0C11.9934 0 14.2726 2.27928 14.2726 5.09091C14.2726 7.90254 11.9934 10.1818 9.18173 10.1818C6.3701 10.1818 4.09082 7.90254 4.09082 5.09091Z" fill="#2D2E32" />
    <path fill-rule="evenodd" clip-rule="evenodd" d="M20.0909 12.9092C18.3838 12.9092 17 14.293 17 16.0001C17 17.7072 18.3838 19.091 20.0909 19.091C21.798 19.091 23.1818 17.7072 23.1818 16.0001C23.1818 14.293 21.798 12.9092 20.0909 12.9092ZM15 16.0001C15 13.1885 17.2793 10.9092 20.0909 10.9092C22.9025 10.9092 25.1818 13.1885 25.1818 16.0001C25.1818 18.8117 22.9025 21.091 20.0909 21.091C17.2793 21.091 15 18.8117 15 16.0001Z" fill="#2D2E32" />
    <path fill-rule="evenodd" clip-rule="evenodd" d="M9.18173 23.8181C7.47467 23.8181 6.09082 25.202 6.09082 26.909C6.09082 28.6161 7.47467 29.9999 9.18173 29.9999C10.8888 29.9999 12.2726 28.6161 12.2726 26.909C12.2726 25.202 10.8888 23.8181 9.18173 23.8181ZM4.09082 26.909C4.09082 24.0974 6.3701 21.8181 9.18173 21.8181C11.9934 21.8181 14.2726 24.0974 14.2726 26.909C14.2726 29.7207 11.9934 31.9999 9.18173 31.9999C6.3701 31.9999 4.09082 29.7207 4.09082 26.909Z" fill="#2D2E32" />
</svg>
    