<svg width="33" height="32" viewBox="0 0 33 32" fill="none" xmlns="http://www.w3.org/2000/svg">
    <path fill-rule="evenodd" clip-rule="evenodd" d="M2 1C2 0.447715 2.44772 0 3 0H28.7143C29.2666 0 29.7143 0.447715 29.7143 1V16C29.7143 16.5523 29.2666 17 28.7143 17C28.162 17 27.7143 16.5523 27.7143 16V2H4V29.1315L6.73101 27.3108C7.06691 27.0869 7.50451 27.0869 7.84041 27.3108L11.5714 29.7981L15.3024 27.3108C15.6383 27.0869 16.0759 27.0869 16.4118 27.3108L17.4833 28.0251C17.9428 28.3314 18.067 28.9523 17.7606 29.4118C17.4543 29.8714 16.8334 29.9955 16.3739 29.6892L15.8571 29.3447L12.1261 31.8321C11.7902 32.056 11.3526 32.056 11.0167 31.8321L7.28571 29.3447L3.5547 31.8321C3.24784 32.0366 2.8533 32.0557 2.52814 31.8817C2.20298 31.7077 2 31.3688 2 31V1Z" />
    <path fill-rule="evenodd" clip-rule="evenodd" d="M7.71436 21C7.71436 20.4477 8.16207 20 8.71436 20H15.8572C16.4095 20 16.8572 20.4477 16.8572 21C16.8572 21.5523 16.4095 22 15.8572 22H8.71436C8.16207 22 7.71436 21.5523 7.71436 21Z" />
    <path fill-rule="evenodd" clip-rule="evenodd" d="M15.8572 7.71436C14.0426 7.71436 12.5715 9.18542 12.5715 11.0001C12.5715 12.8147 14.0426 14.2858 15.8572 14.2858C17.6719 14.2858 19.143 12.8147 19.143 11.0001C19.143 9.18542 17.6719 7.71436 15.8572 7.71436ZM10.5715 11.0001C10.5715 8.08085 12.938 5.71436 15.8572 5.71436C18.7765 5.71436 21.143 8.08085 21.143 11.0001C21.143 13.9193 18.7765 16.2858 15.8572 16.2858C12.938 16.2858 10.5715 13.9193 10.5715 11.0001Z" />
    <path fill-rule="evenodd" clip-rule="evenodd" d="M21.8094 28.3076C22.2431 27.9656 22.8718 28.04 23.2138 28.4737C23.9481 29.4051 25.0829 30 26.3571 30C28.5662 30 30.3571 28.2091 30.3571 26C30.3571 23.7909 28.5662 22 26.3571 22C25.0829 22 23.9481 22.5949 23.2138 23.5263C22.8718 23.96 22.2431 24.0344 21.8094 23.6924C21.3757 23.3505 21.3013 22.7217 21.6432 22.288C22.7403 20.8965 24.4441 20 26.3571 20C29.6708 20 32.3571 22.6863 32.3571 26C32.3571 29.3137 29.6708 32 26.3571 32C24.4441 32 22.7403 31.1035 21.6432 29.712C21.3013 29.2783 21.3757 28.6495 21.8094 28.3076Z" />
    <path fill-rule="evenodd" clip-rule="evenodd" d="M21.4141 19.9998C21.9664 19.9998 22.4141 20.4476 22.4141 20.9998L22.4141 22.8283L24.2425 22.8283C24.7948 22.8283 25.2425 23.276 25.2425 23.8283C25.2425 24.3806 24.7948 24.8283 24.2425 24.8283L21.4141 24.8283C20.8618 24.8283 20.4141 24.3806 20.4141 23.8283L20.4141 20.9998C20.4141 20.4476 20.8618 19.9998 21.4141 19.9998Z" />
</svg>
    