<svg width="32" height="32" viewBox="0 0 32 32" fill="none" xmlns="http://www.w3.org/2000/svg">
    <path fill-rule="evenodd" clip-rule="evenodd" d="M4 15C4.55228 15 5 15.4477 5 16V24C5 24.5523 4.55228 25 4 25C3.44772 25 3 24.5523 3 24V16C3 15.4477 3.44772 15 4 15Z" />
    <path fill-rule="evenodd" clip-rule="evenodd" d="M12 15C12.5523 15 13 15.4477 13 16V24C13 24.5523 12.5523 25 12 25C11.4477 25 11 24.5523 11 24V16C11 15.4477 11.4477 15 12 15Z" />
    <path fill-rule="evenodd" clip-rule="evenodd" d="M20 15C20.5523 15 21 15.4477 21 16V24C21 24.5523 20.5523 25 20 25C19.4477 25 19 24.5523 19 24V16C19 15.4477 19.4477 15 20 15Z" />
    <path fill-rule="evenodd" clip-rule="evenodd" d="M28 15C28.5523 15 29 15.4477 29 16V24C29 24.5523 28.5523 25 28 25C27.4477 25 27 24.5523 27 24V16C27 15.4477 27.4477 15 28 15Z" />
</svg>
    