<svg width="32" height="32" viewBox="0 0 32 32" fill="none" xmlns="http://www.w3.org/2000/svg">
    <path fill-rule="evenodd" clip-rule="evenodd" d="M5 27C5.55228 27 6 27.4477 6 28V31C6 31.5523 5.55228 32 5 32C4.44772 32 4 31.5523 4 31V28C4 27.4477 4.44772 27 5 27Z" fill="#2D2E32" />
    <path fill-rule="evenodd" clip-rule="evenodd" d="M1.31802 14.318C2.16193 13.4741 3.30653 13 4.5 13C5.69347 13 6.83807 13.4741 7.68198 14.318C8.52589 15.1619 9 16.3065 9 17.5V20H16C16.5523 20 17 20.4477 17 21C17 21.5523 16.5523 22 16 22H8C7.44772 22 7 21.5523 7 21V17.5C7 16.837 6.73661 16.2011 6.26777 15.7322C5.79893 15.2634 5.16304 15 4.5 15C3.83696 15 3.20107 15.2634 2.73223 15.7322C2.26339 16.2011 2 16.837 2 17.5V27H14C14.5523 27 15 27.4477 15 28C15 28.5523 14.5523 29 14 29H1C0.447715 29 0 28.5523 0 28V17.5C0 16.3065 0.474106 15.1619 1.31802 14.318ZM24.318 14.318C25.1619 13.4741 26.3065 13 27.5 13C28.6935 13 29.8381 13.4741 30.682 14.318C31.5259 15.1619 32 16.3065 32 17.5V19.75C32 20.3023 31.5523 20.75 31 20.75C30.4477 20.75 30 20.3023 30 19.75V17.5C30 16.837 29.7366 16.2011 29.2678 15.7322C28.7989 15.2634 28.163 15 27.5 15C26.837 15 26.2011 15.2634 25.7322 15.7322C25.2634 16.2011 25 16.837 25 17.5C25 18.0523 24.5523 18.5 24 18.5C23.4477 18.5 23 18.0523 23 17.5C23 16.3065 23.4741 15.1619 24.318 14.318Z" fill="#2D2E32" />
    <path fill-rule="evenodd" clip-rule="evenodd" d="M5.17157 1.17157C5.92172 0.421427 6.93913 0 8 0H24C25.0609 0 26.0783 0.421427 26.8284 1.17157C27.5786 1.92172 28 2.93913 28 4V10C28 10.5523 27.5523 11 27 11C26.4477 11 26 10.5523 26 10V4C26 3.46957 25.7893 2.96086 25.4142 2.58579C25.0391 2.21071 24.5304 2 24 2H8C7.46957 2 6.96086 2.21071 6.58579 2.58579C6.21071 2.96086 6 3.46957 6 4V10C6 10.5523 5.55228 11 5 11C4.44772 11 4 10.5523 4 10V4C4 2.93913 4.42143 1.92172 5.17157 1.17157Z" fill="#2D2E32" />
</svg>
    