<svg width="32" height="32" viewBox="0 0 32 32" fill="none" xmlns="http://www.w3.org/2000/svg">
    <path fill-rule="evenodd" clip-rule="evenodd" d="M16.865 2.02704C14.1361 1.85721 11.4171 2.4902 9.04376 3.84789C6.67041 5.20558 4.74658 7.22852 3.50973 9.66702C3.2599 10.1596 2.65808 10.3563 2.16553 10.1065C1.67299 9.85668 1.47622 9.25486 1.72605 8.76231C3.1396 5.97545 5.33827 3.66351 8.05066 2.11187C10.7631 0.560229 13.8705 -0.163194 16.9893 0.0309011C20.1081 0.224996 23.1018 1.32811 25.6009 3.20408C28.1 5.08005 29.995 7.64676 31.0521 10.5874C32.1092 13.528 32.2821 16.7138 31.5494 19.7515C30.8167 22.7893 29.2106 25.546 26.9292 27.6814C24.6478 29.8168 21.791 31.2373 18.7115 31.7678C15.632 32.2982 12.4646 31.9153 9.60019 30.6663C9.09394 30.4456 8.8625 29.8562 9.08325 29.35C9.304 28.8437 9.89335 28.6123 10.3996 28.833C12.9059 29.9259 15.6774 30.261 18.372 29.7968C21.0665 29.3327 23.5662 28.0897 25.5624 26.2212C27.5587 24.3527 28.9641 21.9406 29.6052 19.2826C30.2463 16.6246 30.095 13.837 29.17 11.264C28.2451 8.69092 26.5869 6.44505 24.4002 4.80357C22.2135 3.1621 19.594 2.19687 16.865 2.02704Z" fill="#2D2E32" />
    <path fill-rule="evenodd" clip-rule="evenodd" d="M3.74099 0.225387C4.28901 0.29389 4.67773 0.79368 4.60923 1.3417L3.7687 8.06591L10.4929 7.22539C11.0409 7.15688 11.5407 7.54561 11.6092 8.09363C11.6777 8.64165 11.289 9.14144 10.741 9.20994L2.74099 10.2099C2.43478 10.2482 2.12805 10.143 1.90984 9.92477C1.69164 9.70656 1.5864 9.39984 1.62467 9.09363L2.62467 1.09363C2.69318 0.54561 3.19297 0.156885 3.74099 0.225387Z" fill="#2D2E32" />
</svg>
    