<svg width="32" height="32" viewBox="0 0 32 32" fill="none" xmlns="http://www.w3.org/2000/svg">
    <path fill-rule="evenodd" clip-rule="evenodd" d="M19.7071 24.7071C20.0976 24.3166 20.0976 23.6834 19.7071 23.2929L14.7071 18.2929C14.3166 17.9024 13.6834 17.9024 13.2929 18.2929C12.9024 18.6834 12.9024 19.3166 13.2929 19.7071L17.5858 24L13.2929 28.2929C12.9024 28.6834 12.9024 29.3166 13.2929 29.7071C13.6834 30.0976 14.3166 30.0976 14.7071 29.7071L19.7071 24.7071Z" fill="#0277E7" />
    <path fill-rule="evenodd" clip-rule="evenodd" d="M12.7071 24.7071C13.0976 24.3166 13.0976 23.6834 12.7071 23.2929L9.70711 20.2929C9.31658 19.9024 8.68342 19.9024 8.29289 20.2929C7.90237 20.6834 7.90237 21.3166 8.29289 21.7071L10.5858 24L8.29289 26.2929C7.90237 26.6834 7.90237 27.3166 8.29289 27.7071C8.68342 28.0976 9.31658 28.0976 9.70711 27.7071L12.7071 24.7071Z" fill="#0277E7" />
    <path fill-rule="evenodd" clip-rule="evenodd" d="M25.7071 24.7071C26.0976 24.3166 26.0976 23.6834 25.7071 23.2929L22.7071 20.2929C22.3166 19.9024 21.6834 19.9024 21.2929 20.2929C20.9024 20.6834 20.9024 21.3166 21.2929 21.7071L23.5858 24L21.2929 26.2929C20.9024 26.6834 20.9024 27.3166 21.2929 27.7071C21.6834 28.0976 22.3166 28.0976 22.7071 27.7071L25.7071 24.7071Z" fill="#0277E7" />
</svg>
    