<svg width="32" height="32" viewBox="0 0 32 32" fill="none" xmlns="http://www.w3.org/2000/svg">
    <path fill-rule="evenodd" clip-rule="evenodd" d="M14.4027 27.9154C14.0397 28.075 13.6166 28.0051 13.3243 27.7372L1.32428 16.7372C1.11765 16.5478 1 16.2803 1 16C1 15.7197 1.11765 15.4523 1.32428 15.2629L13.3243 4.26285C13.6166 3.99488 14.0397 3.92498 14.4027 4.08466C14.7657 4.24434 15 4.60344 15 5.00001L15 11L25 11C25.5523 11 26 11.4477 26 12L26 20C26 20.5523 25.5523 21 25 21L15 21L15 27C15 27.3966 14.7657 27.7557 14.4027 27.9154ZM13 24.7268L13 20C13 19.4477 13.4477 19 14 19L24 19L24 13L14 13C13.4477 13 13 12.5523 13 12L13 7.27324L3.47989 16L13 24.7268Z" fill="#2D2E32" />
</svg>
    