<svg width="32" height="32" viewBox="0 0 32 32" fill="none" xmlns="http://www.w3.org/2000/svg">
    <path fill-rule="evenodd" clip-rule="evenodd" d="M17.5973 4.08464C17.9603 3.92496 18.3834 3.99487 18.6757 4.26284L30.6757 15.2628C30.8824 15.4522 31 15.7197 31 16C31 16.2803 30.8824 16.5477 30.6757 16.7371L18.6757 27.7371C18.3834 28.0051 17.9603 28.075 17.5973 27.9153C17.2343 27.7557 17 27.3966 17 27V21H7C6.44772 21 6 20.5523 6 20V12C6 11.4477 6.44772 11 7 11H17V4.99999C17 4.60342 17.2343 4.24432 17.5973 4.08464ZM19 7.27323V12C19 12.5523 18.5523 13 18 13H8V19H18C18.5523 19 19 19.4477 19 20V24.7268L28.5201 16L19 7.27323Z"  />
</svg>
    