<svg width="32" height="32" viewBox="0 0 32 32" fill="none" xmlns="http://www.w3.org/2000/svg">
    <path fill-rule="evenodd" clip-rule="evenodd" d="M14.6387 13C14.0864 13 13.6387 12.5523 13.6387 12L13.6387 6.18182C13.6387 5.62953 14.0864 5.18182 14.6387 5.18182C15.191 5.18182 15.6387 5.62953 15.6387 6.18182L15.6387 12C15.6387 12.5523 15.191 13 14.6387 13Z" fill="#0277E7" />
    <path fill-rule="evenodd" clip-rule="evenodd" d="M16.8206 13C16.2683 13 15.8206 12.5523 15.8206 12L15.8206 6.18182C15.8206 5.62953 16.2683 5.18182 16.8206 5.18182C17.3728 5.18182 17.8206 5.62953 17.8206 6.18182L17.8206 12C17.8206 12.5523 17.3728 13 16.8206 13Z" fill="#0277E7" />
    <path fill-rule="evenodd" clip-rule="evenodd" d="M10.0024 6.56309C9.96471 5.3865 10.3705 4.23843 11.1397 3.34675C11.5005 2.92857 12.132 2.88202 12.5501 3.24277C12.9683 3.60353 13.0149 4.23498 12.6541 4.65316C12.2104 5.16755 11.9773 5.8306 12.0017 6.5095C12.0022 6.52147 12.0024 6.53344 12.0024 6.54541C12.0024 7.68359 12.4607 8.37965 13.0972 8.82739C13.7798 9.30749 14.7401 9.54541 15.7297 9.54541C16.7192 9.54541 17.6795 9.30749 18.3621 8.82739C18.9986 8.37965 19.4569 7.68359 19.4569 6.54541C19.4569 6.53344 19.4571 6.52147 19.4576 6.5095C19.482 5.8306 19.249 5.16754 18.8052 4.65316C18.4444 4.23498 18.491 3.60353 18.9092 3.24277C19.3274 2.88202 19.9588 2.92857 20.3196 3.34675C21.0888 4.23843 21.4946 5.38651 21.4569 6.56309C21.4518 8.34888 20.6732 9.64695 19.5127 10.4632C18.3944 11.2499 16.991 11.5454 15.7297 11.5454C14.4683 11.5454 13.065 11.2499 11.9466 10.4632C10.7861 9.64695 10.0075 8.34888 10.0024 6.56309Z" fill="#0277E7" />
</svg>
    