<svg width="32" height="32" viewBox="0 0 32 32" fill="none" xmlns="http://www.w3.org/2000/svg">
    <path fill-rule="evenodd" clip-rule="evenodd" d="M22.7071 29.7071C22.3166 30.0976 21.6834 30.0976 21.2929 29.7071L16 24.4142L10.7071 29.7071C10.3166 30.0976 9.68342 30.0976 9.29289 29.7071C8.90237 29.3166 8.90237 28.6834 9.29289 28.2929L15.2929 22.2929C15.6834 21.9024 16.3166 21.9024 16.7071 22.2929L22.7071 28.2929C23.0976 28.6834 23.0976 29.3166 22.7071 29.7071Z"  />
    <path fill-rule="evenodd" clip-rule="evenodd" d="M19.7071 20.7071C19.3166 21.0976 18.6834 21.0976 18.2929 20.7071L16 18.4142L13.7071 20.7071C13.3166 21.0976 12.6834 21.0976 12.2929 20.7071C11.9024 20.3166 11.9024 19.6834 12.2929 19.2929L15.2929 16.2929C15.6834 15.9024 16.3166 15.9024 16.7071 16.2929L19.7071 19.2929C20.0976 19.6834 20.0976 20.3166 19.7071 20.7071Z"  />
</svg>
    