<svg width="32" height="32" viewBox="0 0 32 32" fill="none" xmlns="http://www.w3.org/2000/svg">
    <path fill-rule="evenodd" clip-rule="evenodd" d="M9.29289 22.2929C9.68342 21.9024 10.3166 21.9024 10.7071 22.2929L16 27.5858L21.2929 22.2929C21.6834 21.9024 22.3166 21.9024 22.7071 22.2929C23.0976 22.6834 23.0976 23.3166 22.7071 23.7071L16.7071 29.7071C16.3166 30.0976 15.6834 30.0976 15.2929 29.7071L9.29289 23.7071C8.90237 23.3166 8.90237 22.6834 9.29289 22.2929Z"  />
    <path fill-rule="evenodd" clip-rule="evenodd" d="M12.2929 19.2929C12.6834 18.9024 13.3166 18.9024 13.7071 19.2929L16 21.5858L18.2929 19.2929C18.6834 18.9024 19.3166 18.9024 19.7071 19.2929C20.0976 19.6834 20.0976 20.3166 19.7071 20.7071L16.7071 23.7071C16.3166 24.0976 15.6834 24.0976 15.2929 23.7071L12.2929 20.7071C11.9024 20.3166 11.9024 19.6834 12.2929 19.2929Z"  />
</svg>
    