<svg width="32" height="32" viewBox="0 0 32 32" fill="none" xmlns="http://www.w3.org/2000/svg">
    <path fill-rule="evenodd" clip-rule="evenodd" d="M29 22C29 22.5523 28.5523 23 28 23L25 23C24.4477 23 24 22.5523 24 22C24 21.4477 24.4477 21 25 21L27 21L27 2L5 2L5 21L7 21C7.55228 21 8 21.4477 8 22C8 22.5523 7.55228 23 7 23L4 23C3.44772 23 3 22.5523 3 22L3 0.999998C3 0.447713 3.44772 -2.23385e-06 4 -2.18557e-06L28 -8.74228e-08C28.5523 -3.91405e-08 29 0.447716 29 1L29 22Z" fill="#2D2E32" />
    <path fill-rule="evenodd" clip-rule="evenodd" d="M32 6C32 6.55228 31.5523 7 31 7L28 7C27.4477 7 27 6.55228 27 6C27 5.44771 27.4477 5 28 5L30 5L30 2L2 2L2 5L4 5C4.55228 5 5 5.44771 5 6C5 6.55228 4.55228 7 4 7L1 7C0.447716 7 3.91405e-08 6.55228 8.74228e-08 6L5.24537e-07 0.999997C5.72819e-07 0.447712 0.447716 -2.75839e-06 1 -2.71011e-06L31 -8.74228e-08C31.5523 -3.91405e-08 32 0.447715 32 1L32 6Z" fill="#2D2E32" />
</svg>
    