<svg width="32" height="32" viewBox="0 0 32 32" fill="none" xmlns="http://www.w3.org/2000/svg">
    <path fill-rule="evenodd" clip-rule="evenodd" d="M20 7.5C20 6.65228 19.3477 6 18.5 6C18.2107 6 18.035 6.06032 17.92 6.12606C17.8025 6.1932 17.6897 6.29965 17.5771 6.47589C17.3232 6.87321 17.169 7.44707 16.9701 8.24254C16.964 8.26716 16.9578 8.29206 16.9515 8.31721C16.7783 9.01157 16.557 9.89865 16.1083 10.6009C15.8615 10.9871 15.529 11.3494 15.0723 11.6104C14.6131 11.8728 14.0857 12 13.5 12C11.5477 12 10 10.4523 10 8.5L10 7.5C10 5.54771 11.5477 4 13.5 4C14.0523 4 14.5 4.44771 14.5 5C14.5 5.55228 14.0523 6 13.5 6C12.6523 6 12 6.65228 12 7.5L12 8.5C12 9.34771 12.6523 10 13.5 10C13.7893 10 13.965 9.93967 14.08 9.87394C14.1975 9.8068 14.3103 9.70035 14.4229 9.52411C14.6768 9.12679 14.831 8.55293 15.0299 7.75746C15.036 7.73284 15.0422 7.70794 15.0485 7.68279C15.2217 6.98842 15.443 6.10135 15.8917 5.39911C16.1385 5.01285 16.471 4.65055 16.9277 4.38957C17.3869 4.12718 17.9143 4 18.5 4C20.4523 4 22 5.54772 22 7.5L22 8.5C22 10.4523 20.4523 12 18.5 12C17.9477 12 17.5 11.5523 17.5 11C17.5 10.4477 17.9477 10 18.5 10C19.3477 10 20 9.34772 20 8.5L20 7.5Z" fill="#0277E7" />
    <path fill-rule="evenodd" clip-rule="evenodd" d="M12 8C12 8.55228 11.5523 9 11 9L8 9C7.44772 9 7 8.55228 7 8C7 7.44772 7.44772 7 8 7L11 7C11.5523 7 12 7.44772 12 8Z" fill="#0277E7" />
    <path fill-rule="evenodd" clip-rule="evenodd" d="M25 8C25 8.55228 24.5523 9 24 9L21 9C20.4477 9 20 8.55228 20 8C20 7.44772 20.4477 7 21 7L24 7C24.5523 7 25 7.44772 25 8Z" fill="#0277E7" />
</svg>
    