<svg width="32" height="32" viewBox="0 0 32 32" fill="none" xmlns="http://www.w3.org/2000/svg">
    <path fill-rule="evenodd" clip-rule="evenodd" d="M18 15C18 14.4477 18.4477 14 19 14H26C26.5523 14 27 14.4477 27 15C27 15.5523 26.5523 16 26 16H19C18.4477 16 18 15.5523 18 15Z"  />
    <path fill-rule="evenodd" clip-rule="evenodd" d="M18 20C18 19.4477 18.4477 19 19 19H26C26.5523 19 27 19.4477 27 20C27 20.5523 26.5523 21 26 21H19C18.4477 21 18 20.5523 18 20Z"  />
    <path fill-rule="evenodd" clip-rule="evenodd" d="M0 4C0 3.44772 0.447715 3 1 3H7C7.55228 3 8 3.44772 8 4C8 5.10472 8.89528 6 10 6C11.1047 6 12 5.10472 12 4C12 3.44772 12.4477 3 13 3H19C19.5523 3 20 3.44772 20 4C20 5.10472 20.8953 6 22 6C23.1047 6 24 5.10472 24 4C24 3.44772 24.4477 3 25 3H31C31.5523 3 32 3.44772 32 4V28C32 28.5523 31.5523 29 31 29H1C0.447715 29 0 28.5523 0 28V4ZM2 5V27H30V5H25.874C25.43 6.72531 23.864 8 22 8C20.136 8 18.57 6.72531 18.126 5H13.874C13.43 6.72531 11.864 8 10 8C8.13602 8 6.56999 6.72531 6.126 5H2Z"  />
</svg>
    