<svg width="32" height="32" viewBox="0 0 32 32" fill="none" xmlns="http://www.w3.org/2000/svg">
    <path fill-rule="evenodd" clip-rule="evenodd" d="M20.5 27.5C21.0523 27.5 21.5 27.9477 21.5 28.5V30.5C21.5 31.0523 21.0523 31.5 20.5 31.5C19.9477 31.5 19.5 31.0523 19.5 30.5V28.5C19.5 27.9477 19.9477 27.5 20.5 27.5Z" fill="#0277E7" />
    <path fill-rule="evenodd" clip-rule="evenodd" d="M23.5 23.5C24.0523 23.5 24.5 23.9477 24.5 24.5V30.5C24.5 31.0523 24.0523 31.5 23.5 31.5C22.9477 31.5 22.5 31.0523 22.5 30.5V24.5C22.5 23.9477 22.9477 23.5 23.5 23.5Z" fill="#0277E7" />
    <path fill-rule="evenodd" clip-rule="evenodd" d="M26.5 27.5C27.0523 27.5 27.5 27.9477 27.5 28.5V30.5C27.5 31.0523 27.0523 31.5 26.5 31.5C25.9477 31.5 25.5 31.0523 25.5 30.5V28.5C25.5 27.9477 25.9477 27.5 26.5 27.5Z" fill="#0277E7" />
    <path fill-rule="evenodd" clip-rule="evenodd" d="M29.5 23.5C30.0523 23.5 30.5 23.9477 30.5 24.5V30.5C30.5 31.0523 30.0523 31.5 29.5 31.5C28.9477 31.5 28.5 31.0523 28.5 30.5V24.5C28.5 23.9477 28.9477 23.5 29.5 23.5Z" fill="#0277E7" />
    <path fill-rule="evenodd" clip-rule="evenodd" d="M29.7929 16.7929C30.1834 16.4024 30.8166 16.4024 31.2071 16.7929C31.5976 17.1834 31.5976 17.8166 31.2071 18.2071L27.2071 22.2071C26.8166 22.5976 26.1834 22.5976 25.7929 22.2071L23.5 19.9142L17.7071 25.7071C17.3166 26.0976 16.6834 26.0976 16.2929 25.7071C15.9024 25.3166 15.9024 24.6834 16.2929 24.2929L22.7929 17.7929C23.1834 17.4024 23.8166 17.4024 24.2071 17.7929L26.5 20.0858L29.7929 16.7929Z" fill="#0277E7" />
</svg>
    