<svg width="32" height="32" viewBox="0 0 32 32" fill="none" xmlns="http://www.w3.org/2000/svg">
    <path fill-rule="evenodd" clip-rule="evenodd" d="M14.3333 6.6665C14.3333 6.11422 13.8855 5.6665 13.3333 5.6665C6.15297 5.6665 0.333252 11.4862 0.333252 18.6665C0.333252 25.8468 6.15297 31.6665 13.3333 31.6665C20.5135 31.6665 26.3333 25.8468 26.3333 18.6665C26.3333 18.1142 25.8855 17.6665 25.3333 17.6665C24.781 17.6665 24.3333 18.1142 24.3333 18.6665C24.3333 24.7422 19.409 29.6665 13.3333 29.6665C7.25754 29.6665 2.33325 24.7422 2.33325 18.6665C2.33325 12.5908 7.25754 7.6665 13.3333 7.6665C13.8855 7.6665 14.3333 7.21879 14.3333 6.6665Z"  />
</svg>
    