<svg width="32" height="32" viewBox="0 0 32 32" fill="none" xmlns="http://www.w3.org/2000/svg">
    <path fill-rule="evenodd" clip-rule="evenodd" d="M16 2C8.26801 2 2 8.26801 2 16C2 23.2589 7.52522 29.2285 14.5988 29.9308C15.1484 29.9854 15.5497 30.4752 15.4951 31.0247C15.4405 31.5743 14.9508 31.9756 14.4012 31.921C6.31482 31.1182 0 24.2972 0 16C0 7.16344 7.16344 0 16 0C24.8366 0 32 7.16344 32 16C32 16.5523 31.5523 17 31 17C30.4477 17 30 16.5523 30 16C30 8.26801 23.732 2 16 2Z" fill="#2D2E32" />
    <path fill-rule="evenodd" clip-rule="evenodd" d="M16.2626 7.9999C16.8149 7.9999 17.2626 8.44762 17.2626 8.9999L17.2626 16.0252C17.2626 16.4277 17.0213 16.7909 16.6503 16.947L8.38762 20.4217C7.87853 20.6358 7.29226 20.3967 7.07817 19.8876C6.86407 19.3785 7.10322 18.7922 7.61232 18.5781L15.2626 15.3609L15.2626 8.9999C15.2626 8.44762 15.7104 7.9999 16.2626 7.9999Z" fill="#2D2E32" />
</svg>
    