<svg width="32" height="32" viewBox="0 0 32 32" fill="none" xmlns="http://www.w3.org/2000/svg">
    <path fill-rule="evenodd" clip-rule="evenodd" d="M19 19C19.5523 19 20 19.4477 20 20V24C20 24.2457 20.2251 24.7373 21.2045 25.2269C22.1241 25.6868 23.4646 26 25 26C26.5354 26 27.8759 25.6868 28.7955 25.2269C29.7749 24.7373 30 24.2457 30 24V20C30 19.4477 30.4477 19 31 19C31.5523 19 32 19.4477 32 20V24C32 25.4113 30.8821 26.4197 29.69 27.0158C28.4381 27.6417 26.7786 28 25 28C23.2214 28 21.5619 27.6417 20.31 27.0158C19.1179 26.4197 18 25.4113 18 24V20C18 19.4477 18.4477 19 19 19Z" fill="#0277E7" />
    <path fill-rule="evenodd" clip-rule="evenodd" d="M19 23C19.5523 23 20 23.4477 20 24V28C20 28.2457 20.2251 28.7373 21.2045 29.2269C22.1241 29.6868 23.4646 30 25 30C26.5354 30 27.8759 29.6868 28.7955 29.2269C29.7749 28.7373 30 28.2457 30 28V24C30 23.4477 30.4477 23 31 23C31.5523 23 32 23.4477 32 24V28C32 29.4113 30.8821 30.4197 29.69 31.0158C28.4381 31.6417 26.7786 32 25 32C23.2214 32 21.5619 31.6417 20.31 31.0158C19.1179 30.4197 18 29.4113 18 28V24C18 23.4477 18.4477 23 19 23Z" fill="#0277E7" />
    <path fill-rule="evenodd" clip-rule="evenodd" d="M21.2046 18.7731C20.2251 19.2628 20 19.7544 20 20C20 20.2456 20.2251 20.7372 21.2046 21.2269C22.1242 21.6867 23.4647 22 25 22C26.5353 22 27.8758 21.6867 28.7954 21.2269C29.7749 20.7372 30 20.2456 30 20C30 19.7544 29.7749 19.2628 28.7954 18.7731C27.8758 18.3133 26.5353 18 25 18C23.4647 18 22.1242 18.3133 21.2046 18.7731ZM20.3101 16.9843C21.5621 16.3583 23.2216 16 25 16C26.7784 16 28.4379 16.3583 29.6899 16.9843C30.8819 17.5803 32 18.5887 32 20C32 21.4113 30.8819 22.4197 29.6899 23.0157C28.4379 23.6417 26.7784 24 25 24C23.2216 24 21.5621 23.6417 20.3101 23.0157C19.1181 22.4197 18 21.4113 18 20C18 18.5887 19.1181 17.5803 20.3101 16.9843Z" fill="#0277E7" />
</svg>
    