<svg width="32" height="32" viewBox="0 0 32 32" fill="none" xmlns="http://www.w3.org/2000/svg">
    <path fill-rule="evenodd" clip-rule="evenodd" d="M11.4059 2.56609C11.7965 2.17556 12.4296 2.17556 12.8201 2.56609L15.9313 5.67725L19.0425 2.56609C19.433 2.17556 20.0662 2.17556 20.4567 2.56609C20.8472 2.95661 20.8472 3.58978 20.4567 3.9803L16.6384 7.79857C16.2479 8.18909 15.6147 8.18909 15.2242 7.79857L11.4059 3.9803C11.0154 3.58978 11.0154 2.95661 11.4059 2.56609Z"  />
    <path fill-rule="evenodd" clip-rule="evenodd" d="M15.2242 24.2016C15.6147 23.8111 16.2479 23.8111 16.6384 24.2016L20.4567 28.0199C20.8472 28.4104 20.8472 29.0435 20.4567 29.4341C20.0662 29.8246 19.433 29.8246 19.0425 29.4341L15.9313 26.3229L12.8201 29.4341C12.4296 29.8246 11.7965 29.8246 11.4059 29.4341C11.0154 29.0435 11.0154 28.4104 11.4059 28.0199L15.2242 24.2016Z"  />
    <path fill-rule="evenodd" clip-rule="evenodd" d="M29.8286 18.7977C29.9716 19.3312 29.6551 19.8795 29.1216 20.0225L24.8719 21.1618L26.0104 25.4115C26.1533 25.9449 25.8367 26.4933 25.3032 26.6362C24.7697 26.7791 24.2214 26.4625 24.0785 25.929L22.6813 20.7135C22.5384 20.1801 22.8549 19.6319 23.3883 19.4889L28.6038 18.0907C29.1372 17.9477 29.6856 18.2643 29.8286 18.7977Z"  />
    <path fill-rule="evenodd" clip-rule="evenodd" d="M6.5595 5.3639C7.09297 5.22098 7.64129 5.53759 7.78421 6.07107L9.18141 11.2865C9.32431 11.8199 9.00779 12.3682 8.4744 12.5112L3.25894 13.9093C2.72549 14.0523 2.17711 13.7358 2.03411 13.2024C1.8911 12.6689 2.20762 12.1205 2.74107 11.9775L6.9908 10.8383L5.85233 6.58861C5.70942 6.05514 6.02603 5.50681 6.5595 5.3639Z"  />
</svg>
    