<svg width="32" height="32" viewBox="0 0 32 32" fill="none" xmlns="http://www.w3.org/2000/svg">
    <path fill-rule="evenodd" clip-rule="evenodd" d="M25.3032 5.3639C25.8367 5.50681 26.1533 6.05514 26.0104 6.58861L24.8719 10.8383L29.1216 11.9775C29.6551 12.1205 29.9716 12.6689 29.8286 13.2024C29.6856 13.7358 29.1372 14.0523 28.6038 13.9093L23.3883 12.5112C22.8549 12.3682 22.5384 11.8199 22.6813 11.2865L24.0785 6.07107C24.2214 5.53759 24.7697 5.22098 25.3032 5.3639Z" />
    <path fill-rule="evenodd" clip-rule="evenodd" d="M2.03411 18.7977C2.17711 18.2643 2.72549 17.9477 3.25894 18.0907L8.4744 19.4889C9.00779 19.6319 9.32431 20.1801 9.18141 20.7135L7.78421 25.929C7.64129 26.4625 7.09297 26.7791 6.5595 26.6362C6.02603 26.4933 5.70942 25.9449 5.85233 25.4115L6.9908 21.1618L2.74107 20.0225C2.20762 19.8795 1.8911 19.3312 2.03411 18.7977Z" />
    <path fill-rule="evenodd" clip-rule="evenodd" d="M15.9314 1C16.4837 1 16.9314 1.44772 16.9314 2V30C16.9314 30.5523 16.4837 31 15.9314 31C15.3791 31 14.9314 30.5523 14.9314 30V2C14.9314 1.44772 15.3791 1 15.9314 1Z" />
    <path fill-rule="evenodd" clip-rule="evenodd" d="M2.94128 8.49991C3.21743 8.02162 3.82902 7.85776 4.30731 8.1339L28.5553 22.1339C29.0336 22.4101 29.1975 23.0216 28.9213 23.4999C28.6452 23.9782 28.0336 24.1421 27.5553 23.8659L3.30728 9.86594C2.829 9.58979 2.66513 8.9782 2.94128 8.49991Z" />
    <path fill-rule="evenodd" clip-rule="evenodd" d="M28.9213 8.49991C29.1975 8.9782 29.0336 9.58979 28.5553 9.86594L4.30731 23.8659C3.82902 24.1421 3.21743 23.9782 2.94128 23.4999C2.66513 23.0216 2.829 22.4101 3.30728 22.1339L27.5553 8.1339C28.0336 7.85776 28.6452 8.02162 28.9213 8.49991Z" />
    </svg>
    