<svg width="32" height="32" viewBox="0 0 32 32" fill="none" xmlns="http://www.w3.org/2000/svg">
    <path fill-rule="evenodd" clip-rule="evenodd" d="M31.4351 21.5357C31.8257 21.9262 31.8257 22.5594 31.4351 22.9499L22.9499 31.4352C22.5593 31.8257 21.9262 31.8257 21.5356 31.4352C21.1451 31.0447 21.1451 30.4115 21.5356 30.021L30.0209 21.5357C30.4114 21.1452 31.0446 21.1452 31.4351 21.5357Z" fill="#0277E7" />
    <path fill-rule="evenodd" clip-rule="evenodd" d="M21.5356 21.5357C21.9261 21.1452 22.5593 21.1452 22.9498 21.5357L31.4351 30.021C31.8256 30.4115 31.8256 31.0447 31.4351 31.4352C31.0445 31.8257 30.4114 31.8257 30.0209 31.4352L21.5356 22.9499C21.145 22.5594 21.145 21.9262 21.5356 21.5357Z" fill="#0277E7" />
</svg>
    