<svg width="32" height="32" viewBox="0 0 32 32" fill="none" xmlns="http://www.w3.org/2000/svg">
    <path fill-rule="evenodd" clip-rule="evenodd" d="M20.9498 18.5356C21.3403 18.9261 21.3403 19.5593 20.9498 19.9498L12.4645 28.4351C12.074 28.8256 11.4408 28.8256 11.0503 28.4351C10.6598 28.0446 10.6598 27.4114 11.0503 27.0209L19.5356 18.5356C19.9261 18.1451 20.5593 18.1451 20.9498 18.5356Z" fill="#0277E7" />
    <path fill-rule="evenodd" clip-rule="evenodd" d="M11.0502 18.5356C11.4407 18.1451 12.0739 18.1451 12.4644 18.5356L20.9497 27.0209C21.3402 27.4114 21.3402 28.0446 20.9497 28.4351C20.5592 28.8256 19.926 28.8256 19.5355 28.4351L11.0502 19.9498C10.6597 19.5593 10.6597 18.9261 11.0502 18.5356Z" fill="#0277E7" />
</svg>
    