<svg width="32" height="32" viewBox="0 0 32 32" fill="none" xmlns="http://www.w3.org/2000/svg">
    <path fill-rule="evenodd" clip-rule="evenodd" d="M3.65736 14.4298C4.19315 14.2958 4.73609 14.6216 4.87004 15.1574L8.58067 29.9999H23.4191L27.1298 15.1574C27.2637 14.6216 27.8066 14.2958 28.3424 14.4298C28.8782 14.5637 29.204 15.1066 29.07 15.6424L25.17 31.2424C25.0587 31.6876 24.6588 31.9999 24.1999 31.9999H7.79989C7.34103 31.9999 6.94104 31.6876 6.82975 31.2424L2.92975 15.6424C2.7958 15.1066 3.12156 14.5637 3.65736 14.4298Z"  />
    <path fill-rule="evenodd" clip-rule="evenodd" d="M11.8761 22.0078C12.4241 21.9393 12.9239 22.3281 12.9924 22.8761L13.9924 30.8761C14.0609 31.4241 13.6722 31.9239 13.1241 31.9924C12.5761 32.0609 12.0763 31.6722 12.0078 31.1241L11.0078 23.1241C10.9393 22.5761 11.3281 22.0763 11.8761 22.0078Z"  />
    <path fill-rule="evenodd" clip-rule="evenodd" d="M20.1241 22.0078C20.6722 22.0763 21.0609 22.5761 20.9924 23.1241L19.9924 31.1241C19.9239 31.6722 19.4241 32.0609 18.8761 31.9924C18.3281 31.9239 17.9393 31.4241 18.0078 30.8761L19.0078 22.8761C19.0763 22.3281 19.5761 21.9393 20.1241 22.0078Z"  />
    <path fill-rule="evenodd" clip-rule="evenodd" d="M24.2929 8.29289C24.6834 7.90237 25.3166 7.90237 25.7071 8.29289L26.7071 9.29289C27.0976 9.68342 27.0976 10.3166 26.7071 10.7071C26.3166 11.0976 25.6834 11.0976 25.2929 10.7071L24.2929 9.70711C23.9024 9.31658 23.9024 8.68342 24.2929 8.29289Z"  />
    <path fill-rule="evenodd" clip-rule="evenodd" d="M5.29289 9.29289C5.68342 8.90237 6.31658 8.90237 6.70711 9.29289L7.70711 10.2929C8.09763 10.6834 8.09763 11.3166 7.70711 11.7071C7.31658 12.0976 6.68342 12.0976 6.29289 11.7071L5.29289 10.7071C4.90237 10.3166 4.90237 9.68342 5.29289 9.29289Z"  />
    <path fill-rule="evenodd" clip-rule="evenodd" d="M15.7071 5.29289C16.0976 5.68342 16.0976 6.31658 15.7071 6.70711L14.7071 7.70711C14.3166 8.09763 13.6834 8.09763 13.2929 7.70711C12.9024 7.31658 12.9024 6.68342 13.2929 6.29289L14.2929 5.29289C14.6834 4.90237 15.3166 4.90237 15.7071 5.29289Z"  />
    <path fill-rule="evenodd" clip-rule="evenodd" d="M19 10C19.5523 10 20 10.4477 20 11V12C20 12.5523 19.5523 13 19 13C18.4477 13 18 12.5523 18 12V11C18 10.4477 18.4477 10 19 10Z"  />
</svg>
    