<svg width="32" height="32" viewBox="0 0 32 32" fill="none" xmlns="http://www.w3.org/2000/svg">
    <path fill-rule="evenodd" clip-rule="evenodd" d="M8.23284 4.37075C9.82714 1.76851 12.723 0 16 0C19.2745 0 22.1684 1.76577 23.7634 4.3647C24.2984 4.20262 24.87 4.1 25.5 4.1C29.1523 4.1 32 6.94772 32 10.6C32 14.2641 29.0404 17.1 25.5 17.1C24.2593 17.1 23.1135 16.721 22.1216 16.1079C20.4973 17.6236 18.374 18.5 16 18.5C13.6158 18.5 11.5127 17.5406 9.91275 16.1111C8.92163 16.7372 7.7109 17.1 6.5 17.1C2.83589 17.1 0 14.1404 0 10.6C0 6.93589 2.95961 4.1 6.5 4.1C7.06919 4.1 7.66672 4.20405 8.23284 4.37075ZM16 2C13.201 2 10.7418 3.66448 9.601 6.03382C9.3688 6.51607 8.79805 6.72999 8.30608 6.51915C7.69486 6.25719 7.0305 6.1 6.5 6.1C4.04039 6.1 2 8.06411 2 10.6C2 13.0596 3.96411 15.1 6.5 15.1C7.56162 15.1 8.62351 14.6856 9.33564 14.0526C9.7407 13.6925 10.3589 13.7207 10.7295 14.1161C12.0712 15.5471 13.9183 16.5 16 16.5C18.1064 16.5 19.9355 15.6283 21.2502 14.1384C21.6032 13.7383 22.2081 13.6858 22.6247 14.0191C23.48 14.7033 24.4655 15.1 25.5 15.1C27.9596 15.1 30 13.1359 30 10.6C30 8.05229 28.0477 6.1 25.5 6.1C24.8783 6.1 24.3161 6.2525 23.6939 6.51915C23.202 6.72999 22.6312 6.51607 22.399 6.03382C21.2582 3.66448 18.799 2 16 2Z"  />
</svg>
    