<svg width="32" height="32" viewBox="0 0 32 32" fill="none" xmlns="http://www.w3.org/2000/svg">
    <path fill-rule="evenodd" clip-rule="evenodd" d="M16.438 8.10095C20.774 10.2134 23 14.832 23 19.9999C23 25.1678 20.774 29.7865 16.438 31.8989L15.562 30.101C19.0259 28.4134 21 24.632 21 19.9999C21 15.3678 19.0259 11.5865 15.562 9.89893L16.438 8.10095Z"  />
    <path fill-rule="evenodd" clip-rule="evenodd" d="M16.438 9.89893C12.974 11.5865 11 15.3678 11 19.9999C11 24.632 12.974 28.4134 16.438 30.101L15.562 31.8989C11.226 29.7865 9 25.1678 9 19.9999C9 14.832 11.226 10.2134 15.562 8.10095L16.438 9.89893Z"  />
</svg>
    