<svg width="32" height="32" viewBox="0 0 32 32" fill="none" xmlns="http://www.w3.org/2000/svg">
    <path fill-rule="evenodd" clip-rule="evenodd" d="M17 9V31H15V9H17Z"  />
    <path fill-rule="evenodd" clip-rule="evenodd" d="M18 21H5V19H18C18.5523 19 19 19.4477 19 20C19 20.5523 18.5523 21 18 21Z"  />
    <path fill-rule="evenodd" clip-rule="evenodd" d="M15.101 8.56204C15.3429 8.06555 15.9415 7.85914 16.438 8.10102C19.5227 9.60385 21.5528 12.3917 22.4558 15.7396C22.5997 16.2728 22.284 16.8217 21.7508 16.9655C21.2175 17.1093 20.6687 16.7937 20.5248 16.2604C19.7463 13.3743 18.0435 11.1079 15.562 9.899C15.0655 9.65712 14.8591 9.05854 15.101 8.56204Z"  />
    <path fill-rule="evenodd" clip-rule="evenodd" d="M16.438 9.89899C12.974 11.5865 11 15.3679 11 20C11 24.6321 12.974 28.4135 16.438 30.101L15.562 31.899C11.226 29.7865 9 25.1679 9 20C9 14.8321 11.226 10.2135 15.562 8.10101L16.438 9.89899Z"  />
    <path fill-rule="evenodd" clip-rule="evenodd" d="M16 10C10.4772 10 6 14.4772 6 20C6 25.5228 10.4772 30 16 30C16.5523 30 17 30.4477 17 31C17 31.5523 16.5523 32 16 32C9.37258 32 4 26.6274 4 20C4 13.3726 9.37258 8 16 8C21.8834 8 26.776 12.233 27.8022 17.8193C27.9019 18.3625 27.5425 18.8838 26.9993 18.9835C26.4561 19.0833 25.9349 18.7239 25.8351 18.1807C24.9802 13.5265 20.9009 10 16 10Z"  />
    <path fill-rule="evenodd" clip-rule="evenodd" d="M15 7V8H17V7H15ZM14 5C13.4477 5 13 5.44772 13 6V9C13 9.55228 13.4477 10 14 10H18C18.5523 10 19 9.55228 19 9V6C19 5.44772 18.5523 5 18 5H14Z"  />
    <path fill-rule="evenodd" clip-rule="evenodd" d="M16 7C15.4477 7 15 6.55228 15 6V1C15 0.447715 15.4477 0 16 0C16.5523 0 17 0.447715 17 1V6C17 6.55228 16.5523 7 16 7Z"  />
</svg>
    