<svg width="32" height="32" viewBox="0 0 32 32" fill="none" xmlns="http://www.w3.org/2000/svg">
    <path fill-rule="evenodd" clip-rule="evenodd" d="M0.333252 22C0.333252 21.4477 0.780967 21 1.33325 21H10.6666C11.2189 21 11.6666 21.4477 11.6666 22C11.6666 22.5523 11.2189 23 10.6666 23H1.33325C0.780967 23 0.333252 22.5523 0.333252 22ZM22 22C22 21.4477 22.4477 21 23 21H30.3999C30.9522 21 31.3999 21.4477 31.3999 22C31.3999 22.5523 30.9522 23 30.3999 23H23C22.4477 23 22 22.5523 22 22Z" fill="#2D2E32" />
    <path fill-rule="evenodd" clip-rule="evenodd" d="M15.9999 3.99997C15.0794 3.99997 14.3333 4.74616 14.3333 5.66664C14.3333 6.58711 15.0794 7.3333 15.9999 7.3333C16.9204 7.3333 17.6666 6.58711 17.6666 5.66664C17.6666 4.74616 16.9204 3.99997 15.9999 3.99997ZM12.3333 5.66664C12.3333 3.64159 13.9749 1.99997 15.9999 1.99997C18.025 1.99997 19.6666 3.64159 19.6666 5.66664C19.6666 7.69168 18.025 9.3333 15.9999 9.3333C13.9749 9.3333 12.3333 7.69168 12.3333 5.66664Z" fill="#2D2E32" />
    <path fill-rule="evenodd" clip-rule="evenodd" d="M15.9998 9.33331C9.21879 9.33331 3.6665 14.8856 3.6665 21.6666C3.6665 22.2189 3.21879 22.6666 2.6665 22.6666C2.11422 22.6666 1.6665 22.2189 1.6665 21.6666C1.6665 13.781 8.11422 7.33331 15.9998 7.33331C23.8855 7.33331 30.3332 13.781 30.3332 21.6666C30.3332 22.2189 29.8855 22.6666 29.3332 22.6666C28.7809 22.6666 28.3332 22.2189 28.3332 21.6666C28.3332 14.8856 22.7809 9.33331 15.9998 9.33331Z" fill="#2D2E32" />
</svg>
    