<svg width="32" height="32" viewBox="0 0 32 32" fill="none" xmlns="http://www.w3.org/2000/svg">
    <path fill-rule="evenodd" clip-rule="evenodd" d="M0.333252 30.6666C0.333252 30.1143 0.780967 29.6666 1.33325 29.6666H30.3999C30.9522 29.6666 31.3999 30.1143 31.3999 30.6666C31.3999 31.2189 30.9522 31.6666 30.3999 31.6666H1.33325C0.780967 31.6666 0.333252 31.2189 0.333252 30.6666Z" fill="#2D2E32" />
    <path fill-rule="evenodd" clip-rule="evenodd" d="M15.9999 13C15.0794 13 14.3333 13.7462 14.3333 14.6666C14.3333 15.5871 15.0794 16.3333 15.9999 16.3333C16.9204 16.3333 17.6666 15.5871 17.6666 14.6666C17.6666 13.7462 16.9204 13 15.9999 13ZM12.3333 14.6666C12.3333 12.6416 13.9749 11 15.9999 11C18.025 11 19.6666 12.6416 19.6666 14.6666C19.6666 16.6917 18.025 18.3333 15.9999 18.3333C13.9749 18.3333 12.3333 16.6917 12.3333 14.6666Z" fill="#2D2E32" />
    <path fill-rule="evenodd" clip-rule="evenodd" d="M15.9998 18.3333C14.8803 18.3333 13.7955 18.4844 12.7641 18.7668C12.2314 18.9127 11.6814 18.5991 11.5355 18.0664C11.3896 17.5337 11.7032 16.9837 12.2359 16.8378C13.4372 16.5089 14.6996 16.3333 15.9998 16.3333C17.3001 16.3333 18.5625 16.5089 19.7638 16.8378C20.2964 16.9837 20.61 17.5337 20.4642 18.0664C20.3183 18.5991 19.7682 18.9127 19.2356 18.7668C18.2042 18.4844 17.1194 18.3333 15.9998 18.3333ZM4.36623 24.0962C4.86541 24.3325 5.0785 24.9287 4.84219 25.4279C4.08857 27.0198 3.6665 28.7955 3.6665 30.6666C3.6665 31.2189 3.21879 31.6666 2.6665 31.6666C2.11422 31.6666 1.6665 31.2189 1.6665 30.6666C1.6665 28.4917 2.15766 26.4244 3.03452 24.5721C3.27083 24.0729 3.86706 23.8599 4.36623 24.0962ZM27.6334 24.0962C28.1326 23.8599 28.7288 24.0729 28.9652 24.5721C29.842 26.4244 30.3332 28.4917 30.3332 30.6666C30.3332 31.2189 29.8855 31.6666 29.3332 31.6666C28.7809 31.6666 28.3332 31.2189 28.3332 30.6666C28.3332 28.7955 27.9111 27.0198 27.1575 25.4279C26.9212 24.9287 27.1343 24.3325 27.6334 24.0962Z" fill="#2D2E32" />
</svg>
    