<svg width="33" height="32" viewBox="0 0 33 32" fill="none" xmlns="http://www.w3.org/2000/svg">
    <path fill-rule="evenodd" clip-rule="evenodd" d="M19.5 18.5C19.5 17.9477 19.9477 17.5 20.5 17.5H31.5C32.0523 17.5 32.5 17.9477 32.5 18.5C32.5 19.0523 32.0523 19.5 31.5 19.5H20.5C19.9477 19.5 19.5 19.0523 19.5 18.5Z" fill="#0277E7" />
    <path fill-rule="evenodd" clip-rule="evenodd" d="M16.5 2.5C15.9696 2.5 15.4609 2.71071 15.0858 3.08579C14.7107 3.46086 14.5 3.96957 14.5 4.5V6.878C14.5 7.43028 14.0523 7.878 13.5 7.878C12.9477 7.878 12.5 7.43028 12.5 6.878V4.5C12.5 3.43913 12.9214 2.42172 13.6716 1.67157C14.4217 0.921427 15.4391 0.5 16.5 0.5C17.5609 0.5 18.5783 0.921427 19.3284 1.67157C20.0786 2.42172 20.5 3.43913 20.5 4.5V6.878C20.5 7.43028 20.0523 7.878 19.5 7.878C18.9477 7.878 18.5 7.43028 18.5 6.878V4.5C18.5 3.96957 18.2893 3.46086 17.9142 3.08579C17.5391 2.71071 17.0304 2.5 16.5 2.5Z" fill="#0277E7" />
    <path fill-rule="evenodd" clip-rule="evenodd" d="M19.8703 8.02732C17.6539 7.31392 15.2682 7.32224 13.0568 8.05108C10.8454 8.77993 8.92228 10.1917 7.56436 12.0832C7.24227 12.5318 6.61747 12.6344 6.16884 12.3123C5.7202 11.9902 5.61761 11.3654 5.9397 10.9168C7.54451 8.68142 9.81726 7.01296 12.4308 6.15159C15.0442 5.29023 17.8637 5.28039 20.4831 6.12351C23.1025 6.96662 25.3869 8.61919 27.0072 10.8433C28.6276 13.0674 29.5004 15.7483 29.5 18.5001C29.5 19.0524 29.0522 19.5 28.4999 19.5C27.9476 19.4999 27.5 19.0521 27.5 18.4998C27.5004 16.1714 26.7618 13.9029 25.3907 12.021C24.0196 10.1391 22.0868 8.74072 19.8703 8.02732Z" fill="#0277E7" />
</svg>
    