<svg width="32" height="32" viewBox="0 0 32 32" fill="none" xmlns="http://www.w3.org/2000/svg">
    <path fill-rule="evenodd" clip-rule="evenodd" d="M7 9C7 8.44772 7.44772 8 8 8H20C20.5523 8 21 8.44772 21 9V17C21 17.5523 20.5523 18 20 18C19.4477 18 19 17.5523 19 17V10H9V29C9 29.2652 9.10536 29.5196 9.29289 29.7071C9.48043 29.8946 9.73478 30 10 30H16C16.5523 30 17 30.4477 17 31C17 31.5523 16.5523 32 16 32H10C9.20435 32 8.44129 31.6839 7.87868 31.1213C7.31607 30.5587 7 29.7957 7 29V9Z"  />
    <path fill-rule="evenodd" clip-rule="evenodd" d="M12.2323 17.3593C12.4223 17.1316 12.7035 17 13 17H26C26.2965 17 26.5778 17.1316 26.7678 17.3593C26.9578 17.5869 27.0369 17.8871 26.9839 18.1789L24.6202 31.1789C24.5338 31.6544 24.1197 32 23.6364 32H15.3636C14.8804 32 14.4662 31.6544 14.3798 31.1789L12.0161 18.1789C11.9631 17.8871 12.0423 17.5869 12.2323 17.3593ZM14.1982 19L16.1982 30H22.8018L24.8018 19H14.1982Z"  />
    <path fill-rule="evenodd" clip-rule="evenodd" d="M6 1C6 0.447715 6.44772 0 7 0H12C12.5043 0 12.9297 0.375536 12.9923 0.875965L13.9923 8.87597C14.0608 9.42399 13.6721 9.92378 13.124 9.99228C12.576 10.0608 12.0762 9.67205 12.0077 9.12403L11.1172 2H7C6.44772 2 6 1.55228 6 1Z"  />
</svg>
    