<svg width="32" height="32" viewBox="0 0 32 32" fill="none" xmlns="http://www.w3.org/2000/svg">
    <path fill-rule="evenodd" clip-rule="evenodd" d="M21.9819 24.1896C21.0974 24.8855 20.4188 25.7309 20.0201 26.2954L19.2033 25.7185L20.0227 26.2916C20.0079 26.3128 20 26.338 20 26.3638C20 26.3892 20.0077 26.414 20.022 26.4349C20.421 26.9994 21.0988 27.8432 21.9819 28.5379C22.8685 29.2354 23.8903 29.7275 25 29.7275C26.1097 29.7275 27.1315 29.2354 28.0181 28.5379C28.9026 27.842 29.5812 26.9966 29.9799 26.4321L30.7967 27.0091L29.9773 26.4359C29.9921 26.4148 30 26.3896 30 26.3638C30 26.3384 29.9923 26.3136 29.978 26.2926C29.579 25.7281 28.9012 24.8844 28.0181 24.1896C27.1315 23.4921 26.1097 23 25 23C23.8903 23 22.8685 23.4921 21.9819 24.1896ZM20.7453 22.6178C21.836 21.7597 23.2837 21 25 21C26.7163 21 28.164 21.7597 29.2547 22.6178C30.3475 23.4774 31.1542 24.4913 31.6135 25.1415L31.6162 25.1453L31.6162 25.1453C31.866 25.5025 32 25.9279 32 26.3638C32 26.7997 31.866 27.225 31.6162 27.5822L31.6135 27.586C31.1542 28.2363 30.3475 29.2501 29.2547 30.1098C28.164 30.9678 26.7163 31.7275 25 31.7275C23.2837 31.7275 21.836 30.9678 20.7453 30.1098C19.6525 29.2501 18.8458 28.2363 18.3865 27.586L18.3838 27.5822L18.3838 27.5822C18.134 27.225 18 26.7997 18 26.3638C18 25.9279 18.134 25.5025 18.3838 25.1453L18.3865 25.1415L18.3865 25.1415C18.8458 24.4913 19.6525 23.4774 20.7453 22.6178Z"  />
    <path fill-rule="evenodd" clip-rule="evenodd" d="M25 26C24.7239 26 24.5 26.2239 24.5 26.5C24.5 26.7761 24.7239 27 25 27C25.2761 27 25.5 26.7761 25.5 26.5C25.5 26.2239 25.2761 26 25 26ZM22.5 26.5C22.5 25.1193 23.6193 24 25 24C26.3807 24 27.5 25.1193 27.5 26.5C27.5 27.8807 26.3807 29 25 29C23.6193 29 22.5 27.8807 22.5 26.5Z"  />
</svg>
    