<svg width="32" height="32" viewBox="0 0 32 32" fill="none" xmlns="http://www.w3.org/2000/svg">
    <path fill-rule="evenodd" clip-rule="evenodd" d="M17.7273 5.09106C17.7273 4.53878 18.175 4.09106 18.7273 4.09106H31C31.5523 4.09106 32 4.53878 32 5.09106C32 5.64335 31.5523 6.09106 31 6.09106H18.7273C18.175 6.09106 17.7273 5.64335 17.7273 5.09106Z" fill="#2D2E32" />
    <path fill-rule="evenodd" clip-rule="evenodd" d="M0 5.09106C0 4.53878 0.447715 4.09106 1 4.09106H5.09091C5.64319 4.09106 6.09091 4.53878 6.09091 5.09106C6.09091 5.64335 5.64319 6.09106 5.09091 6.09106H1C0.447715 6.09106 0 5.64335 0 5.09106Z" fill="#2D2E32" />
    <path fill-rule="evenodd" clip-rule="evenodd" d="M28.6365 16.0002C28.6365 15.448 29.0842 15.0002 29.6365 15.0002H31.0001C31.5524 15.0002 32.0001 15.448 32.0001 16.0002C32.0001 16.5525 31.5524 17.0002 31.0001 17.0002H29.6365C29.0842 17.0002 28.6365 16.5525 28.6365 16.0002Z" fill="#2D2E32" />
    <path fill-rule="evenodd" clip-rule="evenodd" d="M0 16.0002C0 15.448 0.447715 15.0002 1 15.0002H16C16.5523 15.0002 17 15.448 17 16.0002C17 16.5525 16.5523 17.0002 16 17.0002H1C0.447715 17.0002 0 16.5525 0 16.0002Z" fill="#2D2E32" />
    <path fill-rule="evenodd" clip-rule="evenodd" d="M17.7273 26.9092C17.7273 26.3569 18.175 25.9092 18.7273 25.9092H31C31.5523 25.9092 32 26.3569 32 26.9092C32 27.4615 31.5523 27.9092 31 27.9092H18.7273C18.175 27.9092 17.7273 27.4615 17.7273 26.9092Z" fill="#2D2E32" />
    <path fill-rule="evenodd" clip-rule="evenodd" d="M0 26.9092C0 26.3569 0.447715 25.9092 1 25.9092H5.09091C5.64319 25.9092 6.09091 26.3569 6.09091 26.9092C6.09091 27.4615 5.64319 27.9092 5.09091 27.9092H1C0.447715 27.9092 0 27.4615 0 26.9092Z" fill="#2D2E32" />
</svg>
    