<svg width="32" height="32" viewBox="0 0 32 32" fill="none" xmlns="http://www.w3.org/2000/svg">
    <path fill-rule="evenodd" clip-rule="evenodd" d="M5.09106 14.2727C4.53878 14.2727 4.09106 13.825 4.09106 13.2727L4.09106 0.999977C4.09106 0.447692 4.53878 -2.29078e-05 5.09106 -2.29319e-05C5.64335 -2.2956e-05 6.09106 0.447692 6.09106 0.999977L6.09106 13.2727C6.09106 13.825 5.64335 14.2727 5.09106 14.2727Z" fill="#2D2E32" />
    <path fill-rule="evenodd" clip-rule="evenodd" d="M5.09106 32C4.53878 32 4.09106 31.5523 4.09106 31L4.09106 26.9091C4.09106 26.3568 4.53878 25.9091 5.09106 25.9091C5.64335 25.9091 6.09106 26.3568 6.09106 26.9091L6.09106 31C6.09106 31.5523 5.64335 32 5.09106 32Z" fill="#2D2E32" />
    <path fill-rule="evenodd" clip-rule="evenodd" d="M16.0002 3.36353C15.448 3.36353 15.0002 2.91581 15.0002 2.36353L15.0002 0.999887C15.0002 0.447603 15.448 -0.000112553 16.0002 -0.000112577C16.5525 -0.000112601 17.0002 0.447603 17.0002 0.999887L17.0002 2.36353C17.0002 2.91581 16.5525 3.36353 16.0002 3.36353Z" fill="#2D2E32" />
    <path fill-rule="evenodd" clip-rule="evenodd" d="M16.0002 32C15.448 32 15.0002 31.5523 15.0002 31L15.0002 16C15.0002 15.4477 15.448 15 16.0002 15C16.5525 15 17.0002 15.4477 17.0002 16L17.0002 31C17.0002 31.5523 16.5525 32 16.0002 32Z" fill="#2D2E32" />
    <path fill-rule="evenodd" clip-rule="evenodd" d="M26.9092 14.2727C26.3569 14.2727 25.9092 13.825 25.9092 13.2727L25.9092 0.999977C25.9092 0.447692 26.3569 -2.29078e-05 26.9092 -2.29319e-05C27.4615 -2.2956e-05 27.9092 0.447692 27.9092 0.999977L27.9092 13.2727C27.9092 13.825 27.4615 14.2727 26.9092 14.2727Z" fill="#2D2E32" />
    <path fill-rule="evenodd" clip-rule="evenodd" d="M26.9092 32C26.3569 32 25.9092 31.5523 25.9092 31L25.9092 26.9091C25.9092 26.3568 26.3569 25.9091 26.9092 25.9091C27.4615 25.9091 27.9092 26.3568 27.9092 26.9091L27.9092 31C27.9092 31.5523 27.4615 32 26.9092 32Z" fill="#2D2E32" />
</svg>
    