<svg width="32" height="32" viewBox="0 0 32 32" fill="none" xmlns="http://www.w3.org/2000/svg">
    <path fill-rule="evenodd" clip-rule="evenodd" d="M9.18173 2C7.47467 2 6.09082 3.38385 6.09082 5.09091C6.09082 6.79797 7.47467 8.18182 9.18173 8.18182C10.8888 8.18182 12.2726 6.79797 12.2726 5.09091C12.2726 3.38385 10.8888 2 9.18173 2ZM4.09082 5.09091C4.09082 2.27928 6.3701 0 9.18173 0C11.9934 0 14.2726 2.27928 14.2726 5.09091C14.2726 7.90254 11.9934 10.1818 9.18173 10.1818C6.3701 10.1818 4.09082 7.90254 4.09082 5.09091Z" fill="#0277E7" />
    <path fill-rule="evenodd" clip-rule="evenodd" d="M20.0909 12.9092C18.3838 12.9092 17 14.293 17 16.0001C17 17.7072 18.3838 19.091 20.0909 19.091C21.798 19.091 23.1818 17.7072 23.1818 16.0001C23.1818 14.293 21.798 12.9092 20.0909 12.9092ZM15 16.0001C15 13.1885 17.2793 10.9092 20.0909 10.9092C22.9025 10.9092 25.1818 13.1885 25.1818 16.0001C25.1818 18.8117 22.9025 21.091 20.0909 21.091C17.2793 21.091 15 18.8117 15 16.0001Z" fill="#0277E7" />
    <path fill-rule="evenodd" clip-rule="evenodd" d="M9.18173 23.8181C7.47467 23.8181 6.09082 25.202 6.09082 26.909C6.09082 28.6161 7.47467 29.9999 9.18173 29.9999C10.8888 29.9999 12.2726 28.6161 12.2726 26.909C12.2726 25.202 10.8888 23.8181 9.18173 23.8181ZM4.09082 26.909C4.09082 24.0974 6.3701 21.8181 9.18173 21.8181C11.9934 21.8181 14.2726 24.0974 14.2726 26.909C14.2726 29.7207 11.9934 31.9999 9.18173 31.9999C6.3701 31.9999 4.09082 29.7207 4.09082 26.909Z" fill="#0277E7" />
</svg>
    