<svg width="32" height="32" viewBox="0 0 32 32" fill="none" xmlns="http://www.w3.org/2000/svg">
    <path fill-rule="evenodd" clip-rule="evenodd" d="M2.01078 10.5091C2.00101 10.5781 1.99411 10.6884 2.00663 10.8545C2.03492 11.2297 2.15132 11.7202 2.34749 12.2723C2.74201 13.3829 3.38246 14.5329 3.92169 15.18C4.23073 15.5508 4.23073 16.0895 3.92169 16.4604C3.38246 17.1074 2.74201 18.2575 2.34749 19.368C2.15132 19.9202 2.03492 20.4106 2.00663 20.7858C1.99416 20.9512 2.00095 21.0613 2.01065 21.1303C2.09423 21.1429 2.23937 21.1515 2.47262 21.1248C2.9205 21.0735 3.49223 20.9128 4.11084 20.6698C5.37559 20.1729 6.55444 19.4471 6.98245 19.0191C7.03954 18.962 7.08802 18.9126 7.12937 18.869C6.69245 18.1829 6.37689 17.52 6.23042 16.89C6.05759 16.47 6.0588 16.0729 6.05947 15.8563C6.0595 15.8436 6.05954 15.8316 6.05954 15.8202C6.05954 15.8088 6.0595 15.7967 6.05947 15.784C6.0588 15.5675 6.05759 15.1703 6.23042 14.7504C6.37618 14.1234 6.68939 13.4639 7.12302 12.7813C7.08173 12.7292 7.03994 12.6806 6.99961 12.6387C6.47357 12.1746 5.28063 11.4545 4.05978 10.9691C3.44782 10.7258 2.88898 10.5661 2.45292 10.5153C2.23084 10.4894 2.09175 10.4971 2.01078 10.5091ZM4.7987 9.11057C6.17589 9.65813 7.61324 10.5001 8.35852 11.1708C8.37155 11.1825 8.38426 11.1946 8.39666 11.207C8.73728 11.5476 9.04861 12.0181 9.21399 12.3489C9.37964 12.6802 9.34859 13.0759 9.1333 13.3774C8.53654 14.2128 8.2516 14.8329 8.16612 15.2603C8.14869 15.3474 8.11972 15.4319 8.07997 15.5114L8.07986 15.5116C8.07858 15.5141 8.07261 15.5258 8.06757 15.5662C8.06081 15.6202 8.05954 15.684 8.05954 15.8202C8.05954 15.9563 8.06081 16.0201 8.06757 16.0741C8.07261 16.1145 8.07858 16.1262 8.07986 16.1288L8.07997 16.129C8.11972 16.2085 8.14869 16.2929 8.16612 16.3801C8.2516 16.8074 8.53654 17.4275 9.1333 18.263C9.31926 18.5233 9.36942 18.8569 9.26825 19.1605C9.06638 19.7661 8.66728 20.1637 8.42804 20.402C8.41724 20.4128 8.40677 20.4232 8.39666 20.4333C7.69064 21.1394 6.22344 21.9886 4.84215 22.5313C4.13774 22.808 3.38644 23.0332 2.7003 23.1118C2.07303 23.1837 1.21887 23.1666 0.599072 22.6157C0.567839 22.5879 0.538377 22.5582 0.510859 22.5268C0.017842 21.9633 -0.0307641 21.2065 0.0122931 20.6355C0.0588184 20.0184 0.233803 19.3433 0.462887 18.6985C0.818235 17.6982 1.34944 16.6455 1.90773 15.8202C1.34944 14.9949 0.818235 13.9421 0.462887 12.9419C0.233802 12.297 0.0588184 11.622 0.0122931 11.0049C-0.0307641 10.4338 0.017842 9.67701 0.510859 9.11356C0.538377 9.08211 0.567839 9.05242 0.599072 9.02465C1.21688 8.47549 2.06006 8.45593 2.68456 8.52876C3.36284 8.60785 4.10339 8.83412 4.7987 9.11057Z" fill="#0277E7" />
</svg>
    