<svg width="32" height="32" viewBox="0 0 32 32" fill="none" xmlns="http://www.w3.org/2000/svg">
    <path fill-rule="evenodd" clip-rule="evenodd" d="M9.13073 13.3809C8.53568 14.2146 8.25143 14.8335 8.16607 15.2603C8.14864 15.3474 8.11967 15.4319 8.07992 15.5114L8.07981 15.5116C8.07853 15.5141 8.07256 15.5258 8.06752 15.5662C8.06076 15.6202 8.05949 15.684 8.05949 15.8202C8.05949 15.9563 8.06076 16.0201 8.06752 16.0741C8.07256 16.1145 8.07853 16.1262 8.07981 16.1287L8.07992 16.129C8.11967 16.2085 8.14864 16.2929 8.16607 16.3801C8.25143 16.8068 8.53568 17.4258 9.13072 18.2594C10.9926 20.8171 15.1197 23.6403 19.7857 23.6403C21.8744 23.6403 24.4784 22.7503 26.5588 21.2601C28.6534 19.7597 29.9999 17.8176 29.9999 15.8202C29.9999 13.8227 28.6534 11.8806 26.5588 10.3802C24.4784 8.89007 21.8744 8 19.7857 8C15.1197 8 10.9927 10.8232 9.13073 13.3809ZM7.51078 12.2079C9.6821 9.22236 14.3736 6 19.7857 6C22.3591 6 25.3622 7.06297 27.7234 8.75434C30.0704 10.4355 31.9999 12.9035 31.9999 15.8202C31.9999 18.7368 30.0704 21.2048 27.7234 22.886C25.3622 24.5773 22.3591 25.6403 19.7857 25.6403C14.3736 25.6403 9.6821 22.418 7.51078 19.4324L7.50575 19.4255L7.50578 19.4255C6.87365 18.5405 6.41609 17.6888 6.23037 16.8899C6.05754 16.47 6.05875 16.0729 6.05941 15.8563C6.05945 15.8436 6.05949 15.8316 6.05949 15.8202C6.05949 15.8088 6.05945 15.7967 6.05941 15.784C6.05875 15.5675 6.05754 15.1703 6.23037 14.7504C6.41609 13.9516 6.87365 13.0998 7.50578 12.2149L7.51075 12.2079L7.51078 12.2079Z"  />
    <path fill-rule="evenodd" clip-rule="evenodd" d="M19.4078 11.1501C16.64 11.1501 14.0231 12.9579 12.9134 14.5115C12.5924 14.9609 11.9679 15.065 11.5184 14.7439C11.069 14.4229 10.9649 13.7984 11.286 13.349C12.6963 11.3744 15.8755 9.15015 19.4078 9.15015C19.9601 9.15015 20.4078 9.59786 20.4078 10.1501C20.4078 10.7024 19.9601 11.1501 19.4078 11.1501Z"  />
    <path fill-rule="evenodd" clip-rule="evenodd" d="M23 15C23 13.8954 23.8954 13 25 13C26.1046 13 27 13.8954 27 15C27 16.1046 26.1046 17 25 17C23.8954 17 23 16.1046 23 15Z"  />
</svg>
    