<svg width="32" height="35" viewBox="0 0 32 35" fill="none" xmlns="http://www.w3.org/2000/svg">
    <path fill-rule="evenodd" clip-rule="evenodd" d="M16 5C8.26801 5 2 11.268 2 19C2 26.732 8.26801 33 16 33C16.5523 33 17 33.4477 17 34C17 34.5523 16.5523 35 16 35C7.16344 35 0 27.8366 0 19C0 10.1634 7.16344 3 16 3H31C31.5523 3 32 3.44772 32 4C32 4.55228 31.5523 5 31 5H16Z" fill="#2D2E32" />
    <path fill-rule="evenodd" clip-rule="evenodd" d="M31 18C31.5523 18 32 18.4477 32 19C32 19.7074 31.954 20.4045 31.8648 21.0885C31.7934 21.6361 31.2915 22.0222 30.7439 21.9507C30.1962 21.8793 29.8102 21.3774 29.8816 20.8298C29.9597 20.2314 30 19.6206 30 19C30 18.4477 30.4477 18 31 18ZM30.2448 23.8181C30.755 24.0296 30.9971 24.6147 30.7855 25.1249C30.2459 26.4262 29.5397 27.6404 28.6939 28.7411C28.3574 29.179 27.7296 29.2612 27.2917 28.9247C26.8537 28.5882 26.7716 27.9604 27.1081 27.5224C27.8486 26.5588 28.4663 25.4964 28.9381 24.3588C29.1496 23.8486 29.7347 23.6065 30.2448 23.8181ZM25.9247 30.2917C26.2612 30.7296 26.179 31.3574 25.7411 31.6939C24.6404 32.5397 23.4262 33.2459 22.1249 33.7855C21.6147 33.9971 21.0296 33.755 20.8181 33.2448C20.6065 32.7347 20.8486 32.1496 21.3588 31.9381C22.4964 31.4663 23.5588 30.8486 24.5224 30.1081C24.9604 29.7716 25.5882 29.8537 25.9247 30.2917ZM18.9507 33.7439C19.0222 34.2915 18.6361 34.7934 18.0885 34.8648C17.4045 34.954 16.7074 35 16 35C15.4477 35 15 34.5523 15 34C15 33.4477 15.4477 33 16 33C16.6206 33 17.2314 32.9597 17.8298 32.8816C18.3774 32.8102 18.8793 33.1962 18.9507 33.7439Z" fill="#2D2E32" />
    <path fill-rule="evenodd" clip-rule="evenodd" d="M27.2929 0.292893C27.6834 -0.0976311 28.3166 -0.0976311 28.7071 0.292893L31.7071 3.29289C32.0976 3.68342 32.0976 4.31658 31.7071 4.70711L28.7071 7.70711C28.3166 8.09763 27.6834 8.09763 27.2929 7.70711C26.9024 7.31658 26.9024 6.68342 27.2929 6.29289L29.5858 4L27.2929 1.70711C26.9024 1.31658 26.9024 0.683417 27.2929 0.292893Z" fill="#2D2E32" />
    <path fill-rule="evenodd" clip-rule="evenodd" d="M16 10C11.0294 10 7 14.0294 7 19C7 23.9706 11.0294 28 16 28C20.9706 28 25 23.9706 25 19C25 14.0294 20.9706 10 16 10ZM5 19C5 12.9249 9.92487 8 16 8C22.0751 8 27 12.9249 27 19C27 25.0751 22.0751 30 16 30C9.92487 30 5 25.0751 5 19Z" fill="#2D2E32" />
</svg>
    