<svg width="33" height="33" viewBox="0 0 33 33" fill="none" xmlns="http://www.w3.org/2000/svg">
    <path fill-rule="evenodd" clip-rule="evenodd" d="M7 9C7 8.44772 7.44772 8 8 8H20C20.5523 8 21 8.44772 21 9V16C21 16.5523 20.5523 17 20 17C19.4477 17 19 16.5523 19 16V10H9V29C9 29.2652 9.10536 29.5196 9.29289 29.7071C9.48043 29.8946 9.73478 30 10 30H16C16.5523 30 17 30.4477 17 31C17 31.5523 16.5523 32 16 32H10C9.20435 32 8.44129 31.6839 7.87868 31.1213C7.31607 30.5587 7 29.7957 7 29V9Z" fill="#2D2E32" />
    <path fill-rule="evenodd" clip-rule="evenodd" d="M6 1C6 0.447715 6.44772 0 7 0H12C12.5043 0 12.9297 0.375536 12.9923 0.875965L13.9923 8.87597C14.0608 9.42399 13.6721 9.92378 13.124 9.99228C12.576 10.0608 12.0762 9.67205 12.0077 9.12403L11.1172 2H7C6.44772 2 6 1.55228 6 1Z" fill="#2D2E32" />
</svg>
    