<svg width="32" height="32" viewBox="0 0 32 32" fill="none" xmlns="http://www.w3.org/2000/svg">
    <path fill-rule="evenodd" clip-rule="evenodd" d="M14.0816 12.1685C14.4431 11.919 14.925 11.9345 15.2696 12.2069C17.5014 13.9704 18.1852 16.2988 18.3177 18.124C18.3837 19.0345 18.3149 19.8345 18.2299 20.4076C18.1873 20.6952 18.1402 20.9287 18.1026 21.094C18.0838 21.1768 18.0674 21.2427 18.055 21.2901C18.0488 21.3138 18.0437 21.3329 18.0397 21.3471L18.0347 21.3649L18.033 21.371L18.0323 21.3733L18.032 21.3743C18.0319 21.3748 18.0318 21.3752 17.0719 21.0946L18.0318 21.3752C18.029 21.3847 18.026 21.3942 18.023 21.4036C18.023 21.4037 18.0229 21.4038 18.0229 21.4038L18.0227 21.4044C18.0227 21.4045 18.0227 21.4046 18.0226 21.4047C18.0226 21.4047 18.0226 21.4048 18.0226 21.4048C18.0226 21.4049 18.0225 21.4051 18.0225 21.4052L18.0223 21.4057L18.0173 21.4218C18.0124 21.4376 18.0048 21.4629 17.9951 21.4967C17.9757 21.5644 17.9484 21.6647 17.9195 21.7878C17.8606 22.0382 17.7993 22.3631 17.777 22.6903C17.7539 23.0303 17.7784 23.2992 17.8369 23.4749C17.8587 23.5403 17.8791 23.5782 17.8967 23.6008C17.9281 23.5818 17.9731 23.5501 18.0338 23.498C18.269 23.296 18.5391 22.9433 18.8095 22.4978C19.0712 22.0668 19.2963 21.611 19.4579 21.2567C19.5379 21.0811 19.6008 20.9341 19.6432 20.8321C19.6643 20.7812 19.6803 20.7418 19.6906 20.7159L19.7019 20.6875L19.7042 20.6815L19.7043 20.6812L19.7045 20.6809C19.8488 20.3071 20.2023 20.0556 20.6027 20.0417C21.0032 20.0278 21.3733 20.2544 21.5431 20.6175C23.1093 23.9659 22.9989 26.4788 22.3824 28.2124C22.0794 29.0646 21.6658 29.6944 21.3191 30.1176C21.1458 30.3292 20.9887 30.4899 20.8691 30.6021C20.8093 30.6582 20.7587 30.7024 20.72 30.7348C20.7006 30.7511 20.6842 30.7644 20.671 30.7749L20.6537 30.7885L20.647 30.7937L20.6441 30.7959L20.6428 30.7969C20.6421 30.7973 20.6415 30.7978 20.0386 30.0001L20.6415 30.7978C20.2009 31.1308 19.5738 31.0436 19.2408 30.603C18.91 30.1653 18.9939 29.5436 19.4269 29.2089L19.4352 29.2021C19.4468 29.1924 19.4694 29.1729 19.5006 29.1437C19.563 29.085 19.6594 28.9877 19.7718 28.8504C19.9967 28.5758 20.2839 28.1442 20.498 27.5423C20.8075 26.6719 20.9915 25.3668 20.5075 23.5548C20.2011 24.0572 19.8051 24.613 19.3369 25.0152C18.8788 25.4087 18.1143 25.8424 17.2321 25.5053C16.5145 25.2311 16.1249 24.6636 15.9395 24.1072C15.7633 23.5784 15.7504 23.0133 15.7817 22.5543C15.8138 22.0825 15.8988 21.6437 15.9726 21.3299C16.01 21.1709 16.0457 21.0392 16.0726 20.9452C16.0861 20.8982 16.0975 20.8604 16.1059 20.8331L16.1134 20.8092L16.1199 20.7847C16.1272 20.7569 16.1385 20.7118 16.1523 20.6511C16.1799 20.5295 16.2172 20.3462 16.2516 20.1144C16.3206 19.6486 16.3759 18.9995 16.3229 18.2687C16.2651 17.4719 16.0813 16.5958 15.6554 15.7509C15.3671 17.5118 14.5249 19.9262 12.41 22.8329L12.3982 22.8487C11.3896 24.1792 10.7469 25.1653 10.5571 26.1006C10.3906 26.9212 10.5515 27.8458 11.609 29.121C11.9616 29.5462 11.9027 30.1766 11.4776 30.5291C11.0525 30.8817 10.4221 30.8228 10.0695 30.3977C8.73196 28.7847 8.28055 27.2623 8.59709 25.7028C8.88976 24.2608 9.82244 22.9362 10.7984 21.6484C12.7909 18.9078 13.4831 16.7457 13.6983 15.3224C13.8064 14.6075 13.7956 14.0691 13.7633 13.7261C13.7472 13.5543 13.7255 13.4307 13.7104 13.3578C13.7028 13.3213 13.6968 13.2974 13.6939 13.2865C13.6933 13.284 13.6928 13.2823 13.6925 13.2811C13.5667 12.8656 13.7235 12.4156 14.0816 12.1685ZM17.8392 23.627C17.8394 23.6262 17.845 23.6239 17.8553 23.6226C17.8442 23.6272 17.839 23.6279 17.8392 23.627ZM17.9384 23.6343C17.9409 23.6352 17.9434 23.6361 17.946 23.6371C17.945 23.6367 17.944 23.6364 17.9429 23.636C17.9415 23.6355 17.94 23.6349 17.9384 23.6343Z"  />
</svg>
    