<svg width="32" height="32" viewBox="0 0 32 32" fill="none" xmlns="http://www.w3.org/2000/svg">
    <path d="M24.825 24L24.4 22.4H21.62L21.187 24H18.644L21.438 15.4H24.526L27.356 24H24.825ZM23.925 20.5L23.556 19.094C23.47 18.7814 23.3654 18.377 23.242 17.881C23.1187 17.385 23.038 17.0284 23 16.811C22.9647 17.011 22.8954 17.339 22.792 17.795C22.6887 18.251 22.458 19.1527 22.1 20.5H23.925Z"  />
    <path fill-rule="evenodd" clip-rule="evenodd" d="M24.4 22.4L24.825 24H27.356L24.526 15.4H21.438L18.644 24H21.187L21.62 22.4H24.4ZM20.4217 23L20.6548 22.1388C20.7728 21.7028 21.1684 21.4 21.62 21.4H21.6642C21.526 21.3331 21.4033 21.2345 21.3073 21.1096C21.118 20.8635 21.0538 20.5433 21.1336 20.2432C21.4923 18.893 21.7182 18.0091 21.8168 17.574C21.8441 17.4534 21.8687 17.3432 21.8907 17.2431L20.0204 23H20.4217ZM24.2193 17.667C24.3386 18.1463 24.4388 18.5328 24.5202 18.8288L24.5234 18.8402L24.8923 20.2462C24.971 20.546 24.9062 20.8654 24.7168 21.1108C24.6209 21.2351 24.4986 21.3333 24.3609 21.4H24.4C24.8535 21.4 25.2501 21.7051 25.3665 22.1433L25.5941 23H25.9742L24.2193 17.667ZM23.5281 18.9916C23.4487 18.6985 23.3547 18.3339 23.2463 17.898C23.2449 17.8923 23.2435 17.8867 23.242 17.881C23.1187 17.385 23.038 17.0284 23 16.811C22.9647 17.011 22.8954 17.339 22.792 17.795C22.778 17.8569 22.7617 17.9269 22.743 18.0051C22.6837 18.2532 22.6009 18.5837 22.4945 18.9966C22.4543 19.1527 22.4107 19.3205 22.3638 19.5C22.2853 19.8004 22.1974 20.1338 22.1 20.5H23.925L23.556 19.094C23.5469 19.0609 23.5376 19.0268 23.5281 18.9916Z"  />
</svg>
    