<svg width="32" height="32" viewBox="0 0 32 32" fill="none" xmlns="http://www.w3.org/2000/svg">
    <path fill-rule="evenodd" clip-rule="evenodd" d="M0.87868 0.87868C1.44129 0.316071 2.20435 0 3 0H15C15.7956 0 16.5587 0.316071 17.1213 0.87868C17.6839 1.44129 18 2.20435 18 3V8C18 8.55228 17.5523 9 17 9C16.4477 9 16 8.55228 16 8V3C16 2.73478 15.8946 2.48043 15.7071 2.29289C15.5196 2.10536 15.2652 2 15 2H3C2.73478 2 2.48043 2.10536 2.29289 2.29289C2.10536 2.48043 2 2.73478 2 3V14C2 14.2652 2.10536 14.5196 2.29289 14.7071C2.48043 14.8946 2.73478 15 3 15H4C4.55228 15 5 15.4477 5 16V16.7984L7.44525 15.168C7.60953 15.0584 7.80256 15 8 15H11C11.5523 15 12 15.4477 12 16C12 16.5523 11.5523 17 11 17H8.30281L4.55475 19.499C4.2479 19.7036 3.85334 19.7227 3.52817 19.5487C3.203 19.3747 3 19.0358 3 18.667V17C2.20435 17 1.44129 16.6839 0.87868 16.1213C0.316071 15.5587 0 14.7956 0 14V3C0 2.20435 0.316071 1.44129 0.87868 0.87868Z" fill="#2D2E32" />
    <path fill-rule="evenodd" clip-rule="evenodd" d="M17 13C16.7348 13 16.4804 13.1054 16.2929 13.2929C16.1054 13.4804 16 13.7348 16 14V25C16 25.2652 16.1054 25.5196 16.2929 25.7071C16.4804 25.8946 16.7348 26 17 26H24C24.1974 26 24.3905 26.0584 24.5547 26.168L27 27.7984V27C27 26.4477 27.4477 26 28 26H29C29.2652 26 29.5196 25.8946 29.7071 25.7071C29.8946 25.5196 30 25.2652 30 25V14C30 13.7348 29.8946 13.4804 29.7071 13.2929C29.5196 13.1054 29.2652 13 29 13H17ZM14.8787 11.8787C15.4413 11.3161 16.2043 11 17 11H29C29.7957 11 30.5587 11.3161 31.1213 11.8787C31.6839 12.4413 32 13.2043 32 14V25C32 25.7957 31.6839 26.5587 31.1213 27.1213C30.5587 27.6839 29.7957 28 29 28V29.667C29 30.0358 28.797 30.3747 28.4718 30.5487C28.1467 30.7227 27.7521 30.7036 27.4453 30.499L23.6972 28H17C16.2043 28 15.4413 27.6839 14.8787 27.1213C14.3161 26.5587 14 25.7957 14 25V14C14 13.2043 14.3161 12.4413 14.8787 11.8787Z" fill="#2D2E32" />
    <path d="M13.6849 6.453C13.2449 6.413 12.8549 6.393 12.2659 6.393C12.1244 7.0629 11.8957 7.7114 11.5859 8.32199C11.2898 8.9085 10.9168 9.45296 10.4769 9.941C11.5322 10.5586 12.6957 10.969 13.9049 11.15C13.4768 11.7049 13.1424 12.3261 12.9149 12.989C11.5506 12.6056 10.2625 11.9903 9.10692 11.17C7.89674 12.0075 6.55095 12.6297 5.12892 13.009C4.9149 12.3679 4.59034 11.7692 4.16992 11.24C5.41999 11.0143 6.62083 10.5713 7.71792 9.93099C7.21118 9.37873 6.77792 8.76331 6.42892 8.1C6.13954 7.55614 5.90826 6.98332 5.73892 6.391C5.14892 6.391 4.80992 6.411 4.30992 6.451V4.644C4.79113 4.69577 5.27497 4.71914 5.75892 4.714H7.96792V4.114C7.9693 3.90615 7.94919 3.69871 7.90792 3.495H9.91692C9.87668 3.69549 9.85658 3.8995 9.85692 4.104V4.714H12.2349C12.7192 4.7194 13.2034 4.69603 13.6849 4.644V6.453ZM7.65792 6.393C7.91661 7.30302 8.39774 8.13434 9.05792 8.812C9.66573 8.11974 10.0949 7.28924 10.3079 6.393H7.65792Z" fill="#2D2E32" />
    <path fill-rule="evenodd" clip-rule="evenodd" d="M12.2659 6.393C12.4173 6.393 12.5556 6.39432 12.6849 6.39696C13.0587 6.4046 13.358 6.42328 13.6849 6.453V4.644C13.3526 4.67991 13.019 4.70217 12.6849 4.71074C12.535 4.71458 12.385 4.71567 12.2349 4.714H9.85692V4.104C9.85692 4.10054 9.85692 4.09708 9.85692 4.09362C9.85714 3.96663 9.86524 3.83985 9.88115 3.714C9.89042 3.64063 9.90235 3.56758 9.91692 3.495H7.90792C7.92262 3.56757 7.93464 3.64062 7.94396 3.714C7.95912 3.83337 7.96712 3.9536 7.96792 4.07405C7.96801 4.08736 7.96801 4.10068 7.96792 4.114V4.714H5.75892C5.60922 4.71559 5.45953 4.71445 5.30992 4.71059C4.97589 4.70196 4.64228 4.67975 4.30992 4.644V6.451C4.67565 6.42174 4.95524 6.40318 5.30992 6.39532C5.44014 6.39244 5.58048 6.391 5.73892 6.391C5.90826 6.98331 6.13954 7.55614 6.42892 8.1C6.62031 8.46376 6.83705 8.81312 7.07734 9.14555C7.27522 9.41931 7.48908 9.68159 7.71792 9.93099C7.42037 10.1047 7.11518 10.2638 6.80345 10.4081C6.29497 10.6433 5.76907 10.8389 5.23048 10.9931C4.88185 11.0929 4.5279 11.1754 4.16992 11.24C4.39424 11.5224 4.59127 11.8245 4.75878 12.1423C4.90521 12.4202 5.02909 12.71 5.12892 13.009C6.55095 12.6297 7.89674 12.0075 9.10692 11.17C10.2625 11.9903 11.5506 12.6056 12.9149 12.989C13.0244 12.6699 13.1587 12.3605 13.3163 12.0635C13.4861 11.7434 13.6829 11.4378 13.9049 11.15C13.5432 11.0958 13.1856 11.0212 12.8337 10.9266C12.3404 10.7939 11.8584 10.6222 11.3924 10.4128C11.0796 10.2723 10.774 10.1149 10.4769 9.941C10.7029 9.69026 10.9113 9.42463 11.1006 9.14607C11.2798 8.88242 11.4419 8.60718 11.5859 8.32199C11.8957 7.7114 12.1244 7.0629 12.2659 6.393ZM9.53055 10.2641C9.51182 10.2092 9.49776 10.1524 9.48873 10.0942C9.46848 9.96361 9.47453 9.83203 9.50478 9.7066C9.37519 9.77133 9.23171 9.80783 9.08383 9.81166C8.95163 9.81509 8.8216 9.79226 8.70066 9.746C8.72121 9.8551 8.72367 9.96809 8.70669 10.0805C8.69644 10.1483 8.67936 10.2142 8.65602 10.2774C8.93038 10.1387 9.25345 10.1344 9.53055 10.2641ZM6.69871 6.11028C6.73233 5.99619 6.78644 5.88761 6.85998 5.79026C6.88008 5.76366 6.90138 5.73822 6.92377 5.714H6.47496C6.57674 5.82458 6.6545 5.95906 6.69871 6.11028ZM8.70207 5.393H9.12278C9.03041 5.29317 8.95815 5.17447 8.91242 5.04333C8.8667 5.17447 8.79444 5.29317 8.70207 5.393ZM11.0421 5.714C11.0596 5.73293 11.0764 5.75261 11.0925 5.77302C11.19 5.89634 11.2557 6.03909 11.2869 6.18912C11.2871 6.18816 11.2873 6.1872 11.2875 6.18623C11.3259 6.00445 11.4123 5.84301 11.5317 5.714H11.0421ZM9.05792 8.812C9.28292 8.55573 9.48344 8.28052 9.65758 7.99005C9.77307 7.79739 9.87697 7.59801 9.9687 7.393C10.1123 7.07211 10.2261 6.73741 10.3079 6.393H7.65792C7.7563 6.73909 7.88686 7.07379 8.0472 7.393C8.1565 7.6106 8.27966 7.821 8.4159 8.02289C8.60529 8.30355 8.81998 8.56775 9.05792 8.812Z" fill="#2D2E32" />
</svg>
    