<svg width="32" height="32" viewBox="0 0 32 32" fill="none" xmlns="http://www.w3.org/2000/svg">
    <path fill-rule="evenodd" clip-rule="evenodd" d="M13.1875 10.3124C13.1875 9.76008 13.6352 9.31236 14.1875 9.31236H20.625C21.1773 9.31236 21.625 9.76008 21.625 10.3124C21.625 10.8646 21.1773 11.3124 20.625 11.3124H14.1875C13.6352 11.3124 13.1875 10.8646 13.1875 10.3124Z"  />
    <path fill-rule="evenodd" clip-rule="evenodd" d="M13.1875 17.8123C13.1875 17.26 13.6352 16.8123 14.1875 16.8123H20.625C21.1773 16.8123 21.625 17.26 21.625 17.8123C21.625 18.3646 21.1773 18.8123 20.625 18.8123H14.1875C13.6352 18.8123 13.1875 18.3646 13.1875 17.8123Z"  />
    <path fill-rule="evenodd" clip-rule="evenodd" d="M23.832 18.0229C23.832 17.4706 24.2797 17.0229 24.832 17.0229H30.2104C30.7627 17.0229 31.2104 17.4706 31.2104 18.0229C31.2104 18.5752 30.7627 19.0229 30.2104 19.0229H24.832C24.2797 19.0229 23.832 18.5752 23.832 18.0229Z"  />
    <path fill-rule="evenodd" clip-rule="evenodd" d="M9.375 14.1248C9.375 13.5725 9.82272 13.1248 10.375 13.1248H21.1562C21.7085 13.1248 22.1562 13.5725 22.1562 14.1248C22.1562 14.6771 21.7085 15.1248 21.1562 15.1248H10.375C9.82272 15.1248 9.375 14.6771 9.375 14.1248Z"  />
</svg>
    