<svg width="32" height="32" viewBox="0 0 32 32" fill="none" xmlns="http://www.w3.org/2000/svg">
    <path fill-rule="evenodd" clip-rule="evenodd" d="M8 25C8 24.4477 8.44772 24 9 24H19C19.5523 24 20 24.4477 20 25C20 25.5523 19.5523 26 19 26H9C8.44772 26 8 25.5523 8 25Z" fill="#0277E7" />
    <path fill-rule="evenodd" clip-rule="evenodd" d="M8 19C8 18.4477 8.44772 18 9 18H19C19.5523 18 20 18.4477 20 19C20 19.5523 19.5523 20 19 20H9C8.44772 20 8 19.5523 8 19Z" fill="#0277E7" />
    <path fill-rule="evenodd" clip-rule="evenodd" d="M8 13C8 12.4477 8.44772 12 9 12H19C19.5523 12 20 12.4477 20 13C20 13.5523 19.5523 14 19 14H9C8.44772 14 8 13.5523 8 13Z" fill="#0277E7" />
    <path fill-rule="evenodd" clip-rule="evenodd" d="M8 7C8 6.44772 8.44772 6 9 6H19C19.5523 6 20 6.44772 20 7C20 7.55228 19.5523 8 19 8H9C8.44772 8 8 7.55228 8 7Z" fill="#0277E7" />
</svg>
    