<svg width="32" height="32" viewBox="0 0 32 32" fill="none" xmlns="http://www.w3.org/2000/svg">
    <path fill-rule="evenodd" clip-rule="evenodd" d="M14 6.96802C14 6.41573 14.4477 5.96802 15 5.96802H25C25.5523 5.96802 26 6.41573 26 6.96802C26 7.5203 25.5523 7.96802 25 7.96802H15C14.4477 7.96802 14 7.5203 14 6.96802Z"  />
    <path fill-rule="evenodd" clip-rule="evenodd" d="M14 12.968C14 12.4157 14.4477 11.968 15 11.968H25C25.5523 11.968 26 12.4157 26 12.968C26 13.5203 25.5523 13.968 25 13.968H15C14.4477 13.968 14 13.5203 14 12.968Z"  />
    <path fill-rule="evenodd" clip-rule="evenodd" d="M14 18.968C14 18.4157 14.4477 17.968 15 17.968H25C25.5523 17.968 26 18.4157 26 18.968C26 19.5203 25.5523 19.968 25 19.968H15C14.4477 19.968 14 19.5203 14 18.968Z"  />
</svg>
    