<svg width="32" height="32" viewBox="0 0 32 32" fill="none" xmlns="http://www.w3.org/2000/svg">
    <path fill-rule="evenodd" clip-rule="evenodd" d="M16 14C16.5523 14 17 14.4477 17 15V25C17 25.5523 16.5523 26 16 26C15.4477 26 15 25.5523 15 25V15C15 14.4477 15.4477 14 16 14Z" fill="#0277E7" />
    <path fill-rule="evenodd" clip-rule="evenodd" d="M11 14C11.5523 14 12 14.4477 12 15V25C12 25.5523 11.5523 26 11 26C10.4477 26 10 25.5523 10 25V15C10 14.4477 10.4477 14 11 14Z" fill="#0277E7" />
    <path fill-rule="evenodd" clip-rule="evenodd" d="M21 14C21.5523 14 22 14.4477 22 15V25C22 25.5523 21.5523 26 21 26C20.4477 26 20 25.5523 20 25V15C20 14.4477 20.4477 14 21 14Z" fill="#0277E7" />
</svg>
    