<svg width="32" height="32" viewBox="0 0 32 32" fill="none" xmlns="http://www.w3.org/2000/svg">
    <path fill-rule="evenodd" clip-rule="evenodd" d="M12 16C12 15.4477 12.4477 15 13 15H30C30.5523 15 31 15.4477 31 16C31 16.5523 30.5523 17 30 17H13C12.4477 17 12 16.5523 12 16Z" fill="#2D2E32" />
    <path fill-rule="evenodd" clip-rule="evenodd" d="M12 27C12 26.4477 12.4477 26 13 26H30C30.5523 26 31 26.4477 31 27C31 27.5523 30.5523 28 30 28H13C12.4477 28 12 27.5523 12 27Z" fill="#2D2E32" />
    <path fill-rule="evenodd" clip-rule="evenodd" d="M5 14C3.89543 14 3 14.8954 3 16C3 17.1046 3.89543 18 5 18C6.10457 18 7 17.1046 7 16C7 14.8954 6.10457 14 5 14ZM1 16C1 13.7909 2.79086 12 5 12C7.20914 12 9 13.7909 9 16C9 18.2091 7.20914 20 5 20C2.79086 20 1 18.2091 1 16Z" fill="#2D2E32" />
    <path fill-rule="evenodd" clip-rule="evenodd" d="M5 25C3.89543 25 3 25.8954 3 27C3 28.1046 3.89543 29 5 29C6.10457 29 7 28.1046 7 27C7 25.8954 6.10457 25 5 25ZM1 27C1 24.7909 2.79086 23 5 23C7.20914 23 9 24.7909 9 27C9 29.2091 7.20914 31 5 31C2.79086 31 1 29.2091 1 27Z" fill="#2D2E32" />
</svg>
    