<svg width="32" height="32" viewBox="0 0 32 32" fill="none" xmlns="http://www.w3.org/2000/svg">
    <path fill-rule="evenodd" clip-rule="evenodd" d="M15.997 1.78218e-05L16.003 0C17.857 0.00555497 19.6335 0.744516 20.9445 2.05551C21.335 2.44604 21.335 3.0792 20.9445 3.46972C20.554 3.86025 19.9208 3.86025 19.5303 3.46972C18.5936 2.53304 17.3246 2.00476 16 2.00002C14.6754 2.00476 13.4064 2.53304 12.4697 3.46972C11.5327 4.40677 11.0043 5.67643 11 7.00157V10.782C11 11.3343 10.5523 11.782 10 11.782C9.44772 11.782 9 11.3343 9 10.782V6.99703C9.00554 5.14301 9.7445 3.36651 11.0555 2.05551C12.3665 0.744516 14.143 0.00555497 15.997 1.78218e-05Z"  />
</svg>
    