<svg width="32" height="32" viewBox="0 0 32 32" fill="none" xmlns="http://www.w3.org/2000/svg">
    <path fill-rule="evenodd" clip-rule="evenodd" d="M16 2C14.6754 2.00474 13.4064 2.53302 12.4697 3.46971C11.5327 4.40676 11.0043 5.67641 11 7.00155V10.782H9V6.99701C9.00554 5.14299 9.7445 3.36649 11.0555 2.05549C12.3665 0.744498 14.143 0.00553715 15.997 0L16 0.999996L16.003 0C17.857 0.00553715 19.6335 0.744498 20.9445 2.05549C22.2555 3.36649 22.9945 5.14299 23 6.99701L23 7L23 10.783H21V7.00146C20.9956 5.67635 20.4673 4.40673 19.5303 3.46971C18.5936 2.53302 17.3246 2.00474 16 2Z" fill="#0277E7" />
</svg>
    