<svg width="32" height="32" viewBox="0 0 32 32" fill="none" xmlns="http://www.w3.org/2000/svg">
    <path fill-rule="evenodd" clip-rule="evenodd" d="M16 10C10.4772 10 6 14.4772 6 20C6 25.5228 10.4772 30 16 30C21.5228 30 26 25.5228 26 20C26 14.4772 21.5228 10 16 10ZM4 20C4 13.3726 9.37258 8 16 8C22.6274 8 28 13.3726 28 20C28 26.6274 22.6274 32 16 32C9.37258 32 4 26.6274 4 20Z" fill="#2D2E32" />
    <path fill-rule="evenodd" clip-rule="evenodd" d="M17 21V26H15V21H17Z" fill="#2D2E32" />
    <path fill-rule="evenodd" clip-rule="evenodd" d="M16 17C14.8954 17 14 17.8954 14 19C14 20.1046 14.8954 21 16 21C17.1046 21 18 20.1046 18 19C18 17.8954 17.1046 17 16 17ZM12 19C12 16.7909 13.7909 15 16 15C18.2091 15 20 16.7909 20 19C20 21.2091 18.2091 23 16 23C13.7909 23 12 21.2091 12 19Z" fill="#2D2E32" />
</svg>
    