<svg width="32" height="32" viewBox="0 0 32 32" fill="none" xmlns="http://www.w3.org/2000/svg">
    <path fill-rule="evenodd" clip-rule="evenodd" d="M0 27.968C0 25.7587 1.79072 23.968 4 23.968H22C22.5523 23.968 23 24.4157 23 24.968C23 25.5203 22.5523 25.968 22 25.968C20.8953 25.968 20 26.8633 20 27.968V30.968C20 31.5203 19.5523 31.968 19 31.968H1C0.447715 31.968 0 31.5203 0 30.968V27.968ZM18.5351 25.968H4C2.89528 25.968 2 26.8633 2 27.968V29.968H18V27.968C18 27.2394 18.1948 26.5563 18.5351 25.968Z" fill="#2D2E32" />
    <path fill-rule="evenodd" clip-rule="evenodd" d="M8 1C8 0.447715 8.44772 0 9 0H31C31.5523 0 32 0.447715 32 1V27.968C32 30.1773 30.2093 31.968 28 31.968C25.7907 31.968 24 30.1773 24 27.968C24 26.8633 23.1047 25.968 22 25.968C21.4477 25.968 21 25.5203 21 24.968C21 24.4157 21.4477 23.968 22 23.968C24.2093 23.968 26 25.7587 26 27.968C26 29.0727 26.8953 29.968 28 29.968C29.1047 29.968 30 29.0727 30 27.968V2H10V24.968C10 25.5203 9.55228 25.968 9 25.968C8.44772 25.968 8 25.5203 8 24.968V1Z" fill="#2D2E32" />
</svg>
    