<svg width="32" height="32" viewBox="0 0 32 32" fill="none" xmlns="http://www.w3.org/2000/svg">
    <path fill-rule="evenodd" clip-rule="evenodd" d="M21.4833 21.4832C21.8738 21.0927 22.507 21.0927 22.8975 21.4832L31.7072 30.2929C32.0977 30.6834 32.0977 31.3166 31.7072 31.7071C31.3167 32.0976 30.6835 32.0976 30.293 31.7071L21.4833 22.8974C21.0928 22.5069 21.0928 21.8737 21.4833 21.4832Z"  />
    <path fill-rule="evenodd" clip-rule="evenodd" d="M13.1875 1.99995C7.00881 1.99995 2 7.00877 2 13.1875C2 19.3661 7.00881 24.375 13.1875 24.375C19.3662 24.375 24.375 19.3661 24.375 13.1875C24.375 7.00877 19.3662 1.99995 13.1875 1.99995ZM0 13.1875C0 5.9042 5.90424 -4.57764e-05 13.1875 -4.57764e-05C20.4708 -4.57764e-05 26.375 5.9042 26.375 13.1875C26.375 20.4707 20.4708 26.375 13.1875 26.375C5.90424 26.375 0 20.4707 0 13.1875Z"  />
</svg>
    