<svg width="32" height="32" viewBox="0 0 32 32" fill="none" xmlns="http://www.w3.org/2000/svg">
    <path fill-rule="evenodd" clip-rule="evenodd" d="M28.1236 28.5344C26.0555 28.1897 23.9445 28.1897 21.8764 28.5344L20.8356 28.7079C20.3534 28.7882 20 29.2054 20 29.6943V30H30V29.6943C30 29.2054 29.6466 28.7882 29.1644 28.7079L28.1236 28.5344ZM21.5476 26.5616C23.8334 26.1806 26.1666 26.1806 28.4524 26.5616L29.4932 26.7351C30.9398 26.9762 32 28.2277 32 29.6943V31C32 31.5523 31.5523 32 31 32H19C18.4477 32 18 31.5523 18 31V29.6943C18 28.2277 19.0602 26.9762 20.5068 26.7351L21.5476 26.5616Z" fill="#0277E7" />
    <path fill-rule="evenodd" clip-rule="evenodd" d="M25 19C23.7658 19 23 19.8488 23 20.625V21.375C23 22.1512 23.7658 23 25 23C26.2342 23 27 22.1512 27 21.375V20.625C27 19.8488 26.2342 19 25 19ZM21 20.625C21 18.5017 22.9205 17 25 17C27.0795 17 29 18.5017 29 20.625V21.375C29 23.4983 27.0795 25 25 25C22.9205 25 21 23.4983 21 21.375V20.625Z" fill="#0277E7" />
</svg>
    