<svg width="32" height="32" viewBox="0 0 32 32" fill="none" xmlns="http://www.w3.org/2000/svg">
    <path fill-rule="evenodd" clip-rule="evenodd" d="M10 13C9.44772 13 9 13.4477 9 14C9 14.5523 9.44772 15 10 15C10.5523 15 11 14.5523 11 14C11 13.4477 10.5523 13 10 13ZM7 14C7 12.3431 8.34315 11 10 11C11.6569 11 13 12.3431 13 14C13 15.6569 11.6569 17 10 17C8.34315 17 7 15.6569 7 14Z"  />
    <path fill-rule="evenodd" clip-rule="evenodd" d="M6.17074 22H13.8293C13.4174 20.8349 12.3061 20 11 20H9C7.69391 20 6.58262 20.8349 6.17074 22ZM4 23C4 20.2387 6.23872 18 9 18H11C13.7613 18 16 20.2387 16 23C16 23.5523 15.5523 24 15 24H5C4.44772 24 4 23.5523 4 23Z"  />
</svg>
    