<svg width="34" height="32" viewBox="0 0 34 32" fill="none" xmlns="http://www.w3.org/2000/svg">
    <path fill-rule="evenodd" clip-rule="evenodd" d="M19.7071 16.7071C19.3166 17.0976 18.6834 17.0976 18.2929 16.7071L13.2929 11.7071C12.9024 11.3166 12.9024 10.6834 13.2929 10.2929C13.6834 9.90237 14.3166 9.90237 14.7071 10.2929L19.7071 15.2929C20.0976 15.6834 20.0976 16.3166 19.7071 16.7071Z"  />
    <path fill-rule="evenodd" clip-rule="evenodd" d="M24.7071 11.7071C24.3166 12.0976 23.6834 12.0976 23.2929 11.7071L20.2929 8.70711C19.9024 8.31658 19.9024 7.68342 20.2929 7.29289C20.6834 6.90237 21.3166 6.90237 21.7071 7.29289L24.7071 10.2929C25.0976 10.6834 25.0976 11.3166 24.7071 11.7071Z"  />
    <path fill-rule="evenodd" clip-rule="evenodd" d="M15.7071 22.7071C15.3166 23.0976 14.6834 23.0976 14.2929 22.7071L8.29289 16.7071C7.90237 16.3166 7.90237 15.6834 8.29289 15.2929C8.68342 14.9024 9.31658 14.9024 9.70711 15.2929L15.7071 21.2929C16.0976 21.6834 16.0976 22.3166 15.7071 22.7071Z"  />
</svg>
    