<svg width="34" height="32" viewBox="0 0 34 32" fill="none" xmlns="http://www.w3.org/2000/svg">
    <path fill-rule="evenodd" clip-rule="evenodd" d="M9.04471 28.0283C11.4708 28.8556 14.1916 28.8968 16.4555 27.7794C18.96 26.5417 19.9226 24.3066 20.8754 21.7466C20.9304 21.5989 20.9855 21.4493 21.0411 21.2982C21.8992 18.968 22.8849 16.2913 25.5274 14.9515L28.0038 13.6521C28.6438 13.3758 29.2185 12.9678 29.6906 12.4548C30.1626 11.9418 30.5214 11.3352 30.7436 10.6744C30.9658 10.0136 31.0464 9.31346 30.9803 8.61946C30.9141 7.92546 30.7026 7.25316 30.3596 6.64627C30.3529 6.63449 30.3465 6.62258 30.3403 6.61054C29.8543 5.66299 28.9061 4.86813 27.5246 4.29494C26.1459 3.72287 24.4023 3.40207 22.4619 3.36714C18.5748 3.29716 14.0786 4.37678 10.4938 6.60363C7.35946 8.55049 5.09212 11.7185 3.91318 15.0299C2.72583 18.365 2.6983 21.6747 3.79793 23.9198M28.833 15.4724L26.4517 16.7252L26.4372 16.7327C24.5112 17.7061 23.7831 19.6647 22.8309 22.2262C22.804 22.2984 22.777 22.3711 22.7498 22.4443C21.8057 24.9807 20.6244 27.9504 17.3411 29.5727C14.491 30.9793 11.1999 30.8763 8.39923 29.9213C5.6152 28.972 3.13949 27.1193 2.00226 24.8005C0.585103 21.9076 0.732938 17.9996 2.02902 14.3592C3.33359 10.6948 5.85776 7.12885 9.43846 4.90471C13.3796 2.45657 18.2614 1.29119 22.4979 1.36747C24.6192 1.40566 26.6237 1.7558 28.2911 2.44764C29.9491 3.13554 31.3405 4.19174 32.1105 5.6796C32.5859 6.52623 32.8791 7.46293 32.9712 8.42965C33.064 9.40303 32.9509 10.385 32.6393 11.3119C32.3276 12.2387 31.8244 13.0895 31.1623 13.809C30.5093 14.5188 29.7161 15.0851 28.833 15.4724ZM9.04471 28.0283C6.60219 27.1954 4.63582 25.6279 3.79793 23.9198Z"  />
</svg>
    