<svg width="32" height="32" viewBox="0 0 32 32" fill="none" xmlns="http://www.w3.org/2000/svg">
    <path fill-rule="evenodd" clip-rule="evenodd" d="M1.17157 2.17157C1.92172 1.42143 2.93913 1 4 1H28C29.0609 1 30.0783 1.42143 30.8284 2.17157C31.5786 2.92172 32 3.93913 32 5V21C32 22.0609 31.5786 23.0783 30.8284 23.8284C30.0783 24.5786 29.0609 25 28 25H21.4684L16.7682 30.6402C16.5782 30.8682 16.2968 31 16 31C15.7032 31 15.4218 30.8682 15.2318 30.6402L10.5316 25H4C2.93913 25 1.92172 24.5786 1.17157 23.8284C0.421427 23.0783 0 22.0609 0 21V5C0 3.93913 0.421427 2.92172 1.17157 2.17157ZM4 3C3.46957 3 2.96086 3.21071 2.58579 3.58579C2.21071 3.96086 2 4.46957 2 5V21C2 21.5304 2.21071 22.0391 2.58579 22.4142C2.96086 22.7893 3.46957 23 4 23H11C11.2968 23 11.5782 23.1318 11.7682 23.3598L16 28.438L20.2318 23.3598C20.4218 23.1318 20.7032 23 21 23H28C28.5304 23 29.0391 22.7893 29.4142 22.4142C29.7893 22.0391 30 21.5304 30 21V5C30 4.46957 29.7893 3.96086 29.4142 3.58579C29.0391 3.21071 28.5304 3 28 3H4Z" fill="#2D2E32" />
</svg>
    