<svg width="32" height="32" viewBox="0 0 32 32" fill="none" xmlns="http://www.w3.org/2000/svg">
    <path fill-rule="evenodd" clip-rule="evenodd" d="M0 1C0 0.447715 0.447715 0 1 0H31C31.5523 0 32 0.447715 32 1V15C32 15.5523 31.5523 16 31 16C30.4477 16 30 15.5523 30 15V2H2V22H15C15.5523 22 16 22.4477 16 23C16 23.5523 15.5523 24 15 24H1C0.447715 24 0 23.5523 0 23V1Z" fill="#2D2E32" />
    <path fill-rule="evenodd" clip-rule="evenodd" d="M16 10C14.8954 10 14 10.8954 14 12C14 13.1046 14.8954 14 16 14C17.1046 14 18 13.1046 18 12C18 10.8954 17.1046 10 16 10ZM12 12C12 9.79086 13.7909 8 16 8C18.2091 8 20 9.79086 20 12C20 14.2091 18.2091 16 16 16C13.7909 16 12 14.2091 12 12Z" fill="#2D2E32" />
    <path fill-rule="evenodd" clip-rule="evenodd" d="M8 5C8 4.44772 8.44772 4 9 4H23C23.5523 4 24 4.44772 24 5C24 6.70672 25.2933 8 27 8C27.5523 8 28 8.44772 28 9V13C28 13.5523 27.5523 14 27 14C26.4477 14 26 13.5523 26 13V9.90478C24.0085 9.51823 22.4818 7.99146 22.0952 6H9.90478C9.51823 7.99146 7.99146 9.51823 6 9.90478V14.0952C7.99146 14.4818 9.51823 16.0085 9.90478 18H15C15.5523 18 16 18.4477 16 19C16 19.5523 15.5523 20 15 20H9C8.44772 20 8 19.5523 8 19C8 17.2933 6.70672 16 5 16C4.44772 16 4 15.5523 4 15V9C4 8.44772 4.44772 8 5 8C6.70672 8 8 6.70672 8 5Z" fill="#2D2E32" />
</svg>
    