<svg width="32" height="32" viewBox="0 0 32 32" fill="none" xmlns="http://www.w3.org/2000/svg">
    <path fill-rule="evenodd" clip-rule="evenodd" d="M15.5 6C16.0523 6 16.5 6.44772 16.5 7V12C16.5 12.5523 16.0523 13 15.5 13C14.9477 13 14.5 12.5523 14.5 12V7C14.5 6.44772 14.9477 6 15.5 6Z" fill="#0277E7" />
    <path fill-rule="evenodd" clip-rule="evenodd" d="M19 9.5C19 10.0523 18.5523 10.5 18 10.5L13 10.5C12.4477 10.5 12 10.0523 12 9.5C12 8.94771 12.4477 8.5 13 8.5L18 8.5C18.5523 8.5 19 8.94772 19 9.5Z" fill="#0277E7" />
    <path fill-rule="evenodd" clip-rule="evenodd" d="M25.8989 9.89893C26.4512 9.89893 26.8989 10.3466 26.8989 10.8989V18.8989C26.8989 19.4512 26.4512 19.8989 25.8989 19.8989C25.3466 19.8989 24.8989 19.4512 24.8989 18.8989V10.8989C24.8989 10.3466 25.3466 9.89893 25.8989 9.89893Z" fill="#0277E7" />
    <path fill-rule="evenodd" clip-rule="evenodd" d="M30.8989 14.8989C30.8989 15.4512 30.4512 15.8989 29.8989 15.8989L21.8989 15.8989C21.3466 15.8989 20.8989 15.4512 20.8989 14.8989C20.8989 14.3466 21.3466 13.8989 21.8989 13.8989L29.8989 13.8989C30.4512 13.8989 30.8989 14.3466 30.8989 14.8989Z" fill="#0277E7" />
</svg>
    