<svg width="32" height="32" viewBox="0 0 32 32" fill="none" xmlns="http://www.w3.org/2000/svg">
    <path fill-rule="evenodd" clip-rule="evenodd" d="M11.603 0.380175C11.8806 0.731706 11.8906 1.22497 11.6274 1.58745C10.0053 3.82167 9.09091 6.54304 9.09091 9.46684C9.09091 17.5507 15.9116 24.1463 24.4545 24.1463C26.7366 24.1463 28.783 23.7492 30.6082 22.9719C31.0174 22.7976 31.4924 22.9145 31.774 23.2588C32.0556 23.603 32.076 24.0918 31.8241 24.4583C28.6963 29.0094 23.373 31.9999 17.3636 31.9999C7.79749 31.9999 0 24.5886 0 15.3205C0 8.5075 4.31059 2.62291 10.4342 0.076588C10.8478 -0.095395 11.3254 0.028643 11.603 0.380175ZM8.25702 3.54357C4.45102 6.2169 2 10.5263 2 15.3205C2 23.4044 8.82069 29.9999 17.3636 29.9999C21.4944 29.9999 25.2517 28.4095 28.0202 25.826C26.8813 26.0402 25.6921 26.1463 24.4545 26.1463C14.8884 26.1463 7.09091 18.7349 7.09091 9.46684C7.09091 7.3811 7.49812 5.37908 8.25702 3.54357Z"  />
</svg>
    