<svg width="32" height="32" viewBox="0 0 32 32" fill="none" xmlns="http://www.w3.org/2000/svg">
    <path fill-rule="evenodd" clip-rule="evenodd" d="M2 3C2 2.44772 2.44772 2 3 2H5.75C6.30228 2 6.75 2.44772 6.75 3C6.75 3.55228 6.30228 4 5.75 4H4V5.75C4 6.30228 3.55228 6.75 3 6.75C2.44772 6.75 2 6.30228 2 5.75V3ZM10.25 3C10.25 2.44772 10.6977 2 11.25 2H16.75C17.3023 2 17.75 2.44772 17.75 3C17.75 3.55228 17.3023 4 16.75 4H11.25C10.6977 4 10.25 3.55228 10.25 3ZM21.25 3C21.25 2.44772 21.6977 2 22.25 2H25C25.5523 2 26 2.44772 26 3V3.5C26 3.68215 25.9513 3.85292 25.8662 4C25.9513 4.14709 26 4.31785 26 4.5V5C26 5.55228 25.5523 6 25 6C24.4477 6 24 5.55228 24 5V4.5C24 4.31786 24.0487 4.14709 24.1338 4H22.25C21.6977 4 21.25 3.55228 21.25 3ZM3 10.25C3.55228 10.25 4 10.6977 4 11.25V16.75C4 17.3023 3.55228 17.75 3 17.75C2.44772 17.75 2 17.3023 2 16.75V11.25C2 10.6977 2.44772 10.25 3 10.25ZM3 21.25C3.55228 21.25 4 21.6977 4 22.25V24.1338C4.14709 24.0487 4.31786 24 4.5 24H5C5.55228 24 6 24.4477 6 25C6 25.5523 5.55228 26 5 26H4.5C4.31785 26 4.14708 25.9513 4 25.8662C3.85291 25.9513 3.68215 26 3.5 26H3C2.44772 26 2 25.5523 2 25V22.25C2 21.6977 2.44772 21.25 3 21.25Z" fill="#2D2E32" />
    <path fill-rule="evenodd" clip-rule="evenodd" d="M8 9C8 8.44772 8.44772 8 9 8H29C29.5523 8 30 8.44772 30 9V29C30 29.5523 29.5523 30 29 30H9C8.44772 30 8 29.5523 8 29V9ZM10 10V28H28V10H10Z" fill="#2D2E32" />
</svg>
    