<svg width="32" height="32" viewBox="0 0 32 32" fill="none" xmlns="http://www.w3.org/2000/svg">
    <path fill-rule="evenodd" clip-rule="evenodd" d="M16.5251 16.0606C16.9156 15.6701 17.5488 15.6701 17.9393 16.0606L22.889 21.0104C23.2796 21.4009 23.2796 22.0341 22.889 22.4246C22.4985 22.8151 21.8653 22.8151 21.4748 22.4246L16.5251 17.4748C16.1345 17.0843 16.1345 16.4511 16.5251 16.0606Z"  />
    <path fill-rule="evenodd" clip-rule="evenodd" d="M22.3343 17.3004C22.8862 17.3195 23.3182 17.7823 23.2992 18.3343L23.1814 21.752C23.1632 22.2772 22.7417 22.6988 22.2164 22.7169L18.7987 22.8348C18.2468 22.8538 17.7839 22.4218 17.7649 21.8698C17.7458 21.3179 18.1779 20.855 18.7298 20.836L21.2147 20.7503L21.3004 18.2654C21.3194 17.7134 21.7823 17.2814 22.3343 17.3004Z"  />
</svg>
    