<svg width="32" height="32" viewBox="0 0 32 32" fill="none" xmlns="http://www.w3.org/2000/svg">
    <path fill-rule="evenodd" clip-rule="evenodd" d="M8 16C8 15.4477 8.44772 15 9 15H19C19.5523 15 20 15.4477 20 16C20 16.5523 19.5523 17 19 17H9C8.44772 17 8 16.5523 8 16Z"  />
    <path fill-rule="evenodd" clip-rule="evenodd" d="M15.1962 10.0194C15.7377 10.1277 16.0889 10.6545 15.9806 11.1961L13.9806 21.1961C13.8723 21.7376 13.3455 22.0888 12.8039 21.9805C12.2624 21.8722 11.9112 21.3454 12.0195 20.8038L14.0195 10.8038C14.1278 10.2623 14.6546 9.91106 15.1962 10.0194Z"  />
</svg>
    