<svg width="32" height="32" viewBox="0 0 32 32" fill="none" xmlns="http://www.w3.org/2000/svg">
    <path fill-rule="evenodd" clip-rule="evenodd" d="M2 1C2 0.447715 2.44772 0 3 0H29C29.5523 0 30 0.447715 30 1V10C30 10.5523 29.5523 11 29 11C28.4477 11 28 10.5523 28 10V2H4V30H8C8.55228 30 9 30.4477 9 31C9 31.5523 8.55228 32 8 32H3C2.44772 32 2 31.5523 2 31V1Z"  />
    <path fill-rule="evenodd" clip-rule="evenodd" d="M8 7C8 6.44772 8.44772 6 9 6H20C20.5523 6 21 6.44772 21 7C21 7.55228 20.5523 8 20 8H9C8.44772 8 8 7.55228 8 7Z"  />
    <path fill-rule="evenodd" clip-rule="evenodd" d="M8 13C8 12.4477 8.44772 12 9 12H16C16.5523 12 17 12.4477 17 13C17 13.5523 16.5523 14 16 14H9C8.44772 14 8 13.5523 8 13Z"  />
</svg>
    