<svg width="32" height="32" viewBox="0 0 32 32" fill="none" xmlns="http://www.w3.org/2000/svg">
    <path fill-rule="evenodd" clip-rule="evenodd" d="M1.29263 19.2932C1.48019 19.1055 1.73465 19 2 19H30C30.2653 19 30.5198 19.1055 30.7074 19.2932C30.8949 19.4809 31.0002 19.7354 31 20.0007C30.9982 22.4246 30.0496 24.7587 28.3334 26.7036C26.6212 28.644 24.2217 30.1136 21.4687 30.9562C21.3738 30.9852 21.2752 31 21.176 31H10.824C10.7137 31 10.6076 30.9822 10.5084 30.9492C7.76496 30.1054 5.37402 28.6386 3.66658 26.7036C1.95043 24.7587 1.00181 22.4246 1 20.0007C0.999802 19.7354 1.10507 19.4809 1.29263 19.2932ZM10.976 29H21.024C23.4143 28.2437 25.4274 26.9742 26.8338 25.3803C28.0101 24.0472 28.7161 22.5417 28.9303 21H3.06974C3.28391 22.5417 3.98986 24.0472 5.16622 25.3803C6.57263 26.9742 8.58574 28.2437 10.976 29Z"  />
    <path fill-rule="evenodd" clip-rule="evenodd" d="M28.2093 3.11441C27.8872 2.97185 27.5218 2.96303 27.1933 3.08991C26.8647 3.21678 26.6 3.46896 26.4574 3.79096L22.6295 12.4407C22.406 12.9457 21.8154 13.174 21.3104 12.9505C20.8054 12.727 20.5771 12.1364 20.8006 11.6313L24.6286 2.98133C24.986 2.17437 25.6494 1.54215 26.4727 1.2242C27.2946 0.906807 28.2087 0.928267 29.0147 1.28375C29.0932 1.31776 29.1652 1.35331 29.2318 1.38867C29.6179 1.59355 29.9599 1.87249 30.2382 2.20954C30.5165 2.54659 30.7256 2.93515 30.8537 3.35305C30.9818 3.77095 31.0264 4.20999 30.9848 4.64509C30.9432 5.07972 30.8166 5.50192 30.612 5.88765C30.5739 5.95985 30.5329 6.03036 30.4889 6.09912L25.7298 13.7045C25.4368 14.1727 24.8198 14.3147 24.3516 14.0217C23.8835 13.7288 23.7414 13.1117 24.0344 12.6436L28.8029 5.02322C28.8172 5.00087 28.8308 4.97777 28.8434 4.95378L28.8448 4.95112C28.9266 4.79707 28.9773 4.62842 28.9939 4.45479C29.0104 4.28116 28.9927 4.10597 28.9416 3.93921C28.8904 3.77246 28.807 3.6174 28.6959 3.48291C28.5849 3.34842 28.4484 3.23712 28.2944 3.15536M28.2944 3.15536C28.2643 3.1394 28.2398 3.12762 28.218 3.11823L28.2093 3.11441"  />
    <path fill-rule="evenodd" clip-rule="evenodd" d="M12.2153 13.1234C11.0481 12.882 9.83533 12.9937 8.73181 13.4443C7.62828 13.8949 6.68398 14.664 6.01934 15.6534C5.35469 16.6429 4.99983 17.8079 5 18.9999C5.00008 19.5522 4.55243 20 4.00015 20C3.44786 20.0001 3.00008 19.5525 3 19.0002C2.99977 17.4109 3.47292 15.8575 4.35912 14.5382C5.24531 13.2189 6.50438 12.1935 7.97574 11.5927C9.44711 10.9919 11.0641 10.8429 12.6204 11.1649C14.1768 11.4868 15.602 12.265 16.7143 13.4002C17.1008 13.7947 17.0943 14.4278 16.6999 14.8143C16.3054 15.2009 15.6722 15.1944 15.2857 14.7999C14.4515 13.9485 13.3826 13.3648 12.2153 13.1234Z"  />
    <path fill-rule="evenodd" clip-rule="evenodd" d="M11 17C10.4696 17 9.96086 17.2107 9.58579 17.5858C9.21071 17.9609 9 18.4696 9 19C9 19.5523 8.55228 20 8 20C7.44772 20 7 19.5523 7 19C7 17.9391 7.42143 16.9217 8.17157 16.1716C8.92172 15.4214 9.93913 15 11 15C11.5523 15 12 15.4477 12 16C12 16.5523 11.5523 17 11 17Z"  />
    <path fill-rule="evenodd" clip-rule="evenodd" d="M16 20C16 19.4477 16.4477 19 17 19L30 19C30.5523 19 31 19.4477 31 20C31 20.5523 30.5523 21 30 21L17 21C16.4477 21 16 20.5523 16 20Z"  />
</svg>
    