<svg width="32" height="32" viewBox="0 0 32 32" fill="none" xmlns="http://www.w3.org/2000/svg">
    <path fill-rule="evenodd" clip-rule="evenodd" d="M21 17C20.4696 17 19.9609 17.2107 19.5858 17.5858C19.2107 17.9609 19 18.4696 19 19C19 19.5523 18.5523 20 18 20C17.4477 20 17 19.5523 17 19C17 17.9391 17.4214 16.9217 18.1716 16.1716C18.9217 15.4214 19.9391 15 21 15C22.0609 15 23.0783 15.4214 23.8284 16.1716C24.5786 16.9217 25 17.9391 25 19C25 19.5523 24.5523 20 24 20C23.4477 20 23 19.5523 23 19C23 18.4696 22.7893 17.9609 22.4142 17.5858C22.0391 17.2107 21.5304 17 21 17Z" fill="#0277E7" />
    <path fill-rule="evenodd" clip-rule="evenodd" d="M21 13C19.4087 13 17.8826 13.6321 16.7574 14.7574C15.6321 15.8826 15 17.4087 15 19C15 19.5523 14.5523 20 14 20C13.4477 20 13 19.5523 13 19C13 16.8783 13.8429 14.8434 15.3431 13.3431C16.8434 11.8429 18.8783 11 21 11C23.1217 11 25.1566 11.8429 26.6569 13.3431C28.1571 14.8434 29 16.8783 29 19C29 19.5523 28.5523 20 28 20C27.4477 20 27 19.5523 27 19C27 17.4087 26.3679 15.8826 25.2426 14.7574C24.1174 13.6321 22.5913 13 21 13Z" fill="#0277E7" />
    <path fill-rule="evenodd" clip-rule="evenodd" d="M14 18C14.5523 18 15 18.4477 15 19V25C15 25.5523 14.5523 26 14 26C13.4477 26 13 25.5523 13 25V19C13 18.4477 13.4477 18 14 18Z" fill="#0277E7" />
</svg>
    