<svg width="33" height="32" viewBox="0 0 33 32" fill="none" xmlns="http://www.w3.org/2000/svg">
    <path fill-rule="evenodd" clip-rule="evenodd" d="M2 1C2 0.447715 2.44772 0 3 0H28.7143C29.2666 0 29.7143 0.447715 29.7143 1V16C29.7143 16.5523 29.2666 17 28.7143 17C28.162 17 27.7143 16.5523 27.7143 16V2H4V29.1315L6.73101 27.3108C7.06691 27.0869 7.50451 27.0869 7.84041 27.3108L11.5714 29.7981L15.3024 27.3108C15.6383 27.0869 16.0759 27.0869 16.4118 27.3108L17.4833 28.0251C17.9428 28.3314 18.067 28.9523 17.7606 29.4118C17.4543 29.8714 16.8334 29.9955 16.3739 29.6892L15.8571 29.3447L12.1261 31.8321C11.7902 32.056 11.3526 32.056 11.0167 31.8321L7.28571 29.3447L3.5547 31.8321C3.24784 32.0366 2.8533 32.0557 2.52814 31.8817C2.20298 31.7077 2 31.3688 2 31V1Z"  />
    <path fill-rule="evenodd" clip-rule="evenodd" d="M7.71436 21C7.71436 20.4477 8.16207 20 8.71436 20H15.8572C16.4095 20 16.8572 20.4477 16.8572 21C16.8572 21.5523 16.4095 22 15.8572 22H8.71436C8.16207 22 7.71436 21.5523 7.71436 21Z"  />
    <path fill-rule="evenodd" clip-rule="evenodd" d="M15.8572 7.71436C14.0426 7.71436 12.5715 9.18542 12.5715 11.0001C12.5715 12.8147 14.0426 14.2858 15.8572 14.2858C17.6719 14.2858 19.143 12.8147 19.143 11.0001C19.143 9.18542 17.6719 7.71436 15.8572 7.71436ZM10.5715 11.0001C10.5715 8.08085 12.938 5.71436 15.8572 5.71436C18.7765 5.71436 21.143 8.08085 21.143 11.0001C21.143 13.9193 18.7765 16.2858 15.8572 16.2858C12.938 16.2858 10.5715 13.9193 10.5715 11.0001Z"  />
</svg>
    