<svg width="32" height="32" viewBox="0 0 32 32" fill="none" xmlns="http://www.w3.org/2000/svg">
    <path fill-rule="evenodd" clip-rule="evenodd" d="M25.2929 12.2929C25.6834 11.9024 26.3166 11.9024 26.7071 12.2929L30.7071 16.2929C31.0977 16.6834 31.0977 17.3166 30.7071 17.7071L19.7071 28.7071C19.5974 28.8169 19.4635 28.8996 19.3163 28.9487L13.3163 30.9487C12.9569 31.0685 12.5608 30.9749 12.2929 30.7071C12.0251 30.4393 11.9316 30.0431 12.0513 29.6838L14.0513 23.6838C14.1004 23.5365 14.1831 23.4027 14.2929 23.2929L25.2929 12.2929ZM15.8741 24.5402L14.5812 28.4189L18.4598 27.126L28.5858 17L26 14.4142L15.8741 24.5402Z"  />
</svg>
    