<svg width="32" height="32" viewBox="0 0 32 32" fill="none" xmlns="http://www.w3.org/2000/svg">
    <path fill-rule="evenodd" clip-rule="evenodd" d="M4.2838 22.3992C4.50517 21.8933 5.0948 21.6625 5.60078 21.8839C8.67512 23.2289 12.2387 24.0001 15.8 24.0001C19.3612 24.0001 22.9248 23.2289 25.9991 21.8839C26.5051 21.6625 27.0948 21.8933 27.3161 22.3992C27.5375 22.9052 27.3068 23.4948 26.8008 23.7162C23.4751 25.1712 19.6387 26.0001 15.8 26.0001C11.9612 26.0001 8.1248 25.1712 4.79914 23.7162C4.29316 23.4948 4.06244 22.9052 4.2838 22.3992Z"  />
    <path fill-rule="evenodd" clip-rule="evenodd" d="M15.8 1C16.1765 1 16.5211 1.21146 16.6916 1.54713L29.4916 26.7471C29.6146 26.9894 29.6338 27.2713 29.5447 27.528C29.4555 27.7847 29.2658 27.9941 29.0191 28.108C24.9907 29.9672 20.548 31 15.8 31C11.052 31 6.60925 29.9672 2.58094 28.108C2.33422 27.9941 2.14446 27.7847 2.05533 27.528C1.9662 27.2713 1.98536 26.9894 2.10842 26.7471L14.9084 1.54713C15.0789 1.21146 15.4235 1 15.8 1ZM4.36998 26.711C7.88569 28.1873 11.7191 29 15.8 29C19.881 29 23.7143 28.1873 27.23 26.711L15.8 4.20816L4.36998 26.711Z"  />
</svg>
    