<svg width="32" height="32" viewBox="0 0 32 32" fill="none" xmlns="http://www.w3.org/2000/svg">
    <path fill-rule="evenodd" clip-rule="evenodd" d="M1.29263 19.2932C1.48019 19.1055 1.73465 19 2 19H30C30.2653 19 30.5198 19.1055 30.7074 19.2932C30.8949 19.4809 31.0002 19.7354 31 20.0007C30.9982 22.4246 30.0496 24.7587 28.3334 26.7036C26.6212 28.644 24.2217 30.1136 21.4687 30.9562C21.3738 30.9852 21.2752 31 21.176 31H10.824C10.7137 31 10.6076 30.9822 10.5084 30.9492C7.76496 30.1054 5.37402 28.6386 3.66658 26.7036C1.95043 24.7587 1.00181 22.4246 1 20.0007C0.999802 19.7354 1.10507 19.4809 1.29263 19.2932ZM10.976 29H21.024C23.4143 28.2437 25.4274 26.9742 26.8338 25.3803C28.0101 24.0472 28.7161 22.5417 28.9303 21H3.06974C3.28391 22.5417 3.98986 24.0472 5.16622 25.3803C6.57263 26.9742 8.58574 28.2437 10.976 29Z"  />
</svg>
    