<svg width="32" height="32" viewBox="0 0 32 32" fill="none" xmlns="http://www.w3.org/2000/svg">
    <path fill-rule="evenodd" clip-rule="evenodd" d="M12 8C12 7.44772 12.4477 7 13 7H19C19.5523 7 20 7.44772 20 8V12H24C24.5523 12 25 12.4477 25 13V19C25 19.5523 24.5523 20 24 20H20V24C20 24.5523 19.5523 25 19 25H13C12.4477 25 12 24.5523 12 24V20H8C7.44772 20 7 19.5523 7 19V13C7 12.4477 7.44772 12 8 12H12V8ZM14 9V13C14 13.5523 13.5523 14 13 14H9V18H13C13.5523 18 14 18.4477 14 19V23H18V19C18 18.4477 18.4477 18 19 18H23V14H19C18.4477 14 18 13.5523 18 13V9H14Z"  />
</svg>
    