<svg width="32" height="32" viewBox="0 0 32 32" fill="none" xmlns="http://www.w3.org/2000/svg">
    <path fill-rule="evenodd" clip-rule="evenodd" d="M16 13C18.7614 13 21 10.7614 21 8C21 5.23858 18.7614 3 16 3C13.2386 3 11 5.23858 11 8C11 10.7614 13.2386 13 16 13ZM16 15C19.866 15 23 11.866 23 8C23 4.13401 19.866 1 16 1C12.134 1 9 4.13401 9 8C9 11.866 12.134 15 16 15Z"  />
    <path fill-rule="evenodd" clip-rule="evenodd" d="M16 5C16.5523 5 17 5.44772 17 6V10C17 10.5523 16.5523 11 16 11C15.4477 11 15 10.5523 15 10V6C15 5.44772 15.4477 5 16 5Z"  />
    <path fill-rule="evenodd" clip-rule="evenodd" d="M13 8C13 7.44772 13.4477 7 14 7H18C18.5523 7 19 7.44772 19 8C19 8.55228 18.5523 9 18 9H14C13.4477 9 13 8.55228 13 8Z"  />
</svg>
    