<svg width="32" height="32" viewBox="0 0 32 32" fill="none" xmlns="http://www.w3.org/2000/svg">
    <path fill-rule="evenodd" clip-rule="evenodd" d="M25 20C22.2386 20 20 22.2386 20 25C20 27.7614 22.2386 30 25 30C27.7614 30 30 27.7614 30 25C30 22.2386 27.7614 20 25 20ZM18 25C18 21.134 21.134 18 25 18C28.866 18 32 21.134 32 25C32 28.866 28.866 32 25 32C21.134 32 18 28.866 18 25Z"  />
    <path fill-rule="evenodd" clip-rule="evenodd" d="M25 21.4286C25.5523 21.4286 26 21.8763 26 22.4286V24H27.5714C28.1237 24 28.5714 24.4477 28.5714 25C28.5714 25.5523 28.1237 26 27.5714 26H25C24.4477 26 24 25.5523 24 25V22.4286C24 21.8763 24.4477 21.4286 25 21.4286Z"  />
    <path fill-rule="evenodd" clip-rule="evenodd" d="M25 28.5714C24.4477 28.5714 24 28.1237 24 27.5714L24 26L22.4286 26C21.8763 26 21.4286 25.5523 21.4286 25C21.4286 24.4477 21.8763 24 22.4286 24L25 24C25.5523 24 26 24.4477 26 25L26 27.5714C26 28.1237 25.5523 28.5714 25 28.5714Z"  />
</svg>
    