<svg width="32" height="32" viewBox="0 0 32 32" fill="none" xmlns="http://www.w3.org/2000/svg">
    <path fill-rule="evenodd" clip-rule="evenodd" d="M6.66659 9C5.51731 9 4.41511 9.45655 3.60246 10.2692C2.7898 11.0819 2.33325 12.1841 2.33325 13.3333V23H7.99992C8.5522 23 8.99992 23.4477 8.99992 24C8.99992 24.5523 8.5522 25 7.99992 25H1.33325C0.780967 25 0.333252 24.5523 0.333252 24V13.3333C0.333252 11.6536 1.00051 10.0427 2.18824 8.85499C3.37597 7.66726 4.98688 7 6.66659 7H25.3333C27.013 7 28.6239 7.66726 29.8116 8.85499C30.9993 10.0427 31.6666 11.6536 31.6666 13.3333V24C31.6666 24.5523 31.2189 25 30.6666 25H23.9999C23.4476 25 22.9999 24.5523 22.9999 24C22.9999 23.4477 23.4476 23 23.9999 23H29.6666V13.3333C29.6666 12.1841 29.21 11.0819 28.3974 10.2692C27.5847 9.45655 26.4825 9 25.3333 9H6.66659Z"  />
    <path fill-rule="evenodd" clip-rule="evenodd" d="M7 18.6665C7 18.1142 7.44772 17.6665 8 17.6665H24C24.5523 17.6665 25 18.1142 25 18.6665V30.6665C25 31.2188 24.5523 31.6665 24 31.6665H8C7.44772 31.6665 7 31.2188 7 30.6665V18.6665ZM9 19.6665V29.6665H23V19.6665H9Z"  />
</svg>
    