<svg width="32" height="32" viewBox="0 0 32 32" fill="none" xmlns="http://www.w3.org/2000/svg">
    <path fill-rule="evenodd" clip-rule="evenodd" d="M3.43937 0.171937C3.71414 -0.0140925 4.0633 -0.0517083 4.37139 0.071528L8.88298 1.87617L11.4453 0.167954C11.7439 -0.0311036 12.1262 -0.0549081 12.4472 0.105578L16 1.88197L19.5528 0.105578C19.8738 -0.0549081 20.2561 -0.0311036 20.5547 0.167954L23.117 1.87616L27.6286 0.071528C27.9367 -0.0517083 28.2859 -0.0140925 28.5606 0.171937C28.8354 0.357967 29 0.668181 29 1V30C29 30.5523 28.5523 31 28 31H4C3.44772 31 3 30.5523 3 30V1C3 0.668181 3.1646 0.357967 3.43937 0.171937ZM5 2.47704V29H27V2.47704L23.3714 3.92848C23.0656 4.05078 22.7193 4.01472 22.4453 3.83206L19.9282 2.15396L16.4472 3.89443C16.1657 4.0352 15.8343 4.0352 15.5528 3.89443L12.0718 2.15396L9.5547 3.83206C9.28071 4.01472 8.93435 4.05078 8.62861 3.92848L5 2.47704Z"  />
</svg>
    