<svg width="32" height="32" viewBox="0 0 32 32" fill="none" xmlns="http://www.w3.org/2000/svg">
    <path fill-rule="evenodd" clip-rule="evenodd" d="M9 15.0033C9 14.451 9.44772 14.0033 10 14.0033H18C18.5523 14.0033 19 14.451 19 15.0033C19 15.5556 18.5523 16.0033 18 16.0033H10C9.44772 16.0033 9 15.5556 9 15.0033Z" fill="#0277E7" />
    <path fill-rule="evenodd" clip-rule="evenodd" d="M9 18.0033C9 17.451 9.44772 17.0033 10 17.0033H18C18.5523 17.0033 19 17.451 19 18.0033C19 18.5556 18.5523 19.0033 18 19.0033H10C9.44772 19.0033 9 18.5556 9 18.0033Z" fill="#0277E7" />
    <path fill-rule="evenodd" clip-rule="evenodd" d="M17.4823 9.0033C19.008 8.95304 20.497 9.47867 21.6532 10.4761C22.0714 10.8369 22.1179 11.4683 21.7572 11.8865C21.3964 12.3047 20.765 12.3512 20.3468 11.9905C19.5679 11.3185 18.5639 10.9657 17.5359 11.0026C17.5239 11.0031 17.512 11.0033 17.5 11.0033C15.8119 11.0033 14.7408 11.6938 14.0556 12.668C13.3379 13.6882 13 15.0916 13 16.5033C13 17.9149 13.3379 19.3184 14.0556 20.3386C14.7408 21.3128 15.8119 22.0033 17.5 22.0033C17.512 22.0033 17.5239 22.0035 17.5359 22.0039C18.5639 22.0409 19.5679 21.688 20.3468 21.0161C20.765 20.6553 21.3964 20.7019 21.7572 21.1201C22.1179 21.5383 22.0714 22.1697 21.6532 22.5305C20.497 23.5279 19.008 24.0535 17.4823 24.0033C15.1467 23.9982 13.4735 22.9875 12.4197 21.4892C11.3956 20.0332 11 18.1866 11 16.5033C11 14.8199 11.3956 12.9734 12.4197 11.5173C13.4735 10.0191 15.1467 9.00839 17.4823 9.0033Z" fill="#0277E7" />
</svg>
    