<svg width="32" height="32" viewBox="0 0 32 32" fill="none" xmlns="http://www.w3.org/2000/svg">
    <path fill-rule="evenodd" clip-rule="evenodd" d="M15.5 13C14.6523 13 14 13.6523 14 14.5C14 14.7893 14.0603 14.965 14.1261 15.08C14.1932 15.1975 14.2996 15.3103 14.4759 15.4229C14.8732 15.6768 15.4471 15.831 16.2425 16.0299C16.2672 16.036 16.2921 16.0422 16.3172 16.0485C17.0116 16.2217 17.8986 16.443 18.6009 16.8917C18.9871 17.1385 19.3494 17.471 19.6104 17.9277C19.8728 18.3869 20 18.9143 20 19.5C20 21.4523 18.4523 23 16.5 23H15.5C13.5477 23 12 21.4523 12 19.5C12 18.9477 12.4477 18.5 13 18.5C13.5523 18.5 14 18.9477 14 19.5C14 20.3477 14.6523 21 15.5 21H16.5C17.3477 21 18 20.3477 18 19.5C18 19.2107 17.9397 19.035 17.8739 18.92C17.8068 18.8025 17.7004 18.6897 17.5241 18.5771C17.1268 18.3232 16.5529 18.169 15.7575 17.9701C15.7328 17.964 15.7079 17.9578 15.6828 17.9515C14.9884 17.7783 14.1014 17.557 13.3991 17.1083C13.0129 16.8615 12.6506 16.529 12.3896 16.0723C12.1272 15.6131 12 15.0857 12 14.5C12 12.5477 13.5477 11 15.5 11H16.5C18.4523 11 20 12.5477 20 14.5C20 15.0523 19.5523 15.5 19 15.5C18.4477 15.5 18 15.0523 18 14.5C18 13.6523 17.3477 13 16.5 13H15.5Z" fill="#0277E7" />
    <path fill-rule="evenodd" clip-rule="evenodd" d="M16 21C16.5523 21 17 21.4477 17 22V25C17 25.5523 16.5523 26 16 26C15.4477 26 15 25.5523 15 25V22C15 21.4477 15.4477 21 16 21Z" fill="#0277E7" />
    <path fill-rule="evenodd" clip-rule="evenodd" d="M16 8C16.5523 8 17 8.44772 17 9V12C17 12.5523 16.5523 13 16 13C15.4477 13 15 12.5523 15 12V9C15 8.44772 15.4477 8 16 8Z" fill="#0277E7" />
</svg>
    