<svg width="33" height="32" viewBox="0 0 33 32" fill="none" xmlns="http://www.w3.org/2000/svg">
    <path fill-rule="evenodd" clip-rule="evenodd" d="M21.8094 28.3076C22.2431 27.9656 22.8718 28.04 23.2138 28.4737C23.9481 29.4051 25.0829 30 26.3571 30C28.5662 30 30.3571 28.2091 30.3571 26C30.3571 23.7909 28.5662 22 26.3571 22C25.0829 22 23.9481 22.5949 23.2138 23.5263C22.8718 23.96 22.2431 24.0344 21.8094 23.6924C21.3757 23.3505 21.3013 22.7217 21.6432 22.288C22.7403 20.8965 24.4441 20 26.3571 20C29.6708 20 32.3571 22.6863 32.3571 26C32.3571 29.3137 29.6708 32 26.3571 32C24.4441 32 22.7403 31.1035 21.6432 29.712C21.3013 29.2783 21.3757 28.6495 21.8094 28.3076Z"  />
    <path fill-rule="evenodd" clip-rule="evenodd" d="M21.4141 19.9998C21.9664 19.9998 22.4141 20.4476 22.4141 20.9998L22.4141 22.8283L24.2425 22.8283C24.7948 22.8283 25.2425 23.276 25.2425 23.8283C25.2425 24.3806 24.7948 24.8283 24.2425 24.8283L21.4141 24.8283C20.8618 24.8283 20.4141 24.3806 20.4141 23.8283L20.4141 20.9998C20.4141 20.4476 20.8618 19.9998 21.4141 19.9998Z"  />
</svg>
    