<svg width="32" height="32" viewBox="0 0 32 32" fill="none" xmlns="http://www.w3.org/2000/svg">
    <path fill-rule="evenodd" clip-rule="evenodd" d="M12.2 11C12.2 10.4477 12.6477 10 13.2 10H18.4C20.903 10 23 11.9611 23 14.4615C23 16.962 20.903 18.9231 18.4 18.9231H10C9.44772 18.9231 9 18.4754 9 17.9231C9 17.3708 9.44772 16.9231 10 16.9231H18.4C19.873 16.9231 21 15.7842 21 14.4615C21 13.1389 19.873 12 18.4 12H13.2C12.6477 12 12.2 11.5523 12.2 11Z"  />
    <path fill-rule="evenodd" clip-rule="evenodd" d="M13.9208 14.153C14.3036 14.5511 14.2912 15.1841 13.8931 15.5669L11.4428 17.923L13.8931 20.2791C14.2912 20.6619 14.3036 21.2949 13.9208 21.693C13.538 22.0911 12.905 22.1035 12.5069 21.7208L9.30689 18.6438C9.11081 18.4553 9 18.195 9 17.923C9 17.651 9.11081 17.3907 9.30689 17.2022L12.5069 14.1252C12.905 13.7424 13.538 13.7549 13.9208 14.153Z"  />
</svg>
    