<svg width="32" height="32" viewBox="0 0 32 32" fill="none" xmlns="http://www.w3.org/2000/svg">
    <path fill-rule="evenodd" clip-rule="evenodd" d="M1.29263 19.2932C1.48019 19.1055 1.73465 19 2 19H30C30.2653 19 30.5198 19.1055 30.7074 19.2932C30.8949 19.4809 31.0002 19.7354 31 20.0007C30.9982 22.4246 30.0496 24.7587 28.3334 26.7036C26.6212 28.644 24.2217 30.1136 21.4687 30.9562C21.3738 30.9852 21.2752 31 21.176 31H10.824C10.7137 31 10.6076 30.9822 10.5084 30.9492C7.76496 30.1054 5.37402 28.6386 3.66658 26.7036C1.95043 24.7587 1.00181 22.4246 1 20.0007C0.999802 19.7354 1.10507 19.4809 1.29263 19.2932ZM10.976 29H21.024C23.4143 28.2437 25.4274 26.9742 26.8338 25.3803C28.0101 24.0472 28.7161 22.5417 28.9303 21H3.06974C3.28391 22.5417 3.98986 24.0472 5.16622 25.3803C6.57263 26.9742 8.58574 28.2437 10.976 29Z"  />
    <path fill-rule="evenodd" clip-rule="evenodd" d="M16.9201 4.98935C17.0689 4.45749 17.6207 4.14697 18.1525 4.29579C19.8363 4.76692 21.3145 5.77514 22.3664 7.15953C23.7912 7.24384 25.6441 7.76458 27.1834 9.10017C28.9714 10.6516 30.2127 13.1947 29.9982 17.0555C29.9676 17.6069 29.4958 18.0291 28.9443 17.9985C28.3929 17.9678 27.9707 17.496 28.0013 16.9445C28.1868 13.6053 27.1255 11.6978 25.8727 10.6108C24.5759 9.48568 22.9434 9.12687 21.8611 9.14779C21.5181 9.15441 21.1956 8.98472 21.0068 8.69825C20.2111 7.49086 19.0061 6.61144 17.6136 6.22181C17.0818 6.073 16.7712 5.52121 16.9201 4.98935Z"  />
</svg>
    