<svg width="32" height="32" viewBox="0 0 32 32" fill="none" xmlns="http://www.w3.org/2000/svg">
    <path fill-rule="evenodd" clip-rule="evenodd" d="M0.133866 8.57063C0.266474 8.34095 0.484893 8.17335 0.741072 8.10471C3.04669 7.48692 5.50329 7.81034 7.57044 9.00381C9.6376 10.1973 11.146 12.1631 11.7638 14.4687L12.2814 16.4005C12.3501 16.6567 12.3141 16.9297 12.1815 17.1593C12.0489 17.389 11.8305 17.5566 11.5743 17.6253C9.26869 18.2431 6.81209 17.9196 4.74494 16.7262C2.67778 15.5327 1.16939 13.5669 0.551604 11.2613L0.0339655 9.32945C-0.0346776 9.07327 0.00125768 8.80032 0.133866 8.57063ZM2.24321 9.84706L2.48346 10.7437C2.96396 12.5369 4.13715 14.0659 5.74494 14.9941C7.06121 15.7541 8.5805 16.0604 10.0722 15.8829L9.83192 14.9863C9.35142 13.193 8.17823 11.6641 6.57044 10.7359C5.25417 9.97591 3.73488 9.66952 2.24321 9.84706Z"  />
    <path fill-rule="evenodd" clip-rule="evenodd" d="M9.96097 1.03413C10.2171 0.96549 10.4901 1.00142 10.7198 1.13403C12.7869 2.32751 14.2953 4.29328 14.9131 6.59889C15.3772 8.33098 15.3101 10.1482 14.7421 11.8215C14.5645 12.3445 13.9967 12.6245 13.4737 12.447C12.9507 12.2694 12.6707 11.7016 12.8482 11.1786C13.2901 9.87705 13.3422 8.46364 12.9813 7.11653C12.5879 5.64841 11.7302 4.35746 10.5499 3.42824L10.0858 4.23211C9.64988 4.98716 9.36322 5.80893 9.2315 6.65406C9.14645 7.19975 8.63513 7.57318 8.08943 7.48813C7.54373 7.40308 7.17031 6.89176 7.25536 6.34606C7.4247 5.25954 7.7933 4.20285 8.35376 3.23211L9.35376 1.50006C9.48637 1.27037 9.70479 1.10278 9.96097 1.03413Z"  />
</svg>
    