<svg width="32" height="32" viewBox="0 0 32 32" fill="none" xmlns="http://www.w3.org/2000/svg">
    <path fill-rule="evenodd" clip-rule="evenodd" d="M7 2C7.33435 2 7.64658 2.1671 7.83205 2.4453L13.8321 11.4453C13.9416 11.6096 14 11.8026 14 12C14 14.6742 11.5393 18 7 18C2.46069 18 0 14.6742 0 12C0 11.8026 0.058438 11.6096 0.16795 11.4453L6.16795 2.4453C6.35342 2.1671 6.66565 2 7 2ZM2.01582 12.2791C2.18628 13.8222 3.74135 16 7 16C10.2587 16 11.8137 13.8222 11.9842 12.2791L7 4.80278L2.01582 12.2791Z" fill="#0277E7" />
    <path fill-rule="evenodd" clip-rule="evenodd" d="M0 12C0 11.4477 0.447715 11 1 11H13C13.5523 11 14 11.4477 14 12C14 12.5523 13.5523 13 13 13H1C0.447715 13 0 12.5523 0 12Z" fill="#0277E7" />
</svg>
    