<svg width="32" height="32" viewBox="0 0 32 32" fill="none" xmlns="http://www.w3.org/2000/svg">
    <path fill-rule="evenodd" clip-rule="evenodd" d="M25 8C25.3344 8 25.6466 8.1671 25.8321 8.4453L31.8321 17.4453C31.9416 17.6096 32 17.8026 32 18C32 20.6742 29.5393 24 25 24C20.4607 24 18 20.6742 18 18C18 17.8026 18.0584 17.6096 18.1679 17.4453L24.1679 8.4453C24.3534 8.1671 24.6656 8 25 8ZM20.0158 18.2791C20.1863 19.8222 21.7413 22 25 22C28.2587 22 29.8137 19.8222 29.9842 18.2791L25 10.8028L20.0158 18.2791Z" fill="#2D2E32" />
    <path fill-rule="evenodd" clip-rule="evenodd" d="M16 2C16.5523 2 17 2.44772 17 3V30C17 30.5523 16.5523 31 16 31C15.4477 31 15 30.5523 15 30V3C15 2.44772 15.4477 2 16 2Z" fill="#2D2E32" />
    <path fill-rule="evenodd" clip-rule="evenodd" d="M7 31C7 30.4477 7.44772 30 8 30H24C24.5523 30 25 30.4477 25 31C25 31.5523 24.5523 32 24 32H8C7.44772 32 7 31.5523 7 31Z" fill="#2D2E32" />
    <path fill-rule="evenodd" clip-rule="evenodd" d="M18 18C18 17.4477 18.4477 17 19 17H31C31.5523 17 32 17.4477 32 18C32 18.5523 31.5523 19 31 19H19C18.4477 19 18 18.5523 18 18Z" fill="#2D2E32" />
    <path fill-rule="evenodd" clip-rule="evenodd" d="M24.6838 9.94864L6.68384 3.94864L7.31629 2.05127L25.3163 8.05127C25.8402 8.22592 26.1234 8.79224 25.9487 9.31618C25.7741 9.84012 25.2078 10.1233 24.6838 9.94864Z" fill="#2D2E32" />
</svg>
    