<svg width="32" height="32" viewBox="0 0 32 32" fill="none" xmlns="http://www.w3.org/2000/svg">
    <path fill-rule="evenodd" clip-rule="evenodd" d="M24.7927 19.7931C25.1831 19.4024 25.8163 19.4023 26.2069 19.7927L29.464 23.0481L29.4641 23.0482C29.951 23.535 30.3373 24.1129 30.6008 24.749C30.8643 25.3851 31 26.0669 31 26.7554C31 27.4439 30.8643 28.1257 30.6008 28.7618C30.3373 29.3978 29.9511 29.9757 29.4643 30.4624C29.4642 30.4624 29.4642 30.4625 29.4642 30.4625C29.4641 30.4626 29.4641 30.4626 29.4641 30.4626C28.9773 30.9495 28.3994 31.3356 27.7635 31.5991C27.1274 31.8627 26.4456 31.9983 25.7571 31.9983C25.0685 31.9983 24.3868 31.8627 23.7507 31.5991C23.1147 31.3356 22.5368 30.9495 22.0501 30.4627C22.0501 30.4626 22.05 30.4626 22.05 30.4626C22.0499 30.4625 22.0499 30.4625 22.0498 30.4624L17.793 26.2072C17.4024 25.8168 17.4023 25.1836 17.7928 24.793C18.1832 24.4024 18.8164 24.4023 19.207 24.7927L23.464 29.0482L23.4643 29.0484C23.7653 29.3496 24.1228 29.5885 24.5162 29.7514C24.9096 29.9144 25.3312 29.9983 25.7571 29.9983C26.1829 29.9983 26.6045 29.9144 26.9979 29.7514C27.3913 29.5885 27.7488 29.3496 28.0498 29.0484L28.0501 29.0482C28.3512 28.7471 28.5901 28.3897 28.7531 27.9963C28.9161 27.6029 29 27.1812 29 26.7554C29 26.3296 28.9161 25.9079 28.7531 25.5145C28.5901 25.1212 28.3512 24.7637 28.0501 24.4627C28.0501 24.4627 28.0501 24.4626 28.0501 24.4626L24.7931 21.2073C24.4024 20.8169 24.4023 20.1837 24.7927 19.7931Z"  />
    <path fill-rule="evenodd" clip-rule="evenodd" d="M4.29289 2.29131C4.68342 1.90078 5.31658 1.90078 5.70711 2.29131L15.3461 11.9303C15.7366 12.3208 15.7366 12.954 15.3461 13.3445C14.9556 13.735 14.3224 13.735 13.9319 13.3445L5 4.41263L3.41421 5.99841L12.2081 14.7923C12.5986 15.1828 12.5986 15.816 12.2081 16.2065C11.8176 16.597 11.1844 16.597 10.7939 16.2065L1.29289 6.70552C0.902369 6.315 0.902369 5.68183 1.29289 5.29131L4.29289 2.29131Z"  />
</svg>
    