<svg width="32" height="32" viewBox="0 0 32 32" fill="none" xmlns="http://www.w3.org/2000/svg">
    <path fill-rule="evenodd" clip-rule="evenodd" d="M5.17157 1.17157C5.92172 0.421427 6.93913 0 8 0H24C25.0609 0 26.0783 0.421427 26.8284 1.17157C27.5786 1.92172 28 2.93913 28 4V10C28 10.5523 27.5523 11 27 11C26.4477 11 26 10.5523 26 10V4C26 3.46957 25.7893 2.96086 25.4142 2.58579C25.0391 2.21071 24.5304 2 24 2H8C7.46957 2 6.96086 2.21071 6.58579 2.58579C6.21071 2.96086 6 3.46957 6 4V10C6 10.5523 5.55228 11 5 11C4.44772 11 4 10.5523 4 10V4C4 2.93913 4.42143 1.92172 5.17157 1.17157Z"  />
</svg>
    