<svg width="32" height="32" viewBox="0 0 32 32" fill="none" xmlns="http://www.w3.org/2000/svg">
    <path fill-rule="evenodd" clip-rule="evenodd" d="M5 27C5.55228 27 6 27.4477 6 28V31C6 31.5523 5.55228 32 5 32C4.44772 32 4 31.5523 4 31V28C4 27.4477 4.44772 27 5 27Z" fill="#2D2E32" />
    <path fill-rule="evenodd" clip-rule="evenodd" d="M27 27C27.5523 27 28 27.4477 28 28V31C28 31.5523 27.5523 32 27 32C26.4477 32 26 31.5523 26 31V28C26 27.4477 26.4477 27 27 27Z" fill="#2D2E32" />
    <path fill-rule="evenodd" clip-rule="evenodd" d="M1.31802 14.318C2.16193 13.4741 3.30653 13 4.5 13C5.69347 13 6.83807 13.4741 7.68198 14.318C8.52589 15.1619 9 16.3065 9 17.5V20H23V17.5C23 16.3065 23.4741 15.1619 24.318 14.318C25.1619 13.4741 26.3065 13 27.5 13C28.6935 13 29.8381 13.4741 30.682 14.318C31.5259 15.1619 32 16.3065 32 17.5V28C32 28.5523 31.5523 29 31 29H1C0.447715 29 0 28.5523 0 28V17.5C0 16.3065 0.474106 15.1619 1.31802 14.318ZM4.5 15C3.83696 15 3.20107 15.2634 2.73223 15.7322C2.26339 16.2011 2 16.837 2 17.5V27H30V17.5C30 16.837 29.7366 16.2011 29.2678 15.7322C28.7989 15.2634 28.163 15 27.5 15C26.837 15 26.2011 15.2634 25.7322 15.7322C25.2634 16.2011 25 16.837 25 17.5V21C25 21.5523 24.5523 22 24 22H8C7.44772 22 7 21.5523 7 21V17.5C7 16.837 6.73661 16.2011 6.26777 15.7322C5.79893 15.2634 5.16304 15 4.5 15Z" fill="#2D2E32" />
</svg>
    