<svg width="32" height="32" viewBox="0 0 32 32" fill="none" xmlns="http://www.w3.org/2000/svg">
    <path fill-rule="evenodd" clip-rule="evenodd" d="M30.7071 1.29292C30.9722 1.55802 31.0668 1.94912 30.952 2.30604L21.952 30.306C21.8313 30.6818 21.5007 30.9514 21.1083 30.9941C20.716 31.0369 20.3351 30.8448 20.1362 30.5039L13.2688 18.7312L1.49615 11.8638C1.15521 11.6649 0.963148 11.2841 1.00591 10.8917C1.04866 10.4993 1.31823 10.1688 1.69401 10.048L29.694 1.048C30.0509 0.933275 30.442 1.02782 30.7071 1.29292ZM4.44054 11.266L14.5039 17.1362C14.6529 17.2232 14.7769 17.3472 14.8638 17.4962L20.7341 27.5595L28.4521 3.54797L4.44054 11.266Z" fill="#2D2E32" />
</svg>
    