<svg width="32" height="34" viewBox="0 0 32 34" fill="none" xmlns="http://www.w3.org/2000/svg">
    <path fill-rule="evenodd" clip-rule="evenodd" d="M19 8.20001C19.5523 8.20001 20 8.64773 20 9.20001V10.8C20 11.3523 19.5523 11.8 19 11.8C18.4477 11.8 18 11.3523 18 10.8V9.20001C18 8.64773 18.4477 8.20001 19 8.20001Z" fill="#2D2E32" />
    <path fill-rule="evenodd" clip-rule="evenodd" d="M25.9296 11.0705C26.3201 11.461 26.3201 12.0942 25.9296 12.4847L24.7984 13.6159C24.4079 14.0064 23.7747 14.0064 23.3842 13.6159C22.9937 13.2254 22.9937 12.5922 23.3842 12.2017L24.5154 11.0705C24.9059 10.68 25.5391 10.68 25.9296 11.0705Z" fill="#2D2E32" />
    <path fill-rule="evenodd" clip-rule="evenodd" d="M12.1842 11.0705C11.7936 11.4611 11.7936 12.0942 12.1842 12.4848L13.3154 13.616C13.7059 14.0065 14.339 14.0065 14.7296 13.616C15.1201 13.2254 15.1201 12.5923 14.7296 12.2017L13.5984 11.0705C13.2078 10.68 12.5747 10.68 12.1842 11.0705Z" fill="#2D2E32" />
    <path fill-rule="evenodd" clip-rule="evenodd" d="M9.19995 18C9.19995 17.4477 9.64767 17 10.2 17H11.8C12.3522 17 12.8 17.4477 12.8 18C12.8 18.5523 12.3522 19 11.8 19H10.2C9.64767 19 9.19995 18.5523 9.19995 18Z" fill="#2D2E32" />
    <path fill-rule="evenodd" clip-rule="evenodd" d="M19 7C12.9249 7 8 11.9249 8 18C8 18.5523 7.55228 19 7 19C6.44772 19 6 18.5523 6 18C6 10.8203 11.8203 5 19 5C26.1797 5 32 10.8203 32 18C32 25.1797 26.1797 31 19 31H1C0.447715 31 0 30.5523 0 30C0 29.4477 0.447715 29 1 29H19C25.0751 29 30 24.0751 30 18C30 11.9249 25.0751 7 19 7Z" fill="#2D2E32" />
</svg>
    