<svg width="32" height="34" viewBox="0 0 32 34" fill="none" xmlns="http://www.w3.org/2000/svg">
    <path fill-rule="evenodd" clip-rule="evenodd" d="M20.3999 18C20.3999 17.4477 20.8476 17 21.3999 17L27.7999 17C28.3522 17 28.7999 17.4477 28.7999 18C28.7999 18.5523 28.3522 19 27.7999 19L21.3999 19C20.8476 19 20.3999 18.5523 20.3999 18Z"  />
    <path fill-rule="evenodd" clip-rule="evenodd" d="M0 26C0 25.4477 0.447715 25 1 25H11.6C12.1523 25 12.6 25.4477 12.6 26C12.6 26.5523 12.1523 27 11.6 27H1C0.447715 27 0 26.5523 0 26Z"  />
    <path fill-rule="evenodd" clip-rule="evenodd" d="M0 22C0 21.4477 0.447715 21 1 21H7.6C8.15229 21 8.6 21.4477 8.6 22C8.6 22.5523 8.15229 23 7.6 23H1C0.447715 23 0 22.5523 0 22Z"  />
    <path fill-rule="evenodd" clip-rule="evenodd" d="M19.0001 16.6C18.2269 16.6 17.6001 17.2268 17.6001 18C17.6001 18.7732 18.2269 19.4 19.0001 19.4C19.7733 19.4 20.4001 18.7732 20.4001 18C20.4001 17.2268 19.7733 16.6 19.0001 16.6ZM15.6001 18C15.6001 16.1222 17.1223 14.6 19.0001 14.6C20.8779 14.6 22.4001 16.1222 22.4001 18C22.4001 19.8778 20.8779 21.4 19.0001 21.4C17.1223 21.4 15.6001 19.8778 15.6001 18Z"  />
</svg>
    