<svg width="32" height="32" viewBox="0 0 32 32" fill="none" xmlns="http://www.w3.org/2000/svg">
    <path fill-rule="evenodd" clip-rule="evenodd" d="M16 1C16.5523 1 17 1.44772 17 2L17 14C17 14.5523 16.5523 15 16 15C15.4477 15 15 14.5523 15 14L15 2C15 1.44772 15.4477 1 16 1Z"  />
    <path fill-rule="evenodd" clip-rule="evenodd" d="M15.1055 1.55276C15.3525 1.05878 15.9532 0.858558 16.4472 1.10555L22.4472 4.10555C22.786 4.27494 23 4.6212 23 4.99997C23 5.37875 22.786 5.72501 22.4472 5.8944L16.4472 8.8944C15.9532 9.14139 15.3525 8.94117 15.1055 8.44719C14.8586 7.95321 15.0588 7.35254 15.5528 7.10555L19.7639 4.99997L15.5528 2.8944C15.0588 2.64741 14.8586 2.04674 15.1055 1.55276Z"  />
    <path fill-rule="evenodd" clip-rule="evenodd" d="M23.6667 21L23.6667 27L8.33342 27L8.33342 21L23.6667 21ZM21.6667 23L10.3334 23L10.3334 25L21.6667 25L21.6667 23Z"  />
    <path fill-rule="evenodd" clip-rule="evenodd" d="M23 25C24.1046 25 25 25.8954 25 27L25 29C25 30.1046 24.1046 31 23 31L9 31C7.89543 31 7 30.1046 7 29L7 27C7 25.8954 7.89543 25 9 25L23 25ZM23 29L23 27L9 27L9 29L23 29Z"  />
</svg>
    