<svg width="32" height="32" viewBox="0 0 32 32" fill="none" xmlns="http://www.w3.org/2000/svg">
    <path fill-rule="evenodd" clip-rule="evenodd" d="M33 16C33 15.4477 32.5523 15 32 15H18C17.4477 15 17 15.4477 17 16C17 16.5523 17.4477 17 18 17H32C32.5523 17 33 16.5523 33 16Z" fill="#2D2E32" />
    <path fill-rule="evenodd" clip-rule="evenodd" d="M32.7071 16.7071C33.0976 16.3166 33.0976 15.6834 32.7071 15.2929L26.7071 9.29289C26.3166 8.90237 25.6834 8.90237 25.2929 9.29289C24.9024 9.68342 24.9024 10.3166 25.2929 10.7071L30.5858 16L25.2929 21.2929C24.9024 21.6834 24.9024 22.3166 25.2929 22.7071C25.6834 23.0976 26.3166 23.0976 26.7071 22.7071L32.7071 16.7071Z" fill="#2D2E32" />
    <path fill-rule="evenodd" clip-rule="evenodd" d="M18.7071 31.7071C18.8946 31.5196 19 31.2652 19 31V21C19 20.4477 18.5523 20 18 20C17.4477 20 17 20.4477 17 21V30H2L2 2H17V11C17 11.5523 17.4477 12 18 12C18.5523 12 19 11.5523 19 11L19 1C19 0.447716 18.5523 0 18 0H1C0.447716 0 0 0.447716 0 1L0 31C0 31.5523 0.447716 32 1 32H18C18.2652 32 18.5196 31.8946 18.7071 31.7071Z" fill="#2D2E32" />
</svg>
    