<svg width="32" height="32" viewBox="0 0 32 32" fill="none" xmlns="http://www.w3.org/2000/svg">
    <path fill-rule="evenodd" clip-rule="evenodd" d="M25 18C25.3877 18 25.7405 18.2241 25.9052 18.575L27.533 22.0423L31.1512 22.5954C31.5216 22.6521 31.8294 22.9111 31.9483 23.2665C32.0673 23.622 31.9775 24.014 31.7158 24.2823L29.0682 26.9958L29.695 30.839C29.7566 31.217 29.597 31.597 29.2839 31.8175C28.9709 32.0381 28.5594 32.0604 28.2242 31.8752L25 30.0928L21.7758 31.8752C21.4407 32.0604 21.0292 32.0381 20.7161 31.8175C20.403 31.597 20.2434 31.217 20.3051 30.839L20.9318 26.9958L18.2843 24.2823C18.0225 24.014 17.9328 23.622 18.0517 23.2665C18.1707 22.9111 18.4784 22.6521 18.8489 22.5954L22.4671 22.0423L24.0948 18.575C24.2596 18.2241 24.6123 18 25 18ZM25 21.3531L24.0508 23.3751C23.9091 23.677 23.6263 23.8883 23.2967 23.9387L21.0747 24.2784L22.7158 25.9603C22.9374 26.1875 23.0381 26.5064 22.987 26.8196L22.6104 29.1285L24.5162 28.075C24.8173 27.9086 25.1828 27.9086 25.4838 28.075L27.3896 29.1285L27.0131 26.8196C26.962 26.5064 27.0626 26.1875 27.2843 25.9603L28.9253 24.2784L26.7034 23.9387C26.3738 23.8883 26.091 23.677 25.9493 23.3751L25 21.3531Z" fill="#0277E7" />
</svg>