<svg width="32" height="32" viewBox="0 0 32 32" fill="none" xmlns="http://www.w3.org/2000/svg">
    <path fill-rule="evenodd" clip-rule="evenodd" d="M4 5C4 4.44772 4.44772 4 5 4H22C22.5523 4 23 4.44772 23 5C23 5.55228 22.5523 6 22 6H6V22C6 22.5523 5.55228 23 5 23C4.44772 23 4 22.5523 4 22V5ZM27 9C27.5523 9 28 9.44772 28 10V27C28 27.5523 27.5523 28 27 28H10C9.44772 28 9 27.5523 9 27C9 26.4477 9.44772 26 10 26H26V10C26 9.44772 26.4477 9 27 9Z" fill="#2D2E32" />
    <path fill-rule="evenodd" clip-rule="evenodd" d="M10 1C10 0.447715 10.4477 0 11 0H21C21.5523 0 22 0.447715 22 1C22 1.55228 21.5523 2 21 2H11C10.4477 2 10 1.55228 10 1Z" fill="#2D2E32" />
    <path fill-rule="evenodd" clip-rule="evenodd" d="M10 31C10 30.4477 10.4477 30 11 30H21C21.5523 30 22 30.4477 22 31C22 31.5523 21.5523 32 21 32H11C10.4477 32 10 31.5523 10 31Z" fill="#2D2E32" />
    <path fill-rule="evenodd" clip-rule="evenodd" d="M31 10C31.5523 10 32 10.4477 32 11L32 21C32 21.5523 31.5523 22 31 22C30.4477 22 30 21.5523 30 21L30 11C30 10.4477 30.4477 10 31 10Z" fill="#2D2E32" />
    <path fill-rule="evenodd" clip-rule="evenodd" d="M1 10C1.55228 10 2 10.4477 2 11L2 21C2 21.5523 1.55228 22 0.999999 22C0.447715 22 -5.04966e-07 21.5523 -4.80825e-07 21L-4.37114e-08 11C-1.95703e-08 10.4477 0.447715 10 1 10Z" fill="#2D2E32" />
</svg>
    