<svg width="32" height="32" viewBox="0 0 32 32" fill="none" xmlns="http://www.w3.org/2000/svg">
    <path fill-rule="evenodd" clip-rule="evenodd" d="M4 5C4 4.44772 4.44772 4 5 4H27C27.5523 4 28 4.44772 28 5V27C28 27.5523 27.5523 28 27 28H5C4.44772 28 4 27.5523 4 27V5ZM6 6V26H26V6H6Z" fill="#2D2E32" />
    <path fill-rule="evenodd" clip-rule="evenodd" d="M11 1C11 0.447715 11.4477 0 12 0H20C20.5523 0 21 0.447715 21 1C21 1.55228 20.5523 2 20 2H12C11.4477 2 11 1.55228 11 1Z" fill="#2D2E32" />
    <path fill-rule="evenodd" clip-rule="evenodd" d="M11 31C11 30.4477 11.4477 30 12 30H20C20.5523 30 21 30.4477 21 31C21 31.5523 20.5523 32 20 32H12C11.4477 32 11 31.5523 11 31Z" fill="#2D2E32" />
    <path fill-rule="evenodd" clip-rule="evenodd" d="M31 11C31.5523 11 32 11.4477 32 12L32 20C32 20.5523 31.5523 21 31 21C30.4477 21 30 20.5523 30 20L30 12C30 11.4477 30.4477 11 31 11Z" fill="#2D2E32" />
    <path fill-rule="evenodd" clip-rule="evenodd" d="M1 11C1.55228 11 2 11.4477 2 12L2 20C2 20.5523 1.55228 21 1 21C0.447715 21 -4.17544e-07 20.5523 -3.93402e-07 20L-4.37114e-08 12C-1.95703e-08 11.4477 0.447715 11 1 11Z" fill="#2D2E32" />
</svg>
    