<svg width="32" height="32" viewBox="0 0 32 32" fill="none" xmlns="http://www.w3.org/2000/svg">
    <path fill-rule="evenodd" clip-rule="evenodd" d="M5 9C5.55228 9 6 9.44772 6 10V28C6 28.5304 6.21071 29.0391 6.58579 29.4142C6.96086 29.7893 7.46957 30 8 30H24C24.5304 30 25.0391 29.7893 25.4142 29.4142C25.7893 29.0391 26 28.5304 26 28V10C26 9.44772 26.4477 9 27 9C27.5523 9 28 9.44772 28 10V28C28 29.0609 27.5786 30.0783 26.8284 30.8284C26.0783 31.5786 25.0609 32 24 32H8C6.93913 32 5.92172 31.5786 5.17157 30.8284C4.42143 30.0783 4 29.0609 4 28V10C4 9.44772 4.44772 9 5 9Z"  />
    <path fill-rule="evenodd" clip-rule="evenodd" d="M10 1C10 0.447715 10.4477 0 11 0H21C21.5523 0 22 0.447715 22 1V6C22 6.55228 21.5523 7 21 7C20.4477 7 20 6.55228 20 6V2H12V6C12 6.55228 11.5523 7 11 7C10.4477 7 10 6.55228 10 6V1Z"  />
    <path fill-rule="evenodd" clip-rule="evenodd" d="M1 6C1 5.44772 1.44772 5 2 5H30C30.5523 5 31 5.44772 31 6C31 6.55228 30.5523 7 30 7H2C1.44772 7 1 6.55228 1 6Z"  />
</svg>
    