<svg width="32" height="32" viewBox="0 0 32 32" fill="none" xmlns="http://www.w3.org/2000/svg">
    <path fill-rule="evenodd" clip-rule="evenodd" d="M0 5C0 4.44772 0.447715 4 1 4H31C31.5523 4 32 4.44772 32 5V12C32 12.5523 31.5523 13 31 13C29.3433 13 28 14.3433 28 16C28 17.6567 29.3433 19 31 19C31.5523 19 32 19.4477 32 20V27C32 27.5523 31.5523 28 31 28H1C0.447715 28 0 27.5523 0 27V20C0 19.4477 0.447715 19 1 19C2.65672 19 4 17.6567 4 16C4 14.3433 2.65672 13 1 13C0.447715 13 0 12.5523 0 12V5ZM2 6V11.1C4.28215 11.5633 6 13.5812 6 16C6 18.4188 4.28215 20.4367 2 20.9V26H30V20.9C27.7178 20.4367 26 18.4188 26 16C26 13.5812 27.7178 11.5633 30 11.1V6H2Z"  />
</svg>
    