<svg width="32" height="32" viewBox="0 0 32 32" fill="none" xmlns="http://www.w3.org/2000/svg">
    <path fill-rule="evenodd" clip-rule="evenodd" d="M10.6066 10.1071C8.18046 12.5332 8.18046 16.4668 10.6066 18.8929C10.9971 19.2834 10.9971 19.9166 10.6066 20.3071C10.2161 20.6976 9.58291 20.6976 9.19239 20.3071C5.9852 17.0999 5.9852 11.9001 9.19239 8.69289C9.58291 8.30237 10.2161 8.30237 10.6066 8.69289C10.9971 9.08342 10.9971 9.71658 10.6066 10.1071Z"  />
    <path fill-rule="evenodd" clip-rule="evenodd" d="M21.3928 8.69289C21.7834 8.30237 22.4165 8.30237 22.807 8.69289C26.0142 11.9001 26.0142 17.0999 22.807 20.3071C22.4165 20.6976 21.7834 20.6976 21.3928 20.3071C21.0023 19.9166 21.0023 19.2834 21.3928 18.8929C23.819 16.4668 23.819 12.5332 21.3928 10.1071C21.0023 9.71658 21.0023 9.08342 21.3928 8.69289Z"  />
    <path fill-rule="evenodd" clip-rule="evenodd" d="M24.7926 23.7071C24.4021 23.3166 24.4021 22.6834 24.7926 22.2929C29.0966 17.989 29.0966 11.011 24.7926 6.70711C24.4021 6.31659 24.4021 5.68342 24.7926 5.2929C25.1832 4.90238 25.8163 4.90238 26.2069 5.2929C31.2918 10.3778 31.2918 18.6222 26.2069 23.7071C25.8163 24.0976 25.1832 24.0976 24.7926 23.7071Z"  />
    <path fill-rule="evenodd" clip-rule="evenodd" d="M7.20711 23.7071C6.81658 24.0976 6.18342 24.0976 5.79289 23.7071C0.707922 18.6222 0.707922 10.3778 5.79289 5.2929C6.18342 4.90238 6.81658 4.90238 7.20711 5.2929C7.59763 5.68342 7.59763 6.31659 7.20711 6.70711C2.90319 11.011 2.90319 17.989 7.20711 22.2929C7.59763 22.6834 7.59763 23.3166 7.20711 23.7071Z"  />
</svg>
    