<svg width="32" height="33" viewBox="0 0 32 33" fill="none" xmlns="http://www.w3.org/2000/svg">
    <path fill-rule="evenodd" clip-rule="evenodd" d="M13.6365 16C13.6365 15.4477 14.0842 15 14.6365 15H20.091C20.6433 15 21.091 15.4477 21.091 16C21.091 16.5523 20.6433 17 20.091 17H14.6365C14.0842 17 13.6365 16.5523 13.6365 16Z" fill="#2D2E32" />
    <path fill-rule="evenodd" clip-rule="evenodd" d="M17.3637 2C16.4098 2 15.6365 2.77333 15.6365 3.72727C15.6365 4.68122 16.4098 5.45455 17.3637 5.45455C18.3177 5.45455 19.091 4.68122 19.091 3.72727C19.091 2.77333 18.3177 2 17.3637 2ZM13.6365 3.72727C13.6365 1.66876 15.3052 0 17.3637 0C19.4223 0 21.091 1.66876 21.091 3.72727C21.091 5.78579 19.4223 7.45455 17.3637 7.45455C15.3052 7.45455 13.6365 5.78579 13.6365 3.72727Z" fill="#2D2E32" />
    <path fill-rule="evenodd" clip-rule="evenodd" d="M13.2727 27.2727C13.825 27.2727 14.2727 27.7204 14.2727 28.2727V31C14.2727 31.5523 13.825 32 13.2727 32C12.7204 32 12.2727 31.5523 12.2727 31V28.2727C12.2727 27.7204 12.7204 27.2727 13.2727 27.2727Z" fill="#2D2E32" />
    <path fill-rule="evenodd" clip-rule="evenodd" d="M21.4546 27.2727C22.0069 27.2727 22.4546 27.7204 22.4546 28.2727V31C22.4546 31.5523 22.0069 32 21.4546 32C20.9023 32 20.4546 31.5523 20.4546 31V28.2727C20.4546 27.7204 20.9023 27.2727 21.4546 27.2727Z" fill="#2D2E32" />
    <path fill-rule="evenodd" clip-rule="evenodd" d="M12.5406 9.54542H22.1364C27.5841 9.54542 32 13.9613 32 19.4091C32 24.8568 27.5841 29.2727 22.1364 29.2727H12.5909C8.72754 29.2727 5.3862 27.0506 3.76801 23.8181H1C0.447715 23.8181 0 23.3704 0 22.8181V16C0 15.4477 0.447715 15 1 15H3.77522C4.43398 13.6844 5.37491 12.5344 6.52478 11.6342L5.49447 8.09787C5.3456 7.58692 5.623 7.04889 6.12557 6.87381L6.45455 7.81815C6.12557 6.87381 6.12609 6.87363 6.12663 6.87344L6.12778 6.87304L6.13035 6.87216L6.13655 6.87004L6.15317 6.8645C6.1661 6.86025 6.18273 6.85492 6.20286 6.84872C6.24309 6.83634 6.29752 6.82044 6.36466 6.80278C6.49865 6.76754 6.68506 6.72483 6.91184 6.68918C7.36181 6.61846 7.99151 6.57225 8.69518 6.68088C10.0281 6.88665 11.5293 7.63925 12.5406 9.54542ZM7.72914 8.61789C7.93352 8.61199 8.15737 8.62155 8.39005 8.65746C9.22416 8.78623 10.2807 9.26104 10.988 10.9347C11.1444 11.3048 11.5072 11.5454 11.9091 11.5454H22.1364C26.4795 11.5454 30 15.0659 30 19.4091C30 23.7522 26.4795 27.2727 22.1364 27.2727H12.5909C9.3229 27.2727 6.51859 25.2773 5.33199 22.4331C5.17662 22.0607 4.81263 21.8181 4.40909 21.8181H2V17H4.41591C4.81905 17 5.18276 16.7579 5.33839 16.386C5.9418 14.9441 6.95431 13.7181 8.23688 12.8622C8.60007 12.6199 8.76404 12.1699 8.6419 11.7507L7.72914 8.61789Z" fill="#2D2E32" />
</svg>
    