<svg width="32" height="32" viewBox="0 0 32 32" fill="none" xmlns="http://www.w3.org/2000/svg">
    <path fill-rule="evenodd" clip-rule="evenodd" d="M4.5 17.5C4.5 16.9477 4.94772 16.5 5.5 16.5H6.51131C7.8247 16.5148 9.11757 16.8278 10.2924 17.4152C11.3165 17.9273 12.2277 18.6364 12.9745 19.5H16.5C16.5218 19.5 16.5437 19.5007 16.5655 19.5021C17.846 19.5861 19.0524 20.1328 19.9598 21.0402C20.8672 21.9476 21.4139 23.154 21.4979 24.4345C21.516 24.7105 21.4189 24.9817 21.2299 25.1836C21.0408 25.3854 20.7766 25.5 20.5 25.5H11.5C10.9477 25.5 10.5 25.0523 10.5 24.5C10.5 23.9477 10.9477 23.5 11.5 23.5H19.2497C19.0859 23.1124 18.8479 22.7568 18.5456 22.4544C17.9884 21.8973 17.2501 21.5588 16.4651 21.5H12.5C12.1892 21.5 11.8961 21.3555 11.7068 21.109C11.0914 20.3074 10.3019 19.6561 9.39795 19.2041C8.49565 18.753 7.50283 18.5122 6.49415 18.5H5.5C4.94772 18.5 4.5 18.0523 4.5 17.5Z" />
    <path fill-rule="evenodd" clip-rule="evenodd" d="M18.861 22.5C18.861 21.9477 19.3087 21.5 19.861 21.5H26.5C28.5038 21.5 29.7639 22.0578 30.5341 22.762C30.911 23.1066 31.1429 23.4619 31.2829 23.7478C31.3525 23.8901 31.3992 24.0147 31.43 24.1119C31.4455 24.1606 31.457 24.2026 31.4655 24.2369C31.4697 24.254 31.4732 24.2693 31.4761 24.2824L31.4799 24.3007L31.4815 24.3086L31.4822 24.3122L31.4825 24.314C31.4827 24.3149 31.4828 24.3157 30.5 24.5L31.4828 24.3157C31.5705 24.7831 31.3168 25.2476 30.8763 25.4265L16.5511 31.2446C15.8567 31.5221 15.1115 31.6495 14.3644 31.6185C13.6172 31.5875 12.8851 31.3987 12.2162 31.0646L12.2101 31.0616L5.04714 27.4236C4.55472 27.1735 4.35828 26.5716 4.60837 26.0792C4.85847 25.5868 5.46039 25.3903 5.9528 25.6404L13.1126 29.2768C13.5284 29.4839 13.9832 29.601 14.4473 29.6202C14.9116 29.6395 15.3748 29.5605 15.8064 29.3884C15.8072 29.3881 15.808 29.3877 15.8089 29.3874L28.9442 24.0525C28.5388 23.7865 27.8049 23.5 26.5 23.5H19.861C19.3087 23.5 18.861 23.0523 18.861 22.5Z" />
    <path fill-rule="evenodd" clip-rule="evenodd" d="M0.5 15.5C0.5 14.9477 0.947715 14.5 1.5 14.5H5.5C6.05228 14.5 6.5 14.9477 6.5 15.5V28.5C6.5 29.0523 6.05228 29.5 5.5 29.5H1.5C0.947715 29.5 0.5 29.0523 0.5 28.5V15.5ZM2.5 16.5V27.5H4.5V16.5H2.5Z" />
    <path fill-rule="evenodd" clip-rule="evenodd" d="M16 13C18.7614 13 21 10.7614 21 8C21 5.23858 18.7614 3 16 3C13.2386 3 11 5.23858 11 8C11 10.7614 13.2386 13 16 13ZM16 15C19.866 15 23 11.866 23 8C23 4.13401 19.866 1 16 1C12.134 1 9 4.13401 9 8C9 11.866 12.134 15 16 15Z" />
    <path fill-rule="evenodd" clip-rule="evenodd" d="M16 5C16.5523 5 17 5.44772 17 6V10C17 10.5523 16.5523 11 16 11C15.4477 11 15 10.5523 15 10V6C15 5.44772 15.4477 5 16 5Z" />
    <path fill-rule="evenodd" clip-rule="evenodd" d="M13 8C13 7.44772 13.4477 7 14 7H18C18.5523 7 19 7.44772 19 8C19 8.55228 18.5523 9 18 9H14C13.4477 9 13 8.55228 13 8Z" />
</svg>
    