<svg width="32" height="32" viewBox="0 0 32 32" fill="none" xmlns="http://www.w3.org/2000/svg">
    <path d="M15.8609 4C15.8609 4 18.5547 7.83523 14.8912 11.9773C11.2277 16.1193 13.6521 20.3636 15.7532 22C15.7532 22 13.1672 18.1136 17.5311 13.2045C21.6255 8.55114 15.8609 4 15.8609 4Z" stroke="#0277E7" stroke-width="2" stroke-miterlimit="10" stroke-linecap="round" stroke-linejoin="round" />
    <path d="M25.8609 4C25.8609 4 28.5547 7.83523 24.8912 11.9773C21.2277 16.1193 23.6521 20.3636 25.7532 22C25.7532 22 23.1672 18.1136 27.5311 13.2045C31.6255 8.55114 25.8609 4 25.8609 4Z" stroke="#2D2E32" stroke-width="2" stroke-miterlimit="10" stroke-linecap="round" stroke-linejoin="round" />
    <path d="M5.86094 4C5.86094 4 8.55467 7.83523 4.89119 11.9773C1.22771 16.1193 3.65207 20.3636 5.75319 22C5.75319 22 3.1672 18.1136 7.53105 13.2045C11.6255 8.55114 5.86094 4 5.86094 4Z" stroke="#2D2E32" stroke-width="2" stroke-miterlimit="10" stroke-linecap="round" stroke-linejoin="round" />
    <path d="M2 28H30" stroke="#2D2E32" stroke-width="2" stroke-linecap="round" stroke-linejoin="round" />
</svg>
    