<svg width="32" height="32" viewBox="0 0 32 32" fill="none" xmlns="http://www.w3.org/2000/svg">
    <path fill-rule="evenodd" clip-rule="evenodd" d="M3 24.3704C3.11606 24.263 3.29453 24.1221 3.55674 23.9602C4.00845 23.6812 4.66259 23.3684 5.56002 23.0757C7.35453 22.4906 10.0793 22 14 22C14.5523 22 15 21.5523 15 21C15 20.4477 14.5523 20 14 20C9.92073 20 6.9788 20.5094 4.93998 21.1743C3.92074 21.5066 3.11655 21.8813 2.50576 22.2586C1.91047 22.6263 1.44514 23.0295 1.16795 23.4453C1.05844 23.6096 1 23.8026 1 24V30C1 30.5523 1.44772 31 2 31H15C15.5523 31 16 30.5523 16 30C16 29.4477 15.5523 29 15 29H3V24.3704Z" />
    <path fill-rule="evenodd" clip-rule="evenodd" d="M15 2C11.6863 2 9 4.68629 9 8V10C9 13.3137 11.6863 16 15 16C18.3137 16 21 13.3137 21 10V8C21 4.68629 18.3137 2 15 2ZM7 8C7 3.58172 10.5817 0 15 0C19.4183 0 23 3.58172 23 8V10C23 14.4183 19.4183 18 15 18C10.5817 18 7 14.4183 7 10V8Z" />
    <path fill-rule="evenodd" clip-rule="evenodd" d="M25 20C22.2386 20 20 22.2386 20 25C20 27.7614 22.2386 30 25 30C27.7614 30 30 27.7614 30 25C30 22.2386 27.7614 20 25 20ZM18 25C18 21.134 21.134 18 25 18C28.866 18 32 21.134 32 25C32 28.866 28.866 32 25 32C21.134 32 18 28.866 18 25Z" />
    <path fill-rule="evenodd" clip-rule="evenodd" d="M25 21.4286C25.5523 21.4286 26 21.8763 26 22.4286V24H27.5714C28.1237 24 28.5714 24.4477 28.5714 25C28.5714 25.5523 28.1237 26 27.5714 26H25C24.4477 26 24 25.5523 24 25V22.4286C24 21.8763 24.4477 21.4286 25 21.4286Z" />
</svg>
    