<svg width="32" height="32" viewBox="0 0 32 32" fill="none" xmlns="http://www.w3.org/2000/svg">
    <path fill-rule="evenodd" clip-rule="evenodd" d="M3 24.3704C3.11606 24.263 3.29453 24.1221 3.55674 23.9602C4.00845 23.6812 4.66259 23.3684 5.56002 23.0757C7.35453 22.4906 10.0793 22 14 22C14.5523 22 15 21.5523 15 21C15 20.4477 14.5523 20 14 20C9.92073 20 6.9788 20.5094 4.93998 21.1743C3.92074 21.5066 3.11655 21.8813 2.50576 22.2586C1.91047 22.6263 1.44514 23.0295 1.16795 23.4453C1.05844 23.6096 1 23.8026 1 24V30C1 30.5523 1.44772 31 2 31H15C15.5523 31 16 30.5523 16 30C16 29.4477 15.5523 29 15 29H3V24.3704Z" fill="#2D2E32" />
    <path fill-rule="evenodd" clip-rule="evenodd" d="M15 2C11.6863 2 9 4.68629 9 8V10C9 13.3137 11.6863 16 15 16C18.3137 16 21 13.3137 21 10V8C21 4.68629 18.3137 2 15 2ZM7 8C7 3.58172 10.5817 0 15 0C19.4183 0 23 3.58172 23 8V10C23 14.4183 19.4183 18 15 18C10.5817 18 7 14.4183 7 10V8Z" fill="#2D2E32" />
    <path fill-rule="evenodd" clip-rule="evenodd" d="M19 19C19.5523 19 20 19.4477 20 20V24C20 24.2457 20.2251 24.7373 21.2045 25.2269C22.1241 25.6868 23.4646 26 25 26C26.5354 26 27.8759 25.6868 28.7955 25.2269C29.7749 24.7373 30 24.2457 30 24V20C30 19.4477 30.4477 19 31 19C31.5523 19 32 19.4477 32 20V24C32 25.4113 30.8821 26.4197 29.69 27.0158C28.4381 27.6417 26.7786 28 25 28C23.2214 28 21.5619 27.6417 20.31 27.0158C19.1179 26.4197 18 25.4113 18 24V20C18 19.4477 18.4477 19 19 19Z" fill="#2D2E32" />
    <path fill-rule="evenodd" clip-rule="evenodd" d="M19 23C19.5523 23 20 23.4477 20 24V28C20 28.2457 20.2251 28.7373 21.2045 29.2269C22.1241 29.6868 23.4646 30 25 30C26.5354 30 27.8759 29.6868 28.7955 29.2269C29.7749 28.7373 30 28.2457 30 28V24C30 23.4477 30.4477 23 31 23C31.5523 23 32 23.4477 32 24V28C32 29.4113 30.8821 30.4197 29.69 31.0158C28.4381 31.6417 26.7786 32 25 32C23.2214 32 21.5619 31.6417 20.31 31.0158C19.1179 30.4197 18 29.4113 18 28V24C18 23.4477 18.4477 23 19 23Z" fill="#2D2E32" />
    <path fill-rule="evenodd" clip-rule="evenodd" d="M21.2046 18.7731C20.2251 19.2628 20 19.7544 20 20C20 20.2456 20.2251 20.7372 21.2046 21.2269C22.1242 21.6867 23.4647 22 25 22C26.5353 22 27.8758 21.6867 28.7954 21.2269C29.7749 20.7372 30 20.2456 30 20C30 19.7544 29.7749 19.2628 28.7954 18.7731C27.8758 18.3133 26.5353 18 25 18C23.4647 18 22.1242 18.3133 21.2046 18.7731ZM20.3101 16.9843C21.5621 16.3583 23.2216 16 25 16C26.7784 16 28.4379 16.3583 29.6899 16.9843C30.8819 17.5803 32 18.5887 32 20C32 21.4113 30.8819 22.4197 29.6899 23.0157C28.4379 23.6417 26.7784 24 25 24C23.2216 24 21.5621 23.6417 20.3101 23.0157C19.1181 22.4197 18 21.4113 18 20C18 18.5887 19.1181 17.5803 20.3101 16.9843Z" fill="#2D2E32" />
</svg>
    