<svg width="24" height="18" viewBox="0 0 24 18" fill="none" xmlns="http://www.w3.org/2000/svg">
    <path fill-rule="evenodd" clip-rule="evenodd" d="M2.19122 8.39179C2.0669 8.57023 2.00024 8.78249 2.00024 9C2.00024 9.21752 2.06691 9.4298 2.19124 9.60825C2.94765 10.6789 4.2445 12.2976 5.95171 13.6407C7.66217 14.9863 9.71271 16 11.9999 16C14.2871 16 16.3377 14.9863 18.0481 13.6407C19.7553 12.2976 21.0522 10.6789 21.8086 9.60826C21.9329 9.42981 21.9996 9.21753 21.9996 9C21.9996 8.78249 21.9329 8.57022 21.8086 8.39177C21.0522 7.32117 19.7553 5.70238 18.0481 4.35932C16.3377 3.01372 14.2871 2 11.9999 2C9.71271 2 7.66217 3.01372 5.95171 4.35932C4.24448 5.70238 2.94762 7.32118 2.19122 8.39179ZM4.71512 2.78743C6.62965 1.28128 9.10611 0 11.9999 0C14.8937 0 17.3702 1.28128 19.2847 2.78743C21.2013 4.29522 22.6269 6.08366 23.4437 7.24007L23.4464 7.24384C23.8064 7.75867 23.9996 8.37174 23.9996 9C23.9996 9.62826 23.8064 10.2413 23.4464 10.7562L23.4437 10.7599C22.6269 11.9163 21.2013 13.7048 19.2847 15.2126C17.3702 16.7187 14.8937 18 11.9999 18C9.10611 18 6.62965 16.7187 4.71512 15.2126C2.79848 13.7048 1.37293 11.9163 0.556116 10.7599L0.553458 10.7562L0.553467 10.7562C0.193374 10.2413 0.000244141 9.62826 0.000244141 9C0.000244141 8.37174 0.193374 7.75867 0.553467 7.24384L0.556108 7.24007L0.556116 7.24007C1.37293 6.08366 2.79848 4.29522 4.71512 2.78743Z" fill="#2D2E32" />
    <path fill-rule="evenodd" clip-rule="evenodd" d="M12 6C10.3431 6 9 7.34315 9 9C9 10.6569 10.3431 12 12 12C13.6569 12 15 10.6569 15 9C15 7.34315 13.6569 6 12 6ZM7 9C7 6.23858 9.23858 4 12 4C14.7614 4 17 6.23858 17 9C17 11.7614 14.7614 14 12 14C9.23858 14 7 11.7614 7 9Z" fill="#2D2E32" />
</svg>
    