<svg width="22" height="22" viewBox="0 0 22 22" fill="none" xmlns="http://www.w3.org/2000/svg">
    <path fill-rule="evenodd" clip-rule="evenodd" d="M0 1C0 0.447715 0.447715 0 1 0H11C11.2652 0 11.5195 0.105342 11.7071 0.292856L21.121 9.70575C21.121 9.70579 21.121 9.70582 21.1211 9.70586C21.3997 9.98443 21.6208 10.3152 21.7716 10.6792C21.9224 11.0432 22.0001 11.4334 22.0001 11.8275C22.0001 12.2216 21.9224 12.6118 21.7716 12.9758C21.6208 13.3398 21.3997 13.6705 21.1211 13.9491M21.121 13.9492L13.9495 21.1207C13.9494 21.1208 13.9492 21.121 13.9491 21.1211C13.6707 21.3997 13.3401 21.6208 12.9763 21.7717C12.6123 21.9227 12.2221 22.0004 11.8281 22.0006C11.434 22.0007 11.0438 21.9232 10.6796 21.7725C10.3155 21.6218 9.98469 21.4008 9.706 21.1222L9.70582 21.122L0.292818 11.707C0.105328 11.5195 0 11.2652 0 11V1M13.242 20.414L12.5349 19.7069L19.7069 12.5349L19.707 12.5347C19.7999 12.4419 19.8736 12.3316 19.9239 12.2103C19.9742 12.0889 20.0001 11.9589 20.0001 11.8275C20.0001 11.6961 19.9742 11.5661 19.9239 11.4447C19.8736 11.3234 19.7999 11.2131 19.707 11.1202L19.7069 11.1201L10.5858 2H2V10.5858L11.12 19.7078C11.2129 19.8007 11.3232 19.8743 11.4445 19.9245C11.5659 19.9748 11.696 20.0006 11.8274 20.0006C11.9587 20.0005 12.0888 19.9746 12.2101 19.9243C12.3314 19.874 12.4417 19.8002 12.5345 19.7073L13.242 20.414Z" fill="#2D2E32" />
    <path fill-rule="evenodd" clip-rule="evenodd" d="M7 6C6.44772 6 6 6.44772 6 7C6 7.55228 6.44772 8 7 8C7.55228 8 8 7.55228 8 7C8 6.44772 7.55228 6 7 6ZM4 7C4 5.34315 5.34315 4 7 4C8.65685 4 10 5.34315 10 7C10 8.65685 8.65685 10 7 10C5.34315 10 4 8.65685 4 7Z" fill="#2D2E32" />
</svg>
    