<svg width="22" height="18" viewBox="0 0 22 18" fill="none" xmlns="http://www.w3.org/2000/svg">
    <path fill-rule="evenodd" clip-rule="evenodd" d="M0 9C0 8.44772 0.447715 8 1 8H20C20.5523 8 21 8.44772 21 9C21 9.55228 20.5523 10 20 10H1C0.447715 10 0 9.55228 0 9Z" />
    <path fill-rule="evenodd" clip-rule="evenodd" d="M0 17C0 16.4477 0.447715 16 1 16H10C10.5523 16 11 16.4477 11 17C11 17.5523 10.5523 18 10 18H1C0.447715 18 0 17.5523 0 17Z" />
    <path fill-rule="evenodd" clip-rule="evenodd" d="M0 1C0 0.447715 0.447715 0 1 0H10C10.5523 0 11 0.447715 11 1C11 1.55228 10.5523 2 10 2H1C0.447715 2 0 1.55228 0 1Z" />
    <path fill-rule="evenodd" clip-rule="evenodd" d="M15.2929 3.29289C15.6834 2.90237 16.3166 2.90237 16.7071 3.29289L21.7071 8.29289C22.0976 8.68342 22.0976 9.31658 21.7071 9.70711L16.7071 14.7071C16.3166 15.0976 15.6834 15.0976 15.2929 14.7071C14.9024 14.3166 14.9024 13.6834 15.2929 13.2929L19.5858 9L15.2929 4.70711C14.9024 4.31658 14.9024 3.68342 15.2929 3.29289Z" />
</svg>