<svg width="26" height="22" viewBox="0 0 26 22" fill="none" xmlns="http://www.w3.org/2000/svg">
    <path fill-rule="evenodd" clip-rule="evenodd" d="M12.3384 0.250162C12.7164 -0.0833874 13.2836 -0.0833874 13.6617 0.250162L25.6617 10.8384C25.9735 11.1135 26.0825 11.5529 25.9354 11.9419C25.7883 12.3309 25.4159 12.5882 25 12.5882H22.4V21C22.4 21.5523 21.9523 22 21.4 22H15.4C14.8478 22 14.4 21.5523 14.4 21V14.9412H11.6V21C11.6 21.5523 11.1523 22 10.6 22H4.60004C4.04776 22 3.60004 21.5523 3.60004 21V12.5882H1.00004C0.584194 12.5882 0.211746 12.3309 0.0646731 11.9419C-0.0823997 11.5529 0.0266025 11.1135 0.338422 10.8384L12.3384 0.250162ZM3.64482 10.5882H4.60004C5.15233 10.5882 5.60004 11.036 5.60004 11.5882V20H9.60004V13.9412C9.60004 13.3889 10.0478 12.9412 10.6 12.9412H15.4C15.9523 12.9412 16.4 13.3889 16.4 13.9412V20H20.4V11.5882C20.4 11.036 20.8478 10.5882 21.4 10.5882H22.3553L13 2.33362L3.64482 10.5882Z" fill="#2D2E32" />
</svg>
    