<svg width="22" height="18" viewBox="0 0 22 18" fill="none" xmlns="http://www.w3.org/2000/svg">
    <path fill-rule="evenodd" clip-rule="evenodd" d="M16 9C16 8.44772 15.5523 8 15 8H2C1.44771 8 1 8.44772 1 9C1 9.55228 1.44771 10 2 10H15C15.5523 10 16 9.55228 16 9Z" />
    <path fill-rule="evenodd" clip-rule="evenodd" d="M6.70711 3.29289C6.31658 2.90237 5.68342 2.90237 5.29289 3.29289L0.292893 8.29289C-0.097631 8.68342 -0.097631 9.31658 0.292893 9.70711L5.29289 14.7071C5.68342 15.0976 6.31658 15.0976 6.70711 14.7071C7.09763 14.3166 7.09763 13.6834 6.70711 13.2929L2.41421 9L6.70711 4.70711C7.09763 4.31658 7.09763 3.68342 6.70711 3.29289Z" />
    <path fill-rule="evenodd" clip-rule="evenodd" d="M11 1C11 0.447715 11.4477 0 12 0H21C21.5523 0 22 0.447715 22 1V17C22 17.5523 21.5523 18 21 18H12C11.4477 18 11 17.5523 11 17C11 16.4477 11.4477 16 12 16H20V2H12C11.4477 2 11 1.55228 11 1Z" />
</svg>
    