<svg width="24" height="24" viewBox="0 0 24 24" fill="none" xmlns="http://www.w3.org/2000/svg">
    <path fill-rule="evenodd" clip-rule="evenodd" d="M12 10C10.8954 10 10 10.8954 10 12C10 13.1046 10.8954 14 12 14C13.1046 14 14 13.1046 14 12C14 10.8954 13.1046 10 12 10ZM8 12C8 9.79086 9.79086 8 12 8C14.2091 8 16 9.79086 16 12C16 14.2091 14.2091 16 12 16C9.79086 16 8 14.2091 8 12Z" />
    <path fill-rule="evenodd" clip-rule="evenodd" d="M9.00768 0.875929C9.07025 0.375516 9.49564 0 9.99995 0H14C14.5043 0 14.9297 0.375516 14.9922 0.875929L15.3382 3.64311C16.1373 3.96441 16.8861 4.39893 17.5616 4.9333L20.1372 3.84664C20.6019 3.65061 21.1398 3.83124 21.392 4.26799L23.392 7.73199C23.6441 8.1687 23.5316 8.72483 23.1296 9.02924L20.9056 10.7132C20.9675 11.1384 20.9991 11.5677 21 11.9979L20 12L21 12.0021C20.9991 12.4323 20.9675 12.8616 20.9056 13.2868L23.1296 14.9708C23.5316 15.2752 23.6441 15.8313 23.392 16.268L21.392 19.732C21.1398 20.1688 20.6019 20.3494 20.1372 20.1534L17.5616 19.0667C16.8861 19.6011 16.1373 20.0356 15.3382 20.3569L14.9922 23.1241C14.9297 23.6245 14.5043 24 14 24H9.99995C9.49564 24 9.07025 23.6245 9.00768 23.1241L8.66168 20.3569C7.86258 20.0356 7.11379 19.6011 6.43835 19.0667L3.86266 20.1534C3.39801 20.3494 2.8601 20.1688 2.60793 19.732L0.607933 16.268C0.355788 15.8313 0.46826 15.2752 0.870293 14.9708L3.09359 13.2873C2.9688 12.4337 2.9688 11.5663 3.09359 10.7127L0.870293 9.02924C0.46826 8.72483 0.355788 8.1687 0.607933 7.73199L2.60793 4.26799C2.8601 3.83124 3.39801 3.65061 3.86266 3.84664L6.43835 4.9333C7.11379 4.39893 7.86258 3.96441 8.66168 3.64311L9.00768 0.875929ZM19 12C18.9988 11.4962 18.9436 10.9939 18.8353 10.5019C18.7514 10.1206 18.8971 9.72541 19.2083 9.48976L21.2186 7.9676L20.1013 6.0325L17.7717 7.01536C17.4113 7.16738 16.9955 7.0954 16.7072 6.83111C15.9626 6.14851 15.0789 5.63547 14.1169 5.32734C13.7461 5.20858 13.478 4.8854 13.4297 4.49907L13.1172 2H10.8827L10.5702 4.49907C10.5219 4.8854 10.2538 5.20858 9.88299 5.32734C8.92102 5.63547 8.03729 6.14851 7.29272 6.83111C7.00445 7.0954 6.58857 7.16738 6.22824 7.01536L3.89858 6.0325L2.78132 7.9676L4.79161 9.48976C5.10341 9.72585 5.24896 10.122 5.16416 10.5038C4.94528 11.4893 4.94528 12.5107 5.16416 13.4962C5.24896 13.878 5.10341 14.2742 4.79161 14.5102L2.78132 16.0324L3.89858 17.9675L6.22824 16.9846C6.58857 16.8326 7.00445 16.9046 7.29272 17.1689C8.03729 17.8515 8.92102 18.3645 9.88299 18.6727C10.2538 18.7914 10.5219 19.1146 10.5702 19.5009L10.8827 22H13.1172L13.4297 19.5009C13.478 19.1146 13.7461 18.7914 14.1169 18.6727C15.0789 18.3645 15.9626 17.8515 16.7072 17.1689C16.9955 16.9046 17.4113 16.8326 17.7717 16.9846L20.1013 17.9675L21.2186 16.0324L19.2083 14.5102C18.8971 14.2746 18.7514 13.8794 18.8353 13.4981C18.9436 13.0061 18.9988 12.5038 19 12Z" />
</svg>
    