<svg width="24" height="24" viewBox="0 0 24 24" fill="none" xmlns="http://www.w3.org/2000/svg">
    <path fill-rule="evenodd" clip-rule="evenodd" d="M12 0C12.5523 0 13 0.447715 13 1V4C13 4.55228 12.5523 5 12 5C11.4477 5 11 4.55228 11 4V1C11 0.447715 11.4477 0 12 0Z" />
    <path fill-rule="evenodd" clip-rule="evenodd" d="M7 2C7.55228 2 8 2.44772 8 3V6C8 6.55228 7.55228 7 7 7C6.44772 7 6 6.55228 6 6V3C6 2.44772 6.44772 2 7 2Z" />
    <path fill-rule="evenodd" clip-rule="evenodd" d="M17 2C17.5523 2 18 2.44772 18 3V6C18 6.55228 17.5523 7 17 7C16.4477 7 16 6.55228 16 6V3C16 2.44772 16.4477 2 17 2Z" />
    <path fill-rule="evenodd" clip-rule="evenodd" d="M0 23C0 22.4477 0.447715 22 1 22H22.8C23.3523 22 23.8 22.4477 23.8 23C23.8 23.5523 23.3523 24 22.8 24H1C0.447715 24 0 23.5523 0 23Z" />
    <path fill-rule="evenodd" clip-rule="evenodd" d="M12 14C7.05228 14 3 18.0523 3 23C3 23.5523 2.55228 24 2 24C1.44772 24 1 23.5523 1 23C1 16.9477 5.94772 12 12 12C18.0523 12 23 16.9477 23 23C23 23.5523 22.5523 24 22 24C21.4477 24 21 23.5523 21 23C21 18.0523 16.9477 14 12 14Z" />
</svg>
    