<svg width="40" height="40" viewBox="0 0 40 40" fill="none" xmlns="http://www.w3.org/2000/svg">
    <path fill-rule="evenodd" clip-rule="evenodd" d="M9 10C9 9.44772 9.44772 9 10 9H17C17.5523 9 18 9.44772 18 10V17C18 17.5523 17.5523 18 17 18H10C9.44772 18 9 17.5523 9 17V10ZM11 11V16H16V11H11Z" fill="#2D2E32" />
    <path fill-rule="evenodd" clip-rule="evenodd" d="M22 23C22 22.4477 22.4477 22 23 22H30C30.5523 22 31 22.4477 31 23V30C31 30.5523 30.5523 31 30 31H23C22.4477 31 22 30.5523 22 30V23ZM24 24V29H29V24H24Z" fill="#2D2E32" />
    <path fill-rule="evenodd" clip-rule="evenodd" d="M9 23C9 22.4477 9.44772 22 10 22H17C17.5523 22 18 22.4477 18 23V30C18 30.5523 17.5523 31 17 31H10C9.44772 31 9 30.5523 9 30V23ZM11 24V29H16V24H11Z" fill="#2D2E32" />
    <path fill-rule="evenodd" clip-rule="evenodd" d="M30.7071 10.2929C31.0976 10.6834 31.0976 11.3166 30.7071 11.7071L25.7071 16.7071C25.3166 17.0976 24.6834 17.0976 24.2929 16.7071L22.2929 14.7071C21.9024 14.3166 21.9024 13.6834 22.2929 13.2929C22.6834 12.9024 23.3166 12.9024 23.7071 13.2929L25 14.5858L29.2929 10.2929C29.6834 9.90237 30.3166 9.90237 30.7071 10.2929Z" fill="#2D2E32" />
</svg>
    