<svg width="24" height="24" viewBox="0 0 24 24" fill="none" xmlns="http://www.w3.org/2000/svg">
    <path fill-rule="evenodd" clip-rule="evenodd" d="M5 1C5 0.447715 5.44772 0 6 0H18C18.5523 0 19 0.447715 19 1V3C19 3.55228 18.5523 4 18 4C17.4477 4 17 3.55228 17 3V2H7V3C7 3.55228 6.55228 4 6 4C5.44772 4 5 3.55228 5 3V1Z" fill="#2D2E32" />
    <path fill-rule="evenodd" clip-rule="evenodd" d="M5 7C4.20435 7 3.44129 7.31607 2.87868 7.87868C2.31607 8.44129 2 9.20435 2 10V17H6C6.55228 17 7 17.4477 7 18C7 18.5523 6.55228 19 6 19H1C0.447715 19 0 18.5523 0 18V10C0 8.67392 0.526784 7.40215 1.46447 6.46447C2.40215 5.52678 3.67392 5 5 5H19C20.3261 5 21.5979 5.52678 22.5355 6.46447C23.4732 7.40215 24 8.67392 24 10V18C24 18.5523 23.5523 19 23 19H18C17.4477 19 17 18.5523 17 18C17 17.4477 17.4477 17 18 17H22V10C22 9.20435 21.6839 8.44129 21.1213 7.87868C20.5587 7.31607 19.7956 7 19 7H5Z" fill="#2D2E32" />
    <path fill-rule="evenodd" clip-rule="evenodd" d="M5 14C5 13.4477 5.44772 13 6 13H18C18.5523 13 19 13.4477 19 14V23C19 23.5523 18.5523 24 18 24H6C5.44772 24 5 23.5523 5 23V14ZM7 15V22H17V15H7Z" fill="#2D2E32" />
</svg>
    