<svg width="20" height="23" viewBox="0 0 20 23" fill="none" xmlns="http://www.w3.org/2000/svg">
    <path fill-rule="evenodd" clip-rule="evenodd" d="M0 1C0 0.447715 0.447715 0 1 0H19C19.5523 0 20 0.447715 20 1V22C20 22.3688 19.797 22.7077 19.4719 22.8817C19.1467 23.0557 18.7522 23.0366 18.4453 22.8321L16 21.2019L13.5547 22.8321C13.2188 23.056 12.7812 23.056 12.4453 22.8321L10 21.2019L7.5547 22.8321C7.2188 23.056 6.7812 23.056 6.4453 22.8321L4 21.2019L1.5547 22.8321C1.24784 23.0366 0.8533 23.0557 0.528142 22.8817C0.202985 22.7077 0 22.3688 0 22V1ZM2 2V20.1315L3.4453 19.1679C3.7812 18.944 4.2188 18.944 4.5547 19.1679L7 20.7981L9.4453 19.1679C9.7812 18.944 10.2188 18.944 10.5547 19.1679L13 20.7981L15.4453 19.1679C15.7812 18.944 16.2188 18.944 16.5547 19.1679L18 20.1315V2H2Z" fill="#2D2E32" />
    <path fill-rule="evenodd" clip-rule="evenodd" d="M4 15C4 14.4477 4.44772 14 5 14H10C10.5523 14 11 14.4477 11 15C11 15.5523 10.5523 16 10 16H5C4.44772 16 4 15.5523 4 15Z" fill="#2D2E32" />
    <path fill-rule="evenodd" clip-rule="evenodd" d="M13 15C13 14.4477 13.4477 14 14 14H15C15.5523 14 16 14.4477 16 15C16 15.5523 15.5523 16 15 16H14C13.4477 16 13 15.5523 13 15Z" fill="#2D2E32" />
    <path fill-rule="evenodd" clip-rule="evenodd" d="M10 6C8.89543 6 8 6.89543 8 8C8 9.10457 8.89543 10 10 10C11.1046 10 12 9.10457 12 8C12 6.89543 11.1046 6 10 6ZM6 8C6 5.79086 7.79086 4 10 4C12.2091 4 14 5.79086 14 8C14 10.2091 12.2091 12 10 12C7.79086 12 6 10.2091 6 8Z" fill="#2D2E32" />
</svg>
    