<svg width="24" height="24" viewBox="0 0 24 24" fill="none" xmlns="http://www.w3.org/2000/svg">
    <path fill-rule="evenodd" clip-rule="evenodd" d="M11 5C11 4.44772 10.5523 4 10 4C4.47672 4 0 8.47672 0 14C0 19.5233 4.47672 24 10 24C15.5233 24 20 19.5233 20 14C20 13.4477 19.5523 13 19 13C18.4477 13 18 13.4477 18 14C18 18.4187 14.4187 22 10 22C5.58128 22 2 18.4187 2 14C2 9.58128 5.58128 6 10 6C10.5523 6 11 5.55228 11 5Z" fill="#2D2E32" />
    <path fill-rule="evenodd" clip-rule="evenodd" d="M24 10C24 4.47672 19.5233 0 14 0C13.4477 0 13 0.447715 13 1V10C13 10.5523 13.4477 11 14 11H23C23.5523 11 24 10.5523 24 10ZM21.9381 9H15V2.06188C18.619 2.51304 21.487 5.38095 21.9381 9Z" fill="#2D2E32" />
</svg>
    