<svg width="32" height="32" viewBox="0 0 32 32" fill="none" xmlns="http://www.w3.org/2000/svg">
    <path fill-rule="evenodd" clip-rule="evenodd" d="M14 13C14 12.4477 14.4477 12 15 12H30C30.5523 12 31 12.4477 31 13V30C31 30.5523 30.5523 31 30 31H15C14.4477 31 14 30.5523 14 30V13ZM16 14V29H29V14H16Z" fill="#2D2E32" />
    <path fill-rule="evenodd" clip-rule="evenodd" d="M1 2C1 1.44772 1.44772 1 2 1H17C17.5523 1 18 1.44772 18 2V9C18 9.55228 17.5523 10 17 10C16.4477 10 16 9.55228 16 9V3H3V18H11C11.5523 18 12 18.4477 12 19C12 19.5523 11.5523 20 11 20H2C1.44772 20 1 19.5523 1 19V2Z" fill="#2D2E32" />
    <path fill-rule="evenodd" clip-rule="evenodd" d="M23 3C23 2.44772 23.4477 2 24 2C25.5913 2 27.1174 2.63214 28.2426 3.75736C29.3679 4.88258 30 6.4087 30 8C30 8.55228 29.5523 9 29 9C28.4477 9 28 8.55228 28 8C28 6.93913 27.5786 5.92172 26.8284 5.17157C26.0783 4.42143 25.0609 4 24 4C23.4477 4 23 3.55228 23 3Z" fill="#2D2E32" />
    <path fill-rule="evenodd" clip-rule="evenodd" d="M3 23C3.55228 23 4 23.4477 4 24C4 25.0609 4.42143 26.0783 5.17157 26.8284C5.92172 27.5786 6.93913 28 8 28C8.55228 28 9 28.4477 9 29C9 29.5523 8.55228 30 8 30C6.4087 30 4.88258 29.3679 3.75736 28.2426C2.63214 27.1174 2 25.5913 2 24C2 23.4477 2.44772 23 3 23Z" fill="#2D2E32" />
</svg>
    