<svg width="32" height="32" viewBox="0 0 32 32" fill="none" xmlns="http://www.w3.org/2000/svg">
    <path fill-rule="evenodd" clip-rule="evenodd" d="M19 6.19995C19.5523 6.19995 20 6.64767 20 7.19995V8.79995C20 9.35224 19.5523 9.79995 19 9.79995C18.4477 9.79995 18 9.35224 18 8.79995V7.19995C18 6.64767 18.4477 6.19995 19 6.19995Z" fill="#2D2E32" />
    <path fill-rule="evenodd" clip-rule="evenodd" d="M25.9296 9.07048C26.3201 9.46101 26.3201 10.0942 25.9296 10.4847L24.7984 11.6159C24.4079 12.0064 23.7747 12.0064 23.3842 11.6159C22.9937 11.2254 22.9937 10.5922 23.3842 10.2017L24.5154 9.07048C24.9059 8.67996 25.5391 8.67996 25.9296 9.07048Z" fill="#2D2E32" />
    <path fill-rule="evenodd" clip-rule="evenodd" d="M12.1842 9.07048C11.7936 9.46101 11.7936 10.0942 12.1842 10.4847L13.3154 11.6159C13.7059 12.0064 14.339 12.0064 14.7296 11.6159C15.1201 11.2254 15.1201 10.5922 14.7296 10.2017L13.5984 9.07048C13.2078 8.67996 12.5747 8.67996 12.1842 9.07048Z" fill="#2D2E32" />
    <path fill-rule="evenodd" clip-rule="evenodd" d="M20.3999 16C20.3999 15.4477 20.8476 15 21.3999 15L27.7999 15C28.3522 15 28.7999 15.4477 28.7999 16C28.7999 16.5523 28.3522 17 27.7999 17L21.3999 17C20.8476 17 20.3999 16.5523 20.3999 16Z" fill="#2D2E32" />
    <path fill-rule="evenodd" clip-rule="evenodd" d="M9.19995 16C9.19995 15.4477 9.64767 15 10.2 15H11.8C12.3522 15 12.8 15.4477 12.8 16C12.8 16.5523 12.3522 17 11.8 17H10.2C9.64767 17 9.19995 16.5523 9.19995 16Z" fill="#2D2E32" />
    <path fill-rule="evenodd" clip-rule="evenodd" d="M0 24C0 23.4477 0.447715 23 1 23H11.6C12.1523 23 12.6 23.4477 12.6 24C12.6 24.5523 12.1523 25 11.6 25H1C0.447715 25 0 24.5523 0 24Z" fill="#2D2E32" />
    <path fill-rule="evenodd" clip-rule="evenodd" d="M0 20C0 19.4477 0.447715 19 1 19H7.6C8.15228 19 8.6 19.4477 8.6 20C8.6 20.5523 8.15228 21 7.6 21H1C0.447715 21 0 20.5523 0 20Z" fill="#2D2E32" />
    <path fill-rule="evenodd" clip-rule="evenodd" d="M19 5C12.9249 5 8 9.92487 8 16C8 16.5523 7.55228 17 7 17C6.44772 17 6 16.5523 6 16C6 8.8203 11.8203 3 19 3C26.1797 3 32 8.8203 32 16C32 23.1797 26.1797 29 19 29H1C0.447715 29 0 28.5523 0 28C0 27.4477 0.447715 27 1 27H19C25.0751 27 30 22.0751 30 16C30 9.92487 25.0751 5 19 5Z" fill="#2D2E32" />
    <path fill-rule="evenodd" clip-rule="evenodd" d="M19.0001 14.6001C18.2269 14.6001 17.6001 15.2269 17.6001 16.0001C17.6001 16.7733 18.2269 17.4001 19.0001 17.4001C19.7733 17.4001 20.4001 16.7733 20.4001 16.0001C20.4001 15.2269 19.7733 14.6001 19.0001 14.6001ZM15.6001 16.0001C15.6001 14.1223 17.1223 12.6001 19.0001 12.6001C20.8779 12.6001 22.4001 14.1223 22.4001 16.0001C22.4001 17.8779 20.8779 19.4001 19.0001 19.4001C17.1223 19.4001 15.6001 17.8779 15.6001 16.0001Z" fill="#2D2E32" />
</svg>
    