<svg width="32" height="32" viewBox="0 0 32 32" fill="none" xmlns="http://www.w3.org/2000/svg">
    <path fill-rule="evenodd" clip-rule="evenodd" d="M4 14C2.89543 14 2 14.8954 2 16C2 17.1046 2.89543 18 4 18C5.10457 18 6 17.1046 6 16C6 14.8954 5.10457 14 4 14ZM0 16C0 13.7909 1.79086 12 4 12C6.20914 12 8 13.7909 8 16C8 18.2091 6.20914 20 4 20C1.79086 20 0 18.2091 0 16Z" />
    <path fill-rule="evenodd" clip-rule="evenodd" d="M29.698 10.2839C30.0935 10.6694 30.1016 11.3025 29.7161 11.698L19.3161 22.368C19.1279 22.5611 18.8697 22.67 18.6 22.67C18.3303 22.67 18.0721 22.5611 17.8839 22.368L12.2839 16.6226C11.8984 16.2271 11.9065 15.594 12.302 15.2085C12.6975 14.823 13.3306 14.8311 13.7161 15.2266L18.6 20.2373L28.2839 10.302C28.6694 9.90652 29.3025 9.8984 29.698 10.2839Z" />
</svg>
    