<svg width="32" height="32" viewBox="0 0 32 32" fill="none" xmlns="http://www.w3.org/2000/svg">
    <path fill-rule="evenodd" clip-rule="evenodd" d="M3.53455 15.0962C3.34964 15.3613 3.25049 15.6767 3.25049 16C3.25049 16.3233 3.34964 16.6387 3.53455 16.9038C4.48757 18.2528 6.12483 20.2978 8.28524 21.9973C10.4488 23.6994 13.0652 25 16.0001 25C18.9349 25 21.5513 23.6994 23.7149 21.9973C25.8753 20.2978 27.5126 18.2528 28.4656 16.9039C28.6505 16.6387 28.7497 16.3233 28.7497 16C28.7497 15.6767 28.6505 15.3613 28.4656 15.0961C27.5126 13.7472 25.8753 11.7022 23.7149 10.0027C21.5513 8.30059 18.9349 7 16.0001 7C13.0652 7 10.4488 8.30059 8.28524 10.0027C6.12483 11.7022 4.48757 13.7472 3.53455 15.0962ZM7.04865 8.43077C9.41632 6.56816 12.4587 5 16.0001 5C19.5415 5 22.5838 6.56816 24.9515 8.43077C27.3212 10.295 29.0872 12.5095 30.1006 13.9443L30.1033 13.9481C30.524 14.5496 30.7497 15.2659 30.7497 16C30.7497 16.7341 30.524 17.4504 30.1033 18.0519L30.1006 18.0557C29.0872 19.4905 27.3212 21.705 24.9515 23.5692C22.5838 25.4318 19.5415 27 16.0001 27C12.4587 27 9.41632 25.4318 7.04865 23.5692C4.67889 21.705 2.91296 19.4905 1.89953 18.0557L1.89687 18.0519L1.89688 18.0519C1.47614 17.4504 1.25049 16.7341 1.25049 16C1.25049 15.2659 1.47614 14.5496 1.89688 13.9481L1.89952 13.9443L1.89953 13.9443C2.91296 12.5095 4.67889 10.295 7.04865 8.43077Z" fill="#2D2E32" />
    <path fill-rule="evenodd" clip-rule="evenodd" d="M16 12C13.7909 12 12 13.7909 12 16C12 18.2091 13.7909 20 16 20C18.2091 20 20 18.2091 20 16C20 13.7909 18.2091 12 16 12ZM10 16C10 12.6863 12.6863 10 16 10C19.3137 10 22 12.6863 22 16C22 19.3137 19.3137 22 16 22C12.6863 22 10 19.3137 10 16Z" fill="#2D2E32" />
</svg>
    