<svg width="32" height="32" viewBox="0 0 32 32" fill="none" xmlns="http://www.w3.org/2000/svg">
    <path fill-rule="evenodd" clip-rule="evenodd" d="M16 14C14.8954 14 14 14.8954 14 16C14 17.1046 14.8954 18 16 18C17.1046 18 18 17.1046 18 16C18 14.8954 17.1046 14 16 14ZM12 16C12 13.7909 13.7909 12 16 12C18.2091 12 20 13.7909 20 16C20 18.2091 18.2091 20 16 20C13.7909 20 12 18.2091 12 16Z" fill="#2D2E32" />
    <path fill-rule="evenodd" clip-rule="evenodd" d="M16.4981 2.02704C13.7691 1.85721 11.0502 2.4902 8.67682 3.84789C6.30347 5.20558 4.37964 7.22852 3.14278 9.66702C2.89296 10.1596 2.29114 10.3563 1.79859 10.1065C1.30604 9.85668 1.10928 9.25486 1.35911 8.76231C2.77265 5.97545 4.97132 3.66351 7.68372 2.11187C10.3961 0.560229 13.5035 -0.163194 16.6223 0.0309011C19.7411 0.224996 22.7349 1.32811 25.2339 3.20408C27.733 5.08005 29.6281 7.64676 30.6852 10.5874C30.872 11.1071 30.6022 11.6799 30.0824 11.8667C29.5627 12.0535 28.9899 11.7837 28.8031 11.264C27.8781 8.69092 26.22 6.44505 24.0333 4.80357C21.8466 3.1621 19.2271 2.19687 16.4981 2.02704Z" fill="#2D2E32" />
    <path fill-rule="evenodd" clip-rule="evenodd" d="M3.37404 0.225357C3.92206 0.293859 4.31079 0.793649 4.24229 1.34167L3.40176 8.06588L10.126 7.22536C10.674 7.15685 11.1738 7.54558 11.2423 8.0936C11.3108 8.64162 10.9221 9.14141 10.374 9.20991L2.37404 10.2099C2.06784 10.2482 1.76111 10.1429 1.5429 9.92474C1.32469 9.70653 1.21945 9.39981 1.25773 9.0936L2.25773 1.0936C2.32623 0.54558 2.82602 0.156854 3.37404 0.225357Z" fill="#2D2E32" />
    <path fill-rule="evenodd" clip-rule="evenodd" d="M15.0019 29.973C17.7309 30.1428 20.4498 29.5098 22.8232 28.1521C25.1965 26.7944 27.1204 24.7715 28.3572 22.333C28.607 21.8404 29.2089 21.6437 29.7014 21.8935C30.194 22.1433 30.3907 22.7451 30.1409 23.2377C28.7273 26.0245 26.5287 28.3365 23.8163 29.8881C21.1039 31.4398 17.9965 32.1632 14.8777 31.9691C11.7589 31.775 8.76514 30.6719 6.26606 28.7959C3.76697 26.9199 1.87192 24.3532 0.814817 21.4126C0.627985 20.8929 0.897846 20.3201 1.41757 20.1333C1.93729 19.9465 2.51007 20.2163 2.6969 20.736C3.62187 23.3091 5.28004 25.555 7.46674 27.1964C9.65344 28.8379 12.2729 29.8031 15.0019 29.973Z" fill="#2D2E32" />
    <path fill-rule="evenodd" clip-rule="evenodd" d="M28.126 31.7746C27.5779 31.7061 27.1892 31.2064 27.2577 30.6583L28.0982 23.9341L21.374 24.7746C20.826 24.8431 20.3262 24.4544 20.2577 23.9064C20.1892 23.3584 20.5779 22.8586 21.126 22.7901L29.126 21.7901C29.4322 21.7518 29.7389 21.8571 29.9571 22.0753C30.1753 22.2935 30.2805 22.6002 30.2423 22.9064L29.2423 30.9064C29.1738 31.4544 28.674 31.8431 28.126 31.7746Z" fill="#2D2E32" />
</svg>
    