<svg width="32" height="32" viewBox="0 0 32 32" fill="none" xmlns="http://www.w3.org/2000/svg">
    <path fill-rule="evenodd" clip-rule="evenodd" d="M15.7929 22.2929C16.1834 21.9024 16.8166 21.9024 17.2071 22.2929L23.5 28.5858L29.7929 22.2929C30.1834 21.9024 30.8166 21.9024 31.2071 22.2929C31.5976 22.6834 31.5976 23.3166 31.2071 23.7071L24.2071 30.7071C23.8166 31.0976 23.1834 31.0976 22.7929 30.7071L15.7929 23.7071C15.4024 23.3166 15.4024 22.6834 15.7929 22.2929Z" fill="#2D2E32" />
    <path fill-rule="evenodd" clip-rule="evenodd" d="M23.5 1C24.0523 1 24.5 1.44772 24.5 2V30C24.5 30.5523 24.0523 31 23.5 31C22.9477 31 22.5 30.5523 22.5 30V2C22.5 1.44772 22.9477 1 23.5 1Z" fill="#2D2E32" />
    <path fill-rule="evenodd" clip-rule="evenodd" d="M4.06023 1.65826C4.20394 1.26307 4.57952 1 5.00003 1H6.00003C6.42053 1 6.79612 1.26307 6.93982 1.65826L10.9398 12.6583C11.1286 13.1773 10.8608 13.7511 10.3418 13.9398C9.82274 14.1285 9.24897 13.8608 9.06023 13.3417L5.50003 3.55118L1.93982 13.3417C1.75108 13.8608 1.17732 14.1285 0.658285 13.9398C0.139251 13.7511 -0.128505 13.1773 0.0602346 12.6583L4.06023 1.65826Z" fill="#2D2E32" />
    <path fill-rule="evenodd" clip-rule="evenodd" d="M0.5 19C0.5 18.4477 0.947715 18 1.5 18H9.5C10.0523 18 10.5 18.4477 10.5 19V20C10.5 20.2449 10.4101 20.4813 10.2474 20.6644L2.83795 29H9.5C10.0523 29 10.5 29.4477 10.5 30C10.5 30.5523 10.0523 31 9.5 31H1.5C0.947715 31 0.5 30.5523 0.5 30V29C0.5 28.7551 0.589879 28.5187 0.752591 28.3356L8.16205 20H1.5C0.947715 20 0.5 19.5523 0.5 19Z" fill="#2D2E32" />
    <path fill-rule="evenodd" clip-rule="evenodd" d="M1.45508 9C1.45508 8.44772 1.90279 8 2.45508 8H8.54508C9.09736 8 9.54508 8.44772 9.54508 9C9.54508 9.55228 9.09736 10 8.54508 10H2.45508C1.90279 10 1.45508 9.55228 1.45508 9Z" fill="#2D2E32" />
</svg>
    