<svg width="34" height="34" viewBox="0 0 34 34" fill="none" xmlns="http://www.w3.org/2000/svg">
    <path fill-rule="evenodd" clip-rule="evenodd" d="M12 13C12 12.4477 12.4477 12 13 12H21C21.5523 12 22 12.4477 22 13V21C22 21.5523 21.5523 22 21 22H13C12.4477 22 12 21.5523 12 21V13ZM14 14V20H20V14H14Z" fill="#2D2E32" />
    <path fill-rule="evenodd" clip-rule="evenodd" d="M17 2C8.71573 2 2 8.71573 2 17C2 25.2843 8.71573 32 17 32C25.2843 32 32 25.2843 32 17C32 8.71573 25.2843 2 17 2ZM0 17C0 7.61116 7.61116 0 17 0C26.3888 0 34 7.61116 34 17C34 26.3888 26.3888 34 17 34C7.61116 34 0 26.3888 0 17Z" fill="#2D2E32" />
</svg>
    