<svg width="32" height="32" viewBox="0 0 32 32" fill="none" xmlns="http://www.w3.org/2000/svg">
    <path fill-rule="evenodd" clip-rule="evenodd" d="M13.1875 10.3124C13.1875 9.76009 13.6352 9.31238 14.1875 9.31238H20.625C21.1773 9.31238 21.625 9.76009 21.625 10.3124C21.625 10.8647 21.1773 11.3124 20.625 11.3124H14.1875C13.6352 11.3124 13.1875 10.8647 13.1875 10.3124Z" fill="#0277E7" />
    <path fill-rule="evenodd" clip-rule="evenodd" d="M13.1875 17.8124C13.1875 17.2601 13.6352 16.8124 14.1875 16.8124H20.625C21.1773 16.8124 21.625 17.2601 21.625 17.8124C21.625 18.3647 21.1773 18.8124 20.625 18.8124H14.1875C13.6352 18.8124 13.1875 18.3647 13.1875 17.8124Z" fill="#0277E7" />
    <path fill-rule="evenodd" clip-rule="evenodd" d="M23.832 18.0229C23.832 17.4707 24.2797 17.0229 24.832 17.0229H30.2104C30.7627 17.0229 31.2104 17.4707 31.2104 18.0229C31.2104 18.5752 30.7627 19.0229 30.2104 19.0229H24.832C24.2797 19.0229 23.832 18.5752 23.832 18.0229Z" fill="#0277E7" />
    <path fill-rule="evenodd" clip-rule="evenodd" d="M9.375 14.1249C9.375 13.5726 9.82272 13.1249 10.375 13.1249H21.1562C21.7085 13.1249 22.1562 13.5726 22.1562 14.1249C22.1562 14.6772 21.7085 15.1249 21.1562 15.1249H10.375C9.82272 15.1249 9.375 14.6772 9.375 14.1249Z" fill="#0277E7" />
    <path fill-rule="evenodd" clip-rule="evenodd" d="M21.4833 21.4832C21.8738 21.0927 22.507 21.0927 22.8975 21.4832L31.7072 30.2929C32.0977 30.6834 32.0977 31.3165 31.7072 31.7071C31.3167 32.0976 30.6835 32.0976 30.293 31.7071L21.4833 22.8974C21.0928 22.5069 21.0928 21.8737 21.4833 21.4832Z" fill="#2D2E32" />
    <path fill-rule="evenodd" clip-rule="evenodd" d="M13.1875 2C7.00881 2 2 7.00881 2 13.1875C2 19.3662 7.00881 24.375 13.1875 24.375C19.3662 24.375 24.375 19.3662 24.375 13.1875C24.375 7.00881 19.3662 2 13.1875 2ZM0 13.1875C0 5.90424 5.90424 0 13.1875 0C20.4708 0 26.375 5.90424 26.375 13.1875C26.375 20.4708 20.4708 26.375 13.1875 26.375C5.90424 26.375 0 20.4708 0 13.1875Z" fill="#2D2E32" />
</svg>
    