<svg width="32" height="32" viewBox="0 0 32 32" fill="none" xmlns="http://www.w3.org/2000/svg">
    <g clip-path="url(#clip0_3297_1760)">
        <path fill-rule="evenodd" clip-rule="evenodd" d="M3 24.3704C3.11606 24.263 3.29453 24.1221 3.55674 23.9602C4.00845 23.6812 4.66259 23.3684 5.56002 23.0757C7.35453 22.4906 10.0793 22 14 22C14.5523 22 15 21.5523 15 21C15 20.4477 14.5523 20 14 20C9.92073 20 6.9788 20.5094 4.93998 21.1743C3.92074 21.5066 3.11655 21.8813 2.50576 22.2586C1.91047 22.6263 1.44514 23.0295 1.16795 23.4453C1.05844 23.6096 1 23.8026 1 24V30C1 30.5523 1.44772 31 2 31H15C15.5523 31 16 30.5523 16 30C16 29.4477 15.5523 29 15 29H3V24.3704Z" fill="#2D2E32" />
        <path fill-rule="evenodd" clip-rule="evenodd" d="M15 2C11.6863 2 9 4.68629 9 8V10C9 13.3137 11.6863 16 15 16C18.3137 16 21 13.3137 21 10V8C21 4.68629 18.3137 2 15 2ZM7 8C7 3.58172 10.5817 0 15 0C19.4183 0 23 3.58172 23 8V10C23 14.4183 19.4183 18 15 18C10.5817 18 7 14.4183 7 10V8Z" fill="#2D2E32" />
        <path fill-rule="evenodd" clip-rule="evenodd" d="M25 18C25.3877 18 25.7405 18.2241 25.9052 18.575L27.533 22.0423L31.1512 22.5954C31.5216 22.6521 31.8294 22.9111 31.9483 23.2665C32.0673 23.622 31.9775 24.014 31.7158 24.2823L29.0682 26.9958L29.695 30.839C29.7566 31.217 29.597 31.597 29.2839 31.8175C28.9709 32.0381 28.5594 32.0604 28.2242 31.8752L25 30.0928L21.7758 31.8752C21.4407 32.0604 21.0292 32.0381 20.7161 31.8175C20.403 31.597 20.2434 31.217 20.3051 30.839L20.9318 26.9958L18.2843 24.2823C18.0225 24.014 17.9328 23.622 18.0517 23.2665C18.1707 22.9111 18.4784 22.6521 18.8489 22.5954L22.4671 22.0423L24.0948 18.575C24.2596 18.2241 24.6123 18 25 18ZM25 21.3531L24.0508 23.3751C23.9091 23.677 23.6263 23.8883 23.2967 23.9387L21.0747 24.2784L22.7158 25.9603C22.9374 26.1875 23.0381 26.5064 22.987 26.8196L22.6104 29.1285L24.5162 28.075C24.8173 27.9086 25.1828 27.9086 25.4838 28.075L27.3896 29.1285L27.0131 26.8196C26.962 26.5064 27.0626 26.1875 27.2843 25.9603L28.9253 24.2784L26.7034 23.9387C26.3738 23.8883 26.091 23.677 25.9493 23.3751L25 21.3531Z" fill="#0277E7" />
    </g>
    <defs>
        <clipPath id="clip0_3297_1760">
            <rect width="32" height="32" fill="white" />
        </clipPath>
    </defs>
</svg>
    