<svg width="32" height="32" viewBox="0 0 32 32" fill="none" xmlns="http://www.w3.org/2000/svg">
    <path fill-rule="evenodd" clip-rule="evenodd" d="M17 9V31H15V9H17Z" fill="#2D2E32" />
    <path fill-rule="evenodd" clip-rule="evenodd" d="M27 21H5V19H27V21Z" fill="#2D2E32" />
    <path fill-rule="evenodd" clip-rule="evenodd" d="M16.438 8.10095C20.774 10.2134 23 14.832 23 19.9999C23 25.1678 20.774 29.7865 16.438 31.8989L15.562 30.101C19.0259 28.4134 21 24.632 21 19.9999C21 15.3678 19.0259 11.5865 15.562 9.89893L16.438 8.10095Z" fill="#0277E7" />
    <path fill-rule="evenodd" clip-rule="evenodd" d="M16.438 9.89893C12.974 11.5865 11 15.3678 11 19.9999C11 24.632 12.974 28.4134 16.438 30.101L15.562 31.8989C11.226 29.7865 9 25.1678 9 19.9999C9 14.832 11.226 10.2134 15.562 8.10095L16.438 9.89893Z" fill="#0277E7" />
    <path fill-rule="evenodd" clip-rule="evenodd" d="M16 10C10.4772 10 6 14.4772 6 20C6 25.5228 10.4772 30 16 30C21.5228 30 26 25.5228 26 20C26 14.4772 21.5228 10 16 10ZM4 20C4 13.3726 9.37258 8 16 8C22.6274 8 28 13.3726 28 20C28 26.6274 22.6274 32 16 32C9.37258 32 4 26.6274 4 20Z" fill="#2D2E32" />
    <path fill-rule="evenodd" clip-rule="evenodd" d="M15 7V8H17V7H15ZM14 5C13.4477 5 13 5.44772 13 6V9C13 9.55228 13.4477 10 14 10H18C18.5523 10 19 9.55228 19 9V6C19 5.44772 18.5523 5 18 5H14Z" fill="#2D2E32" />
    <path fill-rule="evenodd" clip-rule="evenodd" d="M16 7C15.4477 7 15 6.55228 15 6V1C15 0.447715 15.4477 0 16 0C16.5523 0 17 0.447715 17 1V6C17 6.55228 16.5523 7 16 7Z" fill="#2D2E32" />
</svg>
    