<svg width="32" height="32" viewBox="0 0 32 32" fill="none" xmlns="http://www.w3.org/2000/svg">
    <path fill-rule="evenodd" clip-rule="evenodd" d="M15 5C15 4.44772 14.5523 4 14 4L1 4C0.447715 4 0 4.44772 0 5V10C0 10.5523 0.447715 11 1 11C1.55229 11 2 10.5523 2 10V6L14 6C14.5523 6 15 5.55228 15 5Z" fill="#2D2E32" />
    <path fill-rule="evenodd" clip-rule="evenodd" d="M14.7071 5.70711C15.0976 5.31658 15.0976 4.68342 14.7071 4.29289L10.7071 0.292893C10.3166 -0.0976315 9.68342 -0.0976315 9.29289 0.292893C8.90237 0.683417 8.90237 1.31658 9.29289 1.70711L12.5858 5L9.29289 8.29289C8.90237 8.68342 8.90237 9.31658 9.29289 9.70711C9.68342 10.0976 10.3166 10.0976 10.7071 9.70711L14.7071 5.70711Z" fill="#2D2E32" />
    <path fill-rule="evenodd" clip-rule="evenodd" d="M17 27C17 27.5523 17.4477 28 18 28H31C31.5523 28 32 27.5523 32 27V22C32 21.4477 31.5523 21 31 21C30.4477 21 30 21.4477 30 22V26H18C17.4477 26 17 26.4477 17 27Z" fill="#2D2E32" />
    <path fill-rule="evenodd" clip-rule="evenodd" d="M17.2929 26.2929C16.9024 26.6834 16.9024 27.3166 17.2929 27.7071L21.2929 31.7071C21.6834 32.0976 22.3166 32.0976 22.7071 31.7071C23.0976 31.3166 23.0976 30.6834 22.7071 30.2929L19.4142 27L22.7071 23.7071C23.0976 23.3166 23.0976 22.6834 22.7071 22.2929C22.3166 21.9024 21.6834 21.9024 21.2929 22.2929L17.2929 26.2929Z" fill="#2D2E32" />
    <path fill-rule="evenodd" clip-rule="evenodd" d="M22.7071 11.2929C23.0976 11.6834 23.0976 12.3166 22.7071 12.7071L14.7071 20.7071C14.3166 21.0976 13.6834 21.0976 13.2929 20.7071L9.29289 16.7071C8.90237 16.3166 8.90237 15.6834 9.29289 15.2929C9.68342 14.9024 10.3166 14.9024 10.7071 15.2929L14 18.5858L21.2929 11.2929C21.6834 10.9024 22.3166 10.9024 22.7071 11.2929Z" fill="#0277E7" />
</svg>
    