<svg width="33" height="33" viewBox="0 0 33 33" fill="none" xmlns="http://www.w3.org/2000/svg">
    <path fill-rule="evenodd" clip-rule="evenodd" d="M25.5 24.5C25.2239 24.5 25 24.7239 25 25C25 25.2761 25.2239 25.5 25.5 25.5C25.7761 25.5 26 25.2761 26 25C26 24.7239 25.7761 24.5 25.5 24.5ZM23 25C23 23.6193 24.1193 22.5 25.5 22.5C26.8807 22.5 28 23.6193 28 25C28 26.3807 26.8807 27.5 25.5 27.5C24.1193 27.5 23 26.3807 23 25Z" fill="#0277E7" />
    <path fill-rule="evenodd" clip-rule="evenodd" d="M29.6299 23.9091C29.7264 24.2646 29.7775 24.6312 29.7819 25C29.7775 25.3688 29.7264 25.7354 29.6299 26.0909L31.0001 27.2855L30.1972 28.7036L28.507 28.0982C27.9851 28.6189 27.3408 28.9945 26.6358 29.1891L26.3029 31H24.6972L24.3643 29.1945C23.6593 29 23.0151 28.6244 22.4932 28.1036L20.8029 28.7091L20.0001 27.2909L21.3703 26.0909C21.2738 25.7354 21.2227 25.3688 21.2183 25C21.2227 24.6312 21.2738 24.2646 21.3703 23.9091L20.0001 22.7091L20.8029 21.2909L22.4932 21.9018C23.0151 21.3811 23.6593 21.0055 24.3643 20.8109L24.6972 19H26.3029L26.6358 20.8065C27.3408 21.0011 27.9851 21.3767 28.507 21.8975L30.1972 21.2909L31.0001 22.7091L29.6299 23.9091ZM28.8744 19.6408L29.5217 19.4084C30.4381 19.0796 31.4581 19.4584 31.9377 20.3056L32.7406 21.7238C33.2077 22.549 33.0311 23.5889 32.3178 24.2137L31.772 24.6916C31.7774 24.7863 31.7806 24.8811 31.7818 24.9759L31.4427 24.98L31.421 24.9991L31.445 25.02L31.7818 25.0241C31.7806 25.1179 31.7774 25.2116 31.7722 25.3052L32.3144 25.7779C33.0304 26.4022 33.2086 27.444 32.7406 28.2707L31.9377 29.6889C31.4583 30.5358 30.4389 30.9146 29.5228 30.5865L28.875 30.3545C28.7223 30.4524 28.5655 30.5437 28.4048 30.6281L28.27 31.3616C28.0955 32.3108 27.268 33 26.3029 33H24.6972C23.7326 33 22.9053 32.3114 22.7304 31.3627L22.596 30.6339C22.4352 30.5494 22.2781 30.458 22.1251 30.3599L21.4774 30.5919C20.5612 30.9201 19.5419 30.5412 19.0625 29.6944L18.2596 28.2762C17.7925 27.451 17.969 26.4111 18.6824 25.7864L19.2282 25.3084C19.2228 25.2137 19.2196 25.1189 19.2184 25.0241C19.2182 25.008 19.2182 24.992 19.2184 24.9759C19.2196 24.8811 19.2228 24.7863 19.2282 24.6916L18.6824 24.2137C17.969 23.5889 17.7925 22.549 18.2596 21.7238L19.0625 20.3056C19.5429 19.4569 20.5655 19.0785 21.4828 19.41L22.1285 19.6434C22.2801 19.5462 22.4359 19.4556 22.5954 19.3719L22.7302 18.6384C22.9047 17.6892 23.7321 17 24.6972 17H26.3029C27.2677 17 28.095 17.6887 28.2698 18.6375L28.4043 19.3673C28.5649 19.4516 28.7217 19.5428 28.8744 19.6408ZM30.5831 24.9975L30.5727 25.0095L29.7819 25L30.5769 24.9904L30.5831 24.9975Z" fill="#0277E7" />
    <path fill-rule="evenodd" clip-rule="evenodd" d="M7 9C7 8.44772 7.44772 8 8 8H20C20.5523 8 21 8.44772 21 9V16C21 16.5523 20.5523 17 20 17C19.4477 17 19 16.5523 19 16V10H9V29C9 29.2652 9.10536 29.5196 9.29289 29.7071C9.48043 29.8946 9.73478 30 10 30H16C16.5523 30 17 30.4477 17 31C17 31.5523 16.5523 32 16 32H10C9.20435 32 8.44129 31.6839 7.87868 31.1213C7.31607 30.5587 7 29.7957 7 29V9Z" fill="#2D2E32" />
    <path fill-rule="evenodd" clip-rule="evenodd" d="M6 1C6 0.447715 6.44772 0 7 0H12C12.5043 0 12.9297 0.375536 12.9923 0.875965L13.9923 8.87597C14.0608 9.42399 13.6721 9.92378 13.124 9.99228C12.576 10.0608 12.0762 9.67205 12.0077 9.12403L11.1172 2H7C6.44772 2 6 1.55228 6 1Z" fill="#2D2E32" />
</svg>
    