<svg width="32" height="32" viewBox="0 0 32 32" fill="none" xmlns="http://www.w3.org/2000/svg">
    <path fill-rule="evenodd" clip-rule="evenodd" d="M0 1C0 0.447715 0.447715 0 1 0H31C31.5523 0 32 0.447715 32 1V11C32 11.5523 31.5523 12 31 12C30.4477 12 30 11.5523 30 11V2H2V30H11C11.5523 30 12 30.4477 12 31C12 31.5523 11.5523 32 11 32H1C0.447715 32 0 31.5523 0 31V1Z" fill="#2D2E32" />
    <path fill-rule="evenodd" clip-rule="evenodd" d="M15 16C15 15.4477 15.4477 15 16 15H31C31.5523 15 32 15.4477 32 16V31C32 31.5523 31.5523 32 31 32H16C15.4477 32 15 31.5523 15 31V16ZM17 17V30H30V17H17Z" fill="#0277E7" />
    <path fill-rule="evenodd" clip-rule="evenodd" d="M22.0859 23.5001L15.293 16.7072L16.7072 15.293L23.5001 22.0859L30.293 15.293L31.7072 16.7072L24.9143 23.5001L31.7072 30.293L30.293 31.7072L23.5001 24.9143L16.7072 31.7072L15.293 30.293L22.0859 23.5001Z" fill="#0277E7" />
</svg>
    