<svg width="32" height="32" viewBox="0 0 32 32" fill="none" xmlns="http://www.w3.org/2000/svg">
    <g clip-path="url(#clip0_3297_2909)">
        <path fill-rule="evenodd" clip-rule="evenodd" d="M3 24.3704C3.11606 24.263 3.29453 24.1221 3.55674 23.9602C4.00845 23.6812 4.66259 23.3684 5.56002 23.0757C7.35453 22.4906 10.0793 22 14 22C14.5523 22 15 21.5523 15 21C15 20.4477 14.5523 20 14 20C9.92073 20 6.9788 20.5094 4.93998 21.1743C3.92074 21.5066 3.11655 21.8813 2.50576 22.2586C1.91047 22.6263 1.44514 23.0295 1.16795 23.4453C1.05844 23.6096 1 23.8026 1 24V30C1 30.5523 1.44772 31 2 31H15C15.5523 31 16 30.5523 16 30C16 29.4477 15.5523 29 15 29H3V24.3704Z" fill="#2D2E32" />
        <path fill-rule="evenodd" clip-rule="evenodd" d="M15 2C11.6863 2 9 4.68629 9 8V10C9 13.3137 11.6863 16 15 16C18.3137 16 21 13.3137 21 10V8C21 4.68629 18.3137 2 15 2ZM7 8C7 3.58172 10.5817 0 15 0C19.4183 0 23 3.58172 23 8V10C23 14.4183 19.4183 18 15 18C10.5817 18 7 14.4183 7 10V8Z" fill="#2D2E32" />
        <path fill-rule="evenodd" clip-rule="evenodd" d="M24.5 23.5C24.2239 23.5 24 23.7239 24 24C24 24.2761 24.2239 24.5 24.5 24.5C24.7761 24.5 25 24.2761 25 24C25 23.7239 24.7761 23.5 24.5 23.5ZM22 24C22 22.6193 23.1193 21.5 24.5 21.5C25.8807 21.5 27 22.6193 27 24C27 25.3807 25.8807 26.5 24.5 26.5C23.1193 26.5 22 25.3807 22 24Z" fill="#0277E7" />
        <path fill-rule="evenodd" clip-rule="evenodd" d="M28.6299 22.9091C28.7264 23.2646 28.7775 23.6312 28.7819 24C28.7775 24.3688 28.7264 24.7354 28.6299 25.0909L30.0001 26.2855L29.1972 27.7036L27.507 27.0982C26.9851 27.6189 26.3408 27.9945 25.6358 28.1891L25.3029 30H23.6972L23.3643 28.1945C22.6593 28 22.0151 27.6244 21.4932 27.1036L19.8029 27.7091L19.0001 26.2909L20.3703 25.0909C20.2738 24.7354 20.2227 24.3688 20.2183 24C20.2227 23.6312 20.2738 23.2646 20.3703 22.9091L19.0001 21.7091L19.8029 20.2909L21.4932 20.9018C22.0151 20.3811 22.6593 20.0055 23.3643 19.8109L23.6972 18H25.3029L25.6358 19.8065C26.3408 20.0011 26.9851 20.3767 27.507 20.8975L29.1972 20.2909L30.0001 21.7091L28.6299 22.9091ZM27.8744 18.6408L28.5217 18.4084C29.4381 18.0796 30.4581 18.4584 30.9377 19.3056L31.7406 20.7238C32.2077 21.549 32.0311 22.5889 31.3178 23.2137L30.772 23.6916C30.7774 23.7863 30.7806 23.8811 30.7818 23.9759L30.4427 23.98L30.421 23.9991L30.445 24.02L30.7818 24.0241C30.7806 24.1179 30.7774 24.2116 30.7722 24.3052L31.3144 24.7779C32.0304 25.4022 32.2086 26.444 31.7406 27.2707L30.9377 28.6889C30.4583 29.5358 29.4389 29.9146 28.5228 29.5865L27.875 29.3545C27.7223 29.4524 27.5655 29.5437 27.4048 29.6281L27.27 30.3616C27.0955 31.3108 26.268 32 25.3029 32H23.6972C22.7326 32 21.9053 31.3114 21.7304 30.3627L21.596 29.6339C21.4352 29.5494 21.2781 29.458 21.1251 29.3599L20.4774 29.5919C19.5612 29.9201 18.5419 29.5412 18.0625 28.6944L17.2596 27.2762C16.7925 26.451 16.969 25.4111 17.6824 24.7864L18.2282 24.3084C18.2228 24.2137 18.2196 24.1189 18.2184 24.0241C18.2182 24.008 18.2182 23.992 18.2184 23.9759C18.2196 23.8811 18.2228 23.7863 18.2282 23.6916L17.6824 23.2137C16.969 22.5889 16.7925 21.549 17.2596 20.7238L18.0625 19.3056C18.5429 18.4569 19.5655 18.0785 20.4828 18.41L21.1285 18.6434C21.2801 18.5462 21.4359 18.4556 21.5954 18.3719L21.7302 17.6384C21.9047 16.6892 22.7321 16 23.6972 16H25.3029C26.2677 16 27.095 16.6887 27.2698 17.6375L27.4043 18.3673C27.5649 18.4516 27.7217 18.5428 27.8744 18.6408ZM29.5831 23.9975L29.5727 24.0095L28.7819 24L29.5769 23.9904L29.5831 23.9975Z" fill="#0277E7" />
    </g>
    <defs>
        <clipPath id="clip0_3297_2909">
            <rect width="32" height="32" fill="white" />
        </clipPath>
    </defs>
</svg>
    