<svg width="32" height="32" viewBox="0 0 32 32" fill="none" xmlns="http://www.w3.org/2000/svg">
    <path fill-rule="evenodd" clip-rule="evenodd" d="M24.7927 19.7931C25.1831 19.4024 25.8163 19.4023 26.2069 19.7927L29.464 23.0481L29.4641 23.0482C29.951 23.535 30.3373 24.1129 30.6008 24.749C30.8643 25.3851 31 26.0669 31 26.7554C31 27.4439 30.8643 28.1257 30.6008 28.7618C30.3373 29.3978 29.9511 29.9757 29.4643 30.4624C29.4642 30.4625 29.4642 30.4625 29.4642 30.4625C29.4641 30.4626 29.4641 30.4626 29.4641 30.4626C28.9773 30.9495 28.3994 31.3357 27.7635 31.5991C27.1274 31.8627 26.4456 31.9983 25.7571 31.9983C25.0685 31.9983 24.3868 31.8627 23.7507 31.5991C23.1147 31.3357 22.5368 30.9495 22.0501 30.4627C22.0501 30.4626 22.05 30.4626 22.05 30.4626C22.0499 30.4625 22.0499 30.4625 22.0498 30.4624L17.793 26.2072C17.4024 25.8168 17.4023 25.1836 17.7928 24.793C18.1832 24.4024 18.8164 24.4023 19.207 24.7928L23.464 29.0482L23.4643 29.0484C23.7653 29.3496 24.1228 29.5885 24.5162 29.7514C24.9096 29.9144 25.3312 29.9983 25.7571 29.9983C26.1829 29.9983 26.6045 29.9144 26.9979 29.7514C27.3913 29.5885 27.7488 29.3496 28.0498 29.0484L28.0501 29.0482C28.3512 28.7471 28.5901 28.3897 28.7531 27.9963C28.9161 27.6029 29 27.1812 29 26.7554C29 26.3296 28.9161 25.9079 28.7531 25.5145C28.5901 25.1212 28.3512 24.7637 28.0501 24.4627C28.0501 24.4627 28.0501 24.4627 28.0501 24.4626L24.7931 21.2073C24.4024 20.8169 24.4023 20.1837 24.7927 19.7931Z" fill="#2D2E32" />
    <path fill-rule="evenodd" clip-rule="evenodd" d="M4.29289 2.29131C4.68342 1.90078 5.31658 1.90078 5.70711 2.29131L15.3461 11.9303C15.7366 12.3208 15.7366 12.954 15.3461 13.3445C14.9556 13.735 14.3224 13.735 13.9319 13.3445L5 4.41263L3.41421 5.99841L12.2081 14.7923C12.5986 15.1828 12.5986 15.816 12.2081 16.2065C11.8176 16.597 11.1844 16.597 10.7939 16.2065L1.29289 6.70552C0.902369 6.315 0.902369 5.68183 1.29289 5.29131L4.29289 2.29131Z" fill="#2D2E32" />
    <path fill-rule="evenodd" clip-rule="evenodd" d="M21.2072 1.20094C22.5808 0.86813 24.0179 0.950132 25.3469 1.43656C25.6646 1.55284 25.9019 1.82184 25.9777 2.15152C26.0536 2.4812 25.9576 2.82687 25.7226 3.07023L22.5314 6.37534L25.7755 9.73529L28.9179 6.48068C29.1599 6.23001 29.515 6.1234 29.8551 6.19928C30.1952 6.27515 30.4712 6.52258 30.5837 6.85235C31.0467 8.2091 31.1251 9.67318 30.8108 11.0733C30.5138 12.7223 29.7412 14.2446 28.5888 15.4381C27.4365 16.6316 25.9583 17.4402 24.3464 17.7521C23.209 18.0257 22.0284 18.015 20.9021 17.7259L10.5533 30.0769L10.5517 30.0788C10.0641 30.6578 9.46414 31.1287 8.78826 31.4597C8.11227 31.7908 7.37591 31.9743 6.62563 31.9975C5.87534 32.0207 5.12934 31.883 4.43485 31.594C3.74307 31.3061 3.1185 30.8749 2.59892 30.3293C2.07199 29.791 1.6596 29.1483 1.38561 28.4419C1.11061 27.733 0.980425 26.9741 1.00238 26.2124C1.02433 25.4506 1.19801 24.7008 1.5136 24.0095C1.82923 23.3182 2.28052 22.6994 2.84108 22.193L2.84292 22.1914L14.825 11.4218C14.6037 10.2731 14.5763 9.09211 14.7453 7.93116C14.7479 7.91355 14.7509 7.89601 14.7544 7.87856C15.0825 6.24291 15.8657 4.73769 17.0128 3.54966C18.1569 2.36462 19.6138 1.54659 21.2072 1.20094ZM23.0089 3.00142C22.5601 2.99087 22.1097 3.03924 21.6684 3.14707C21.6594 3.14926 21.6504 3.15133 21.6414 3.15328C20.4375 3.41229 19.3281 4.03099 18.4516 4.93885C17.5807 5.84085 16.9778 6.98911 16.7206 8.24587C16.5647 9.34126 16.6248 10.4581 16.8971 11.5284C16.9888 11.8887 16.873 12.2701 16.5965 12.5187L4.18172 23.6772C4.18144 23.6774 4.18117 23.6777 4.18089 23.6779C3.82598 23.9987 3.53666 24.394 3.33295 24.8402C3.12905 25.2868 3.01585 25.7736 3.00155 26.27C2.98724 26.7663 3.07219 27.2597 3.25024 27.7186C3.42826 28.1776 3.69498 28.591 4.03179 28.9339L4.04358 28.9461C4.3748 29.2951 4.76997 29.5672 5.20321 29.7475C5.63634 29.9277 6.09942 30.0128 6.56383 29.9984C7.02824 29.9841 7.48597 29.8705 7.90858 29.6635C8.33097 29.4567 8.71018 29.1604 9.02116 28.7914C9.0214 28.7911 9.02164 28.7908 9.02188 28.7905L19.7956 15.9323C20.0662 15.6094 20.5102 15.4907 20.9058 15.6355C21.8676 15.9875 22.9054 16.0454 23.8969 15.8031C23.9137 15.799 23.9306 15.7954 23.9475 15.7922C25.156 15.5624 26.2736 14.9566 27.15 14.0489C28.0268 13.1408 28.6201 11.9737 28.8457 10.7005C28.8486 10.6846 28.8518 10.6687 28.8554 10.6529C28.9587 10.1995 29.0064 9.73687 28.9993 9.27577L26.4949 11.8696C26.3065 12.0647 26.0468 12.175 25.7755 12.175C25.5042 12.175 25.2446 12.0647 25.0561 11.8696L20.422 7.06993C20.0479 6.68244 20.0479 6.06824 20.422 5.68074L23.0089 3.00142Z" fill="#2D2E32" />
</svg>
    