<svg width="32" height="32" viewBox="0 0 32 32" fill="none" xmlns="http://www.w3.org/2000/svg">
    <path fill-rule="evenodd" clip-rule="evenodd" d="M16 2C14.6754 2.00474 13.4064 2.53302 12.4697 3.46971C11.5327 4.40676 11.0043 5.67641 11 7.00155V10.782H9V6.99701C9.00554 5.14299 9.7445 3.36649 11.0555 2.05549C12.3665 0.744498 14.143 0.00553715 15.997 0L16 0.999996L16.003 0C17.857 0.00553715 19.6335 0.744498 20.9445 2.05549C22.2555 3.36649 22.9945 5.14299 23 6.99701L23 7L23 10.783H21V7.00146C20.9956 5.67635 20.4673 4.40673 19.5303 3.46971C18.5936 2.53302 17.3246 2.00474 16 2Z" fill="#2D2E32" />
    <path fill-rule="evenodd" clip-rule="evenodd" d="M16 10C10.4772 10 6 14.4772 6 20C6 25.5228 10.4772 30 16 30C21.5228 30 26 25.5228 26 20C26 14.4772 21.5228 10 16 10ZM4 20C4 13.3726 9.37258 8 16 8C22.6274 8 28 13.3726 28 20C28 26.6274 22.6274 32 16 32C9.37258 32 4 26.6274 4 20Z" fill="#2D2E32" />
    <path fill-rule="evenodd" clip-rule="evenodd" d="M17 21V26H15V21H17Z" fill="#2D2E32" />
    <path fill-rule="evenodd" clip-rule="evenodd" d="M16 17C14.8954 17 14 17.8954 14 19C14 20.1046 14.8954 21 16 21C17.1046 21 18 20.1046 18 19C18 17.8954 17.1046 17 16 17ZM12 19C12 16.7909 13.7909 15 16 15C18.2091 15 20 16.7909 20 19C20 21.2091 18.2091 23 16 23C13.7909 23 12 21.2091 12 19Z" fill="#2D2E32" />
</svg>
    