<svg width="32" height="32" viewBox="0 0 32 32" fill="none" xmlns="http://www.w3.org/2000/svg">
    <path d="M4 8C5.65685 8 7 6.65685 7 5C7 3.34315 5.65685 2 4 2C2.34315 2 1 3.34315 1 5C1 6.65685 2.34315 8 4 8Z" stroke="#0277E7" stroke-width="2" stroke-miterlimit="10" stroke-linecap="round" stroke-linejoin="round" />
    <path d="M4 19C5.65685 19 7 17.6569 7 16C7 14.3431 5.65685 13 4 13C2.34315 13 1 14.3431 1 16C1 17.6569 2.34315 19 4 19Z" stroke="#0277E7" stroke-width="2" stroke-miterlimit="10" stroke-linecap="round" stroke-linejoin="round" />
    <path d="M4 30C5.65685 30 7 28.6569 7 27C7 25.3431 5.65685 24 4 24C2.34315 24 1 25.3431 1 27C1 28.6569 2.34315 30 4 30Z" stroke="#0277E7" stroke-width="2" stroke-miterlimit="10" stroke-linecap="round" stroke-linejoin="round" />
    <path d="M28 10L14 24" stroke="#2D2E32" stroke-width="2" stroke-linecap="round" stroke-linejoin="round" />
    <path d="M14 10L28 24" stroke="#2D2E32" stroke-width="2" stroke-linecap="round" stroke-linejoin="round" />
</svg>
    