<svg width="32" height="32" viewBox="0 0 32 32" fill="none" xmlns="http://www.w3.org/2000/svg">
    <path fill-rule="evenodd" clip-rule="evenodd" d="M4 14C2.89543 14 2 14.8954 2 16C2 17.1046 2.89543 18 4 18C5.10457 18 6 17.1046 6 16C6 14.8954 5.10457 14 4 14ZM0 16C0 13.7909 1.79086 12 4 12C6.20914 12 8 13.7909 8 16C8 18.2091 6.20914 20 4 20C1.79086 20 0 18.2091 0 16Z" fill="#2D2E32" />
    <path fill-rule="evenodd" clip-rule="evenodd" d="M28.7071 9.29289C29.0976 9.68342 29.0976 10.3166 28.7071 10.7071L14.7071 24.7071C14.3166 25.0976 13.6834 25.0976 13.2929 24.7071C12.9024 24.3166 12.9024 23.6834 13.2929 23.2929L27.2929 9.29289C27.6834 8.90237 28.3166 8.90237 28.7071 9.29289Z" fill="#2D2E32" />
    <path fill-rule="evenodd" clip-rule="evenodd" d="M13.2929 9.29289C13.6834 8.90237 14.3166 8.90237 14.7071 9.29289L28.7071 23.2929C29.0976 23.6834 29.0976 24.3166 28.7071 24.7071C28.3166 25.0976 27.6834 25.0976 27.2929 24.7071L13.2929 10.7071C12.9024 10.3166 12.9024 9.68342 13.2929 9.29289Z" fill="#2D2E32" />
</svg>
    