<svg width="32" height="32" viewBox="0 0 32 32" fill="none" xmlns="http://www.w3.org/2000/svg">
    <path fill-rule="evenodd" clip-rule="evenodd" d="M4 3C2.89543 3 2 3.89543 2 5C2 6.10457 2.89543 7 4 7C5.10457 7 6 6.10457 6 5C6 3.89543 5.10457 3 4 3ZM0 5C0 2.79086 1.79086 1 4 1C6.20914 1 8 2.79086 8 5C8 7.20914 6.20914 9 4 9C1.79086 9 0 7.20914 0 5Z" fill="#0277E7" />
    <path fill-rule="evenodd" clip-rule="evenodd" d="M4 14C2.89543 14 2 14.8954 2 16C2 17.1046 2.89543 18 4 18C5.10457 18 6 17.1046 6 16C6 14.8954 5.10457 14 4 14ZM0 16C0 13.7909 1.79086 12 4 12C6.20914 12 8 13.7909 8 16C8 18.2091 6.20914 20 4 20C1.79086 20 0 18.2091 0 16Z" fill="#0277E7" />
    <path fill-rule="evenodd" clip-rule="evenodd" d="M4 25C2.89543 25 2 25.8954 2 27C2 28.1046 2.89543 29 4 29C5.10457 29 6 28.1046 6 27C6 25.8954 5.10457 25 4 25ZM0 27C0 24.7909 1.79086 23 4 23C6.20914 23 8 24.7909 8 27C8 29.2091 6.20914 31 4 31C1.79086 31 0 29.2091 0 27Z" fill="#0277E7" />
    <path fill-rule="evenodd" clip-rule="evenodd" d="M29.6744 10.2616C30.0822 10.634 30.1109 11.2665 29.7384 11.6744L19.9972 22.341C19.6283 22.745 19.0032 22.7775 18.5943 22.414L12.3355 16.8488C11.9228 16.4818 11.8857 15.8497 12.2527 15.437C12.6197 15.0242 13.2518 14.9872 13.6645 15.3542L19.1859 20.2636L28.2616 10.3257C28.634 9.91784 29.2665 9.88916 29.6744 10.2616Z" fill="#2D2E32" />
</svg>
    