<svg width="32" height="32" viewBox="0 0 32 32" fill="none" xmlns="http://www.w3.org/2000/svg">
    <path fill-rule="evenodd" clip-rule="evenodd" d="M15.997 1.78218e-05L16.003 0C17.857 0.00555497 19.6335 0.744516 20.9445 2.05551C21.335 2.44604 21.335 3.0792 20.9445 3.46972C20.554 3.86025 19.9208 3.86025 19.5303 3.46972C18.5936 2.53304 17.3246 2.00476 16 2.00002C14.6754 2.00476 13.4064 2.53304 12.4697 3.46972C11.5327 4.40677 11.0043 5.67643 11 7.00157V10.782C11 11.3343 10.5523 11.782 10 11.782C9.44772 11.782 9 11.3343 9 10.782V6.99703C9.00554 5.14301 9.7445 3.36651 11.0555 2.05551C12.3665 0.744516 14.143 0.00555497 15.997 1.78218e-05Z" />
    <path fill-rule="evenodd" clip-rule="evenodd" d="M16 10C10.4772 10 6 14.4772 6 20C6 25.5228 10.4772 30 16 30C21.5228 30 26 25.5228 26 20C26 14.4772 21.5228 10 16 10ZM4 20C4 13.3726 9.37258 8 16 8C22.6274 8 28 13.3726 28 20C28 26.6274 22.6274 32 16 32C9.37258 32 4 26.6274 4 20Z" />
    <path fill-rule="evenodd" clip-rule="evenodd" d="M17 21V26H15V21H17Z" />
    <path fill-rule="evenodd" clip-rule="evenodd" d="M16 17C14.8954 17 14 17.8954 14 19C14 20.1046 14.8954 21 16 21C17.1046 21 18 20.1046 18 19C18 17.8954 17.1046 17 16 17ZM12 19C12 16.7909 13.7909 15 16 15C18.2091 15 20 16.7909 20 19C20 21.2091 18.2091 23 16 23C13.7909 23 12 21.2091 12 19Z" />
</svg>
    