<svg width="32" height="32" viewBox="0 0 32 32" fill="none" xmlns="http://www.w3.org/2000/svg">
    <path fill-rule="evenodd" clip-rule="evenodd" d="M16 2C8.26801 2 2 8.26801 2 16C2 23.732 8.26801 30 16 30C23.732 30 30 23.732 30 16C30 8.26801 23.732 2 16 2ZM0 16C0 7.16344 7.16344 0 16 0C24.8366 0 32 7.16344 32 16C32 24.8366 24.8366 32 16 32C7.16344 32 0 24.8366 0 16Z" />
    <path fill-rule="evenodd" clip-rule="evenodd" d="M12.5152 10.1254C12.8332 9.94913 13.2217 9.95933 13.53 10.152L21.53 15.152C21.8224 15.3347 22 15.6552 22 16C22 16.3448 21.8224 16.6653 21.53 16.848L13.53 21.848C13.2217 22.0407 12.8332 22.0509 12.5152 21.8746C12.1973 21.6984 12 21.3635 12 21V11C12 10.6365 12.1973 10.3016 12.5152 10.1254ZM14 12.8042V19.1958L19.1132 16L14 12.8042Z" />
</svg>
    