<svg width="32" height="32" viewBox="0 0 32 32" fill="none" xmlns="http://www.w3.org/2000/svg">
    <path fill-rule="evenodd" clip-rule="evenodd" d="M15.5294 0.117647C15.8235 -0.0392157 16.1765 -0.0392157 16.4706 0.117647L31.4706 8.11765C31.7965 8.29144 32 8.63069 32 9V13C32 13.5523 31.5523 14 31 14H1C0.447715 14 0 13.5523 0 13V9C0 8.63069 0.203548 8.29144 0.529412 8.11765L15.5294 0.117647ZM2 9.6V12H30V9.6L16 2.13333L2 9.6Z" fill="#2D2E32" />
    <path fill-rule="evenodd" clip-rule="evenodd" d="M4 15C4.55228 15 5 15.4477 5 16V24C5 24.5523 4.55228 25 4 25C3.44772 25 3 24.5523 3 24V16C3 15.4477 3.44772 15 4 15Z" fill="#0277E7" />
    <path fill-rule="evenodd" clip-rule="evenodd" d="M12 15C12.5523 15 13 15.4477 13 16V24C13 24.5523 12.5523 25 12 25C11.4477 25 11 24.5523 11 24V16C11 15.4477 11.4477 15 12 15Z" fill="#0277E7" />
    <path fill-rule="evenodd" clip-rule="evenodd" d="M20 15C20.5523 15 21 15.4477 21 16V24C21 24.5523 20.5523 25 20 25C19.4477 25 19 24.5523 19 24V16C19 15.4477 19.4477 15 20 15Z" fill="#0277E7" />
    <path fill-rule="evenodd" clip-rule="evenodd" d="M28 15C28.5523 15 29 15.4477 29 16V24C29 24.5523 28.5523 25 28 25C27.4477 25 27 24.5523 27 24V16C27 15.4477 27.4477 15 28 15Z" fill="#0277E7" />
    <path fill-rule="evenodd" clip-rule="evenodd" d="M16 7C15.4477 7 15 7.44772 15 8C15 8.55228 15.4477 9 16 9C16.5523 9 17 8.55228 17 8C17 7.44772 16.5523 7 16 7ZM13 8C13 6.34315 14.3431 5 16 5C17.6569 5 19 6.34315 19 8C19 9.65685 17.6569 11 16 11C14.3431 11 13 9.65685 13 8Z" fill="#2D2E32" />
    <path fill-rule="evenodd" clip-rule="evenodd" d="M0 27C0 26.4477 0.447715 26 1 26H31C31.5523 26 32 26.4477 32 27V31C32 31.5523 31.5523 32 31 32H1C0.447715 32 0 31.5523 0 31V27ZM2 28V30H30V28H2Z" fill="#2D2E32" />
</svg>
    