<svg width="32" height="32" viewBox="0 0 32 32" fill="none" xmlns="http://www.w3.org/2000/svg">
    <path fill-rule="evenodd" clip-rule="evenodd" d="M16 2C8.26801 2 2 8.26801 2 16C2 23.732 8.26801 30 16 30C23.732 30 30 23.732 30 16C30 8.26801 23.732 2 16 2ZM0 16C0 7.16344 7.16344 0 16 0C24.8366 0 32 7.16344 32 16C32 24.8366 24.8366 32 16 32C7.16344 32 0 24.8366 0 16Z" fill="#2D2E32" />
    <path fill-rule="evenodd" clip-rule="evenodd" d="M12 8C12 7.44772 12.4477 7 13 7H19C19.5523 7 20 7.44772 20 8V12H24C24.5523 12 25 12.4477 25 13V19C25 19.5523 24.5523 20 24 20H20V24C20 24.5523 19.5523 25 19 25H13C12.4477 25 12 24.5523 12 24V20H8C7.44772 20 7 19.5523 7 19V13C7 12.4477 7.44772 12 8 12H12V8ZM14 9V13C14 13.5523 13.5523 14 13 14H9V18H13C13.5523 18 14 18.4477 14 19V23H18V19C18 18.4477 18.4477 18 19 18H23V14H19C18.4477 14 18 13.5523 18 13V9H14Z" fill="#0277E7" />
</svg>
    