<svg width="32" height="32" viewBox="0 0 32 32" fill="none" xmlns="http://www.w3.org/2000/svg">
    <path fill-rule="evenodd" clip-rule="evenodd" d="M31.7071 22.2929C32.0976 22.6834 32.0976 23.3166 31.7071 23.7071L23.7071 31.7071C23.3166 32.0976 22.6834 32.0976 22.2929 31.7071L18.2929 27.7071C17.9024 27.3166 17.9024 26.6834 18.2929 26.2929C18.6834 25.9024 19.3166 25.9024 19.7071 26.2929L23 29.5858L30.2929 22.2929C30.6834 21.9024 31.3166 21.9024 31.7071 22.2929Z" fill="#0277E7" />
    <path fill-rule="evenodd" clip-rule="evenodd" d="M21.5 12C18.501 12 16 14.5283 16 17.6667V30H17C17.5523 30 18 30.4477 18 31C18 31.5523 17.5523 32 17 32H15C14.4477 32 14 31.5523 14 31V17.6667C14 13.4717 17.349 10 21.5 10C25.651 10 29 13.4717 29 17.6667V20C29 20.5523 28.5523 21 28 21C27.4477 21 27 20.5523 27 20V17.6667C27 14.5283 24.499 12 21.5 12Z" fill="#2D2E32" />
    <path fill-rule="evenodd" clip-rule="evenodd" d="M23.7487 4.65685C21.4523 2.36037 17.5599 2.36037 15.2635 4.65685C13.824 6.09635 13.3167 8.0319 13.5687 10.0483C13.607 10.3545 13.5018 10.6612 13.2836 10.8794L4.93919 19.2238L4.83367 23.3391L9.20255 23.4457L14.2929 18.3553C14.6834 17.9648 15.3166 17.9648 15.7071 18.3553C16.0976 18.7459 16.0976 19.379 15.7071 19.7696L10.3137 25.1629C10.1202 25.3565 9.85582 25.4622 9.58223 25.4555L3.78395 25.3141C3.5186 25.3077 3.2667 25.1959 3.08376 25.0036C2.90083 24.8113 2.80186 24.5541 2.80866 24.2888L2.95008 18.7734C2.95665 18.5171 3.06139 18.2731 3.24265 18.0919L11.5345 9.79998C11.3585 7.44898 12.0233 5.06859 13.8492 3.24264C16.9268 0.165109 22.0854 0.165109 25.163 3.24264C27.7327 5.81238 28.1484 9.81799 26.4504 12.8538C26.1808 13.3358 25.5715 13.508 25.0895 13.2384C24.6075 12.9688 24.4353 12.3595 24.7049 11.8774C25.9873 9.58467 25.6551 6.56324 23.7487 4.65685Z" fill="#2D2E32" />
    <path fill-rule="evenodd" clip-rule="evenodd" d="M21.5 7C22.0523 7 22.5 7.44772 22.5 8V16C22.5 16.5523 22.0523 17 21.5 17C20.9477 17 20.5 16.5523 20.5 16V8C20.5 7.44772 20.9477 7 21.5 7Z" fill="#2D2E32" />
</svg>
    