<svg width="32" height="32" viewBox="0 0 32 32" fill="none" xmlns="http://www.w3.org/2000/svg">
    <path fill-rule="evenodd" clip-rule="evenodd" d="M0.333252 22C0.333252 21.4477 0.780967 21 1.33325 21H4.66663C5.21891 21 5.66663 21.4477 5.66663 22C5.66663 22.5523 5.21891 23 4.66663 23H1.33325C0.780967 23 0.333252 22.5523 0.333252 22ZM27 22C27 21.4477 27.4477 21 28 21H30.3999C30.9522 21 31.3999 21.4477 31.3999 22C31.3999 22.5523 30.9522 23 30.3999 23H28C27.4477 23 27 22.5523 27 22Z" fill="#2D2E32" />
    <path fill-rule="evenodd" clip-rule="evenodd" d="M15.9999 3.99997C15.0794 3.99997 14.3333 4.74616 14.3333 5.66664C14.3333 6.58711 15.0794 7.3333 15.9999 7.3333C16.9204 7.3333 17.6666 6.58711 17.6666 5.66664C17.6666 4.74616 16.9204 3.99997 15.9999 3.99997ZM12.3333 5.66664C12.3333 3.64159 13.9749 1.99997 15.9999 1.99997C18.025 1.99997 19.6666 3.64159 19.6666 5.66664C19.6666 7.69168 18.025 9.3333 15.9999 9.3333C13.9749 9.3333 12.3333 7.69168 12.3333 5.66664Z" fill="#2D2E32" />
    <path fill-rule="evenodd" clip-rule="evenodd" d="M15.9998 9.33331C9.21879 9.33331 3.6665 14.8856 3.6665 21.6666C3.6665 22.2189 3.21879 22.6666 2.6665 22.6666C2.11422 22.6666 1.6665 22.2189 1.6665 21.6666C1.6665 13.781 8.11422 7.33331 15.9998 7.33331C23.8855 7.33331 30.3332 13.781 30.3332 21.6666C30.3332 22.2189 29.8855 22.6666 29.3332 22.6666C28.7809 22.6666 28.3332 22.2189 28.3332 21.6666C28.3332 14.8856 22.7809 9.33331 15.9998 9.33331Z" fill="#2D2E32" />
    <path fill-rule="evenodd" clip-rule="evenodd" d="M19.7071 24.7071C20.0976 24.3166 20.0976 23.6834 19.7071 23.2929L14.7071 18.2929C14.3166 17.9024 13.6834 17.9024 13.2929 18.2929C12.9024 18.6834 12.9024 19.3166 13.2929 19.7071L17.5858 24L13.2929 28.2929C12.9024 28.6834 12.9024 29.3166 13.2929 29.7071C13.6834 30.0976 14.3166 30.0976 14.7071 29.7071L19.7071 24.7071Z" fill="#0277E7" />
    <path fill-rule="evenodd" clip-rule="evenodd" d="M12.7071 24.7071C13.0976 24.3166 13.0976 23.6834 12.7071 23.2929L9.70711 20.2929C9.31658 19.9024 8.68342 19.9024 8.29289 20.2929C7.90237 20.6834 7.90237 21.3166 8.29289 21.7071L10.5858 24L8.29289 26.2929C7.90237 26.6834 7.90237 27.3166 8.29289 27.7071C8.68342 28.0976 9.31658 28.0976 9.70711 27.7071L12.7071 24.7071Z" fill="#0277E7" />
    <path fill-rule="evenodd" clip-rule="evenodd" d="M25.7071 24.7071C26.0976 24.3166 26.0976 23.6834 25.7071 23.2929L22.7071 20.2929C22.3166 19.9024 21.6834 19.9024 21.2929 20.2929C20.9024 20.6834 20.9024 21.3166 21.2929 21.7071L23.5858 24L21.2929 26.2929C20.9024 26.6834 20.9024 27.3166 21.2929 27.7071C21.6834 28.0976 22.3166 28.0976 22.7071 27.7071L25.7071 24.7071Z" fill="#0277E7" />
</svg>
    