<svg width="32" height="32" viewBox="0 0 32 32" fill="none" xmlns="http://www.w3.org/2000/svg">
    <path fill-rule="evenodd" clip-rule="evenodd" d="M6 8C6 7.44772 6.44772 7 7 7H14C14.5523 7 15 7.44772 15 8C15 8.55228 14.5523 9 14 9H7C6.44772 9 6 8.55228 6 8Z" fill="#2D2E32" />
    <path fill-rule="evenodd" clip-rule="evenodd" d="M6 14C6 13.4477 6.44772 13 7 13H14C14.5523 13 15 13.4477 15 14C15 14.5523 14.5523 15 14 15H7C6.44772 15 6 14.5523 6 14Z" fill="#2D2E32" />
    <path fill-rule="evenodd" clip-rule="evenodd" d="M6 20C6 19.4477 6.44772 19 7 19H14C14.5523 19 15 19.4477 15 20C15 20.5523 14.5523 21 14 21H7C6.44772 21 6 20.5523 6 20Z" fill="#2D2E32" />
    <path fill-rule="evenodd" clip-rule="evenodd" d="M18 14C18 13.4477 18.4477 13 19 13H21C21.5523 13 22 13.4477 22 14C22 14.5523 21.5523 15 21 15H19C18.4477 15 18 14.5523 18 14Z" fill="#2D2E32" />
    <path fill-rule="evenodd" clip-rule="evenodd" d="M18 8C18 7.44772 18.4477 7 19 7H21C21.5523 7 22 7.44772 22 8C22 8.55228 21.5523 9 21 9H19C18.4477 9 18 8.55228 18 8Z" fill="#2D2E32" />
    <path fill-rule="evenodd" clip-rule="evenodd" d="M1 1C1 0.447715 1.44772 0 2 0H26C26.5523 0 27 0.447715 27 1V15.5C27 16.0523 26.5523 16.5 26 16.5C25.4477 16.5 25 16.0523 25 15.5V2H3V27.523L6.62861 26.0715C6.93435 25.9492 7.28071 25.9853 7.5547 26.1679L10.0718 27.846L13.5528 26.1056C13.8343 25.9648 14.1657 25.9648 14.4472 26.1056L16.6191 27.1915C17.1131 27.4385 17.3133 28.0392 17.0663 28.5332C16.8193 29.0271 16.2187 29.2274 15.7247 28.9804L14 28.118L10.4472 29.8944C10.1262 30.0549 9.74389 30.0311 9.4453 29.8321L6.88298 28.1238L2.37139 29.9285C2.0633 30.0517 1.71414 30.0141 1.43937 29.8281C1.1646 29.642 1 29.3318 1 29V1Z" fill="#2D2E32" />
    <path fill-rule="evenodd" clip-rule="evenodd" d="M25 20C22.2386 20 20 22.2386 20 25C20 27.7614 22.2386 30 25 30C27.7614 30 30 27.7614 30 25C30 22.2386 27.7614 20 25 20ZM18 25C18 21.134 21.134 18 25 18C28.866 18 32 21.134 32 25C32 28.866 28.866 32 25 32C21.134 32 18 28.866 18 25Z" fill="#0277E7" />
    <path fill-rule="evenodd" clip-rule="evenodd" d="M25 21.4286C25.5523 21.4286 26 21.8763 26 22.4286V24H27.5714C28.1237 24 28.5714 24.4477 28.5714 25C28.5714 25.5523 28.1237 26 27.5714 26H25C24.4477 26 24 25.5523 24 25V22.4286C24 21.8763 24.4477 21.4286 25 21.4286Z" fill="#0277E7" />
</svg>
    