<svg width="32" height="32" viewBox="0 0 32 32" fill="none" xmlns="http://www.w3.org/2000/svg">
    <path fill-rule="evenodd" clip-rule="evenodd" d="M13.1875 10.3124C13.1875 9.76008 13.6352 9.31236 14.1875 9.31236H20.625C21.1773 9.31236 21.625 9.76008 21.625 10.3124C21.625 10.8646 21.1773 11.3124 20.625 11.3124H14.1875C13.6352 11.3124 13.1875 10.8646 13.1875 10.3124Z" fill="#0277E7" />
    <path fill-rule="evenodd" clip-rule="evenodd" d="M13.1875 17.8123C13.1875 17.26 13.6352 16.8123 14.1875 16.8123H20.625C21.1773 16.8123 21.625 17.26 21.625 17.8123C21.625 18.3646 21.1773 18.8123 20.625 18.8123H14.1875C13.6352 18.8123 13.1875 18.3646 13.1875 17.8123Z" fill="#0277E7" />
    <path fill-rule="evenodd" clip-rule="evenodd" d="M23.832 18.0229C23.832 17.4706 24.2797 17.0229 24.832 17.0229H30.2104C30.7627 17.0229 31.2104 17.4706 31.2104 18.0229C31.2104 18.5752 30.7627 19.0229 30.2104 19.0229H24.832C24.2797 19.0229 23.832 18.5752 23.832 18.0229Z" fill="#0277E7" />
    <path fill-rule="evenodd" clip-rule="evenodd" d="M9.375 14.1248C9.375 13.5725 9.82272 13.1248 10.375 13.1248H21.1562C21.7085 13.1248 22.1562 13.5725 22.1562 14.1248C22.1562 14.6771 21.7085 15.1248 21.1562 15.1248H10.375C9.82272 15.1248 9.375 14.6771 9.375 14.1248Z" fill="#0277E7" />
    <path fill-rule="evenodd" clip-rule="evenodd" d="M21.4833 21.4832C21.8738 21.0927 22.507 21.0927 22.8975 21.4832L31.7072 30.2929C32.0977 30.6834 32.0977 31.3166 31.7072 31.7071C31.3167 32.0976 30.6835 32.0976 30.293 31.7071L21.4833 22.8974C21.0928 22.5069 21.0928 21.8737 21.4833 21.4832Z" fill="#2D2E32" />
    <path fill-rule="evenodd" clip-rule="evenodd" d="M13.1875 1.99995C7.00881 1.99995 2 7.00877 2 13.1875C2 19.3661 7.00881 24.375 13.1875 24.375C19.3662 24.375 24.375 19.3661 24.375 13.1875C24.375 7.00877 19.3662 1.99995 13.1875 1.99995ZM0 13.1875C0 5.9042 5.90424 -4.57764e-05 13.1875 -4.57764e-05C20.4708 -4.57764e-05 26.375 5.9042 26.375 13.1875C26.375 20.4707 20.4708 26.375 13.1875 26.375C5.90424 26.375 0 20.4707 0 13.1875Z" fill="#2D2E32" />
</svg>
    