<svg width="32" height="32" viewBox="0 0 32 32" fill="none" xmlns="http://www.w3.org/2000/svg">
    <path d="M6.4 25.6001L1.5 30.5001" stroke="#2D2E32" stroke-width="2" stroke-miterlimit="10" stroke-linecap="round" stroke-linejoin="round" />
    <path d="M23.9001 2.20019C25.2001 0.900186 27.2001 1.60019 28.8001 3.20019C30.4001 4.80019 31.2001 6.70019 29.8001 8.10019C28.2001 9.70019 24.0001 10.1002 23.0001 9.10019C21.9001 8.00019 22.3001 3.80019 23.9001 2.20019Z" stroke="#2D2E32" stroke-width="2" stroke-miterlimit="10" stroke-linecap="round" stroke-linejoin="round" />
    <path d="M9.29995 26.8001C11.5643 26.8001 13.4 24.9645 13.4 22.7001C13.4 20.4357 11.5643 18.6001 9.29995 18.6001C7.03558 18.6001 5.19995 20.4357 5.19995 22.7001C5.19995 24.9645 7.03558 26.8001 9.29995 26.8001Z" stroke="#2D2E32" stroke-width="2" stroke-miterlimit="10" stroke-linecap="round" stroke-linejoin="round" />
    <path d="M22.9 9L19 12.9" stroke="#2D2E32" stroke-width="2" stroke-miterlimit="10" stroke-linecap="round" stroke-linejoin="round" />
    <path d="M13.2 12.9L16.1 10L22 15.9L19 18.8" stroke="#2D2E32" stroke-width="2" stroke-miterlimit="10" stroke-linecap="round" stroke-linejoin="round" />
    <path d="M11.1999 11L21.9999 21.7L18.0999 25.6L6.3999 13.9L10.2999 10L11.1999 11Z" stroke="#2D2E32" stroke-width="2" stroke-miterlimit="10" stroke-linecap="round" stroke-linejoin="round" />
</svg>
    