<svg width="32" height="33" viewBox="0 0 32 33" fill="none" xmlns="http://www.w3.org/2000/svg">
    <path d="M1.33325 19.6665H5.59992M30.3999 19.6665H26.1333" stroke-width="2" stroke-miterlimit="10" stroke-linecap="round" stroke-linejoin="round" />
    <path d="M15.9999 6.33333C17.4727 6.33333 18.6666 5.13943 18.6666 3.66667C18.6666 2.19391 17.4727 1 15.9999 1C14.5272 1 13.3333 2.19391 13.3333 3.66667C13.3333 5.13943 14.5272 6.33333 15.9999 6.33333Z" stroke-width="2" stroke-miterlimit="10" stroke-linecap="round" stroke-linejoin="round" />
    <path d="M2.6665 19.6668C2.6665 12.3335 8.6665 6.3335 15.9998 6.3335C23.3332 6.3335 29.3332 12.3335 29.3332 19.6668" stroke-width="2" stroke-miterlimit="10" stroke-linecap="round" stroke-linejoin="round" />
    <path d="M17.0357 14.6471C16.4405 13.4706 14.9524 12 14.9524 12C15.5476 16.7059 9 21.1075 9 25.3063C9 29.5659 12.6364 32 16.1429 32C19.6494 32 23.2857 29.5659 23.2857 25.3063C23.2857 22.4489 19.7786 18.1765 19.119 15.2353C18.3254 15.6275 10 26.5 16.5 28.5C17.6548 28.7042 19.6714 28.3513 18.5 25.3063" stroke-width="2" stroke-miterlimit="10" stroke-linecap="round" stroke-linejoin="round" />
</svg>
    