<svg width="32" height="32" viewBox="0 0 32 32" fill="none" xmlns="http://www.w3.org/2000/svg">
    <path d="M16.0064 27.624C16.0064 27.624 7.21559 23.6898 15.7682 15C15.7682 15 20.0088 18.8909 19.1988 22.5441C19.1988 22.5441 20.3899 22.6522 21.9146 20.6851C21.8908 20.6635 22.2482 26.1973 16.0064 27.624Z" stroke="#2D2E32" stroke-width="2" stroke-miterlimit="10" stroke-linecap="round" stroke-linejoin="round" />
    <path d="M24.5114 11.9595C24.4637 15.3965 22.9152 16.8664 22.9152 16.8664C22.7723 9.21422 14.4341 1 14.4341 1C17.1976 6.07985 5 12.4783 5 21.6653C5 27.4152 12.8379 31.652 16.7449 30.9171C33.7072 27.7827 24.5114 11.9595 24.5114 11.9595Z" stroke="#2D2E32" stroke-width="2" stroke-miterlimit="10" stroke-linecap="round" stroke-linejoin="round" />
</svg>
    