<svg width="32" height="33" viewBox="0 0 32 33" fill="none" xmlns="http://www.w3.org/2000/svg">
    <path d="M30.728 21.2427L22.2427 29.728" stroke-width="2" stroke-miterlimit="10" stroke-linecap="round" stroke-linejoin="round" />
    <path d="M30.728 29.728L22.2427 21.2427" stroke-width="2" stroke-miterlimit="10" stroke-linecap="round" stroke-linejoin="round" />
    <path d="M16.4999 4.33355C16.4999 3.11133 15.4874 2.11133 14.2499 2.11133C13.0124 2.11133 11.9999 3.11133 11.9999 4.33355V15.4447C11.9999 16.7965 11.3999 19.3002 8.9999 18.5002L4.4999 16.0002C3.89384 15.7982 3.26602 15.2201 2.35892 16.1344C1.4999 17.0002 1.9999 18.0002 1.9999 18.0002L10.9999 29.0002C11.8332 29.8336 14.3999 31.4002 17.9999 31.0002" stroke="black" stroke-width="2" stroke-linecap="round" />
    <path d="M16.5 14.4444V3.22222C16.5 2 17.5125 1 18.75 1C19.9875 1 21 2 21 3.22222V5.5" stroke="black" stroke-width="2" stroke-linecap="round" />
    <path d="M21 14.5558V4.33355C21 3.11133 22.0125 2.11133 23.25 2.11133C24.4875 2.11133 25.5 3.11133 25.5 4.33355V8.50024" stroke="black" stroke-width="2" stroke-linecap="round" />
    <path d="M30 16.9999V6.44439C30 5.22217 28.9875 4.22217 27.75 4.22217C26.5125 4.22217 25.5 5.22217 25.5 6.44439V15.6666" stroke="black" stroke-width="2" stroke-linecap="round" />
</svg>
    