<svg width="31" height="22" viewBox="0 0 31 22" fill="none" xmlns="http://www.w3.org/2000/svg">
    <path d="M4 16C5.65685 16 7 14.6569 7 13C7 11.3431 5.65685 10 4 10C2.34315 10 1 11.3431 1 13C1 14.6569 2.34315 16 4 16Z" stroke-width="2" stroke-miterlimit="10" stroke-linecap="round" stroke-linejoin="round" />
    <path d="M23.0357 3.64706C22.4405 2.47059 20.9524 1 20.9524 1C21.5476 5.70588 15 10.1075 15 14.3063C15 18.5659 18.6364 21 22.1429 21C25.6494 21 29.2857 18.5659 29.2857 14.3063C29.2857 11.4489 25.7786 7.17647 25.119 4.23529C24.3254 4.62745 16 15.5 22.5 17.5C23.6548 17.7042 25.6714 17.3513 24.5 14.3063" stroke-width="2" stroke-miterlimit="10" stroke-linecap="round" stroke-linejoin="round" />
</svg>
    