<svg width="32" height="32" viewBox="0 0 32 32" fill="none" xmlns="http://www.w3.org/2000/svg">
    <path d="M4 19C5.65685 19 7 17.6569 7 16C7 14.3431 5.65685 13 4 13C2.34315 13 1 14.3431 1 16C1 17.6569 2.34315 19 4 19Z" stroke-width="2" stroke-miterlimit="10" stroke-linecap="round" stroke-linejoin="round" />
    <path d="M4 9C5.65685 9 7 7.65685 7 6C7 4.34315 5.65685 3 4 3C2.34315 3 1 4.34315 1 6C1 7.65685 2.34315 9 4 9Z" stroke-width="2" stroke-miterlimit="10" stroke-linecap="round" stroke-linejoin="round" />
    <path d="M4 29C5.65685 29 7 27.6569 7 26C7 24.3431 5.65685 23 4 23C2.34315 23 1 24.3431 1 26C1 27.6569 2.34315 29 4 29Z" stroke-width="2" stroke-miterlimit="10" stroke-linecap="round" stroke-linejoin="round" />
    <path d="M23.0357 6.64706C22.4405 5.47059 20.9524 4 20.9524 4C21.5476 8.70588 15 13.1075 15 17.3063C15 21.5659 18.6364 24 22.1429 24C25.6494 24 29.2857 21.5659 29.2857 17.3063C29.2857 14.4489 25.7786 10.1765 25.119 7.23529C24.3254 7.62745 16 18.5 22.5 20.5C23.6548 20.7042 25.6714 20.3513 24.5 17.3063" stroke-width="2" stroke-miterlimit="10" stroke-linecap="round" stroke-linejoin="round" />
</svg>
    