<svg width="32" height="32" viewBox="0 0 32 32" fill="none" xmlns="http://www.w3.org/2000/svg">
    <path d="M1 9L3 9" stroke="#2D2E32" stroke-width="2" stroke-miterlimit="10" stroke-linecap="round" stroke-linejoin="round" />
    <path d="M1.33325 23.6665H30.3999" stroke="#2D2E32" stroke-width="2" stroke-miterlimit="10" stroke-linecap="round" stroke-linejoin="round" />
    <path d="M15.9999 10.3333C17.4727 10.3333 18.6666 9.13943 18.6666 7.66667C18.6666 6.19391 17.4727 5 15.9999 5C14.5272 5 13.3333 6.19391 13.3333 7.66667C13.3333 9.13943 14.5272 10.3333 15.9999 10.3333Z" stroke="#2D2E32" stroke-width="2" stroke-miterlimit="10" stroke-linecap="round" stroke-linejoin="round" />
    <path d="M12 24C12 25.6569 10.6569 27 9 27C7.34315 27 6 25.6569 6 24" stroke="#2D2E32" stroke-width="2" stroke-miterlimit="10" stroke-linecap="round" stroke-linejoin="round" />
    <path d="M25 24C25 25.6569 23.6569 27 22 27C20.3431 27 19 25.6569 19 24" stroke="#2D2E32" stroke-width="2" stroke-miterlimit="10" stroke-linecap="round" stroke-linejoin="round" />
    <path d="M2.6665 23.6668C2.6665 22.7543 2.75941 21.8624 2.93622 21.0002M29.3332 23.6668C29.3332 16.3335 23.3332 10.3335 15.9998 10.3335C14.2342 10.3335 12.5459 10.6813 11 11.3118" stroke="#2D2E32" stroke-width="2" stroke-miterlimit="10" stroke-linecap="round" stroke-linejoin="round" />
    <path d="M1 17L13 17" stroke="#2D2E32" stroke-width="2" stroke-miterlimit="10" stroke-linecap="round" stroke-linejoin="round" />
    <path d="M1 13L7 13" stroke="#2D2E32" stroke-width="2" stroke-miterlimit="10" stroke-linecap="round" stroke-linejoin="round" />
</svg>
    