<svg width="32" height="32" viewBox="0 0 32 32" fill="none" xmlns="http://www.w3.org/2000/svg">
    <path d="M8 8L9.5 8" stroke-width="2" stroke-miterlimit="10" stroke-linecap="round" stroke-linejoin="round" />
    <path d="M8.33325 25.6665H30.3999" stroke-width="2" stroke-miterlimit="10" stroke-linecap="round" stroke-linejoin="round" />
    <path d="M15.9999 12.3333C17.4727 12.3333 18.6666 11.1394 18.6666 9.66667C18.6666 8.19391 17.4727 7 15.9999 7C14.5272 7 13.3333 8.19391 13.3333 9.66667C13.3333 11.1394 14.5272 12.3333 15.9999 12.3333Z" stroke-width="2" stroke-miterlimit="10" stroke-linecap="round" stroke-linejoin="round" />
    <path d="M29.3332 25.6668C29.3332 18.3335 23.3332 12.3335 15.9998 12.3335C13.6441 12.3335 11.4259 12.9527 9.5 14.0363" stroke-width="2" stroke-miterlimit="10" stroke-linecap="round" stroke-linejoin="round" />
    <path d="M6 21L16 21" stroke-width="2" stroke-miterlimit="10" stroke-linecap="round" stroke-linejoin="round" />
    <path d="M6 17L10 17" stroke-width="2" stroke-miterlimit="10" stroke-linecap="round" stroke-linejoin="round" />
    <path d="M10.1586 2C9.48874 1.35411 8.76091 1 8 1C4.68629 1 2 7.71573 2 16C2 24.2843 4.68629 31 8 31C8.70127 31 9.37444 30.6992 10 30.1465" stroke-width="2" stroke-linecap="round" stroke-linejoin="round" />
</svg>
    