<svg width="32" height="32" viewBox="0 0 32 32" fill="none" xmlns="http://www.w3.org/2000/svg">
    <path d="M1.33325 20H30.3999" stroke-width="2" stroke-miterlimit="10" stroke-linecap="round" stroke-linejoin="round" />
    <path d="M15.9999 6.33333C17.4727 6.33333 18.6666 5.13943 18.6666 3.66667C18.6666 2.19391 17.4727 1 15.9999 1C14.5272 1 13.3333 2.19391 13.3333 3.66667C13.3333 5.13943 14.5272 6.33333 15.9999 6.33333Z" stroke-width="2" stroke-miterlimit="10" stroke-linecap="round" stroke-linejoin="round" />
    <path d="M2.6665 19.6668C2.6665 12.3335 8.6665 6.3335 15.9998 6.3335C23.3332 6.3335 29.3332 12.3335 29.3332 19.6668" stroke-width="2" stroke-miterlimit="10" stroke-linecap="round" stroke-linejoin="round" />
    <path d="M15 24L18 27L15 30" stroke-width="2" stroke-miterlimit="10" stroke-linecap="round" stroke-linejoin="round" />
    <path d="M23 24L26 27L23 30" stroke-width="2" stroke-miterlimit="10" stroke-linecap="round" stroke-linejoin="round" />
    <path d="M7 24L10 27L7 30" stroke-width="2" stroke-miterlimit="10" stroke-linecap="round" stroke-linejoin="round" />
</svg>
    