<svg width="32" height="18" viewBox="0 0 32 18" fill="none" xmlns="http://www.w3.org/2000/svg">
    <path fill-rule="evenodd" clip-rule="evenodd" d="M23.69 0.276208C24.0898 0.657294 24.1049 1.29028 23.7238 1.69002L9.4238 16.69C9.23507 16.888 8.97351 17 8.7 17C8.4265 17 8.16493 16.888 7.97621 16.69L0.276208 8.6131C-0.104877 8.21336 -0.0897549 7.58037 0.309985 7.19929C0.709725 6.8182 1.34271 6.83332 1.7238 7.23306L8.7 14.5508L22.2762 0.309985C22.6573 -0.0897549 23.2903 -0.104877 23.69 0.276208Z" fill="#0277E7" />
    <path fill-rule="evenodd" clip-rule="evenodd" d="M31.6981 1.284C32.0936 1.66955 32.1016 2.30266 31.716 2.6981L17.0912 17.6981C16.9053 17.8887 16.6511 17.9974 16.3848 18C16.1186 18.0025 15.8623 17.8988 15.6728 17.7118L13.7554 15.8197C13.3623 15.4318 13.3581 14.7987 13.746 14.4056C14.1339 14.0124 14.767 14.0082 15.1602 14.3962L16.3615 15.5816L30.284 1.3019C30.6696 0.906466 31.3027 0.898449 31.6981 1.284Z" fill="#2D2E32" />
</svg>
    