<svg width="22" height="22" viewBox="0 0 22 22" fill="none" xmlns="http://www.w3.org/2000/svg">
    <path d="M21.5 8.5C21.5 8.22386 21.2761 8 21 8H14.5C14.2239 8 14 7.77614 14 7.5V1C14 0.723858 13.7761 0.5 13.5 0.5H8.5C8.22386 0.5 8 0.723858 8 1V7.5C8 7.77614 7.77614 8 7.5 8H1C0.723858 8 0.5 8.22386 0.5 8.5V13.5C0.5 13.7761 0.723858 14 1 14H7.5C7.77614 14 8 14.2239 8 14.5V21C8 21.2761 8.22386 21.5 8.5 21.5H13.5C13.7761 21.5 14 21.2761 14 21V14.5C14 14.2239 14.2239 14 14.5 14H21C21.2761 14 21.5 13.7761 21.5 13.5V8.5Z" fill="#0277E7" />
</svg>
    