<svg width="24" height="18" viewBox="0 0 24 18" fill="none" xmlns="http://www.w3.org/2000/svg">
    <path fill-rule="evenodd" clip-rule="evenodd" d="M0.5 8.99994C0.5 8.44765 0.947715 7.99994 1.5 7.99994H22.5C23.0523 7.99994 23.5 8.44765 23.5 8.99994C23.5 9.55222 23.0523 9.99994 22.5 9.99994H1.5C0.947715 9.99994 0.5 9.55222 0.5 8.99994Z" fill="#2D2E32" />
    <path fill-rule="evenodd" clip-rule="evenodd" d="M14.8177 0.768949C15.2214 0.392115 15.8542 0.413935 16.2311 0.817685L23.2311 8.31769C23.5897 8.70189 23.5897 9.29811 23.2311 9.68232L16.2311 17.1823C15.8542 17.5861 15.2214 17.6079 14.8177 17.2311C14.4139 16.8542 14.3921 16.2214 14.7689 15.8177L21.1321 9L14.7689 2.18232C14.3921 1.77857 14.4139 1.14578 14.8177 0.768949Z" fill="#2D2E32" />
</svg>
    