<svg width="24" height="24" viewBox="0 0 24 24" fill="none" xmlns="http://www.w3.org/2000/svg">
    <path fill-rule="evenodd" clip-rule="evenodd" d="M0.5 9C0.5 8.44772 0.947715 8 1.5 8H22.5C23.0523 8 23.5 8.44772 23.5 9C23.5 9.55228 23.0523 10 22.5 10H1.5C0.947715 10 0.5 9.55228 0.5 9Z" fill="#2D2E32" />
    <path fill-rule="evenodd" clip-rule="evenodd" d="M1.38402 4.47669C1.95921 3.86041 2.75469 3.5 3.6 3.5H20.4C21.2453 3.5 22.0408 3.86041 22.616 4.47669C23.189 5.09064 23.5 5.90946 23.5 6.75V20.25C23.5 21.0905 23.189 21.9094 22.616 22.5233C22.0408 23.1396 21.2453 23.5 20.4 23.5H3.6C2.75469 23.5 1.95921 23.1396 1.38402 22.5233C0.811003 21.9094 0.5 21.0905 0.5 20.25V6.75C0.5 5.90946 0.811003 5.09064 1.38402 4.47669ZM20.4 5.5H3.6C3.3314 5.5 3.05859 5.61369 2.84613 5.84133C2.6315 6.07129 2.5 6.39707 2.5 6.75V20.25C2.5 20.6029 2.6315 20.9287 2.84613 21.1587C3.05859 21.3863 3.3314 21.5 3.6 21.5H20.4C20.6686 21.5 20.9414 21.3863 21.1539 21.1587C21.3685 20.9287 21.5 20.6029 21.5 20.25V6.75C21.5 6.39707 21.3685 6.07129 21.1539 5.84133C20.9414 5.61369 20.6686 5.5 20.4 5.5Z" fill="#2D2E32" />
    <path fill-rule="evenodd" clip-rule="evenodd" d="M7.1001 0.5C7.65238 0.5 8.1001 0.947715 8.1001 1.5V4.5C8.1001 5.05228 7.65238 5.5 7.1001 5.5C6.54781 5.5 6.1001 5.05228 6.1001 4.5V1.5C6.1001 0.947715 6.54781 0.5 7.1001 0.5Z" fill="#2D2E32" />
    <path fill-rule="evenodd" clip-rule="evenodd" d="M16.8999 0.5C17.4522 0.5 17.8999 0.947715 17.8999 1.5V4.5C17.8999 5.05228 17.4522 5.5 16.8999 5.5C16.3476 5.5 15.8999 5.05228 15.8999 4.5V1.5C15.8999 0.947715 16.3476 0.5 16.8999 0.5Z" fill="#2D2E32" />
</svg>
    