<svg width="16" height="16" viewBox="0 0 16 16" fill="none" xmlns="http://www.w3.org/2000/svg">
    <path fill-rule="evenodd" clip-rule="evenodd" d="M15.2371 0.762944C15.6585 1.18432 15.6585 1.86751 15.2371 2.28889L2.28899 15.237C1.86761 15.6584 1.18442 15.6584 0.763043 15.237C0.341664 14.8156 0.341663 14.1324 0.763042 13.711L13.7111 0.762944C14.1325 0.341565 14.8157 0.341565 15.2371 0.762944Z" fill="#2D2E32" />
    <path fill-rule="evenodd" clip-rule="evenodd" d="M0.762905 0.762944C1.18428 0.341565 1.86747 0.341565 2.28885 0.762944L15.237 13.711C15.6583 14.1324 15.6583 14.8156 15.237 15.237C14.8156 15.6584 14.1324 15.6584 13.711 15.237L0.762905 2.28889C0.341526 1.86751 0.341526 1.18432 0.762905 0.762944Z" fill="#2D2E32" />
</svg>
    