<svg width="24" height="24" viewBox="0 0 24 24" fill="none" xmlns="http://www.w3.org/2000/svg">
    <path fill-rule="evenodd" clip-rule="evenodd" d="M3.9288 8.00255C4.47968 7.9632 4.95815 8.37788 4.9975 8.92877L5.93116 22H18.0689L19.0026 8.92877C19.0419 8.37788 19.5204 7.9632 20.0713 8.00255C20.6222 8.0419 21.0368 8.52038 20.9975 9.07126L19.9975 23.0713C19.9601 23.5946 19.5247 24 19 24H5.00004C4.4754 24 4.03996 23.5946 4.00258 23.0713L3.00258 9.07126C2.96324 8.52038 3.37791 8.0419 3.9288 8.00255Z" />
    <path fill-rule="evenodd" clip-rule="evenodd" d="M0 5C0 4.44772 0.447715 4 1 4H23C23.5523 4 24 4.44772 24 5C24 5.55228 23.5523 6 23 6H1C0.447715 6 0 5.55228 0 5Z" />
    <path fill-rule="evenodd" clip-rule="evenodd" d="M7 1C7 0.447715 7.44772 0 8 0H16C16.5523 0 17 0.447715 17 1V5C17 5.55228 16.5523 6 16 6C15.4477 6 15 5.55228 15 5V2H9V5C9 5.55228 8.55228 6 8 6C7.44772 6 7 5.55228 7 5V1Z" />
</svg>
    