<svg width="24" height="18" viewBox="0 0 24 18" fill="none" xmlns="http://www.w3.org/2000/svg">
    <path fill-rule="evenodd" clip-rule="evenodd" d="M7.74742 0.341495C7.93731 0.12448 8.21164 0 8.5 0H21.1C22.4608 0 23.5 1.13572 23.5 2.45455V15.5455C23.5 16.8643 22.4608 18 21.1 18H8.5C8.21164 18 7.93731 17.8755 7.74742 17.6585L0.747423 9.6585C0.417526 9.28148 0.417526 8.71852 0.747423 8.3415L7.74742 0.341495ZM8.95377 2L2.82877 9L8.95377 16H21.1C21.2848 16 21.5 15.8324 21.5 15.5455V2.45455C21.5 2.16755 21.2848 2 21.1 2H8.95377Z" fill="#2D2E32" />
    <path fill-rule="evenodd" clip-rule="evenodd" d="M11.2929 6.29289C11.6834 5.90237 12.3166 5.90237 12.7071 6.29289L16.7071 10.2929C17.0976 10.6834 17.0976 11.3166 16.7071 11.7071C16.3166 12.0976 15.6834 12.0976 15.2929 11.7071L11.2929 7.70711C10.9024 7.31658 10.9024 6.68342 11.2929 6.29289Z" fill="#2D2E32" />
    <path fill-rule="evenodd" clip-rule="evenodd" d="M16.7071 6.29289C17.0976 6.68342 17.0976 7.31658 16.7071 7.70711L12.7071 11.7071C12.3166 12.0976 11.6834 12.0976 11.2929 11.7071C10.9024 11.3166 10.9024 10.6834 11.2929 10.2929L15.2929 6.29289C15.6834 5.90237 16.3166 5.90237 16.7071 6.29289Z" fill="#2D2E32" />
</svg>
    