<svg width="24" height="24" viewBox="0 0 24 24" fill="none" xmlns="http://www.w3.org/2000/svg">
    <path fill-rule="evenodd" clip-rule="evenodd" d="M16.1929 0.792893C16.5834 0.402369 17.2166 0.402369 17.6071 0.792893L23.2071 6.39289C23.3947 6.58043 23.5 6.83478 23.5 7.1C23.5 7.36522 23.3947 7.61957 23.2071 7.80711L19.7077 11.3065C19.7075 11.3067 19.7079 11.3063 19.7077 11.3065C19.7075 11.3067 19.7067 11.3075 19.7065 11.3077L9.20712 21.8071C9.06752 21.9467 8.88972 22.0419 8.69613 22.0806L1.69613 23.4806C1.36827 23.5462 1.02933 23.4435 0.792909 23.2071C0.556486 22.9707 0.453864 22.6317 0.519436 22.3039L1.91944 15.3039C1.95815 15.1103 2.05331 14.9325 2.19291 14.7929L16.1929 0.792893ZM13.4 6.41421L3.82122 15.993L2.77477 21.2252L8.007 20.1788L17.5858 10.6L13.4 6.41421ZM19 9.18579L14.8142 5L16.9 2.91421L21.0858 7.1L19 9.18579Z" fill="#8E959F" />
</svg>
    