<svg width="22" height="22" viewBox="0 0 22 22" fill="none" xmlns="http://www.w3.org/2000/svg">
    <path fill-rule="evenodd" clip-rule="evenodd" d="M21.7071 0.292893C22.0976 0.683417 22.0976 1.31658 21.7071 1.70711L1.70711 21.7071C1.31658 22.0976 0.683417 22.0976 0.292893 21.7071C-0.0976311 21.3166 -0.0976311 20.6834 0.292893 20.2929L20.2929 0.292893C20.6834 -0.0976311 21.3166 -0.0976311 21.7071 0.292893Z" fill="#2D2E32" />
    <path fill-rule="evenodd" clip-rule="evenodd" d="M12 1C12 0.447715 12.4477 0 13 0H21C21.5523 0 22 0.447715 22 1V9C22 9.55228 21.5523 10 21 10C20.4477 10 20 9.55228 20 9V2H13C12.4477 2 12 1.55228 12 1Z" fill="#2D2E32" />
    <path fill-rule="evenodd" clip-rule="evenodd" d="M1 11.9999C1.55228 11.9999 2 12.4477 2 12.9999V19.9999H9C9.55228 19.9999 10 20.4477 10 20.9999C10 21.5522 9.55228 21.9999 9 21.9999H1C0.447715 21.9999 0 21.5522 0 20.9999V12.9999C0 12.4477 0.447715 11.9999 1 11.9999Z" fill="#2D2E32" />
</svg>
    