<svg width="24" height="24" viewBox="0 0 24 24" fill="none" xmlns="http://www.w3.org/2000/svg">
    <path fill-rule="evenodd" clip-rule="evenodd" d="M12.9092 4.36374C12.9092 3.81145 13.3569 3.36374 13.9092 3.36374H22.5001C23.0524 3.36374 23.5001 3.81145 23.5001 4.36374C23.5001 4.91602 23.0524 5.36374 22.5001 5.36374H13.9092C13.3569 5.36374 12.9092 4.91602 12.9092 4.36374Z" fill="#8E959F" />
    <path fill-rule="evenodd" clip-rule="evenodd" d="M0.5 4.36374C0.5 3.81145 0.947715 3.36374 1.5 3.36374H4.36364C4.91592 3.36374 5.36364 3.81145 5.36364 4.36374C5.36364 4.91602 4.91592 5.36374 4.36364 5.36374H1.5C0.947715 5.36374 0.5 4.91602 0.5 4.36374Z" fill="#8E959F" />
    <path fill-rule="evenodd" clip-rule="evenodd" d="M20.5454 12.0002C20.5454 11.4479 20.9931 11.0002 21.5454 11.0002H22.5C23.0522 11.0002 23.5 11.4479 23.5 12.0002C23.5 12.5525 23.0522 13.0002 22.5 13.0002H21.5454C20.9931 13.0002 20.5454 12.5525 20.5454 12.0002Z" fill="#8E959F" />
    <path fill-rule="evenodd" clip-rule="evenodd" d="M0.5 12.0002C0.5 11.4479 0.947715 11.0002 1.5 11.0002H12C12.5523 11.0002 13 11.4479 13 12.0002C13 12.5525 12.5523 13.0002 12 13.0002H1.5C0.947715 13.0002 0.5 12.5525 0.5 12.0002Z" fill="#8E959F" />
    <path fill-rule="evenodd" clip-rule="evenodd" d="M12.9092 19.6364C12.9092 19.0841 13.3569 18.6364 13.9092 18.6364H22.5001C23.0524 18.6364 23.5001 19.0841 23.5001 19.6364C23.5001 20.1887 23.0524 20.6364 22.5001 20.6364H13.9092C13.3569 20.6364 12.9092 20.1887 12.9092 19.6364Z" fill="#8E959F" />
    <path fill-rule="evenodd" clip-rule="evenodd" d="M0.5 19.6364C0.5 19.0841 0.947715 18.6364 1.5 18.6364H4.36364C4.91592 18.6364 5.36364 19.0841 5.36364 19.6364C5.36364 20.1887 4.91592 20.6364 4.36364 20.6364H1.5C0.947715 20.6364 0.5 20.1887 0.5 19.6364Z" fill="#8E959F" />
    <path fill-rule="evenodd" clip-rule="evenodd" d="M7.22716 2.5C6.1979 2.5 5.36353 3.33438 5.36353 4.36364C5.36353 5.3929 6.1979 6.22727 7.22716 6.22727C8.25642 6.22727 9.0908 5.3929 9.0908 4.36364C9.0908 3.33438 8.25642 2.5 7.22716 2.5ZM3.36353 4.36364C3.36353 2.22981 5.09333 0.5 7.22716 0.5C9.36099 0.5 11.0908 2.22981 11.0908 4.36364C11.0908 6.49746 9.36099 8.22727 7.22716 8.22727C5.09333 8.22727 3.36353 6.49746 3.36353 4.36364Z" fill="#8E959F" />
    <path fill-rule="evenodd" clip-rule="evenodd" d="M14.8636 10.1364C13.8344 10.1364 13 10.9708 13 12C13 13.0293 13.8344 13.8637 14.8636 13.8637C15.8929 13.8637 16.7273 13.0293 16.7273 12C16.7273 10.9708 15.8929 10.1364 14.8636 10.1364ZM11 12C11 9.86622 12.7298 8.13641 14.8636 8.13641C16.9975 8.13641 18.7273 9.86622 18.7273 12C18.7273 14.1339 16.9975 15.8637 14.8636 15.8637C12.7298 15.8637 11 14.1339 11 12Z" fill="#8E959F" />
    <path fill-rule="evenodd" clip-rule="evenodd" d="M7.22716 17.7727C6.1979 17.7727 5.36353 18.6071 5.36353 19.6363C5.36353 20.6656 6.1979 21.5 7.22716 21.5C8.25642 21.5 9.0908 20.6656 9.0908 19.6363C9.0908 18.6071 8.25642 17.7727 7.22716 17.7727ZM3.36353 19.6363C3.36353 17.5025 5.09333 15.7727 7.22716 15.7727C9.36099 15.7727 11.0908 17.5025 11.0908 19.6363C11.0908 21.7702 9.36099 23.5 7.22716 23.5C5.09333 23.5 3.36353 21.7702 3.36353 19.6363Z" fill="#8E959F" />
</svg>
    