<svg width="23" height="24" viewBox="0 0 23 24" fill="none" xmlns="http://www.w3.org/2000/svg">
    <path d="M21.1846 2.00866C20.8691 2.05245 20.5806 2.21055 20.374 2.45296C20.1673 2.69536 20.0569 3.0052 20.0636 3.32366V10.0022C20.0636 10.1348 20.0109 10.2619 19.9171 10.3557C19.8234 10.4495 19.6962 10.5022 19.5636 10.5022C19.431 10.5022 19.3038 10.4495 19.21 10.3557C19.1163 10.2619 19.0636 10.1348 19.0636 10.0022V2.58716C19.0722 2.19218 18.9304 1.80867 18.6668 1.51437C18.4032 1.22006 18.0376 1.03696 17.6441 1.00216C17.4404 0.991217 17.2367 1.02192 17.0453 1.09238C16.8539 1.16285 16.6789 1.2716 16.531 1.41199C16.3831 1.55239 16.2653 1.72147 16.185 1.90891C16.1046 2.09636 16.0633 2.29822 16.0636 2.50216V10.0022C16.0636 10.1348 16.0109 10.2619 15.9171 10.3557C15.8234 10.4495 15.6962 10.5022 15.5636 10.5022C15.431 10.5022 15.3038 10.4495 15.21 10.3557C15.1163 10.2619 15.0636 10.1348 15.0636 10.0022V1.58716C15.0722 1.19218 14.9304 0.808674 14.6668 0.514367C14.4032 0.220059 14.0376 0.0369573 13.6441 0.00216182C13.4404 -0.00878338 13.2367 0.0219151 13.0453 0.0923811C12.8539 0.162847 12.6789 0.2716 12.531 0.411994C12.3831 0.552388 12.2653 0.721473 12.185 0.908915C12.1046 1.09636 12.0633 1.29822 12.0636 1.50216V10.0022C12.0636 10.1348 12.0109 10.2619 11.9171 10.3557C11.8234 10.4495 11.6962 10.5022 11.5636 10.5022C11.431 10.5022 11.3038 10.4495 11.21 10.3557C11.1163 10.2619 11.0636 10.1348 11.0636 10.0022V2.58716C11.0722 2.19218 10.9304 1.80867 10.6668 1.51437C10.4032 1.22006 10.0376 1.03696 9.64409 1.00216C9.44044 0.991217 9.2367 1.02192 9.04531 1.09238C8.85393 1.16285 8.67893 1.2716 8.531 1.41199C8.38307 1.55239 8.26533 1.72147 8.18496 1.90891C8.10459 2.09636 8.0633 2.29822 8.06359 2.50216V11.9907C8.06354 12.2502 7.99617 12.5052 7.86807 12.7309C7.73996 12.9565 7.55551 13.1451 7.33272 13.2782C7.10993 13.4112 6.85644 13.4842 6.59701 13.49C6.33758 13.4958 6.08108 13.4342 5.85259 13.3112L2.48409 11.4982C2.25305 11.3661 1.98849 11.3043 1.72284 11.3204C1.4572 11.3365 1.20202 11.4297 0.98859 11.5887C0.720355 11.803 0.547778 12.1147 0.508528 12.4557C0.469278 12.7968 0.566542 13.1395 0.77909 13.4092L6.76359 20.7827C7.32601 21.4758 8.03601 22.0347 8.84182 22.4187C9.64764 22.8027 10.529 23.002 11.4216 23.0022H16.5636C18.1549 23.0022 19.681 22.37 20.8062 21.2448C21.9314 20.1196 22.5636 18.5935 22.5636 17.0022V3.25216C22.5636 3.07711 22.5269 2.90401 22.4557 2.74407C22.3846 2.58412 22.2807 2.4409 22.1507 2.32367C22.0207 2.20645 21.8675 2.11783 21.7011 2.06357C21.5347 2.0093 21.3587 1.9906 21.1846 2.00866Z" fill="#E97C64" />
</svg>
    