<svg width="24" height="24" viewBox="0 0 24 24" fill="none" xmlns="http://www.w3.org/2000/svg">
    <path fill-rule="evenodd" clip-rule="evenodd" d="M12 3C7.02944 3 3 7.02944 3 12C3 16.9706 7.02944 21 12 21C16.9706 21 21 16.9706 21 12C21 7.02944 16.9706 3 12 3ZM0 12C0 5.37258 5.37258 0 12 0C18.6274 0 24 5.37258 24 12C24 18.6274 18.6274 24 12 24C5.37258 24 0 18.6274 0 12Z" fill="#2D2E32" />
    <path fill-rule="evenodd" clip-rule="evenodd" d="M12 9.54538C12.8284 9.54538 13.5 10.217 13.5 11.0454V16.7727C13.5 17.6011 12.8284 18.2727 12 18.2727C11.1716 18.2727 10.5 17.6011 10.5 16.7727V11.0454C10.5 10.217 11.1716 9.54538 12 9.54538Z" fill="#2D2E32" />
    <path d="M12 9C12.8284 9 13.5 8.32843 13.5 7.5C13.5 6.67157 12.8284 6 12 6C11.1716 6 10.5 6.67157 10.5 7.5C10.5 8.32843 11.1716 9 12 9Z" fill="#2D2E32" />
</svg>
    