<svg width="21" height="24" viewBox="0 0 21 24" fill="none" xmlns="http://www.w3.org/2000/svg">
    <path fill-rule="evenodd" clip-rule="evenodd" d="M10.1 0.5C10.4011 0.5 10.6862 0.635697 10.8761 0.869407L19.9761 12.0694C20.2194 12.3688 20.2687 12.7814 20.1029 13.1298C19.9372 13.4781 19.5858 13.7 19.2 13.7H14.6V22.5C14.6 23.0523 14.1523 23.5 13.6 23.5H6.60001C6.04773 23.5 5.60001 23.0523 5.60001 22.5V13.7H1.00001C0.614237 13.7 0.262867 13.4781 0.0970728 13.1298C-0.0687215 12.7814 -0.0193692 12.3688 0.223896 12.0694L9.3239 0.869407C9.51379 0.635697 9.79888 0.5 10.1 0.5ZM3.10098 11.7H6.60001C7.1523 11.7 7.60001 12.1477 7.60001 12.7V21.5H12.6V12.7C12.6 12.1477 13.0477 11.7 13.6 11.7H17.099L10.1 3.08581L3.10098 11.7Z" fill="#8E959F" />
</svg>
    