<svg width="24" height="20" viewBox="0 0 24 20" fill="none" xmlns="http://www.w3.org/2000/svg">
    <path fill-rule="evenodd" clip-rule="evenodd" d="M0.5 1C0.5 0.447715 0.947715 0 1.5 0H22.5C23.0523 0 23.5 0.447715 23.5 1C23.5 1.55228 23.0523 2 22.5 2H1.5C0.947715 2 0.5 1.55228 0.5 1Z" fill="#8E959F" />
    <path fill-rule="evenodd" clip-rule="evenodd" d="M0.5 10C0.5 9.44772 0.947715 9 1.5 9H22.5C23.0523 9 23.5 9.44772 23.5 10C23.5 10.5523 23.0523 11 22.5 11H1.5C0.947715 11 0.5 10.5523 0.5 10Z" fill="#8E959F" />
    <path fill-rule="evenodd" clip-rule="evenodd" d="M0.5 19C0.5 18.4477 0.947715 18 1.5 18H14.1C14.6523 18 15.1 18.4477 15.1 19C15.1 19.5523 14.6523 20 14.1 20H1.5C0.947715 20 0.5 19.5523 0.5 19Z" fill="#8E959F" />
</svg>
    