<svg width="7" height="21" viewBox="0 0 7 21" fill="none" xmlns="http://www.w3.org/2000/svg">
    <path fill-rule="evenodd" clip-rule="evenodd" d="M3.3 17C2.85817 17 2.5 17.3582 2.5 17.8C2.5 18.2418 2.85817 18.6 3.3 18.6C3.74183 18.6 4.1 18.2418 4.1 17.8C4.1 17.3582 3.74183 17 3.3 17ZM0.5 17.8C0.5 16.2536 1.7536 15 3.3 15C4.8464 15 6.1 16.2536 6.1 17.8C6.1 19.3464 4.8464 20.6 3.3 20.6C1.7536 20.6 0.5 19.3464 0.5 17.8Z" fill="#2D2E32" />
    <path fill-rule="evenodd" clip-rule="evenodd" d="M3.3 9.5C2.85817 9.5 2.5 9.85817 2.5 10.3C2.5 10.7418 2.85817 11.1 3.3 11.1C3.74183 11.1 4.1 10.7418 4.1 10.3C4.1 9.85817 3.74183 9.5 3.3 9.5ZM0.5 10.3C0.5 8.7536 1.7536 7.5 3.3 7.5C4.8464 7.5 6.1 8.7536 6.1 10.3C6.1 11.8464 4.8464 13.1 3.3 13.1C1.7536 13.1 0.5 11.8464 0.5 10.3Z" fill="#2D2E32" />
    <path fill-rule="evenodd" clip-rule="evenodd" d="M3.3 2C2.85817 2 2.5 2.35817 2.5 2.8C2.5 3.24183 2.85817 3.6 3.3 3.6C3.74183 3.6 4.1 3.24183 4.1 2.8C4.1 2.35817 3.74183 2 3.3 2ZM0.5 2.8C0.5 1.2536 1.7536 0 3.3 0C4.8464 0 6.1 1.2536 6.1 2.8C6.1 4.3464 4.8464 5.6 3.3 5.6C1.7536 5.6 0.5 4.3464 0.5 2.8Z" fill="#2D2E32" />
</svg>
    