<svg width="22" height="24" viewBox="0 0 22 24" fill="none" xmlns="http://www.w3.org/2000/svg">
    <path fill-rule="evenodd" clip-rule="evenodd" d="M2.53846 3.89999C2.15067 3.89999 2 4.16614 2 4.29999V21.1C2 21.2338 2.15067 21.5 2.53846 21.5H19.4615C19.8493 21.5 20 21.2338 20 21.1V4.29999C20 4.16614 19.8493 3.89999 19.4615 3.89999H2.53846ZM0 4.29999C0 2.88825 1.22779 1.89999 2.53846 1.89999H19.4615C20.7722 1.89999 22 2.88825 22 4.29999V21.1C22 22.5117 20.7722 23.5 19.4615 23.5H2.53846C1.22779 23.5 0 22.5117 0 21.1V4.29999Z" fill="#2D2E32" />
    <path fill-rule="evenodd" clip-rule="evenodd" d="M6.15381 1.5C6.15381 0.947715 6.60152 0.5 7.15381 0.5H14.8461C15.3984 0.5 15.8461 0.947715 15.8461 1.5V4.3C15.8461 4.85228 15.3984 5.3 14.8461 5.3H7.15381C6.60152 5.3 6.15381 4.85228 6.15381 4.3V1.5ZM8.15381 2.5V3.3H13.8461V2.5H8.15381Z" fill="#2D2E32" />
    <path fill-rule="evenodd" clip-rule="evenodd" d="M4.61523 9.89996C4.61523 9.34768 5.06295 8.89996 5.61523 8.89996H16.3845C16.9368 8.89996 17.3845 9.34768 17.3845 9.89996C17.3845 10.4522 16.9368 10.9 16.3845 10.9H5.61523C5.06295 10.9 4.61523 10.4522 4.61523 9.89996Z" fill="#2D2E32" />
    <path fill-rule="evenodd" clip-rule="evenodd" d="M4.61523 15.5C4.61523 14.9477 5.06295 14.5 5.61523 14.5H16.3845C16.9368 14.5 17.3845 14.9477 17.3845 15.5C17.3845 16.0523 16.9368 16.5 16.3845 16.5H5.61523C5.06295 16.5 4.61523 16.0523 4.61523 15.5Z" fill="#2D2E32" />
</svg>
    