<svg width="22" height="16" viewBox="0 0 22 16" fill="none" xmlns="http://www.w3.org/2000/svg">
    <path fill-rule="evenodd" clip-rule="evenodd" d="M2.5197 7.5396C2.42567 7.67471 2.37524 7.83539 2.37524 8.00003C2.37524 8.16467 2.42567 8.32535 2.5197 8.46046C3.1778 9.39188 4.30444 10.7976 5.78506 11.9624C7.26896 13.1297 9.03656 14 11 14C12.9633 14 14.7309 13.1297 16.2148 11.9624C17.6955 10.7976 18.8221 9.39189 19.4802 8.46048C19.5742 8.32537 19.6247 8.16468 19.6247 8.00003C19.6247 7.83538 19.5742 7.6747 19.4802 7.53959C18.8221 6.60817 17.6955 5.20246 16.2148 4.03768C14.7309 2.87031 12.9633 2.00003 11 2.00003C9.03656 2.00003 7.26896 2.87031 5.78506 4.03768C4.30444 5.20247 3.1778 6.60818 2.5197 7.5396ZM4.54847 2.46579C6.23645 1.13787 8.42997 3.05176e-05 11 3.05176e-05C13.5699 3.05176e-05 15.7635 1.13787 17.4514 2.46579C19.1415 3.79535 20.3969 5.37075 21.1154 6.38798L21.118 6.39174C21.4478 6.86322 21.6247 7.42467 21.6247 8.00003C21.6247 8.57539 21.4478 9.13684 21.118 9.60831L21.1154 9.61208C20.3969 10.6293 19.1415 12.2047 17.4514 13.5343C15.7635 14.8622 13.5699 16 11 16C8.42997 16 6.23645 14.8622 4.54847 13.5343C2.8584 12.2047 1.60303 10.6293 0.884533 9.61208L0.881875 9.60832L0.881884 9.60831C0.552112 9.13684 0.375244 8.57539 0.375244 8.00003C0.375244 7.42467 0.552112 6.86322 0.881884 6.39175L0.884524 6.38797L0.884533 6.38798C1.60303 5.37075 2.8584 3.79535 4.54847 2.46579Z" fill="#2D2E32" />
    <path fill-rule="evenodd" clip-rule="evenodd" d="M11 5.49991C9.61929 5.49991 8.5 6.6192 8.5 7.99991C8.5 9.38062 9.61929 10.4999 11 10.4999C12.3807 10.4999 13.5 9.38062 13.5 7.99991C13.5 6.6192 12.3807 5.49991 11 5.49991ZM6.5 7.99991C6.5 5.51463 8.51472 3.49991 11 3.49991C13.4853 3.49991 15.5 5.51463 15.5 7.99991C15.5 10.4852 13.4853 12.4999 11 12.4999C8.51472 12.4999 6.5 10.4852 6.5 7.99991Z" fill="#2D2E32" />
</svg>
    