<svg width="22" height="22" viewBox="0 0 22 22" fill="none" xmlns="http://www.w3.org/2000/svg">
    <path fill-rule="evenodd" clip-rule="evenodd" d="M5 1.83334C5 1.28106 5.44772 0.833344 6 0.833344H16C16.5523 0.833344 17 1.28106 17 1.83334V3.50001C17 4.05229 16.5523 4.50001 16 4.50001C15.4477 4.50001 15 4.05229 15 3.50001V2.83334H7V3.50001C7 4.05229 6.55228 4.50001 6 4.50001C5.44772 4.50001 5 4.05229 5 3.50001V1.83334Z" fill="#2D2E32" />
    <path fill-rule="evenodd" clip-rule="evenodd" d="M5.16659 7C4.54775 7 3.95425 7.24583 3.51667 7.68342C3.07908 8.121 2.83325 8.71449 2.83325 9.33333V15H5.99992C6.5522 15 6.99992 15.4477 6.99992 16C6.99992 16.5523 6.5522 17 5.99992 17H1.83325C1.28097 17 0.833252 16.5523 0.833252 16V9.33333C0.833252 8.18406 1.2898 7.08186 2.10246 6.2692C2.91511 5.45655 4.01731 5 5.16659 5H16.8333C17.9825 5 19.0847 5.45655 19.8974 6.2692C20.71 7.08186 21.1666 8.18406 21.1666 9.33333V16C21.1666 16.5523 20.7189 17 20.1666 17H15.9999C15.4476 17 14.9999 16.5523 14.9999 16C14.9999 15.4477 15.4476 15 15.9999 15H19.1666V9.33333C19.1666 8.71449 18.9208 8.121 18.4832 7.68342C18.0456 7.24583 17.4521 7 16.8333 7H5.16659Z" fill="#2D2E32" />
    <path fill-rule="evenodd" clip-rule="evenodd" d="M5 12.6667C5 12.1144 5.44772 11.6667 6 11.6667H16C16.5523 11.6667 17 12.1144 17 12.6667V20.1667C17 20.719 16.5523 21.1667 16 21.1667H6C5.44772 21.1667 5 20.719 5 20.1667V12.6667ZM7 13.6667V19.1667H15V13.6667H7Z" fill="#2D2E32" />
</svg>
    