<svg width="24" height="24" viewBox="0 0 24 24" fill="none" xmlns="http://www.w3.org/2000/svg">
    <path fill-rule="evenodd" clip-rule="evenodd" d="M12 2.5C17.3128 2.5 21.5 6.50375 21.5 11.3C21.5 11.8523 21.9477 12.3 22.5 12.3C23.0523 12.3 23.5 11.8523 23.5 11.3C23.5 5.27145 18.2852 0.5 12 0.5C7.63032 0.5 4.02616 3.04405 2.11727 6.63012C1.85776 7.11763 2.0426 7.72322 2.53012 7.98273C3.01763 8.24224 3.62322 8.0574 3.88273 7.56988C5.48984 4.55075 8.46168 2.5 12 2.5Z" fill="#8E959F" />
    <path fill-rule="evenodd" clip-rule="evenodd" d="M3 0.5C2.44772 0.5 2 0.947715 2 1.5V7.1C2 7.65229 2.44772 8.1 3 8.1H9C9.55228 8.1 10 7.65229 10 7.1C10 6.54772 9.55228 6.1 9 6.1H4V1.5C4 0.947715 3.55228 0.5 3 0.5Z" fill="#8E959F" />
    <path fill-rule="evenodd" clip-rule="evenodd" d="M1.4998 11.7C0.947517 11.7 0.499802 12.1477 0.499802 12.7C0.499802 18.7286 5.71462 23.5 11.9998 23.5C16.3695 23.5 19.9736 20.956 21.8825 17.3699C22.142 16.8824 21.9572 16.2768 21.4697 16.0173C20.9822 15.7578 20.3766 15.9426 20.1171 16.4301C18.51 19.4493 15.5381 21.5 11.9998 21.5C6.68698 21.5 2.4998 17.4963 2.4998 12.7C2.4998 12.1477 2.05209 11.7 1.4998 11.7Z" fill="#8E959F" />
    <path fill-rule="evenodd" clip-rule="evenodd" d="M22 16.9C22 16.3477 21.5523 15.9 21 15.9H15C14.4477 15.9 14 16.3477 14 16.9C14 17.4523 14.4477 17.9 15 17.9H20V22.5C20 23.0523 20.4477 23.5 21 23.5C21.5523 23.5 22 23.0523 22 22.5V16.9Z" fill="#8E959F" />
</svg>
    