<svg width="24" height="18" viewBox="0 0 24 18" fill="none" xmlns="http://www.w3.org/2000/svg">
    <path fill-rule="evenodd" clip-rule="evenodd" d="M11.7429 0.603416C12.084 0.771935 12.3 1.11948 12.3 1.50001V5.5629C14.755 5.67111 17.3584 6.20678 19.4526 7.65043C21.901 9.33822 23.5 12.1594 23.5 16.5C23.5 16.9375 23.2156 17.3242 22.798 17.4546C22.3804 17.5849 21.9265 17.4287 21.6776 17.0689C19.398 13.7735 15.9813 12.6792 12.3 12.5209V16.5C12.3 16.8805 12.084 17.2281 11.7429 17.3966C11.4017 17.5651 10.9944 17.5254 10.6922 17.2941L0.892249 9.79413C0.645008 9.60492 0.5 9.31134 0.5 9.00001C0.5 8.68867 0.645008 8.39509 0.892249 8.20588L10.6922 0.705879C10.9944 0.474615 11.4017 0.434897 11.7429 0.603416ZM3.14541 9.00001L10.3 14.4755V11.5C10.3 10.9477 10.7477 10.5 11.3 10.5C14.7109 10.5 18.3116 11.1496 21.1671 13.5491C20.6571 11.5171 19.6048 10.1845 18.3175 9.29709C16.4222 7.9906 13.8621 7.54126 11.3 7.54126C10.7477 7.54126 10.3 7.09354 10.3 6.54126V3.52456L3.14541 9.00001Z" />
</svg>
    