<svg width="23" height="24" viewBox="0 0 23 24" fill="none" xmlns="http://www.w3.org/2000/svg">
    <path fill-rule="evenodd" clip-rule="evenodd" d="M14.9071 16.4071C14.5165 16.7976 13.8834 16.7976 13.4928 16.4071L12.1 15.0142L10.7071 16.4071C10.3165 16.7976 9.68337 16.7976 9.29284 16.4071C8.90232 16.0166 8.90232 15.3834 9.29284 14.9929L10.6857 13.6L9.29284 12.2071C8.90232 11.8166 8.90232 11.1834 9.29284 10.7929C9.68337 10.4024 10.3165 10.4024 10.7071 10.7929L12.1 12.1858L13.4928 10.7929C13.8834 10.4024 14.5165 10.4024 14.9071 10.7929C15.2976 11.1834 15.2976 11.8166 14.9071 12.2071L13.5142 13.6L14.9071 14.9929C15.2976 15.3834 15.2976 16.0166 14.9071 16.4071Z" />
    <path fill-rule="evenodd" clip-rule="evenodd" d="M4.70711 0.292893C5.09763 0.683418 5.09763 1.31658 4.70711 1.70711L2.41421 4L4.70711 6.29289C5.09763 6.68342 5.09763 7.31658 4.70711 7.70711C4.31658 8.09763 3.68342 8.09763 3.29289 7.70711L0.292893 4.70711C0.105356 4.51957 -3.59531e-07 4.26522 -3.37175e-07 4C-3.14819e-07 3.73478 0.105357 3.48043 0.292893 3.29289L3.29289 0.292893C3.68342 -0.0976311 4.31658 -0.0976311 4.70711 0.292893Z" />
    <path fill-rule="evenodd" clip-rule="evenodd" d="M1 4C1 3.44772 1.44772 3 2 3H12C18.0262 3 23 7.6533 23 13.5C23 19.3467 18.0262 24 12 24C5.97382 24 1 19.3467 1 13.5C1 12.9477 1.44772 12.5 2 12.5C2.55228 12.5 3 12.9477 3 13.5C3 18.1467 6.98048 22 12 22C17.0195 22 21 18.1467 21 13.5C21 8.85329 17.0195 5 12 5H2C1.44772 5 1 4.55228 1 4Z" />
</svg>
    