<svg width="24" height="24" viewBox="0 0 24 24" fill="none" xmlns="http://www.w3.org/2000/svg">
    <path fill-rule="evenodd" clip-rule="evenodd" d="M0.5 1.5C0.5 0.947715 0.947715 0.5 1.5 0.5H15C15.2652 0.5 15.5196 0.605357 15.7071 0.792893L23.2071 8.29289C23.3946 8.48043 23.5 8.73478 23.5 9V22.5C23.5 23.0523 23.0523 23.5 22.5 23.5H1.5C0.947715 23.5 0.5 23.0523 0.5 22.5V1.5ZM2.5 2.5V21.5H21.5V9.41421L14.5858 2.5H2.5Z" fill="#8E959F" />
    <path fill-rule="evenodd" clip-rule="evenodd" d="M5 7.5C5 6.94772 5.44772 6.5 6 6.5L13.5 6.5C14.0523 6.5 14.5 6.94772 14.5 7.5C14.5 8.05228 14.0523 8.5 13.5 8.5H6C5.44772 8.5 5 8.05228 5 7.5Z" fill="#8E959F" />
    <path fill-rule="evenodd" clip-rule="evenodd" d="M12 14.5C11.7239 14.5 11.5 14.7239 11.5 15C11.5 15.2761 11.7239 15.5 12 15.5C12.2761 15.5 12.5 15.2761 12.5 15C12.5 14.7239 12.2761 14.5 12 14.5ZM9.5 15C9.5 13.6193 10.6193 12.5 12 12.5C13.3807 12.5 14.5 13.6193 14.5 15C14.5 16.3807 13.3807 17.5 12 17.5C10.6193 17.5 9.5 16.3807 9.5 15Z" fill="#8E959F" />
</svg>
    