<svg width="18" height="20" viewBox="0 0 18 20" fill="none" xmlns="http://www.w3.org/2000/svg">
    <path fill-rule="evenodd" clip-rule="evenodd" d="M0.125 8.25003C0.125 3.83175 3.70672 0.250031 8.125 0.250031C12.5433 0.250031 16.125 3.83175 16.125 8.25003C16.125 10.4621 15.2272 12.4645 13.776 13.9127L17.2118 18.1173C17.5613 18.5449 17.4979 19.1749 17.0703 19.5244C16.6426 19.8738 16.0126 19.8105 15.6632 19.3828L12.1951 15.1387C11.0027 15.8448 9.61118 16.25 8.125 16.25C3.70672 16.25 0.125 12.6683 0.125 8.25003ZM8.125 2.25003C4.81129 2.25003 2.125 4.93632 2.125 8.25003C2.125 11.5637 4.81129 14.25 8.125 14.25C11.4387 14.25 14.125 11.5637 14.125 8.25003C14.125 4.93632 11.4387 2.25003 8.125 2.25003Z" fill="#8E959F" />
</svg>
    