<svg width="20" height="23" viewBox="0 0 20 23" fill="none" xmlns="http://www.w3.org/2000/svg">
    <path fill-rule="evenodd" clip-rule="evenodd" d="M19.7071 2.29289C20.0976 2.68342 20.0976 3.31658 19.7071 3.70711L1.70711 21.7071C1.31658 22.0976 0.683417 22.0976 0.292893 21.7071C-0.0976311 21.3166 -0.0976311 20.6834 0.292893 20.2929L18.2929 2.29289C18.6834 1.90237 19.3166 1.90237 19.7071 2.29289Z" fill="#2D2E32" />
    <path fill-rule="evenodd" clip-rule="evenodd" d="M8.32227 4.08818C8.90444 4.18162 9.40185 4.25002 9.85685 4.25002C10.2982 4.25002 10.7806 4.18556 11.3425 4.09595C11.8879 4.00897 12.4005 4.38059 12.4875 4.92598C12.5745 5.47138 12.2029 5.98401 11.6575 6.07099C11.0903 6.16145 10.4708 6.25002 9.85685 6.25002C9.22576 6.25002 8.58727 6.15631 8.00532 6.06291C7.91267 6.04804 7.82144 6.03318 7.7314 6.01851C7.23255 5.93726 6.77011 5.86194 6.30373 5.82342C5.23921 5.73552 4.31917 5.85623 3.45506 6.53921L3.45428 6.53982C2.86474 7.00484 2.3234 7.96633 2.10221 9.34298C1.88503 10.6946 1.99797 12.3402 2.59619 14.0273C2.78077 14.5479 2.50843 15.1195 1.9879 15.304C1.46737 15.4886 0.895769 15.2163 0.711193 14.6957C0.00549173 12.7056 -0.144918 10.7214 0.127534 9.02569C0.395935 7.35524 1.09706 5.85211 2.21523 4.96987C3.63017 3.85169 5.13484 3.7201 6.46832 3.83021C7.02075 3.87583 7.5723 3.96592 8.06865 4.04699C8.15495 4.06109 8.23959 4.07491 8.32227 4.08818ZM18.0899 8.76289C18.635 8.67444 19.1486 9.04467 19.2371 9.58982C19.6154 11.9214 19.5526 15.8086 17.6919 18.728C16.2115 21.051 14.6156 21.9615 13.0565 22.1805C12.3152 22.2846 11.6385 22.2235 11.0903 22.1503C10.8958 22.1243 10.7307 22.0997 10.5864 22.0782C10.2766 22.0319 10.0628 22 9.85947 22C9.6574 22 9.44048 22.0322 9.12359 22.0792C8.99288 22.0986 8.84517 22.1205 8.67447 22.1437C8.14839 22.2153 7.49878 22.2791 6.78689 22.1953C6.23838 22.1308 5.84603 21.6339 5.91053 21.0854C5.97504 20.5369 6.47199 20.1445 7.02049 20.209C7.48156 20.2633 7.93419 20.226 8.40492 20.1619C8.49579 20.1496 8.59464 20.1348 8.69851 20.1193C9.06591 20.0643 9.49625 20 9.85947 20C10.2224 20 10.6588 20.0653 11.0317 20.1211C11.1469 20.1384 11.256 20.1547 11.355 20.1679C11.8387 20.2325 12.3045 20.2665 12.7783 20.1999C13.6497 20.0775 14.7752 19.5833 16.0052 17.6532L16.0053 17.6531C17.4921 15.3205 17.6031 12.0069 17.2629 9.91014C17.1745 9.36498 17.5447 8.85134 18.0899 8.76289Z" fill="#2D2E32" />
    <path fill-rule="evenodd" clip-rule="evenodd" d="M12.4487 1.18377C12.6233 1.70771 12.3402 2.27403 11.8162 2.44868C11.0803 2.69399 10.7261 3.01274 10.5382 3.30159C10.3428 3.60195 10.25 3.98859 10.25 4.5C10.25 5.05228 9.80228 5.5 9.25 5.5C8.69772 5.5 8.25 5.05228 8.25 4.5C8.25 3.76141 8.3822 2.94804 8.86179 2.2109C9.34886 1.46225 10.1197 0.906007 11.1838 0.551313C11.7077 0.376666 12.274 0.659826 12.4487 1.18377Z" fill="#2D2E32" />
</svg>
    