<svg width="22" height="22" viewBox="0 0 22 22" fill="none" xmlns="http://www.w3.org/2000/svg">
    <path fill-rule="evenodd" clip-rule="evenodd" d="M8.3335 5.16666C8.3335 4.61437 8.78121 4.16666 9.3335 4.16666H21.0002C21.5524 4.16666 22.0002 4.61437 22.0002 5.16666C22.0002 5.71894 21.5524 6.16666 21.0002 6.16666H9.3335C8.78121 6.16666 8.3335 5.71894 8.3335 5.16666Z" fill="#2D2E32" />
    <path fill-rule="evenodd" clip-rule="evenodd" d="M16.429 0.268948C16.8328 -0.107885 17.4656 -0.0860653 17.8424 0.317685L21.7313 4.48435C22.0899 4.86856 22.0899 5.46478 21.7313 5.84899L17.8424 10.0157C17.4656 10.4194 16.8328 10.4412 16.429 10.0644C16.0253 9.68756 16.0034 9.05477 16.3803 8.65102L19.6323 5.16667L16.3803 1.68232C16.0034 1.27857 16.0253 0.645782 16.429 0.268948Z" fill="#2D2E32" />
    <path fill-rule="evenodd" clip-rule="evenodd" d="M13.6667 16.8333C13.6667 17.3856 13.219 17.8333 12.6667 17.8333H1.00008C0.447797 17.8333 8.10623e-05 17.3856 8.10623e-05 16.8333C8.10623e-05 16.2811 0.447797 15.8333 1.00008 15.8333H12.6667C13.219 15.8333 13.6667 16.2811 13.6667 16.8333Z" fill="#2D2E32" />
    <path fill-rule="evenodd" clip-rule="evenodd" d="M5.57123 21.7311C5.16748 22.1079 4.53469 22.0861 4.15786 21.6823L0.268968 17.5156C-0.0896249 17.1314 -0.0896249 16.5352 0.268968 16.151L4.15786 11.9843C4.53469 11.5806 5.16748 11.5588 5.57123 11.9356C5.97498 12.3124 5.9968 12.9452 5.61997 13.349L2.36791 16.8333L5.61997 20.3177C5.9968 20.7214 5.97498 21.3542 5.57123 21.7311Z" fill="#2D2E32" />
</svg>
    