<svg width="24" height="20" viewBox="0 0 24 20" fill="none" xmlns="http://www.w3.org/2000/svg">
    <path fill-rule="evenodd" clip-rule="evenodd" d="M6.1 1C6.1 0.447715 6.54772 0 7.1 0H16.2C20.2208 0 23.5 3.22733 23.5 7.23077C23.5 11.2342 20.2208 14.4615 16.2 14.4615H1.5C0.947715 14.4615 0.5 14.0138 0.5 13.4615C0.5 12.9093 0.947715 12.4615 1.5 12.4615H16.2C19.1372 12.4615 21.5 10.1089 21.5 7.23077C21.5 4.35267 19.1372 2 16.2 2H7.1C6.54772 2 6.1 1.55228 6.1 1Z" fill="#2D2E32" />
    <path fill-rule="evenodd" clip-rule="evenodd" d="M7.811 7.21994C8.19936 7.61261 8.19587 8.24577 7.80319 8.63413L2.92209 13.4616L7.80319 18.289C8.19587 18.6774 8.19936 19.3106 7.811 19.7032C7.42264 20.0959 6.78949 20.0994 6.39681 19.7111L0.796811 14.1726C0.606879 13.9847 0.5 13.7287 0.5 13.4616C0.5 13.1945 0.606879 12.9384 0.796811 12.7506L6.39681 7.21212C6.78949 6.82376 7.42264 6.82726 7.811 7.21994Z" fill="#2D2E32" />
</svg>
    