<svg width="13" height="32" viewBox="0 0 13 32" fill="none" xmlns="http://www.w3.org/2000/svg">
    <path fill-rule="evenodd" clip-rule="evenodd" d="M1 15C1.55228 15 2 15.4477 2 16C2 18.4477 4.00683 20.4545 6.45455 20.4545C8.90226 20.4545 10.9091 18.4477 10.9091 16C10.9091 15.4477 11.3568 15 11.9091 15C12.4614 15 12.9091 15.4477 12.9091 16C12.9091 19.5523 10.0068 22.4545 6.45455 22.4545C2.90226 22.4545 0 19.5523 0 16C0 15.4477 0.447715 15 1 15Z" />
    <path fill-rule="evenodd" clip-rule="evenodd" d="M11.9091 6.09094C9.46142 6.09094 7.45459 8.09777 7.45459 10.5455C7.45459 11.0978 7.00687 11.5455 6.45459 11.5455C5.90231 11.5455 5.45459 11.0978 5.45459 10.5455C5.45459 6.9932 8.35685 4.09094 11.9091 4.09094C12.4614 4.09094 12.9091 4.53866 12.9091 5.09094C12.9091 5.64323 12.4614 6.09094 11.9091 6.09094Z" />
    <path fill-rule="evenodd" clip-rule="evenodd" d="M0 5.09094C0 4.53866 0.447715 4.09094 1 4.09094C4.55229 4.09094 7.45455 6.9932 7.45455 10.5455C7.45455 11.0978 7.00683 11.5455 6.45455 11.5455C5.90226 11.5455 5.45455 11.0978 5.45455 10.5455C5.45455 8.09777 3.44772 6.09094 1 6.09094C0.447715 6.09094 0 5.64323 0 5.09094Z" />
    <path fill-rule="evenodd" clip-rule="evenodd" d="M11.9091 12.9091C9.46142 12.9091 7.45459 14.9159 7.45459 17.3636C7.45459 17.9159 7.00687 18.3636 6.45459 18.3636C5.90231 18.3636 5.45459 17.9159 5.45459 17.3636C5.45459 13.8113 8.35685 10.9091 11.9091 10.9091C12.4614 10.9091 12.9091 11.3568 12.9091 11.9091C12.9091 12.4613 12.4614 12.9091 11.9091 12.9091Z" />
    <path fill-rule="evenodd" clip-rule="evenodd" d="M11.9091 26.5454C9.46142 26.5454 7.45459 28.5522 7.45459 31C7.45459 31.5522 7.00687 32 6.45459 32C5.90231 32 5.45459 31.5522 5.45459 31C5.45459 27.4477 8.35685 24.5454 11.9091 24.5454C12.4614 24.5454 12.9091 24.9931 12.9091 25.5454C12.9091 26.0977 12.4614 26.5454 11.9091 26.5454Z" />
    <path fill-rule="evenodd" clip-rule="evenodd" d="M0 11.9091C0 11.3568 0.447715 10.9091 1 10.9091C4.55229 10.9091 7.45455 13.8113 7.45455 17.3636C7.45455 17.9159 7.00683 18.3636 6.45455 18.3636C5.90226 18.3636 5.45455 17.9159 5.45455 17.3636C5.45455 14.9159 3.44772 12.9091 1 12.9091C0.447715 12.9091 0 12.4613 0 11.9091Z" />
    <path fill-rule="evenodd" clip-rule="evenodd" d="M0 25.5454C0 24.9931 0.447715 24.5454 1 24.5454C4.55229 24.5454 7.45455 27.4477 7.45455 31C7.45455 31.5522 7.00683 32 6.45455 32C5.90226 32 5.45455 31.5522 5.45455 31C5.45455 28.5522 3.44772 26.5454 1 26.5454C0.447715 26.5454 0 26.0977 0 25.5454Z" />
    <path fill-rule="evenodd" clip-rule="evenodd" d="M6.45459 2.04541C7.00687 2.04541 7.45459 2.49313 7.45459 3.04541V31C7.45459 31.5522 7.00687 32 6.45459 32C5.90231 32 5.45459 31.5522 5.45459 31V3.04541C5.45459 2.49313 5.90231 2.04541 6.45459 2.04541Z" />
    <path fill-rule="evenodd" clip-rule="evenodd" d="M1 0C1.55228 0 2 0.447715 2 1V16C2 16.5523 1.55228 17 1 17C0.447715 17 0 16.5523 0 16V1C0 0.447715 0.447715 0 1 0Z" />
    <path fill-rule="evenodd" clip-rule="evenodd" d="M11.9092 0C12.4615 0 12.9092 0.447715 12.9092 1V16C12.9092 16.5523 12.4615 17 11.9092 17C11.3569 17 10.9092 16.5523 10.9092 16V1C10.9092 0.447715 11.3569 0 11.9092 0Z" />
</svg>
    