<svg width="32" height="32" viewBox="0 0 32 32" fill="none" xmlns="http://www.w3.org/2000/svg">
    <path fill-rule="evenodd" clip-rule="evenodd" d="M22.0563 13.1204C20.4925 10.2809 17.4282 8.53927 13.8876 9.12938C13.8784 9.13092 13.8691 9.13233 13.8598 9.13361C10.4569 9.60297 7.84274 12.4288 7.48574 15.8798L7.48496 15.8874L7.48494 15.8873C7.24743 18.0249 7.83202 19.7963 8.92039 21.3684L8.92224 21.3711C10.1963 23.2243 12.4224 24.4198 15.0625 24.4198C17.563 24.4198 19.7545 22.831 20.6898 20.5116L22.0225 16.7799C22.0267 16.7681 22.0312 16.7564 22.0358 16.7448C22.4692 15.6613 22.476 14.2153 22.0563 13.1204ZM13.5726 7.1543C18.0401 6.41567 21.9182 8.66581 23.8436 12.2203C23.862 12.2543 23.8784 12.2893 23.8927 12.3252C24.5214 13.8968 24.5238 15.8945 23.9 17.4694L22.5667 21.2025C22.5625 21.2143 22.5581 21.226 22.5535 21.2376C21.342 24.2662 18.4488 26.4198 15.0625 26.4198C11.8102 26.4198 8.94754 24.9372 7.27504 22.5054C5.9539 20.5966 5.19973 18.3518 5.49675 15.6702C5.94437 11.3596 9.21588 7.76194 13.5726 7.1543Z" fill="#2D2E32" />
    <path fill-rule="evenodd" clip-rule="evenodd" d="M27.7857 10.3481C27.0975 10.3481 26.485 10.7875 26.1898 11.6733C26.1854 11.6865 26.1807 11.6995 26.1758 11.7125L22.5597 21.2214L22.5535 21.2374C22.0594 22.4726 21.2856 23.5622 20.3127 24.4196H23.9018C24.5439 24.4196 25.1277 24.018 25.3852 23.4371L29.3317 12.9134C29.3385 12.7798 29.372 12.6488 29.4304 12.5282C29.4314 12.5251 29.4329 12.5197 29.4347 12.5119C29.4407 12.4866 29.4472 12.4486 29.4525 12.396C29.4636 12.2855 29.4643 12.1662 29.4643 12.0267C29.4643 11.1058 28.7066 10.3481 27.7857 10.3481ZM15.0625 24.4196C17.5663 24.4196 19.7603 22.8266 20.6935 20.5023L24.2994 11.0199C24.8123 9.50527 26.0711 8.34814 27.7857 8.34814C29.8112 8.34814 31.4643 10.0012 31.4643 12.0267V12.0385C31.4643 12.168 31.4643 12.3773 31.4426 12.595C31.4273 12.7474 31.3978 12.9486 31.3285 13.1583C31.3226 13.2577 31.3017 13.3558 31.2667 13.4493L27.2488 24.1636C27.2434 24.1779 27.2377 24.1922 27.2316 24.2064C26.6813 25.4904 25.3957 26.4196 23.9018 26.4196H15.0625C14.5102 26.4196 14.0625 25.9719 14.0625 25.4196C14.0625 24.8673 14.5102 24.4196 15.0625 24.4196Z" fill="#2D2E32" />
    <path fill-rule="evenodd" clip-rule="evenodd" d="M8.9961 21.4968C9.23934 21.9926 9.03457 22.5918 8.53874 22.835L5.30909 24.4194H15.0626C15.6149 24.4194 16.0626 24.8671 16.0626 25.4194C16.0626 25.9717 15.6149 26.4194 15.0626 26.4194H1.0001C0.534905 26.4194 0.13115 26.0986 0.025986 25.6454C-0.0791778 25.1923 0.142028 24.7265 0.559673 24.5216L7.65789 21.0394C8.15372 20.7962 8.75286 21.001 8.9961 21.4968Z" fill="#2D2E32" />
    <path fill-rule="evenodd" clip-rule="evenodd" d="M31.3645 6.14031C31.8788 6.34157 32.1326 6.92165 31.9313 7.43596L30.7259 10.5163C30.5247 11.0306 29.9446 11.2844 29.4303 11.0832C28.916 10.8819 28.6622 10.3018 28.8635 9.78752L30.0688 6.70716C30.2701 6.19285 30.8501 5.93906 31.3645 6.14031Z" fill="#2D2E32" />
    <path fill-rule="evenodd" clip-rule="evenodd" d="M28.7941 5.05914C29.3137 5.24621 29.5833 5.81911 29.3963 6.33875L28.1909 9.68696C28.0038 10.2066 27.4309 10.4762 26.9113 10.2891C26.3917 10.1021 26.1221 9.52916 26.3091 9.00952L27.5145 5.66131C27.7016 5.14167 28.2745 4.87207 28.7941 5.05914Z" fill="#2D2E32" />
    <path fill-rule="evenodd" clip-rule="evenodd" d="M14.7857 11.4434C16.2728 11.3655 17.9584 11.8302 19.6402 13.2317C19.65 13.2399 19.6596 13.2482 19.669 13.2567C21.9379 15.2987 22.5296 17.7618 22.2417 19.9787C21.9608 22.142 20.8488 24.0653 19.7072 25.207C19.3166 25.5975 18.6835 25.5975 18.293 25.207C17.9024 24.8165 17.9024 24.1833 18.293 23.7928C19.1513 22.9344 20.0393 21.4078 20.2584 19.7211C20.4699 18.0926 20.0644 16.311 18.3452 14.756C17.0328 13.6677 15.8411 13.3908 14.8904 13.4407C13.9083 13.4922 13.1036 13.8977 12.6247 14.2808C11.6065 15.0954 11.2917 15.9984 11.2655 16.7388C11.2369 17.5462 11.546 18.1316 11.7072 18.2928C12.381 18.9667 13.9096 19.4271 15.5529 18.6055C16.0468 18.3586 16.6475 18.5588 16.8945 19.0528C17.1415 19.5468 16.9412 20.1474 16.4472 20.3944C14.0905 21.5727 11.6191 21.0331 10.2929 19.707C9.66348 19.0775 9.22264 17.9129 9.2667 16.668C9.31314 15.3561 9.8936 13.9044 11.3753 12.719C12.1311 12.1144 13.3264 11.52 14.7857 11.4434Z" fill="#2D2E32" />
</svg>
    