<svg width="24" height="32" viewBox="0 0 24 32" fill="none" xmlns="http://www.w3.org/2000/svg">
    <path fill-rule="evenodd" clip-rule="evenodd" d="M5.08998 8.26589C3.16516 11.933 2 16.2729 2 19C2 21.6648 3.12229 24.4366 4.95817 26.5416C6.79202 28.6442 9.26192 30 11.9091 30C14.5563 30 17.0262 28.6442 18.86 26.5416C20.6959 24.4366 21.8182 21.6648 21.8182 19C21.8182 16.2729 20.653 11.933 18.7282 8.26589C17.7708 6.44184 16.6557 4.84394 15.4589 3.71553C14.257 2.58241 13.0587 2 11.9091 2C10.7594 2 9.56115 2.58241 8.35929 3.71553C7.16244 4.84394 6.0474 6.44184 5.08998 8.26589ZM6.9873 2.26032C8.39339 0.93464 10.0587 0 11.9091 0C13.7594 0 15.4248 0.93464 16.8309 2.26032C18.242 3.59072 19.4792 5.39339 20.4991 7.33638C22.5288 11.2033 23.8182 15.8634 23.8182 19C23.8182 22.1988 22.4859 25.427 20.3673 27.8562C18.2466 30.2877 15.2619 32 11.9091 32C8.55626 32 5.57161 30.2877 3.45092 27.8562C1.33225 25.427 0 22.1988 0 19C0 15.8634 1.28939 11.2033 3.31911 7.33638C4.33896 5.39339 5.5762 3.59072 6.9873 2.26032Z" fill="#2D2E32" />
    <path fill-rule="evenodd" clip-rule="evenodd" d="M9.86405 7.08706C10.2678 7.4639 10.2896 8.09669 9.91279 8.50044C8.15851 10.38 6.5991 13.8678 6.21612 16.421C6.1342 16.9672 5.62502 17.3435 5.07885 17.2616C4.53267 17.1797 4.15632 16.6705 4.23825 16.1243C4.67345 13.223 6.38677 9.34713 8.45068 7.1358C8.82751 6.73205 9.4603 6.71023 9.86405 7.08706Z" fill="#2D2E32" />
</svg>
    