<svg width="32" height="32" viewBox="0 0 32 32" fill="none" xmlns="http://www.w3.org/2000/svg">
    <path fill-rule="evenodd" clip-rule="evenodd" d="M17.084 14.5558C17.0942 14.867 16.9588 15.1653 16.7178 15.3625L14.5124 17.1669L10.6057 20.4726L8.90432 21.9737C8.85785 22.0147 8.80861 22.0507 8.75728 22.0815C8.74739 22.0893 8.73617 22.0983 8.72366 22.1084C8.6284 22.1854 8.47604 22.315 8.29348 22.4861C7.92382 22.8325 7.46242 23.3192 7.09784 23.8579C6.72179 24.4136 6.52042 24.9196 6.51395 25.3257C6.5088 25.6483 6.61993 26.0273 7.20591 26.4357C7.61369 26.7199 7.75082 27.2605 7.52784 27.7047C7.30485 28.1489 6.78943 28.362 6.31789 28.2048C5.67864 27.9917 4.79023 27.6307 4.11735 26.9578C2.0177 24.8582 2.0177 21.6111 4.11735 19.5114C4.15081 19.478 4.1866 19.4469 4.22446 19.4185L5.01914 18.8225L13.5553 12.094C13.9533 11.7803 14.5231 11.8139 14.8815 12.1723C15.3958 12.6867 16.0413 13.3287 16.6658 13.7748C16.9192 13.9558 17.0738 14.2445 17.084 14.5558ZM14.1011 14.2105L6.24779 20.4007L6.22875 20.4153L5.48472 20.9733C4.59984 21.8907 4.33831 23.1137 4.70013 24.2117C4.87606 23.6619 5.15498 23.1604 5.4415 22.737C5.91891 22.0316 6.49429 21.4312 6.92579 21.0268C7.1438 20.8225 7.33311 20.6607 7.4668 20.5527C7.53085 20.5009 7.59235 20.4532 7.64259 20.4176C7.64627 20.415 7.65038 20.4121 7.65487 20.409L9.2902 18.966L9.30588 18.9525L13.2268 15.6348L13.2395 15.6242L14.5062 14.5878C14.3655 14.4606 14.2298 14.3336 14.1011 14.2105Z" fill="#2D2E32" />
    <path fill-rule="evenodd" clip-rule="evenodd" d="M15.6522 13.6134C16.0498 13.2881 16.6293 13.317 16.9926 13.6803L17.1936 13.8814C17.2514 13.9392 17.3019 14.0039 17.344 14.074C17.8794 14.9664 18.4064 15.4963 19.0033 16.0932C19.3616 16.4515 19.3953 17.0213 19.0815 17.4193L12.3476 25.9624L11.6458 26.8647C11.6204 26.8974 11.5929 26.9285 11.5636 26.9578C10.1954 28.326 8.19254 28.8297 6.31771 28.2048C6.22682 28.1745 6.14075 28.1313 6.06215 28.0765C4.98905 27.3286 4.49557 26.3487 4.51725 25.2862C4.53719 24.309 4.99105 23.4077 5.46892 22.7082C5.95863 21.9914 6.55208 21.3735 7.00884 20.9435C7.23994 20.7259 7.44237 20.5506 7.58858 20.4284C7.66181 20.3672 7.72128 20.3191 7.76359 20.2854C7.78016 20.2722 7.79411 20.2612 7.80526 20.2524L9.4911 18.7649L9.50678 18.7514L13.4277 15.4337L13.4404 15.4231L15.6522 13.6134ZM9.05105 21.8172L9.04408 21.8226L9.01005 21.8495C8.97888 21.8743 8.93143 21.9127 8.87094 21.9632C8.74971 22.0645 8.57748 22.2136 8.37973 22.3997C7.97879 22.7772 7.49775 23.284 7.12034 23.8364C6.73108 24.4062 6.52517 24.9187 6.51683 25.327C6.5107 25.6274 6.60518 25.9748 7.08958 26.3504C8.17081 26.6572 9.30096 26.3633 10.1079 25.5844L10.7749 24.7268L16.9675 16.8706C16.6862 16.5689 16.3967 16.2313 16.1052 15.8269L14.7133 16.9658L10.8066 20.2715L9.10522 21.7727C9.08795 21.7879 9.07017 21.8025 9.05189 21.8165C9.05174 21.8166 9.05204 21.8164 9.05189 21.8165L9.05105 21.8172Z" fill="#2D2E32" />
    <path fill-rule="evenodd" clip-rule="evenodd" d="M26.3721 4.09527C26.6375 4.18946 26.8509 4.39122 26.9599 4.65097C27.8046 6.66533 27.0193 8.56968 26.2107 9.81681C26.0131 10.1216 25.8062 10.4002 25.606 10.6475C26.1118 10.9082 26.536 11.2383 26.8642 11.5392C27.215 11.8607 27.49 12.1795 27.6777 12.4178C27.7722 12.5376 27.8461 12.6391 27.8979 12.713C27.9239 12.75 27.9444 12.7803 27.9593 12.8027L27.9775 12.8303L27.9834 12.8394L27.9856 12.8428L27.9865 12.8442C27.9867 12.8445 27.9872 12.8454 27.1436 13.3822L27.9872 12.8454C28.2389 13.2408 28.1821 13.7579 27.8507 14.0893C26.9391 15.0009 25.8008 15.6882 24.7453 16.04C22.7165 16.7163 20.6222 16.5909 18.9766 16.3852C18.1002 16.2757 17.3614 16.0842 16.8391 15.9193C16.5772 15.8366 16.3678 15.7599 16.2205 15.7025C16.1469 15.6737 16.0886 15.6497 16.0468 15.632C16.026 15.6232 16.0092 15.6159 15.9968 15.6104L15.9813 15.6036L15.976 15.6012L15.974 15.6003L15.9727 15.5997C15.9725 15.5996 15.9724 15.5996 16.3862 14.6892C15.6791 15.3963 15.6787 15.396 15.6784 15.3956L15.6763 15.3935L15.6734 15.3906L15.6676 15.3847L15.6555 15.372C15.6472 15.3631 15.6384 15.3534 15.6293 15.343C15.611 15.3221 15.5911 15.2979 15.5705 15.2703C15.5292 15.2153 15.4838 15.1457 15.4415 15.061C15.3856 14.9494 15.3368 14.8147 15.3093 14.6595C15.0661 14.1058 14.7871 13.1815 14.5981 12.0543C14.2715 10.4071 14.2699 8.22433 14.9348 6.22952C15.2866 5.17406 15.974 4.03569 16.8855 3.12415C17.2169 2.79273 17.7341 2.73596 18.1295 2.9876L17.5926 3.83126C18.1295 2.9876 18.1292 2.98742 18.1295 2.9876L18.132 2.98922L18.1354 2.99138L18.1445 2.99731L18.1721 3.0155C18.1945 3.03043 18.2248 3.05097 18.2618 3.07693C18.3357 3.12877 18.4372 3.20267 18.5571 3.29711C18.7953 3.48479 19.1141 3.75983 19.4357 4.11063C19.7522 4.45598 20.1012 4.90755 20.3675 5.44871C20.6275 5.2574 20.9214 5.05848 21.2433 4.86814C22.5066 4.12098 24.3967 3.39431 26.3721 4.09527ZM20.5328 7.93461C20.252 8.23321 19.8174 8.33019 19.4362 8.17924C19.0549 8.02822 18.8044 7.65965 18.8044 7.2495C18.8044 6.61094 18.4454 5.9901 17.9613 5.46208C17.8793 5.37259 17.7969 5.28937 17.7169 5.21303C17.3123 5.75388 17.0073 6.3366 16.8322 6.86197C16.2928 8.48001 16.289 10.311 16.5624 11.6781C16.5646 11.6886 16.5665 11.6992 16.5683 11.7098C16.7558 12.8351 17.0274 13.6247 17.171 13.922C17.25 13.9498 17.3404 13.9802 17.4413 14.0121C17.874 14.1487 18.4925 14.3092 19.2247 14.4007C20.7963 14.5971 22.5224 14.6728 24.1129 14.1427C24.6382 13.9675 25.2209 13.6625 25.7618 13.2579C25.6855 13.1779 25.6022 13.0955 25.5127 13.0135C24.9847 12.5295 24.3639 12.1704 23.7253 12.1704C23.3043 12.1704 22.9284 11.9067 22.7851 11.5108C22.642 11.1156 22.7613 10.6731 23.0836 10.4035C23.0836 10.4035 23.0836 10.4035 23.0836 10.4035C23.084 10.4032 23.0843 10.4029 23.0847 10.4026C23.0847 10.4026 23.0847 10.4026 23.0847 10.4026L23.0871 10.4006L23.1082 10.3823C23.1284 10.3647 23.1603 10.3365 23.2018 10.2983C23.2851 10.2218 23.4064 10.1062 23.5498 9.95715C23.8388 9.65679 24.2061 9.23233 24.5325 8.72878C25.1184 7.82518 25.4752 6.82955 25.2556 5.86102C24.2466 5.67782 23.1962 6.03677 22.2613 6.58963C21.7412 6.89725 21.3025 7.23912 20.9929 7.50592C20.8391 7.63847 20.7196 7.7503 20.6406 7.82693C20.6012 7.86519 20.572 7.8945 20.5538 7.91302L20.5349 7.93244L20.5328 7.93461C20.533 7.93446 20.5327 7.93476 20.5328 7.93461ZM23.7253 11.1704L23.0847 10.4026C23.0847 10.4026 23.0847 10.4026 23.0847 10.4026C23.0849 10.4025 23.0904 10.4085 23.7253 11.1704ZM16.3862 14.6892L15.6784 15.3956C15.7632 15.4804 15.8636 15.5501 15.9727 15.5997L16.3862 14.6892Z" fill="#2D2E32" />
    <path fill-rule="evenodd" clip-rule="evenodd" d="M13.5326 5.34346C13.3916 5.74524 13.2524 6.25707 13.1815 6.84198C13.0225 8.15371 13.2008 9.84988 14.5382 11.5594C14.3829 10.1259 14.327 8.41164 14.7883 6.71442C14.6604 6.53798 14.4897 6.31598 14.2879 6.08461C14.0464 5.8078 13.7894 5.55169 13.5326 5.34346ZM15.8834 6.54571L16.7337 6.01936C16.8899 6.2717 16.926 6.58039 16.8321 6.86194C16.3043 8.44552 16.377 10.1636 16.5716 11.7297C16.749 12.785 16.9997 13.5422 17.1471 13.8706C17.2218 13.9853 17.279 14.1175 17.3086 14.2653C17.3547 14.4959 17.3202 14.6974 17.272 14.842C17.2251 14.9826 17.1599 15.0876 17.1135 15.1526C17.0888 15.1871 17.0654 15.216 17.0454 15.239C17.0353 15.2507 17.0257 15.2613 17.017 15.2706L17.0043 15.284L16.9984 15.29L16.9955 15.2929L16.9941 15.2943C16.9937 15.2947 16.9927 15.2957 16.2856 14.5886L16.9927 15.2957C16.6022 15.6863 15.969 15.6863 15.5785 15.2957L15.428 15.1452C15.3805 15.1097 15.3325 15.074 15.284 15.0379C14.614 14.5388 13.8641 13.9802 13.3865 13.2978C11.289 10.949 10.9684 8.47897 11.196 6.60132C11.3092 5.66762 11.556 4.88548 11.7747 4.3353C11.8844 4.05922 11.9882 3.83854 12.0669 3.68295C12.1064 3.60507 12.1396 3.54322 12.1643 3.4986C12.1767 3.47629 12.187 3.45825 12.1948 3.44466L12.2048 3.42759L12.2083 3.42158L12.2098 3.41921L12.2104 3.41819C12.2107 3.41772 12.2109 3.41727 13.0684 3.93176L12.2109 3.41727C12.4521 3.01536 12.94 2.83487 13.3846 2.98308C14.4051 3.32325 15.2563 4.15235 15.795 4.76988C16.0797 5.09625 16.3109 5.40342 16.4711 5.62909C16.5515 5.74243 16.615 5.83652 16.6594 5.90383C16.6816 5.93752 16.699 5.96461 16.7115 5.98415L16.7264 6.00772L16.731 6.01508L16.7326 6.01761L16.7337 6.01936C16.7338 6.01955 16.7337 6.01936 15.8834 6.54571Z" fill="#2D2E32" />
    <path fill-rule="evenodd" clip-rule="evenodd" d="M15.5785 13.8814C15.9691 13.4909 16.6022 13.4909 16.9928 13.8814L17.0933 13.982C17.4838 14.3725 17.4838 15.0056 17.0933 15.3962C16.7028 15.7867 16.0696 15.7867 15.6791 15.3962L15.5785 15.2956C15.188 14.9051 15.188 14.2719 15.5785 13.8814Z" fill="#2D2E32" />
    <path fill-rule="evenodd" clip-rule="evenodd" d="M15.5785 13.8814C15.9691 13.4909 16.6022 13.4909 16.9928 13.8814L17.0933 13.982C17.4838 14.3725 17.4838 15.0056 17.0933 15.3962C16.7028 15.7867 16.0696 15.7867 15.6791 15.3962L15.5785 15.2956C15.188 14.9051 15.188 14.2719 15.5785 13.8814Z" fill="#2D2E32" />
    <path fill-rule="evenodd" clip-rule="evenodd" d="M24.2446 16.2069C22.4035 16.762 20.6136 16.6823 19.1746 16.4245C20.9314 17.8643 22.6848 18.057 24.0324 17.8936C24.6237 17.822 25.1404 17.6804 25.5441 17.5379C25.3175 17.229 25.0459 16.9331 24.7692 16.669C24.5775 16.4861 24.3954 16.3296 24.2446 16.2069ZM26.9426 18.0067L27.4571 18.8642C27.8709 18.6159 28.0484 18.1074 27.8789 17.6556C27.498 16.6397 26.7398 15.7852 26.1501 15.2223C25.8451 14.9312 25.5618 14.6962 25.3537 14.5332C25.2493 14.4515 25.1629 14.387 25.101 14.3419C25.0699 14.3194 25.045 14.3016 25.0269 14.2888L25.005 14.2735L24.998 14.2687L24.9956 14.267L24.9946 14.2664C24.9944 14.2662 24.9939 14.2658 24.4292 15.0911L24.0835 14.1528C22.4058 14.7709 20.6978 14.6923 19.2969 14.4122C19.273 14.4074 19.2489 14.4035 19.2248 14.4005C18.4926 14.3089 17.8741 14.1485 17.4414 14.0119C17.2257 13.9438 17.0581 13.8822 16.9477 13.8391C16.8926 13.8176 16.8519 13.8008 16.8269 13.7902L16.8013 13.7791L16.798 13.7777C16.7981 13.7777 16.7989 13.7781 16.7989 13.7781C16.7993 13.7783 16.7997 13.7784 16.8001 13.7786L16.3863 14.689C16.8001 13.7786 16.8002 13.7787 16.8001 13.7786C16.7997 13.7784 16.7993 13.7783 16.7989 13.7781C16.7989 13.7781 16.7981 13.7777 16.798 13.7777C16.7984 13.7779 16.7977 13.7775 16.798 13.7777C16.4056 13.6005 15.9434 13.6943 15.6513 14.0109C15.3586 14.3281 15.3025 14.7973 15.5121 15.1746C16.0832 16.2026 16.8703 16.9896 17.4598 17.5789C17.4695 17.5886 17.4792 17.5983 17.4888 17.6079C17.5006 17.6197 17.5126 17.6311 17.525 17.6423C19.8892 19.7813 22.3816 20.1084 24.273 19.8791C25.2067 19.7659 25.9889 19.5191 26.539 19.3004C26.8151 19.1907 27.0358 19.0869 27.1914 19.0082C27.2693 18.9687 27.3311 18.9355 27.3757 18.9107C27.3981 18.8984 27.4161 18.8881 27.4297 18.8803L27.4468 18.8703L27.4528 18.8668L27.4551 18.8653L27.4562 18.8647C27.4566 18.8644 27.4571 18.8642 26.9426 18.0067ZM18.8849 16.1756C18.2771 15.5676 17.6811 14.9606 17.2604 14.2033L16.3863 14.689C15.9724 15.5993 15.9726 15.5994 15.9728 15.5995L15.9741 15.6001L15.9761 15.601L15.9814 15.6034L15.9969 15.6102C16.0093 15.6157 16.0261 15.623 16.0469 15.6318C16.0886 15.6495 16.1469 15.6735 16.2206 15.7022C16.3679 15.7597 16.5773 15.8363 16.8391 15.919C17.305 16.0662 17.943 16.2343 18.6972 16.3467L18.1959 16.9008L18.7432 16.3535C18.8081 16.3629 18.8738 16.3719 18.9403 16.3804C18.9284 16.3781 18.9165 16.3757 18.9046 16.3733M18.8849 16.1756C18.8909 16.1816 18.897 16.1876 18.903 16.1937L18.7432 16.3535C18.7278 16.3513 18.7125 16.349 18.6972 16.3467L18.8668 16.1592C18.8728 16.1647 18.8789 16.1701 18.8849 16.1756ZM26.4293 17.1485L26.4307 17.1476L26.4318 17.147C26.4319 17.1469 26.4318 17.147 26.4318 17.147M26.4318 17.147C26.4316 17.1471 26.4307 17.1476 26.4293 17.1485L26.4318 17.147Z" fill="#2D2E32" />
</svg>
    