<svg width="32" height="32" viewBox="0 0 32 32" fill="none" xmlns="http://www.w3.org/2000/svg">
    <path fill-rule="evenodd" clip-rule="evenodd" d="M20 21.4983C20.0001 21.5002 20.0011 21.5128 20.0063 21.5407C20.0139 21.5814 20.0251 21.6273 20.0451 21.7075C20.047 21.715 20.0491 21.7231 20.0512 21.7317C20.0826 21.8559 20.1399 22.0832 20.1488 22.3347C20.4121 24.6327 22.5005 26.5 25 26.5C27.7477 26.5 30 24.2477 30 21.5C30 18.7523 27.7477 16.5 25 16.5H24.85C22.1356 16.5 20.0009 18.718 20 21.4983ZM18 21.5C18 17.6811 20.9649 14.5 24.85 14.5H25C28.8523 14.5 32 17.6477 32 21.5C32 25.3523 28.8523 28.5 25 28.5C21.5138 28.5 18.5117 25.8886 18.1555 22.5047C18.1518 22.4699 18.15 22.435 18.15 22.4C18.15 22.4013 18.15 22.4019 18.15 22.4019C18.15 22.4019 18.1494 22.3897 18.1437 22.3593C18.1361 22.3186 18.1249 22.2727 18.1049 22.1925C18.103 22.185 18.1009 22.1769 18.0988 22.1683C18.0647 22.0335 18 21.777 18 21.5Z" fill="#2D2E32" />
    <path fill-rule="evenodd" clip-rule="evenodd" d="M16 6C11.6023 6 8 9.60228 8 14V14.3C8 16.2583 8.92507 18.2609 10.2571 19.5929C11.7344 21.0702 13.7355 22 16 22C16.7126 22 17.3736 21.8778 18.0009 21.7068C17.9997 21.6453 17.9998 21.5895 17.9999 21.5403C18 21.5263 18 21.5129 18 21.5C18 17.968 20.5362 14.9816 23.9908 14.5528C23.9984 14.3838 24 14.1978 24 14C24 9.60228 20.3977 6 16 6ZM6 14C6 8.49771 10.4977 4 16 4C21.5023 4 26 8.49771 26 14C26 14.0173 26 14.0353 26 14.0539C26.0005 14.4697 26.0013 15.2085 25.7987 15.8162C25.6626 16.2246 25.2804 16.5 24.85 16.5C22.1351 16.5 20 18.7189 20 21.5C20 21.8252 20.0146 21.8931 20.0444 21.9528C20.1741 22.2121 20.1848 22.5149 20.0739 22.7827C19.9629 23.0505 19.7412 23.257 19.4662 23.3487C18.5385 23.6579 17.3648 24 16 24C13.1645 24 10.6656 22.8298 8.84289 21.0071C7.17493 19.3391 6 16.8417 6 14.3V14Z" fill="#2D2E32" />
    <path fill-rule="evenodd" clip-rule="evenodd" d="M5.5 15C3.50228 15 2 16.5023 2 18.5C2 20.4977 3.50228 22 5.5 22C6.61841 22 7.64192 21.3671 8.31102 20.4266C7.08254 18.9627 6.3151 17.1117 6.06638 15.0647C5.88451 15.0234 5.70517 15 5.5 15ZM0 18.5C0 15.3977 2.39772 13 5.5 13C6.26301 13 6.84255 13.1933 7.28938 13.3424C7.29838 13.3454 7.30733 13.3484 7.31623 13.3513C7.70288 13.4802 7.97263 13.8308 7.99805 14.2376C8.1348 16.4255 8.95021 18.286 10.2571 19.5929C10.5615 19.8973 10.6369 20.3622 10.4444 20.7472C9.56831 22.4994 7.76673 24 5.5 24C2.39772 24 0 21.6023 0 18.5Z" fill="#2D2E32" />
    <path fill-rule="evenodd" clip-rule="evenodd" d="M17.5646 14.0218C17.9668 13.6433 18.5997 13.6625 18.9782 14.0646L21.3782 16.6146C21.7567 17.0168 21.7375 17.6497 21.3354 18.0282C20.9332 18.4067 20.3003 18.3875 19.9218 17.9854L17.5218 15.4354C17.1433 15.0332 17.1625 14.4003 17.5646 14.0218Z" fill="#2D2E32" />
    <path fill-rule="evenodd" clip-rule="evenodd" d="M7.98055 15.6671C8.38526 16.0429 8.4087 16.6756 8.0329 17.0804L6.0829 19.1804C5.70709 19.5851 5.07436 19.6085 4.66965 19.2327C4.26494 18.8569 4.24151 18.2242 4.61731 17.8195L6.56731 15.7195C6.94311 15.3147 7.57584 15.2913 7.98055 15.6671Z" fill="#2D2E32" />
</svg>
    