<svg width="32" height="32" viewBox="0 0 32 32" fill="none" xmlns="http://www.w3.org/2000/svg">
    <path fill-rule="evenodd" clip-rule="evenodd" d="M7 12.0454C7 9.85675 8.67499 8.18176 10.8636 8.18176H21.7727C23.8567 8.18176 25.5 9.88898 25.5 12.0454V28.6818C25.5 30.4613 23.9614 31.9999 22.1818 31.9999H10.3182C9.39683 31.9999 8.55466 31.6734 7.94062 31.0593C7.32658 30.4453 7 29.6031 7 28.6818V12.0454ZM10.8636 10.1818C9.77956 10.1818 9 10.9613 9 12.0454V28.6818C9 29.124 9.15069 29.441 9.35483 29.6451C9.55898 29.8493 9.8759 29.9999 10.3182 29.9999H22.1818C22.8568 29.9999 23.5 29.3568 23.5 28.6818V12.0454C23.5 10.9291 22.6888 10.1818 21.7727 10.1818H10.8636Z" />
    <path fill-rule="evenodd" clip-rule="evenodd" d="M12.2729 13.7273H13.5911C14.1434 13.7273 14.5911 13.2796 14.5911 12.7273C14.5911 12.175 14.1434 11.7273 13.5911 11.7273H11.9548C11.523 11.7273 11.0854 11.8756 10.7533 12.2077C10.4212 12.5398 10.2729 12.9773 10.2729 13.4091V20.0909C10.2729 20.6432 10.7207 21.0909 11.2729 21.0909C11.8252 21.0909 12.2729 20.6432 12.2729 20.0909V13.7273Z" />
    <path fill-rule="evenodd" clip-rule="evenodd" d="M9.72705 6.45459C9.72705 5.90231 10.1748 5.45459 10.7271 5.45459H21.6361C22.1884 5.45459 22.6361 5.90231 22.6361 6.45459V9.18186C22.6361 9.73415 22.1884 10.1819 21.6361 10.1819H10.7271C10.1748 10.1819 9.72705 9.73415 9.72705 9.18186V6.45459ZM11.7271 7.45459V8.18186H20.6361V7.45459H11.7271Z" />
    <path fill-rule="evenodd" clip-rule="evenodd" d="M14.5297 0.757464C14.641 0.312297 15.041 0 15.4999 0H16.8635C17.3224 0 17.7224 0.312297 17.8337 0.757464L19.1973 6.21201C19.272 6.51075 19.2049 6.82724 19.0154 7.06996C18.8258 7.31267 18.5351 7.45455 18.2271 7.45455H14.1362C13.8283 7.45455 13.5375 7.31267 13.348 7.06996C13.1585 6.82724 13.0914 6.51075 13.1661 6.21201L14.5297 0.757464ZM16.1817 2.39583L15.417 5.45455H16.9464L16.1817 2.39583Z" />
</svg>
    