<svg width="32" height="32" viewBox="0 0 32 32" fill="none" xmlns="http://www.w3.org/2000/svg">
    <path fill-rule="evenodd" clip-rule="evenodd" d="M6.98528 9.48352L13.6314 15.6633H13.7772C16.4603 15.6633 18.367 15.0896 19.7373 14.2853C21.0986 13.4863 21.9895 12.425 22.5919 11.3469C23.4589 9.60187 23.6062 7.82269 23.6026 6.75134H13.7772C11.0806 6.75134 8.76462 7.79419 6.98528 9.48352ZM4.80974 8.86174C7.00047 6.37891 10.0937 4.75134 13.7772 4.75134H24.5544C25.1067 4.75134 25.5544 5.19906 25.5544 5.75134C25.5544 5.61778 25.9866 9.02983 24.3711 12.2607C24.3646 12.2737 24.3579 12.2865 24.3508 12.2992C23.6063 13.6393 22.4789 14.9952 20.7497 16.0101C19.0216 17.0245 16.7522 17.6633 13.7772 17.6633H13.2383C12.9857 17.6633 12.7424 17.5676 12.5574 17.3956L4.87863 10.2557C4.48161 9.88654 4.45105 9.26825 4.80974 8.86174Z" />
    <path fill-rule="evenodd" clip-rule="evenodd" d="M5.50272 8.52494C5.77439 8.50946 6.04064 8.60537 6.24004 8.79052L13.7841 15.7957C13.8864 15.8908 13.9677 16.0062 14.0228 16.1346C15.4999 19.5811 18.5589 21.901 22.3606 22.2689C22.7248 22.3041 23.0406 22.5355 23.1841 22.8721C23.3276 23.2086 23.2759 23.5967 23.0491 23.8839C20.8371 26.6858 17.5831 28.3057 13.7772 28.3057H13.2391C13.2233 28.3057 13.2066 28.3053 13.1908 28.3046C7.00246 28.0099 2 22.8579 2 16.5285C2 13.5936 3.02962 10.9383 4.80033 8.87253C4.97742 8.66592 5.23105 8.54041 5.50272 8.52494ZM5.68295 11.0025C4.6113 12.5674 4 14.4554 4 16.5285C4 21.7766 8.14565 26.0498 13.2627 26.3057H13.7764C16.3286 26.3057 18.547 25.4505 20.2684 23.9281C16.6721 23.0079 13.7991 20.5287 12.2712 17.1201L5.68295 11.0025Z" />
    <path fill-rule="evenodd" clip-rule="evenodd" d="M29 3C29.5523 3 30 3.44772 30 4C30 4.5972 29.8603 5.11216 29.5991 5.53656C29.3395 5.95842 28.9945 6.23483 28.668 6.41168C28.347 6.58558 28.0365 6.66779 27.8137 6.70802C27.7002 6.72853 27.6031 6.73925 27.5301 6.74489C27.4934 6.74773 27.4623 6.74933 27.4377 6.75022C27.4254 6.75066 27.4146 6.75093 27.4056 6.75109L27.3932 6.75125L27.388 6.75129L27.3857 6.75129L27.3845 6.75129C27.384 6.7513 27.3835 6.7513 27.3835 5.7513V6.7513H24.5544C24.0022 6.7513 23.5544 6.30358 23.5544 5.7513C23.5544 5.19901 24.0022 4.7513 24.5544 4.7513H27.3695C27.3712 4.75119 27.3733 4.75105 27.3758 4.75086C27.3912 4.74966 27.4204 4.7467 27.4584 4.73984C27.5387 4.72535 27.6324 4.6981 27.7155 4.65309C27.7931 4.61102 27.8523 4.55907 27.8958 4.48837C27.9377 4.42023 28 4.27844 28 4C28 3.44772 28.4478 3 29 3Z" />
    <path fill-rule="evenodd" clip-rule="evenodd" d="M2 16.5286C2 15.9763 2.44772 15.5286 3 15.5286H13.2383C13.6428 15.5286 14.0074 15.7722 14.1622 16.1459C14.317 16.5196 14.2314 16.9497 13.9454 17.2357L6.67084 24.5103C6.28031 24.9008 5.64715 24.9008 5.25662 24.5103C4.8661 24.1198 4.8661 23.4866 5.25662 23.0961L10.8241 17.5286H3C2.44772 17.5286 2 17.0808 2 16.5286Z" />
    <path fill-rule="evenodd" clip-rule="evenodd" d="M4.55957 9.52332C4.55957 8.97103 5.00729 8.52332 5.55957 8.52332H5.69429C6.24657 8.52332 6.69429 8.97103 6.69429 9.52332C6.69429 10.0756 6.24657 10.5233 5.69429 10.5233H5.55957C5.00729 10.5233 4.55957 10.0756 4.55957 9.52332Z" />
    <path fill-rule="evenodd" clip-rule="evenodd" d="M13.2383 4.88599C13.7906 4.88599 14.2383 5.3337 14.2383 5.88599V27.3057C14.2383 27.858 13.7906 28.3057 13.2383 28.3057C12.686 28.3057 12.2383 27.858 12.2383 27.3057V5.88599C12.2383 5.3337 12.686 4.88599 13.2383 4.88599Z" />
    <path fill-rule="evenodd" clip-rule="evenodd" d="M15.8757 10.1193C15.8757 9.01469 16.7712 8.11926 17.8757 8.11926C18.9803 8.11926 19.8757 9.01469 19.8757 10.1193C19.8757 11.2238 18.9803 12.1193 17.8757 12.1193C16.7712 12.1193 15.8757 11.2238 15.8757 10.1193Z" />
    <path fill-rule="evenodd" clip-rule="evenodd" d="M23.5481 16.3566C23.9262 16.2803 24.3146 16.4282 24.546 16.7368L28.9916 22.6643C29.2189 22.9673 29.2555 23.3727 29.0861 23.7115C28.9167 24.0503 28.5704 24.2643 28.1916 24.2643H22.2642C21.9562 24.2643 21.6655 24.1224 21.476 23.8797C21.2865 23.637 21.2193 23.3205 21.294 23.0218L22.7759 17.0943C22.8695 16.72 23.1699 16.433 23.5481 16.3566ZM24.2066 19.6176L23.5449 22.2643H26.1916L24.2066 19.6176Z" />
</svg>
    