<svg width="32" height="32" viewBox="0 0 32 32" fill="none" xmlns="http://www.w3.org/2000/svg">
    <path fill-rule="evenodd" clip-rule="evenodd" d="M13.2488 10.9867C12.9455 11.9455 12.7905 12.7323 12.7905 13.2308C12.7905 15.2939 14.3428 16.8462 16.4059 16.8462C18.469 16.8462 20.0213 15.2939 20.0213 13.2308C20.0213 12.7323 19.8663 11.9455 19.563 10.9867C19.2665 10.0492 18.8525 9.02218 18.3909 8.07132C17.9267 7.11492 17.4311 6.27046 16.9813 5.68143C16.7548 5.38483 16.564 5.18501 16.4194 5.06875C16.4148 5.06503 16.4103 5.06146 16.4059 5.05805C16.4015 5.06146 16.3971 5.06503 16.3924 5.06875C16.2478 5.18501 16.057 5.38483 15.8305 5.68143C15.3807 6.27046 14.8852 7.11492 14.4209 8.07132C13.9593 9.02218 13.5453 10.0492 13.2488 10.9867ZM15.1393 3.50998C15.4347 3.27256 15.8734 3 16.4059 3C16.9384 3 17.3771 3.27256 17.6725 3.50998C17.9906 3.76571 18.2926 4.10315 18.5709 4.46761C19.1307 5.2007 19.6929 6.17354 20.1901 7.19791C20.6901 8.22782 21.1415 9.34504 21.4699 10.3835C21.7917 11.4007 22.0213 12.4216 22.0213 13.2308C22.0213 16.3984 19.5736 18.8462 16.4059 18.8462C13.2382 18.8462 10.7905 16.3984 10.7905 13.2308C10.7905 12.4216 11.0202 11.4007 11.3419 10.3835C11.6704 9.34504 12.1217 8.22782 12.6217 7.19791C13.119 6.17354 13.6811 5.2007 14.241 4.46761C14.5193 4.10315 14.8212 3.76571 15.1393 3.50998Z" />
    <path fill-rule="evenodd" clip-rule="evenodd" d="M3.007 17.5246C2.99078 17.7044 3.00103 17.9727 3.05408 18.3325C3.1612 19.0587 3.41772 19.996 3.77155 20.9923C4.12309 21.9822 4.55786 22.9944 5.00302 23.8641C5.45755 24.7521 5.8895 25.4251 6.22021 25.7858C7.4654 27.1442 9.74422 27.122 11.2689 25.7244C12.6648 24.4448 12.711 22.1806 11.2375 20.7071C10.9282 20.3978 10.2926 19.9744 9.40915 19.5185C8.54986 19.0752 7.53488 18.641 6.53577 18.2895C5.53077 17.9359 4.57852 17.6788 3.83922 17.5714C3.469 17.5175 3.19217 17.5074 3.007 17.5246ZM10.3262 17.7411C11.2504 18.218 12.1149 18.7561 12.6517 19.2929C14.8705 21.5117 14.9167 25.0937 12.6203 27.1987C10.4527 29.1857 6.88533 29.4712 4.7459 27.1373C4.23046 26.575 3.70087 25.7095 3.2227 24.7754C2.73517 23.8229 2.2661 22.7294 1.88687 21.6616C1.50993 20.6002 1.20876 19.5279 1.07549 18.6243C1.00925 18.1752 0.978069 17.7266 1.01716 17.3228C1.05341 16.9484 1.16552 16.4418 1.54518 16.0621C1.92705 15.6803 2.43911 15.5698 2.81344 15.534C3.21961 15.4952 3.67244 15.5261 4.12689 15.5922C5.04144 15.7251 6.12765 16.0257 7.19958 16.4029C8.27739 16.7821 9.37779 17.2518 10.3262 17.7411Z" />
    <path fill-rule="evenodd" clip-rule="evenodd" d="M23.3295 19.6767C22.426 20.1319 21.747 20.5631 21.3893 20.891C20.031 22.1362 20.0532 24.415 21.4508 25.9396C22.7304 27.3356 24.9946 27.3818 26.4681 25.9083C26.8175 25.5588 27.2607 24.8919 27.7239 23.9936C28.1761 23.1165 28.6104 22.0921 28.9626 21.0912C29.3165 20.0854 29.5756 19.1369 29.6926 18.4086C29.7431 18.0947 29.7623 17.8504 29.76 17.6749C29.5757 17.663 29.3129 17.6755 28.97 17.7252C28.2278 17.8328 27.2701 18.0901 26.2543 18.4442C25.2448 18.7962 24.2133 19.2313 23.3295 19.6767ZM29.7393 17.46C29.7395 17.4599 29.7405 17.4627 29.742 17.4692C29.74 17.4634 29.7392 17.4602 29.7393 17.46ZM29.9982 15.6878C30.3728 15.7235 30.8849 15.834 31.2669 16.216C31.6543 16.6034 31.7326 17.1346 31.7532 17.467C31.777 17.8516 31.738 18.286 31.6673 18.726C31.5247 19.6131 31.2261 20.6838 30.8492 21.755C30.4706 22.831 30.0011 23.9412 29.5015 24.9102C29.0127 25.8581 28.4559 26.7489 27.8823 27.3225C25.6635 29.5413 22.0815 29.5875 19.9765 27.2911C17.9894 25.1234 17.704 21.5561 20.0379 19.4167C20.6033 18.8984 21.482 18.3681 22.4295 17.8906C23.3967 17.4032 24.5094 16.9345 25.596 16.5557C26.6763 16.1791 27.7668 15.8787 28.6832 15.7459C29.1385 15.6799 29.5919 15.649 29.9982 15.6878Z" />
</svg>
    