<svg width="32" height="32" viewBox="0 0 32 32" fill="none" xmlns="http://www.w3.org/2000/svg">
    <path fill-rule="evenodd" clip-rule="evenodd" d="M14.9669 15.0834C15.0213 15.0744 15.0762 15.0698 15.1313 15.0698H16.1081C16.1554 15.0698 16.2026 15.0732 16.2495 15.0799C17.6259 15.2765 18.5352 16.2505 19.2266 17.078C19.3874 17.2512 19.4725 17.4224 19.5087 17.4953C19.5106 17.4993 19.5124 17.503 19.5141 17.5063C19.5144 17.5069 19.5147 17.5074 19.5149 17.5079C19.5424 17.5397 19.5679 17.5731 19.5913 17.6081C19.9014 18.0734 20.2196 18.6944 20.3995 19.3501C20.7228 20.0417 20.8755 20.8489 20.8755 21.5117C20.8755 23.0764 20.1787 24.4367 19.1873 25.4281C18.2359 26.3794 16.9599 26.6977 15.6895 26.6977C14.3222 26.6977 13.1295 26.1862 12.2741 25.5019C12.2453 25.4788 12.2177 25.4542 12.1917 25.4281C11.2003 24.4367 10.5034 23.0764 10.5034 21.5117C10.5034 20.8244 10.6693 20.0274 10.8123 19.4552C10.83 19.3844 10.8554 19.3158 10.8881 19.2505C10.894 19.2387 10.8999 19.2268 10.9059 19.2149C11.1426 18.7414 11.4081 18.2103 11.6851 17.7671C11.7497 17.575 11.8472 17.4332 11.9069 17.3535C11.979 17.2574 12.0616 17.1689 12.1242 17.1049C12.7659 16.1782 13.7845 15.2805 14.9669 15.0834ZM15.2285 17.0698C14.7792 17.1762 14.1866 17.6153 13.7308 18.2989C13.6943 18.3537 13.6524 18.4048 13.6059 18.4513C13.5892 18.4681 13.5752 18.482 13.5632 18.4942C13.5357 18.5726 13.4983 18.6477 13.4517 18.7175C13.2284 19.0525 12.9941 19.5114 12.7269 20.0451C12.6026 20.56 12.5034 21.1101 12.5034 21.5117C12.5034 22.4402 12.9067 23.2969 13.5664 23.9738C14.1034 24.3889 14.8468 24.6977 15.6895 24.6977C16.6516 24.6977 17.3291 24.4579 17.7731 24.0139C18.4561 23.3308 18.8755 22.4586 18.8755 21.5117C18.8755 21.0903 18.7643 20.5486 18.5625 20.1449C18.5298 20.0797 18.5045 20.0111 18.4868 19.9403C18.387 19.541 18.1824 19.1137 17.9646 18.7748C17.8346 18.6211 17.7631 18.477 17.7307 18.4118C17.7288 18.4078 17.727 18.4041 17.7253 18.4008C17.725 18.4002 17.7247 18.3997 17.7245 18.3992C17.7203 18.3943 17.7161 18.3894 17.7119 18.3844C17.0362 17.5736 16.5646 17.17 16.0277 17.0698H15.2285Z" fill="#2D2E32" />
    <path fill-rule="evenodd" clip-rule="evenodd" d="M11.2818 17.8148C10.5402 17.1968 9.85395 16.9865 9.43526 17.0563C9.38093 17.0653 9.32594 17.0699 9.27086 17.0699C9.22455 17.0699 9.08613 17.0945 8.88834 17.2109C8.70003 17.3216 8.52241 17.4786 8.39644 17.6466C8.37981 17.6688 8.36226 17.6903 8.34385 17.711C7.90206 18.208 7.50988 18.9425 7.26307 19.76C7.01589 20.5788 6.93988 21.3966 7.04795 22.045C7.05018 22.0584 7.05215 22.0719 7.05383 22.0854C7.25512 23.6956 8.91365 24.9154 10.6612 24.708C10.932 24.6608 11.1879 24.574 11.4509 24.4548C10.857 23.606 10.5323 22.5876 10.6429 21.4598C10.6429 20.9139 10.6479 20.2244 10.9689 19.3893C11.1038 18.881 11.3231 18.392 11.5592 17.9785C11.4586 17.9393 11.3649 17.8841 11.2818 17.8148ZM12.4282 16.1696C11.5298 15.4595 10.3549 14.9082 9.18384 15.0716C8.70371 15.091 8.24708 15.2677 7.8743 15.487C7.48151 15.7181 7.1115 16.037 6.82252 16.4123C6.16104 17.1676 5.65565 18.1643 5.34841 19.182C5.03948 20.2054 4.9059 21.333 5.07186 22.3537C5.43863 25.1908 8.22617 27.028 10.9298 26.6901C10.9433 26.6884 10.9567 26.6864 10.9701 26.6842C11.9964 26.5131 12.8347 26.0097 13.4995 25.6105C13.5174 25.5998 13.5351 25.5891 13.5528 25.5785C13.8284 25.4131 14.0078 25.1253 14.0348 24.805C14.0618 24.4847 13.9331 24.171 13.6891 23.9618C12.9055 23.2902 12.5415 22.4799 12.6368 21.6222C12.6409 21.5855 12.643 21.5486 12.643 21.5117C12.643 20.9627 12.6485 20.5741 12.8505 20.0692C12.8673 20.0272 12.8812 19.9842 12.8922 19.9403C12.992 19.5411 13.1965 19.1138 13.4143 18.7748C13.5443 18.6211 13.6158 18.477 13.6482 18.4118C13.6502 18.4078 13.652 18.4042 13.6537 18.4008C13.6539 18.4003 13.6542 18.3997 13.6544 18.3992C13.8115 18.218 13.8988 17.9857 13.8988 17.7443C13.8988 17.4791 13.7934 17.2247 13.6059 17.0372C13.5952 17.0265 13.5842 17.0154 13.5729 17.0041C13.3355 16.766 12.9687 16.3981 12.4282 16.1696Z" fill="#2D2E32" />
    <path fill-rule="evenodd" clip-rule="evenodd" d="M10.2842 9.65779C10.4278 9.62188 10.5776 9.61831 10.7228 9.64735C11.4393 9.79064 12.1056 9.95052 12.7879 10.2916C12.825 10.3102 12.8609 10.331 12.8954 10.354C13.141 10.5178 13.344 10.6802 13.5139 10.8161L13.5235 10.8238C13.7005 10.9654 13.8433 11.079 14.0117 11.1912C14.2609 11.3574 14.4226 11.6266 14.4521 11.9247C14.4816 12.2229 14.3759 12.5185 14.1641 12.7304L13.8215 13.0729C13.7432 13.2003 13.6736 13.3376 13.5839 13.517L13.5757 13.5334C13.488 13.7089 13.3789 13.9272 13.2363 14.1541C13.0308 14.7057 12.9221 15.3742 12.9221 15.9303C12.9221 16.0754 12.9228 16.2016 12.9345 16.3191C12.945 16.424 12.9597 16.4653 12.959 16.4656C12.9589 16.4656 12.9579 16.4636 12.956 16.4598C13.1677 16.8832 13.0536 17.397 12.6825 17.6909C12.3114 17.9848 11.7851 17.9783 11.4214 17.6752C10.683 17.0599 10.133 16.8462 9.57783 16.9167C9.06449 17.0237 8.76284 17.2046 8.53602 17.507C8.27776 17.8513 7.82813 17.9918 7.41979 17.8557C7.04755 17.7316 6.78576 17.4031 6.74238 17.0199C6.73727 17.0036 6.72963 16.9803 6.71757 16.9442L6.71496 16.9363C6.69933 16.8895 6.67411 16.8139 6.65352 16.7384C6.64206 16.6964 6.62886 16.6432 6.61821 16.5838C6.6126 16.5526 6.60661 16.5138 6.60235 16.4693C6.2897 14.628 6.94799 12.3988 8.24442 10.9403C8.25744 10.9257 8.27088 10.9114 8.28473 10.8976C8.75096 10.4313 9.4654 9.86248 10.2842 9.65779ZM8.54326 15.1337C8.76119 15.0553 8.98577 14.9954 9.21432 14.9497C9.23246 14.946 9.2507 14.9429 9.26902 14.9403C9.88825 14.8518 10.4537 14.9273 10.9722 15.1062C11.0426 14.5106 11.1878 13.8872 11.4122 13.3263C11.4379 13.262 11.4702 13.2006 11.5086 13.143C11.6085 12.9932 11.6873 12.8382 11.7951 12.6226C11.7978 12.6171 11.8005 12.6117 11.8033 12.6061C11.8645 12.4836 11.9362 12.3402 12.0225 12.1875C11.9615 12.1411 11.9011 12.0969 11.8377 12.0532C11.478 11.8808 11.1013 11.7717 10.5876 11.6616C10.3251 11.7764 10.0137 12.0011 9.71992 12.2909C9.05263 13.0532 8.63273 14.1344 8.54326 15.1337Z" fill="#2D2E32" />
    <path fill-rule="evenodd" clip-rule="evenodd" d="M14.2195 12.5057C14.1578 12.6541 14.0806 12.7654 14.0303 12.8326C13.9596 12.9268 13.8788 13.0137 13.8167 13.0774C13.548 13.4823 13.3728 13.7638 13.2894 14.0139C13.0317 14.7872 12.9221 15.3739 12.9221 15.9302C12.9221 16.0681 12.9228 16.1889 12.9329 16.3013C13.5277 15.705 14.2768 15.2217 15.1066 15.0834C15.1609 15.0743 15.2159 15.0698 15.271 15.0698H16.2477C16.295 15.0698 16.3423 15.0731 16.3891 15.0798C17.3055 15.2107 18.0149 15.6863 18.5907 16.2337C18.5961 16.1405 18.5965 16.0409 18.5965 15.9302C18.5965 15.6993 18.5484 15.4058 18.4668 15.063C18.4271 14.8966 18.3828 14.731 18.3374 14.5647C18.3303 14.5384 18.323 14.5117 18.3156 14.4848C18.2825 14.3638 18.2484 14.2391 18.2188 14.1232C18.1257 13.864 17.9362 13.5681 17.6482 13.1361C17.6252 13.1016 17.6044 13.0657 17.5858 13.0286C17.5476 12.9522 17.516 12.907 17.4901 12.8747C17.4595 12.8365 17.4272 12.803 17.3546 12.7304C17.3285 12.7043 17.3038 12.6768 17.2808 12.648C16.8856 12.154 16.4264 11.8754 15.8791 11.7675H15.55C15.1683 11.7675 14.6523 12.0279 14.2195 12.5057ZM12.5366 11.3986C13.1984 10.5714 14.2937 9.76746 15.55 9.76746H15.9686C16.0237 9.76746 16.0787 9.77201 16.133 9.78106C17.2082 9.96025 18.108 10.5006 18.8062 11.3536C18.9556 11.504 19.1553 11.7162 19.3435 12.0735C19.3436 12.0736 19.3435 12.0734 19.3435 12.0735C19.5998 12.4574 19.9439 12.973 20.1266 13.521C20.1347 13.5453 20.1419 13.5699 20.1481 13.5947C20.1742 13.699 20.2056 13.8141 20.2429 13.9503C20.2507 13.9787 20.2587 14.0081 20.267 14.0385C20.3132 14.208 20.3648 14.3999 20.4124 14.5998C20.5052 14.9896 20.5965 15.4635 20.5965 15.9302L20.5965 15.9422C20.5966 16.0772 20.5966 16.2935 20.5741 16.5181C20.5521 16.7386 20.5014 17.0543 20.3514 17.3542C20.3034 17.4503 20.2401 17.5381 20.1641 17.6141L19.3269 18.4513C19.1282 18.65 18.8552 18.7559 18.5745 18.7432C18.2938 18.7304 18.0314 18.6002 17.8516 18.3844C17.1758 17.5735 16.7042 17.17 16.1673 17.0698H15.3688C14.9195 17.1761 14.3262 17.6152 13.8705 18.2989C13.7233 18.5196 13.4946 18.6728 13.2345 18.7248C12.9745 18.7768 12.7044 18.7234 12.4837 18.5763C11.9824 18.2421 11.645 17.9046 11.3673 17.6268L11.3546 17.6141C11.2785 17.5381 11.2153 17.4503 11.1672 17.3542C11.0173 17.0543 10.9666 16.7386 10.9445 16.5181C10.9221 16.2935 10.9221 16.0772 10.9221 15.9422L10.9221 15.9302C10.9221 15.0913 11.0916 14.2826 11.392 13.3815C11.5747 12.8335 11.9187 12.3182 12.1749 11.9343C12.1856 11.9183 12.196 11.9026 12.2064 11.8872C12.2429 11.8324 12.2847 11.7813 12.3313 11.7348C12.348 11.7181 12.3619 11.7041 12.374 11.6919C12.411 11.5864 12.4658 11.4871 12.5366 11.3986Z" fill="#2D2E32" />
    <path fill-rule="evenodd" clip-rule="evenodd" d="M14.4512 7.28057C14.4478 7.28468 14.4384 7.29622 14.4205 7.31938C14.416 7.32516 14.4106 7.33223 14.4044 7.34035C14.3746 7.37921 14.3265 7.44197 14.2775 7.50073C14.1987 7.59531 14.0861 7.71969 13.9337 7.83859C13.4803 8.68266 13.2012 9.53634 13.2012 10.2094C13.2012 10.3054 13.2159 10.3926 13.2471 10.5332C13.2496 10.5445 13.2527 10.5577 13.2561 10.5726C13.2597 10.5882 13.2637 10.6055 13.268 10.6245C13.2856 10.6384 13.3029 10.6522 13.3201 10.666C13.9177 10.182 14.6548 9.76753 15.55 9.76753H15.9686C16.0345 9.76753 16.1002 9.77403 16.1647 9.78695C16.7719 9.90837 17.4593 10.1911 18.0663 10.6485C18.099 10.6214 18.1331 10.5939 18.1683 10.5665C18.1773 10.458 18.1779 10.3415 18.1779 10.2094C18.1779 9.52075 17.934 8.52066 17.433 7.91934C17.3836 7.8601 17.3412 7.79534 17.3067 7.72637C17.2704 7.65362 17.2439 7.60099 17.2175 7.55287C17.192 7.50633 17.1738 7.47752 17.1607 7.45923C17.16 7.4582 17.1593 7.45722 17.1586 7.4563C17.077 7.4111 17.002 7.35466 16.9359 7.28859C16.4614 6.81409 16.0044 6.60474 15.6895 6.60474C15.3765 6.60474 14.9228 6.81173 14.4512 7.28057ZM13.0289 5.87437C13.6707 5.23259 14.609 4.60474 15.6895 4.60474C16.7171 4.60474 17.6161 5.17262 18.2538 5.78028C18.6982 6.06661 18.9316 6.50063 19.0493 6.738C19.8825 7.80347 20.1779 9.25357 20.1779 10.2094L20.1779 10.2213C20.1779 10.3563 20.178 10.5727 20.1555 10.7973C20.1335 11.0177 20.0828 11.3334 19.9328 11.6333C19.836 11.8269 19.6791 11.9838 19.4856 12.0806C19.487 12.0798 19.4878 12.0795 19.4878 12.0795C19.4879 12.0796 19.4643 12.0931 19.414 12.1315C19.3596 12.173 19.2941 12.2281 19.219 12.2957C19.0673 12.4322 18.9111 12.5881 18.7687 12.7304C18.5676 12.9316 18.2903 13.0375 18.0063 13.0218C17.7223 13.0061 17.4585 12.8701 17.2808 12.648C16.9152 12.1911 16.3486 11.8859 15.8602 11.7675H15.55C15.1648 11.7675 14.731 12.024 14.0246 12.7304C13.634 13.121 13.0009 13.121 12.6103 12.7304C12.3324 12.4525 12.1143 12.237 11.786 12.0182C11.5091 11.8336 11.3422 11.5233 11.3407 11.1907C11.3404 11.1872 11.3391 11.1759 11.335 11.1535C11.3286 11.118 11.321 11.0843 11.3084 11.0282C11.3044 11.0103 11.2999 10.9902 11.2948 10.967C11.2562 10.7936 11.2012 10.532 11.2012 10.2094C11.2012 8.98293 11.7127 7.68818 12.3097 6.64348C12.4035 6.47922 12.542 6.34511 12.7088 6.25651C12.7149 6.25035 12.7255 6.23903 12.7411 6.22037C12.7617 6.19564 12.7783 6.17407 12.8048 6.13952C12.8143 6.1271 12.8252 6.11301 12.8379 6.09649C12.8744 6.04931 12.9439 5.95938 13.0289 5.87437Z" fill="#2D2E32" />
    <path fill-rule="evenodd" clip-rule="evenodd" d="M20.1304 17.5083L19.9006 17.7382C20.1689 18.1893 20.4232 18.7418 20.5666 19.3157C20.7097 19.888 20.8756 20.685 20.8756 21.3722C20.8756 22.4949 20.5169 23.5123 19.948 24.3637C20.1751 24.4534 20.4353 24.5215 20.7376 24.5719L20.7575 24.5754C22.4113 24.8855 24.116 23.6192 24.3252 21.9459C24.3275 21.9275 24.3303 21.9092 24.3336 21.891C24.4353 21.3313 24.3665 20.5613 24.1036 19.7416C23.8432 18.9299 23.4188 18.1529 22.8997 17.5761C22.8798 17.5539 22.8609 17.5309 22.843 17.5071C22.6145 17.2023 22.3099 17.021 21.7893 16.9143C21.3275 16.8419 20.7897 16.9693 20.1304 17.5083ZM18.8168 15.9993C19.8095 15.1721 20.9314 14.7437 22.133 14.944C22.1436 14.9457 22.1542 14.9477 22.1647 14.9498C23.0159 15.12 23.812 15.4873 24.4149 16.2702C25.1373 17.0836 25.6797 18.1071 26.008 19.1307C26.335 20.1502 26.4759 21.2527 26.3062 22.2213C25.9431 24.9959 23.1978 27.0615 20.3991 26.543C19.4382 26.3816 18.5237 26.0392 17.7731 25.2886C17.5856 25.1011 17.4802 24.8467 17.4802 24.5815C17.4802 24.3163 17.5856 24.0619 17.7731 23.8744C18.4561 23.1914 18.8756 22.3191 18.8756 21.3722C18.8756 20.9432 18.7624 20.3448 18.6264 19.8008C18.5266 19.4016 18.322 18.9743 18.1042 18.6353C17.9742 18.4816 17.9027 18.3375 17.8703 18.2723C17.8684 18.2683 17.8665 18.2647 17.8649 18.2613C17.8646 18.2608 17.8643 18.2602 17.8641 18.2597C17.707 18.0785 17.6198 17.8461 17.6198 17.6048C17.6198 17.3396 17.7251 17.0852 17.9127 16.8977L18.7499 16.0605C18.7712 16.0391 18.7936 16.0187 18.8168 15.9993Z" fill="#2D2E32" />
    <path fill-rule="evenodd" clip-rule="evenodd" d="M19.6777 12.0547C19.5805 12.1196 19.4895 12.1808 19.4046 12.2388C19.6069 12.5535 19.8226 12.9224 19.9622 13.3102C20.2939 13.9877 20.4752 14.6062 20.5518 15.2096C21.0576 15.0571 21.5976 14.9942 22.1329 15.0834C22.1591 15.0878 22.1852 15.0932 22.211 15.0996C22.4203 15.1519 22.6286 15.2195 22.8357 15.3055C22.8082 15.0013 22.7502 14.675 22.6602 14.3428C22.4608 13.6062 22.1349 12.9546 21.7741 12.5422C21.7575 12.5233 21.7417 12.5038 21.7266 12.4837C21.4434 12.1061 21.115 11.8677 20.749 11.7697C20.4102 11.7846 20.0551 11.8735 19.6777 12.0547ZM24.7815 16.586C24.7792 16.6683 24.7715 16.7818 24.7456 16.9112C24.707 17.1043 24.6373 17.2938 24.5373 17.4937C24.3936 17.7812 24.1204 17.9821 23.8031 18.0336C23.4858 18.0851 23.1631 17.9809 22.9358 17.7536C22.5244 17.3422 22.1414 17.1508 21.7688 17.051C21.328 16.9954 20.6557 17.2286 20.0816 17.6879C19.7149 17.9812 19.1934 17.9799 18.8282 17.6847C18.463 17.3894 18.3524 16.8798 18.5624 16.4598C18.5605 16.4636 18.5595 16.4656 18.5595 16.4656C18.5595 16.4656 18.5734 16.424 18.5839 16.3191C18.5957 16.2016 18.5964 16.0754 18.5964 15.9302C18.5964 15.3904 18.4942 14.8456 18.1438 14.1449C18.1227 14.1026 18.1045 14.0588 18.0896 14.0139C18.0008 13.7474 17.8078 13.4455 17.5085 12.9966C17.462 12.9267 17.4246 12.8516 17.3971 12.7732C17.385 12.761 17.3711 12.7471 17.3544 12.7304C16.9639 12.3399 16.9639 11.7067 17.3544 11.3162C17.7049 10.9657 18.1938 10.64 18.5777 10.3843C18.593 10.3741 18.6081 10.364 18.6231 10.354C18.6576 10.331 18.6935 10.3102 18.7306 10.2916C19.411 9.95142 20.1213 9.76746 20.8522 9.76746C20.9181 9.76746 20.9838 9.77396 21.0483 9.78688C22.0262 9.98245 22.7749 10.5601 23.304 11.2538C23.907 11.9548 24.3401 12.8948 24.5907 13.82C24.8349 14.7218 24.9344 15.7156 24.7815 16.586Z" fill="#2D2E32" />
    <path fill-rule="evenodd" clip-rule="evenodd" d="M17.3832 7.72461C17.3493 7.68422 17.3218 7.64865 17.3031 7.62439C17.2903 7.60787 17.2795 7.59377 17.27 7.58135C17.2434 7.54681 17.2268 7.52523 17.2062 7.50051C17.1907 7.48185 17.18 7.47053 17.1739 7.46437C16.8674 7.30158 16.6666 6.99095 16.645 6.64339C16.6229 6.28761 16.7918 5.94694 17.0884 5.74921C17.103 5.73942 17.1178 5.72955 17.1328 5.71961C17.5169 5.46341 17.9762 5.15712 18.3121 4.98915C18.3545 4.96799 18.3982 4.94986 18.4431 4.9349C18.4629 4.92829 18.484 4.92114 18.5064 4.91358C18.8568 4.79487 19.5064 4.5748 20.2025 4.75706C21.6359 4.91358 22.6051 6.03486 23.1453 7.13454C23.7024 8.26868 23.9571 9.66032 23.8049 10.842C23.7891 11.4401 23.583 12.1021 23.0944 12.5907C22.8894 12.7957 22.6055 12.9016 22.3164 12.8811C22.0272 12.8605 21.7612 12.7155 21.5873 12.4836C21.2803 12.0743 20.9202 11.8286 20.5167 11.7479C20.5012 11.7448 20.4857 11.7413 20.4703 11.7374C20.2666 11.6865 20.0122 11.7055 19.6384 11.9859C19.2674 12.2642 18.7537 12.2508 18.3977 11.9537C18.0416 11.6565 17.9366 11.1535 18.144 10.7387L18.144 10.7387C18.1491 10.7285 18.1589 10.7088 18.1666 10.6394C18.1767 10.5487 18.178 10.4344 18.178 10.2092C18.178 9.50586 17.8732 8.60532 17.3832 7.72461ZM19.1597 6.80437C19.6392 7.67752 20.0473 8.70663 20.152 9.71834C20.4064 9.70476 20.6669 9.72753 20.9317 9.79135C21.2637 9.86001 21.5691 9.97278 21.8482 10.1192C21.8443 9.44919 21.6735 8.67461 21.3502 8.01635C20.9281 7.15708 20.4001 6.77409 19.9439 6.74151C19.8605 6.73555 19.7782 6.71916 19.6989 6.69273C19.6886 6.68929 19.6534 6.6786 19.5517 6.69556C19.449 6.71267 19.3347 6.7468 19.1597 6.80437Z" fill="#2D2E32" />
    <path fill-rule="evenodd" clip-rule="evenodd" d="M11.5859 6.6048C11.1037 6.70165 10.579 7.14846 10.1713 7.99298C9.8607 8.63637 9.69103 9.37353 9.67197 10.0213C9.86735 9.92768 10.0722 9.85035 10.284 9.79739C10.3633 9.77756 10.4448 9.76753 10.5266 9.76753C10.7687 9.76753 10.9995 9.78169 11.2218 9.80997C11.3219 8.806 11.7711 7.59425 12.3333 6.74315C12.2787 6.71115 12.22 6.67591 12.1592 6.63749C12.1363 6.63239 12.0933 6.62444 12.0232 6.61807C11.9029 6.60713 11.7646 6.60514 11.5859 6.6048ZM7.71439 10.8483C7.56032 9.66422 7.81591 8.27165 8.3702 7.12348C8.9226 5.97921 9.90641 4.82272 11.3619 4.61479C11.4087 4.6081 11.456 4.60474 11.5033 4.60474C11.5096 4.60474 11.516 4.60474 11.5225 4.60474C11.7185 4.60471 11.9667 4.60468 12.2043 4.62629C12.4433 4.64801 12.7628 4.69785 13.0668 4.84985C13.1039 4.86839 13.1398 4.88922 13.1743 4.91222C13.249 4.96205 13.3287 5.00893 13.4295 5.06685C13.4406 5.07324 13.4522 5.07988 13.4642 5.08675C13.552 5.13704 13.6614 5.19973 13.7669 5.26689C14.0213 5.42874 14.3218 5.65756 14.5679 6.02678C14.8296 6.41924 14.7811 6.94045 14.4535 7.27791C14.4504 7.28183 14.4438 7.29021 14.4332 7.30451C14.4145 7.32976 14.3989 7.35192 14.3774 7.38242C14.3628 7.40304 14.3455 7.42747 14.3229 7.45923C14.2387 7.57709 14.1214 7.73613 13.9638 7.90455C13.5169 8.6099 13.201 9.62627 13.201 10.2094C13.201 10.3545 13.2017 10.4808 13.2135 10.5983C13.2239 10.7031 13.2386 10.7444 13.2379 10.7447C13.2379 10.7447 13.2377 10.7444 13.2374 10.7438C13.4268 11.1278 13.3507 11.5902 13.0476 11.8932C12.7433 12.1976 12.2783 12.2731 11.8933 12.0806C11.5113 11.8896 11.1405 11.7864 10.6653 11.7699C10.3819 11.8735 10.0282 12.122 9.69879 12.4514C9.47149 12.6787 9.14879 12.7829 8.8315 12.7314C8.51421 12.6799 8.24101 12.479 8.09725 12.1915C7.93829 11.8736 7.7354 11.3341 7.71439 10.8483Z" fill="#2D2E32" />
    <path fill-rule="evenodd" clip-rule="evenodd" d="M13.6197 5.17673C13.6656 5.20391 13.7132 5.2327 13.76 5.26241C14.309 4.88494 14.9675 4.60465 15.6894 4.60465C16.5615 4.60465 17.2168 4.9271 17.7419 5.33106C17.7928 5.30118 17.8447 5.27161 17.8974 5.24264C17.8764 4.57844 17.6077 3.76678 17.1502 3.10141C16.6788 2.4157 16.1321 2.05527 15.6543 2.00102C15.3224 2.01994 14.835 2.30528 14.3587 3.01982C13.89 3.72276 13.6224 4.57434 13.6197 5.17673ZM12.6946 1.91042C13.3174 0.976184 14.3469 0 15.6894 0C15.715 0 15.7406 0.000982583 15.7661 0.00294554C17.0926 0.104982 18.1323 0.999615 18.7983 1.96835C19.4728 2.94944 19.8987 4.19028 19.8987 5.32558V5.88372C19.8987 6.31415 19.6233 6.69629 19.2149 6.8324C18.9485 6.92123 18.6465 7.11419 18.1976 7.41345C17.801 7.67786 17.2728 7.62557 16.9358 7.2885C16.4326 6.78531 16.1194 6.60465 15.6894 6.60465C15.3745 6.60465 14.9175 6.814 14.443 7.2885C14.2312 7.50035 13.9355 7.60605 13.6374 7.57653C13.3392 7.54701 13.07 7.38537 12.9039 7.1361C12.8709 7.08671 12.8226 7.03647 12.6932 6.95413C12.6295 6.91355 12.5628 6.8753 12.4701 6.82211C12.4583 6.81532 12.446 6.80828 12.4333 6.80097C12.3292 6.74116 12.1995 6.66595 12.0649 6.57624C11.7867 6.39077 11.6196 6.07854 11.6196 5.74419V5.18605C11.6196 4.11453 12.0493 2.87826 12.6946 1.91042Z" fill="#2D2E32" />
    <path fill-rule="evenodd" clip-rule="evenodd" d="M15.6895 24.6978C16.2417 24.6978 16.6895 25.1455 16.6895 25.6978V31.0001C16.6895 31.5524 16.2417 32.0001 15.6895 32.0001C15.1372 32.0001 14.6895 31.5524 14.6895 31.0001V25.6978C14.6895 25.1455 15.1372 24.6978 15.6895 24.6978Z" fill="#2D2E32" />
</svg>
    