<svg width="32" height="32" viewBox="0 0 32 32" fill="none" xmlns="http://www.w3.org/2000/svg">
    <path d="M26.9987 6.05264C26.9696 6.60416 26.499 7.02773 25.9475 6.9987C22.3648 6.81014 20.1626 7.79235 18.8418 8.9718C17.497 10.1727 16.978 11.6549 16.8983 12.5874C16.8549 13.096 16.4355 13.4902 15.9252 13.5021C14.2608 13.5408 13.254 14.3897 12.6267 15.2758C12.3078 15.7263 12.0944 16.1798 11.9612 16.5226C11.8951 16.6927 11.8502 16.8317 11.8227 16.9244C11.8089 16.9707 11.7997 17.0051 11.7943 17.0256L11.7893 17.0457L11.7896 17.0442C11.728 17.315 11.5568 17.5472 11.3167 17.6866C11.0765 17.826 10.7892 17.8593 10.5235 17.7784C8.91491 17.2889 7.10428 18.1346 5.58366 20.1835C4.94415 21.1329 4.85575 22.0786 4.99632 22.8751C5.14432 23.7138 5.53793 24.337 5.7625 24.5615C6.15303 24.9521 6.15303 25.5852 5.7625 25.9757C5.37198 26.3663 4.73881 26.3663 4.34829 25.9757C3.80497 25.4324 3.2387 24.4238 3.02675 23.2227C2.80814 21.9839 2.95795 20.488 3.94051 19.0431C3.94788 19.0322 3.95547 19.0215 3.96326 19.011C5.50384 16.9267 7.71744 15.3991 10.1492 15.6673C10.3273 15.2322 10.5981 14.6799 10.9943 14.1203C11.7739 13.019 13.0601 11.8702 15.0404 11.5738C15.3357 10.2902 16.0849 8.75241 17.5097 7.48004C19.2881 5.8919 22.0353 4.79003 26.0526 5.00146C26.6041 5.03049 27.0277 5.50112 26.9987 6.05264Z" />
    <path fill-rule="evenodd" clip-rule="evenodd" d="M25.2133 2.32966C25.7423 2.17096 26.2998 2.47114 26.4585 3.00014L25.5007 3.28748C26.4585 3.00014 26.4584 2.99994 26.4585 3.00014L26.459 3.00193L26.4598 3.00444L26.4619 3.01156L26.4684 3.03417C26.4738 3.05292 26.4812 3.07899 26.4902 3.11211C26.5083 3.17832 26.5331 3.27273 26.5623 3.39309C26.6209 3.63369 26.6974 3.97859 26.7734 4.40953C26.9253 5.27012 27.0766 6.4812 27.0766 7.89488C27.0766 8.44716 26.6289 8.89488 26.0766 8.89488C25.5243 8.89488 25.0766 8.44716 25.0766 7.89488C25.0766 6.62091 24.94 5.52829 24.8039 4.7571C24.7359 4.37215 24.6685 4.06913 24.619 3.86579C24.5943 3.76417 24.5741 3.68761 24.5607 3.63834C24.5539 3.61371 24.5489 3.59591 24.5459 3.58523L24.5429 3.57483C24.3844 3.04594 24.6845 2.48832 25.2133 2.32966Z" />
    <path fill-rule="evenodd" clip-rule="evenodd" d="M12.6557 21.2335C12.6213 21.1952 12.5757 21.1489 12.5072 21.0804C12.1272 20.7003 11.0832 20.4364 9.89371 20.9915C9.86844 21.0033 9.84269 21.014 9.81653 21.0236C8.32293 21.5739 7.92702 22.7842 8.17237 23.4108C8.20143 23.4669 8.22947 23.5151 8.26025 23.5608C9.87965 23.0822 11.3697 22.4849 12.7332 21.7712C12.738 21.6948 12.7388 21.6269 12.7318 21.5543C12.7241 21.5348 12.7166 21.5145 12.7096 21.4934C12.6852 21.4202 12.6643 21.3324 12.6557 21.2335ZM13.9483 19.6929C14.1309 19.8746 14.4708 20.2126 14.643 20.7289C14.6865 20.8595 14.7018 20.9949 14.6909 21.1272C14.7448 21.4395 14.7426 21.6973 14.728 21.9156C14.7201 22.0352 14.7127 22.111 14.7069 22.1707C14.6992 22.2501 14.6943 22.3011 14.6943 22.389C14.6943 22.7522 14.4974 23.0868 14.1799 23.2632C12.3748 24.266 10.3792 25.0626 8.19814 25.6575C7.85193 25.7519 7.48167 25.6536 7.22792 25.3998C7.22218 25.3941 7.21643 25.3883 7.21069 25.3826C6.92192 25.0939 6.63344 24.8055 6.36869 24.276C6.35993 24.2585 6.35168 24.2407 6.34397 24.2227C5.46292 22.167 6.97181 19.9607 9.08574 19.1617C10.7682 18.3922 12.7743 18.519 13.9214 19.6662C13.9299 19.6747 13.9389 19.6836 13.9483 19.6929Z" />
    <path fill-rule="evenodd" clip-rule="evenodd" d="M19.8229 15.7277C19.8423 15.7435 19.8913 15.7787 19.9967 15.8314C20.0928 15.8794 20.1806 15.9427 20.2566 16.0187L20.3526 16.1147C20.4624 16.2245 20.5451 16.3583 20.5942 16.5056L20.5982 16.5177C20.6434 16.6531 20.6988 16.8195 20.7422 16.9786C20.7833 17.1291 20.8375 17.3549 20.8375 17.5897C20.8375 17.8549 20.7321 18.1093 20.5446 18.2968C19.0739 19.7675 17.2889 21.3567 15.095 22.7528C14.7987 22.9414 14.4251 22.9606 14.1109 22.8035C13.5814 22.5388 13.2931 22.2503 13.0044 21.9615C12.9986 21.9558 12.9929 21.9501 12.9872 21.9443L13.6943 21.2372C12.9872 21.9443 12.9875 21.9447 12.9872 21.9443L12.9844 21.9415L12.9815 21.9386L12.9758 21.9327L12.9637 21.92C12.9554 21.9112 12.9466 21.9016 12.9376 21.8912C12.9194 21.8705 12.8997 21.8465 12.8793 21.8192C12.8384 21.7647 12.7936 21.6959 12.7519 21.6124C12.6963 21.5013 12.6478 21.3672 12.6209 21.2127C12.6163 21.2062 12.6111 21.1991 12.605 21.1912C12.5655 21.1405 12.5144 21.0876 12.4112 20.9844C12.3015 20.8747 12.2188 20.7408 12.1697 20.5936C11.6053 18.9004 12.4926 16.9493 14.1588 15.7274C15.84 14.4945 17.9245 14.262 19.4145 15.2102C19.6053 15.3317 19.7492 15.5141 19.8229 15.7277ZM14.5757 20.7021C14.572 20.6985 14.5682 20.6949 14.5644 20.6912C14.5592 20.6717 14.5534 20.6523 14.547 20.633C14.4198 20.2515 14.201 19.9673 14.0218 19.7716C13.9231 19.1373 14.2447 18.1446 15.3415 17.3402C16.4102 16.5565 17.4637 16.5039 18.1201 16.7824C18.2626 17.0136 18.4455 17.1979 18.6545 17.3511C17.4844 18.4846 16.1413 19.6462 14.5757 20.7021Z" />
    <path fill-rule="evenodd" clip-rule="evenodd" d="M24.4379 9.85639C24.4873 9.89054 24.5334 9.92905 24.5758 9.97147L25.2478 10.6434C25.5635 10.9591 25.6316 11.4458 25.4148 11.8361C24.4144 13.6368 23.0242 15.6186 21.0571 17.7824C20.7908 18.0754 20.3766 18.1836 20.001 18.0584C19.9861 18.0535 19.9698 18.0481 19.9523 18.0424C19.7041 17.9611 19.2078 17.7985 18.8422 17.4329L18.0743 16.665C18.0227 16.6134 17.9769 16.5563 17.9377 16.4948C16.9496 14.9419 17.4737 12.843 18.5436 11.3452C18.5499 11.3363 18.5564 11.3276 18.563 11.319C20.0144 9.421 22.6044 8.58699 24.4379 9.85639ZM23.2359 11.4599C22.5508 11.0527 21.1726 11.2095 20.1615 12.521C19.3589 13.6525 19.2769 14.7593 19.5795 15.3417L20.0939 15.8562C21.464 14.2872 22.4995 12.8406 23.2914 11.5154L23.2359 11.4599Z" />
    <path fill-rule="evenodd" clip-rule="evenodd" d="M26.2366 6.90775C26.7207 6.98632 27.0764 7.40439 27.0764 7.89484C27.0764 12.7164 25.6504 20.0231 17.2892 25.1607L17.2802 25.1662L16.7657 24.3088C17.2802 25.1662 17.2805 25.166 17.2802 25.1662L17.2767 25.1682L17.2707 25.1718L17.2508 25.1836C17.234 25.1934 17.2105 25.2071 17.1804 25.2243C17.1203 25.2587 17.0341 25.3071 16.9242 25.3667C16.7045 25.4858 16.3894 25.6496 15.9985 25.834C15.2194 26.2016 14.1263 26.6571 12.8798 27.0005C10.4428 27.6719 7.12915 27.9904 4.53489 25.9601C4.22724 25.7193 4.08797 25.3214 4.17829 24.9414C4.26862 24.5613 4.572 24.2686 4.95508 24.192L4.98066 24.1869C5.89472 24.004 6.85931 23.8111 7.74492 23.7078C9.75817 23.1531 11.5777 22.4207 13.2084 21.5148C13.2625 21.4847 13.3192 21.4598 13.3778 21.4402C13.376 21.4409 13.3749 21.4413 13.3748 21.4412C13.3745 21.4405 13.4168 21.42 13.5688 21.3148C13.5814 21.306 13.5949 21.2966 13.6091 21.2867C13.7401 21.1956 13.9364 21.0589 14.162 20.9414C16.1046 19.7353 17.8329 18.3626 19.1834 16.832C19.1972 16.8164 19.2114 16.8012 19.2261 16.7865L19.6876 16.325C21.4551 14.3688 22.7489 12.5164 23.6665 10.8647C24.5812 9.21818 25.0384 7.84682 25.1273 7.58L25.1278 7.57861C25.2828 7.11333 25.7525 6.82919 26.2366 6.90775ZM24.1723 13.8561C23.3468 15.0803 22.3489 16.3647 21.1547 17.6846C21.1435 17.6969 21.1321 17.709 21.1203 17.7207L20.6621 18.1789C19.1445 19.8929 17.2457 21.3847 15.1803 22.6633C15.1546 22.6792 15.1282 22.6939 15.1012 22.7074C14.9916 22.7622 14.8919 22.8313 14.7302 22.9432L14.7072 22.9592C14.7023 22.9625 14.6973 22.966 14.6921 22.9696C14.5695 23.0547 14.361 23.1992 14.115 23.2989C12.4915 24.1942 10.7147 24.9235 8.7883 25.4901C9.95337 25.5801 11.1811 25.394 12.3486 25.0724C13.4539 24.7679 14.4365 24.3595 15.1451 24.0252C15.4982 23.8586 15.7799 23.712 15.9712 23.6084C16.0668 23.5566 16.1395 23.5156 16.187 23.4884C16.2108 23.4748 16.2282 23.4647 16.239 23.4584L16.2485 23.4528C20.8222 20.6405 23.0921 17.1485 24.1723 13.8561Z" />
</svg>
    