<svg width="32" height="32" viewBox="0 0 32 32" fill="none" xmlns="http://www.w3.org/2000/svg">
    <path fill-rule="evenodd" clip-rule="evenodd" d="M26.6065 5.39353C24.508 3.29504 21.0682 3.29504 18.9697 5.39353C18.2303 6.13295 17.7416 7.1861 17.5462 8.16352C17.5442 8.17313 17.5422 8.18271 17.54 8.19226C17.1356 9.94461 15.9403 11.139 15.0675 12.0111C15.0482 12.0304 15.029 12.0496 15.0099 12.0686C13.5496 13.529 11.5899 13.9202 9.97153 14.2432C9.93428 14.2506 9.89721 14.258 9.86032 14.2654C9.84699 14.2681 9.8336 14.2705 9.82017 14.2726C7.94104 14.5693 6.76587 15.3347 5.39328 16.7072C2.61597 19.4846 2.61597 23.8294 5.39328 26.6067C8.1706 29.384 12.5155 29.384 15.2928 26.6067C16.6157 25.2838 17.3043 24.008 17.611 22.0873C17.6851 21.4565 17.9427 20.527 18.3131 19.6231C18.6858 18.7138 19.2275 17.694 19.9314 16.9901L19.9354 16.986C20.9813 15.9402 21.7954 15.1261 23.7164 14.4858C23.7895 14.4614 23.8653 14.4455 23.9421 14.4386C24.8808 14.3532 25.8064 13.8303 26.6065 13.0303C28.705 10.9318 28.705 7.49202 26.6065 5.39353ZM17.5555 3.97932C20.4351 1.09978 25.1412 1.09978 28.0207 3.97932C30.9002 6.85886 30.9002 11.565 28.0207 14.4445C27.0377 15.4275 25.745 16.2445 24.2475 16.4175C22.8526 16.8989 22.3112 17.4387 21.3456 18.4043C20.9181 18.8318 20.4981 19.5656 20.1637 20.3816C19.832 21.1911 19.6389 21.9459 19.5959 22.3331C19.5942 22.3483 19.5922 22.3635 19.5898 22.3786C19.2161 24.7457 18.3209 26.4071 16.707 28.0209C13.1486 31.5793 7.53743 31.5793 3.97907 28.0209C0.420706 24.4626 0.420706 18.8514 3.97907 15.293C5.54358 13.7285 7.0794 12.6851 9.48761 12.3004C11.2333 11.951 12.6044 11.6457 13.5957 10.6544C14.5255 9.72465 15.3197 8.89908 15.5882 7.75543C15.8473 6.47417 16.4891 5.04569 17.5555 3.97932Z" />
    <path fill-rule="evenodd" clip-rule="evenodd" d="M5.99985 21.9417C6.7809 21.1606 8.04723 21.1606 8.82828 21.9417C9.60932 22.7227 9.60932 23.9891 8.82828 24.7701C8.04723 25.5512 6.7809 25.5512 5.99985 24.7701C5.2188 23.9891 5.2188 22.7227 5.99985 21.9417Z" />
    <path fill-rule="evenodd" clip-rule="evenodd" d="M10.7518 23.2993C11.5328 22.5183 12.7992 22.5183 13.5802 23.2993C14.3613 24.0804 14.3613 25.3467 13.5802 26.1278C12.7992 26.9088 11.5329 26.9088 10.7518 26.1278C9.97075 25.3467 9.97075 24.0804 10.7518 23.2993Z" />
    <path fill-rule="evenodd" clip-rule="evenodd" d="M9.39389 19C10.1749 18.219 11.4413 18.219 12.2223 19C13.0034 19.7811 13.0034 21.0474 12.2223 21.8285C11.4413 22.6095 10.1749 22.6095 9.39389 21.8285C8.61284 21.0474 8.61284 19.7811 9.39389 19Z" />
</svg>
    