<svg width="32" height="32" viewBox="0 0 32 32" fill="none" xmlns="http://www.w3.org/2000/svg">
    <path fill-rule="evenodd" clip-rule="evenodd" d="M26.301 13.5243C26.301 9.34824 21.7608 5.50216 15.6732 5.64051L15.6505 5.64077C12.6439 5.64077 9.94853 6.56449 8.02672 8.02242C6.10697 9.47877 5 11.4269 5 13.5243V13.5437H26.301V13.5243ZM15.6391 3.64078C22.3624 3.49298 28.301 7.80061 28.301 13.5243V14.5437C28.301 15.096 27.8533 15.5437 27.301 15.5437H4C3.44772 15.5437 3 15.096 3 14.5437V13.5243C3 10.6702 4.51439 8.17656 6.81794 6.42903C9.11688 4.68502 12.2423 3.64309 15.6391 3.64078Z" />
    <path fill-rule="evenodd" clip-rule="evenodd" d="M16.758 2.10759C16.7159 2.14967 16.6504 2.24667 16.6504 2.45631V4.49515C16.6504 5.04743 16.2027 5.49515 15.6504 5.49515C15.0981 5.49515 14.6504 5.04743 14.6504 4.49515V2.45631C14.6504 1.79217 14.8761 1.16101 15.3438 0.693379C15.8114 0.225745 16.4426 0 17.1067 0H19.7281C20.2803 0 20.7281 0.447715 20.7281 1C20.7281 1.55228 20.2803 2 19.7281 2H17.1067C16.8971 2 16.8001 2.06552 16.758 2.10759Z" />
    <path fill-rule="evenodd" clip-rule="evenodd" d="M5.18457 14.5437C5.18457 13.9914 5.63229 13.5437 6.18457 13.5437H25.1166C25.6689 13.5437 26.1166 13.9914 26.1166 14.5437V19.7864C26.1166 24.9355 22.4722 29.205 17.6542 30.0354L16.4432 31.6097C16.2539 31.8558 15.9611 32 15.6506 32C15.3401 32 15.0473 31.8558 14.858 31.6097L13.6365 30.0218C8.84767 29.0571 5.18457 24.8153 5.18457 19.7864V14.5437ZM7.18457 15.5437V19.7864C7.18457 23.9393 10.307 27.4669 14.3535 28.1196C14.605 28.1601 14.8316 28.2952 14.9869 28.4971L15.6506 29.3599L16.3143 28.4971C16.4763 28.2865 16.7154 28.149 16.9789 28.115C20.9837 27.5983 24.1166 24.1007 24.1166 19.7864V15.5437H7.18457Z" />
    <path fill-rule="evenodd" clip-rule="evenodd" d="M20.8757 19.0077C21.4238 18.9392 21.9236 19.3279 21.9921 19.8759C22.2374 21.8391 21.4556 23.3739 20.439 24.4494C19.4431 25.503 18.1918 26.1567 17.316 26.4487C16.7921 26.6233 16.2257 26.3402 16.0511 25.8162C15.8765 25.2923 16.1596 24.7259 16.6836 24.5513C17.3078 24.3432 18.2565 23.8469 18.9855 23.0756C19.694 22.3261 20.1621 21.3609 20.0075 20.124C19.939 19.576 20.3277 19.0762 20.8757 19.0077Z" />
</svg>
    