<svg width="32" height="32" viewBox="0 0 32 32" fill="none" xmlns="http://www.w3.org/2000/svg">
    <path fill-rule="evenodd" clip-rule="evenodd" d="M12.8052 2C12.0969 2 11.5974 2.55238 11.5974 3.20779V3.98701C11.5974 4.59358 11.9543 5.0294 12.6027 5.21001C12.7694 5.23721 12.9669 5.30682 13.1471 5.46455C13.4192 5.70256 13.513 6.0191 13.513 6.27597C13.513 6.71357 13.2644 7.01992 13.1227 7.16165C13.0863 7.19804 13.0472 7.23157 13.0056 7.26194L9.64849 9.71521C9.22771 10.0591 9 10.5526 9 11V28.7922C9 29.5005 9.55238 30 10.2078 30H21.3766C22.085 30 22.5844 29.4476 22.5844 28.7922V11C22.5844 10.3596 22.3145 9.94969 22.031 9.77957C22.005 9.76402 21.9798 9.7473 21.9554 9.72947L18.5788 7.26194C18.5373 7.23157 18.4981 7.19804 18.4617 7.16165C18.3779 7.07787 18.2708 6.95172 18.1916 6.78206C18.1148 6.61743 18.0213 6.31276 18.139 5.95975C18.2647 5.58244 18.5523 5.382 18.7698 5.29245C18.9323 5.22556 19.0893 5.20314 19.2135 5.1969C19.7205 5.1134 20.1169 4.65129 20.1169 4.11688V3.20779C20.1169 2.49946 19.5645 2 18.9091 2H12.8052ZM9.5974 3.20779C9.5974 1.52554 10.9161 0 12.8052 0H18.9091C20.5913 0 22.1169 1.31872 22.1169 3.20779V4.11688C22.1169 5.06998 21.6738 5.95177 20.9644 6.52813L23.1027 8.09074C24.0894 8.70616 24.5844 9.83883 24.5844 11V28.7922C24.5844 30.4745 23.2657 32 21.3766 32H10.2078C8.52554 32 7 30.6813 7 28.7922V11C7 9.89426 7.54604 8.83579 8.41427 8.14121C8.42563 8.13212 8.43719 8.12327 8.44894 8.11469L10.7314 6.44673C10.0526 5.88434 9.5974 5.05104 9.5974 3.98701V3.20779ZM19.3032 7.19479C19.3017 7.1948 19.3002 7.19481 19.2987 7.19481L19.299 7.19481C19.2996 7.19481 19.301 7.19482 19.3032 7.19479Z" />
    <path fill-rule="evenodd" clip-rule="evenodd" d="M15.0499 8.73371C15.3691 9.18439 15.2625 9.80852 14.8118 10.1278L12.1169 12.0366V18.5325C12.1169 19.0848 11.6692 19.5325 11.1169 19.5325C10.5647 19.5325 10.1169 19.0848 10.1169 18.5325V11.5195C10.1169 11.1952 10.2743 10.891 10.5389 10.7035L13.6558 8.4957C14.1065 8.17647 14.7306 8.28303 15.0499 8.73371Z" />
</svg>
    