<svg width="32" height="32" viewBox="0 0 32 32" fill="none" xmlns="http://www.w3.org/2000/svg">
    <path fill-rule="evenodd" clip-rule="evenodd" d="M2.01078 10.5091C2.00101 10.5781 1.99411 10.6884 2.00663 10.8545C2.03492 11.2297 2.15132 11.7202 2.34749 12.2723C2.74201 13.3829 3.38246 14.5329 3.92169 15.18C4.23073 15.5508 4.23073 16.0895 3.92169 16.4604C3.38246 17.1074 2.74201 18.2575 2.34749 19.368C2.15132 19.9202 2.03492 20.4106 2.00663 20.7858C1.99416 20.9512 2.00095 21.0613 2.01065 21.1303C2.09423 21.1429 2.23937 21.1515 2.47262 21.1248C2.9205 21.0735 3.49223 20.9128 4.11084 20.6698C5.37559 20.1729 6.55444 19.4471 6.98245 19.0191C7.03954 18.962 7.08802 18.9126 7.12937 18.869C6.69245 18.1829 6.37689 17.52 6.23042 16.89C6.05759 16.47 6.0588 16.0729 6.05947 15.8563C6.0595 15.8436 6.05954 15.8316 6.05954 15.8202C6.05954 15.8088 6.0595 15.7967 6.05947 15.784C6.0588 15.5675 6.05759 15.1703 6.23042 14.7504C6.37618 14.1234 6.68939 13.4639 7.12302 12.7813C7.08173 12.7292 7.03994 12.6806 6.99961 12.6387C6.47357 12.1746 5.28063 11.4545 4.05978 10.9691C3.44782 10.7258 2.88898 10.5661 2.45292 10.5153C2.23084 10.4894 2.09175 10.4971 2.01078 10.5091ZM4.7987 9.11057C6.17589 9.65813 7.61324 10.5001 8.35852 11.1708C8.37155 11.1825 8.38426 11.1946 8.39666 11.207C8.73728 11.5476 9.04861 12.0181 9.21399 12.3489C9.37964 12.6802 9.34859 13.0759 9.1333 13.3774C8.53654 14.2128 8.2516 14.8329 8.16612 15.2603C8.14869 15.3474 8.11972 15.4319 8.07997 15.5114L8.07986 15.5116C8.07858 15.5141 8.07261 15.5258 8.06757 15.5662C8.06081 15.6202 8.05954 15.684 8.05954 15.8202C8.05954 15.9563 8.06081 16.0201 8.06757 16.0741C8.07261 16.1145 8.07858 16.1262 8.07986 16.1288L8.07997 16.129C8.11972 16.2085 8.14869 16.2929 8.16612 16.3801C8.2516 16.8074 8.53654 17.4275 9.1333 18.263C9.31926 18.5233 9.36942 18.8569 9.26825 19.1605C9.06638 19.7661 8.66728 20.1637 8.42804 20.402C8.41724 20.4128 8.40677 20.4232 8.39666 20.4333C7.69064 21.1394 6.22344 21.9886 4.84215 22.5313C4.13774 22.808 3.38644 23.0332 2.7003 23.1118C2.07303 23.1837 1.21887 23.1666 0.599072 22.6157C0.567839 22.5879 0.538377 22.5582 0.510859 22.5268C0.017842 21.9633 -0.0307641 21.2065 0.0122931 20.6355C0.0588184 20.0184 0.233803 19.3433 0.462887 18.6985C0.818235 17.6982 1.34944 16.6455 1.90773 15.8202C1.34944 14.9949 0.818235 13.9421 0.462887 12.9419C0.233802 12.297 0.0588184 11.622 0.0122931 11.0049C-0.0307641 10.4338 0.017842 9.67701 0.510859 9.11356C0.538377 9.08211 0.567839 9.05242 0.599072 9.02465C1.21688 8.47549 2.06006 8.45593 2.68456 8.52876C3.36284 8.60785 4.10339 8.83412 4.7987 9.11057Z" />
    <path fill-rule="evenodd" clip-rule="evenodd" d="M9.13073 13.3809C8.53568 14.2146 8.25143 14.8335 8.16607 15.2603C8.14864 15.3474 8.11967 15.4319 8.07992 15.5114L8.07981 15.5116C8.07853 15.5141 8.07256 15.5258 8.06752 15.5662C8.06076 15.6202 8.05949 15.684 8.05949 15.8202C8.05949 15.9563 8.06076 16.0201 8.06752 16.0741C8.07256 16.1145 8.07853 16.1262 8.07981 16.1287L8.07992 16.129C8.11967 16.2085 8.14864 16.2929 8.16607 16.3801C8.25143 16.8068 8.53568 17.4258 9.13072 18.2594C10.9926 20.8171 15.1197 23.6403 19.7857 23.6403C21.8744 23.6403 24.4784 22.7503 26.5588 21.2601C28.6534 19.7597 29.9999 17.8176 29.9999 15.8202C29.9999 13.8227 28.6534 11.8806 26.5588 10.3802C24.4784 8.89007 21.8744 8 19.7857 8C15.1197 8 10.9927 10.8232 9.13073 13.3809ZM7.51078 12.2079C9.6821 9.22236 14.3736 6 19.7857 6C22.3591 6 25.3622 7.06297 27.7234 8.75434C30.0704 10.4355 31.9999 12.9035 31.9999 15.8202C31.9999 18.7368 30.0704 21.2048 27.7234 22.886C25.3622 24.5774 22.3591 25.6403 19.7857 25.6403C14.3736 25.6403 9.6821 22.418 7.51078 19.4324L7.50575 19.4255L7.50578 19.4255C6.87365 18.5405 6.41609 17.6888 6.23037 16.8899C6.05754 16.47 6.05875 16.0729 6.05941 15.8563C6.05945 15.8436 6.05949 15.8316 6.05949 15.8202C6.05949 15.8088 6.05945 15.7967 6.05941 15.784C6.05875 15.5675 6.05754 15.1703 6.23037 14.7504C6.41609 13.9516 6.87365 13.0998 7.50578 12.2149L7.51075 12.2079L7.51078 12.2079Z" />
    <path fill-rule="evenodd" clip-rule="evenodd" d="M19.4078 11.15C16.64 11.15 14.0231 12.9578 12.9134 14.5113C12.5924 14.9607 11.9679 15.0648 11.5184 14.7438C11.069 14.4228 10.9649 13.7983 11.286 13.3489C12.6963 11.3743 15.8755 9.15002 19.4078 9.15002C19.9601 9.15002 20.4078 9.59774 20.4078 10.15C20.4078 10.7023 19.9601 11.15 19.4078 11.15Z" />
    <path fill-rule="evenodd" clip-rule="evenodd" d="M23 15C23 13.8954 23.8954 13 25 13C26.1046 13 27 13.8954 27 15C27 16.1046 26.1046 17 25 17C23.8954 17 23 16.1046 23 15Z" />
</svg>
    