<svg width="33" height="32" viewBox="0 0 33 32" fill="none" xmlns="http://www.w3.org/2000/svg">
    <path fill-rule="evenodd" clip-rule="evenodd" d="M4 5C4 4.44772 4.44772 4 5 4H27C27.5523 4 28 4.44772 28 5V16C28 16.5523 27.5523 17 27 17C26.4477 17 26 16.5523 26 16V6H6V26H16C16.5523 26 17 26.4477 17 27C17 27.5523 16.5523 28 16 28H5C4.44772 28 4 27.5523 4 27V5Z" fill="#2D2E32" />
    <path fill-rule="evenodd" clip-rule="evenodd" d="M21.8094 28.3076C22.2431 27.9656 22.8718 28.04 23.2138 28.4737C23.9481 29.4051 25.0829 30 26.3571 30C28.5662 30 30.3571 28.2091 30.3571 26C30.3571 23.7909 28.5662 22 26.3571 22C25.0829 22 23.9481 22.5949 23.2138 23.5263C22.8718 23.96 22.2431 24.0344 21.8094 23.6924C21.3757 23.3505 21.3013 22.7217 21.6432 22.288C22.7403 20.8965 24.4441 20 26.3571 20C29.6708 20 32.3571 22.6863 32.3571 26C32.3571 29.3137 29.6708 32 26.3571 32C24.4441 32 22.7403 31.1035 21.6432 29.712C21.3013 29.2783 21.3757 28.6495 21.8094 28.3076Z" fill="#0277E7" />
    <path fill-rule="evenodd" clip-rule="evenodd" d="M21.4141 19.9998C21.9664 19.9998 22.4141 20.4476 22.4141 20.9998L22.4141 22.8283L24.2425 22.8283C24.7948 22.8283 25.2425 23.276 25.2425 23.8283C25.2425 24.3806 24.7948 24.8283 24.2425 24.8283L21.4141 24.8283C20.8618 24.8283 20.4141 24.3806 20.4141 23.8283L20.4141 20.9998C20.4141 20.4476 20.8618 19.9998 21.4141 19.9998Z" fill="#0277E7" />
    <path fill-rule="evenodd" clip-rule="evenodd" d="M11 1C11 0.447715 11.4477 0 12 0H20C20.5523 0 21 0.447715 21 1C21 1.55228 20.5523 2 20 2H12C11.4477 2 11 1.55228 11 1Z" fill="#2D2E32" />
    <path fill-rule="evenodd" clip-rule="evenodd" d="M11 31C11 30.4477 11.4477 30 12 30H17C17.5523 30 18 30.4477 18 31C18 31.5523 17.5523 32 17 32H12C11.4477 32 11 31.5523 11 31Z" fill="#2D2E32" />
    <path fill-rule="evenodd" clip-rule="evenodd" d="M31 11C31.5523 11 32 11.4477 32 12L32 17C32 17.5523 31.5523 18 31 18C30.4477 18 30 17.5523 30 17L30 12C30 11.4477 30.4477 11 31 11Z" fill="#2D2E32" />
    <path fill-rule="evenodd" clip-rule="evenodd" d="M1 11C1.55228 11 2 11.4477 2 12L2 20C2 20.5523 1.55228 21 1 21C0.447715 21 -4.17544e-07 20.5523 -3.93402e-07 20L-4.37114e-08 12C-1.95703e-08 11.4477 0.447715 11 1 11Z" fill="#2D2E32" />
</svg>
    