<svg width="32" height="32" viewBox="0 0 32 32" fill="none" xmlns="http://www.w3.org/2000/svg">
    <path fill-rule="evenodd" clip-rule="evenodd" d="M25.3032 5.3639C25.8367 5.50681 26.1533 6.05514 26.0104 6.58861L24.8719 10.8383L29.1216 11.9775C29.6551 12.1205 29.9716 12.6689 29.8286 13.2024C29.6856 13.7358 29.1372 14.0523 28.6038 13.9093L23.3883 12.5112C22.8549 12.3682 22.5384 11.8199 22.6813 11.2865L24.0785 6.07107C24.2214 5.53759 24.7697 5.22098 25.3032 5.3639Z" />
    <path fill-rule="evenodd" clip-rule="evenodd" d="M2.03411 18.7977C2.17711 18.2643 2.72549 17.9477 3.25894 18.0907L8.4744 19.4889C9.00779 19.6319 9.32431 20.1801 9.18141 20.7135L7.78421 25.929C7.64129 26.4625 7.09297 26.7791 6.5595 26.6362C6.02603 26.4933 5.70942 25.9449 5.85233 25.4115L6.9908 21.1618L2.74107 20.0225C2.20762 19.8795 1.8911 19.3312 2.03411 18.7977Z" />
    <path fill-rule="evenodd" clip-rule="evenodd" d="M15.9314 1C16.4837 1 16.9314 1.44772 16.9314 2V30C16.9314 30.5523 16.4837 31 15.9314 31C15.3791 31 14.9314 30.5523 14.9314 30V2C14.9314 1.44772 15.3791 1 15.9314 1Z" />
    <path fill-rule="evenodd" clip-rule="evenodd" d="M2.94128 8.49991C3.21743 8.02162 3.82902 7.85776 4.30731 8.1339L28.5553 22.1339C29.0336 22.4101 29.1975 23.0216 28.9213 23.4999C28.6452 23.9782 28.0336 24.1421 27.5553 23.8659L3.30728 9.86594C2.829 9.58979 2.66513 8.9782 2.94128 8.49991Z" />
    <path fill-rule="evenodd" clip-rule="evenodd" d="M28.9213 8.49991C29.1975 8.9782 29.0336 9.58979 28.5553 9.86594L4.30731 23.8659C3.82902 24.1421 3.21743 23.9782 2.94128 23.4999C2.66513 23.0216 2.829 22.4101 3.30728 22.1339L27.5553 8.1339C28.0336 7.85776 28.6452 8.02162 28.9213 8.49991Z" />
    <path fill-rule="evenodd" clip-rule="evenodd" d="M11.4059 2.56609C11.7965 2.17556 12.4296 2.17556 12.8201 2.56609L15.9313 5.67725L19.0425 2.56609C19.433 2.17556 20.0662 2.17556 20.4567 2.56609C20.8472 2.95661 20.8472 3.58978 20.4567 3.9803L16.6384 7.79857C16.2479 8.18909 15.6147 8.18909 15.2242 7.79857L11.4059 3.9803C11.0154 3.58978 11.0154 2.95661 11.4059 2.56609Z" />
    <path fill-rule="evenodd" clip-rule="evenodd" d="M15.2242 24.2016C15.6147 23.8111 16.2479 23.8111 16.6384 24.2016L20.4567 28.0199C20.8472 28.4104 20.8472 29.0435 20.4567 29.4341C20.0662 29.8246 19.433 29.8246 19.0425 29.4341L15.9313 26.3229L12.8201 29.4341C12.4296 29.8246 11.7965 29.8246 11.4059 29.4341C11.0154 29.0435 11.0154 28.4104 11.4059 28.0199L15.2242 24.2016Z" />
    <path fill-rule="evenodd" clip-rule="evenodd" d="M29.8286 18.7977C29.9716 19.3312 29.6551 19.8795 29.1216 20.0225L24.8719 21.1618L26.0104 25.4115C26.1533 25.9449 25.8367 26.4933 25.3032 26.6362C24.7697 26.7791 24.2214 26.4625 24.0785 25.929L22.6813 20.7135C22.5384 20.1801 22.8549 19.6319 23.3883 19.4889L28.6038 18.0907C29.1372 17.9477 29.6856 18.2643 29.8286 18.7977Z" />
    <path fill-rule="evenodd" clip-rule="evenodd" d="M6.5595 5.3639C7.09297 5.22098 7.64129 5.53759 7.78421 6.07107L9.18141 11.2865C9.32431 11.8199 9.00779 12.3682 8.4744 12.5112L3.25894 13.9093C2.72549 14.0523 2.17711 13.7358 2.03411 13.2024C1.8911 12.6689 2.20762 12.1205 2.74107 11.9775L6.9908 10.8383L5.85233 6.58861C5.70942 6.05514 6.02603 5.50681 6.5595 5.3639Z" />
</svg>
    