<svg width="32" height="32" viewBox="0 0 32 32" fill="none" xmlns="http://www.w3.org/2000/svg">
    <path fill-rule="evenodd" clip-rule="evenodd" d="M13.8165 1.04929L13.5064 2.00001C13.8165 1.04929 13.817 1.04946 13.8176 1.04965L13.8188 1.05006L13.8217 1.05102L13.8293 1.05355L13.8512 1.06102C13.8688 1.06709 13.8922 1.07537 13.9212 1.086C13.9791 1.10724 14.0592 1.13786 14.1589 1.17895C14.3581 1.26108 14.6361 1.38524 14.9713 1.56009C15.6411 1.90948 16.5436 2.46342 17.504 3.29207C18.8224 4.42969 20.24 6.07709 21.3131 8.39942C21.2799 8.1879 21.2377 7.96333 21.185 7.7251C21.0935 7.31167 21.2723 6.88544 21.6314 6.66105C21.9905 6.43665 22.452 6.46275 22.7835 6.72619L22.1614 7.50909C22.7835 6.72619 22.7832 6.72592 22.7835 6.72619L22.785 6.72738L22.7871 6.72907L22.7932 6.73396L22.8127 6.74974C22.8288 6.76291 22.8513 6.78137 22.8796 6.80503C22.9361 6.85235 23.016 6.92051 23.1157 7.00875C23.3149 7.18514 23.5935 7.44231 23.922 7.77414C24.5777 8.43653 25.4394 9.40345 26.266 10.6262C27.9132 13.0627 29.4732 16.5964 28.8665 20.7833L28.8657 20.7895L27.8769 20.6399C28.8656 20.7895 28.8656 20.7899 28.8655 20.7905L28.8653 20.7916L28.8649 20.7943L28.8637 20.8017L28.8602 20.8235C28.8572 20.8413 28.8531 20.8653 28.8476 20.8953C28.8366 20.9553 28.8202 21.0393 28.7973 21.1445C28.7514 21.3548 28.679 21.6509 28.5701 22.0115C28.3528 22.7316 27.9882 23.7159 27.3949 24.7905C26.2053 26.9448 24.0867 29.4747 20.4061 30.93C19.8925 31.133 19.3116 30.8813 19.1085 30.3677C18.9054 29.8541 19.1572 29.2731 19.6708 29.0701C22.8216 27.8243 24.6223 25.6741 25.644 23.8237C26.1564 22.8959 26.4704 22.0466 26.6554 21.4337C26.7478 21.1278 26.8074 20.8826 26.8433 20.7182C26.8612 20.636 26.8731 20.5743 26.8802 20.5354C26.8838 20.516 26.8861 20.5023 26.8874 20.4947L26.8882 20.49C27.3949 16.9777 26.0978 13.9484 24.6091 11.7463C24.2032 11.1458 23.7869 10.6129 23.3963 10.1557C23.3556 10.7287 23.2514 11.2097 23.1143 11.6104C22.9536 12.0798 22.7523 12.4244 22.572 12.6658C22.4822 12.7858 22.3987 12.8789 22.3297 12.9481C22.2952 12.9826 22.2644 13.0112 22.2383 13.0341C22.2252 13.0456 22.2134 13.0557 22.2028 13.0644L22.1879 13.0765L22.1812 13.0818L22.178 13.0843L22.1765 13.0855C22.1758 13.086 22.175 13.0866 21.5626 12.2961L22.175 13.0866C21.9041 13.2965 21.5446 13.353 21.2223 13.2364C20.9 13.1198 20.6599 12.8463 20.5861 12.5116C19.7261 8.6146 17.8399 6.2235 16.1974 4.80633C15.6069 4.29678 15.045 3.91091 14.5695 3.62638C14.4833 6.33377 13.5172 8.72743 12.5213 10.505C11.9153 11.5866 11.2868 12.4611 10.8084 13.0671C10.5687 13.3705 10.3656 13.6081 10.2202 13.7721C10.1475 13.8541 10.0891 13.9178 10.0476 13.9623C10.0269 13.9845 10.0104 14.0019 9.99847 14.0145L9.98402 14.0295L9.97944 14.0343L9.97782 14.0359C9.97755 14.0362 9.97666 14.0371 9.26061 13.3391L9.97666 14.0371C9.70088 14.32 9.2844 14.414 8.91384 14.277C8.54328 14.14 8.28811 13.7977 8.26268 13.4034C8.18538 12.205 7.88912 11.2128 7.53944 10.431C7.2479 12.1472 6.73292 13.3176 6.17821 14.4077L6.17562 14.4127C3.4934 19.6106 5.54912 25.9823 10.8489 28.6499L11.2797 28.8616L10.8392 29.7593L10.3982 30.6569L9.95446 30.4388C3.66378 27.2757 1.20306 19.6911 4.39696 13.4982C5.10343 12.1096 5.73262 10.6269 5.78402 7.54589C5.79054 7.15539 6.02379 6.80442 6.3813 6.64719C6.7388 6.48996 7.15513 6.55525 7.44735 6.81436L6.78388 7.56257C7.44735 6.81436 7.447 6.81406 7.44735 6.81436L7.44876 6.81562L7.45038 6.81707L7.45424 6.82052L7.46437 6.8297C7.47217 6.83682 7.48207 6.84596 7.49392 6.8571C7.51762 6.87938 7.54918 6.90971 7.58752 6.94807C7.66416 7.02474 7.76814 7.13371 7.89083 7.27472C8.13596 7.55645 8.45754 7.96812 8.78519 8.50779C9.17598 9.15148 9.57608 9.97865 9.86425 10.9834C10.1562 10.5638 10.4698 10.0749 10.7765 9.52749C11.8719 7.57212 12.834 4.95329 12.5128 2.11238C12.4745 1.77432 12.6108 1.44002 12.8745 1.22501C13.1381 1.01001 13.493 0.94381 13.8165 1.04929ZM10.8392 29.7593L10.3982 30.6569C10.8939 30.9004 11.4932 30.696 11.7367 30.2003C11.9802 29.7046 11.7754 29.1051 11.2797 28.8616L10.8392 29.7593ZM26.8885 20.488C26.8886 20.4876 26.8886 20.4875 26.8885 20.488V20.488Z" />
    <path fill-rule="evenodd" clip-rule="evenodd" d="M14.0816 12.1685C14.4431 11.919 14.925 11.9345 15.2696 12.2069C17.5014 13.9704 18.1852 16.2988 18.3177 18.124C18.3837 19.0345 18.3149 19.8345 18.2299 20.4076C18.1873 20.6952 18.1402 20.9287 18.1026 21.094C18.0838 21.1768 18.0674 21.2427 18.055 21.2901C18.0488 21.3138 18.0437 21.3329 18.0397 21.3471L18.0347 21.3649L18.033 21.371L18.0323 21.3733L18.032 21.3743C18.0319 21.3748 18.0318 21.3752 17.0719 21.0946L18.0318 21.3752C18.029 21.3847 18.026 21.3942 18.023 21.4036C18.023 21.4037 18.0229 21.4038 18.0229 21.4038L18.0227 21.4044C18.0227 21.4045 18.0227 21.4046 18.0226 21.4047C18.0226 21.4047 18.0226 21.4048 18.0226 21.4048C18.0226 21.4049 18.0225 21.4051 18.0225 21.4052L18.0223 21.4057L18.0173 21.4218C18.0124 21.4376 18.0048 21.4629 17.9951 21.4967C17.9757 21.5644 17.9484 21.6647 17.9195 21.7878C17.8606 22.0382 17.7993 22.3631 17.777 22.6903C17.7539 23.0303 17.7784 23.2992 17.8369 23.4749C17.8587 23.5403 17.8791 23.5782 17.8967 23.6008C17.9281 23.5818 17.9731 23.5501 18.0338 23.498C18.269 23.296 18.5391 22.9433 18.8095 22.4978C19.0712 22.0668 19.2963 21.611 19.4579 21.2567C19.5379 21.0811 19.6008 20.9341 19.6432 20.8321C19.6643 20.7812 19.6803 20.7418 19.6906 20.7159L19.7019 20.6875L19.7042 20.6815L19.7043 20.6812L19.7045 20.6809C19.8488 20.3071 20.2023 20.0556 20.6027 20.0417C21.0032 20.0278 21.3733 20.2544 21.5431 20.6175C23.1093 23.9659 22.9989 26.4788 22.3824 28.2124C22.0794 29.0646 21.6658 29.6944 21.3191 30.1176C21.1458 30.3292 20.9887 30.4899 20.8691 30.6021C20.8093 30.6582 20.7587 30.7024 20.72 30.7348C20.7006 30.7511 20.6842 30.7644 20.671 30.7749L20.6537 30.7885L20.647 30.7937L20.6441 30.7959L20.6428 30.7969C20.6421 30.7973 20.6415 30.7978 20.0386 30.0001L20.6415 30.7978C20.2009 31.1308 19.5738 31.0436 19.2408 30.603C18.91 30.1653 18.9939 29.5436 19.4269 29.2089L19.4352 29.2021C19.4468 29.1924 19.4694 29.1729 19.5006 29.1437C19.563 29.085 19.6594 28.9877 19.7718 28.8504C19.9967 28.5758 20.2839 28.1442 20.498 27.5423C20.8075 26.6719 20.9915 25.3668 20.5075 23.5548C20.2011 24.0572 19.8051 24.613 19.3369 25.0152C18.8788 25.4087 18.1143 25.8424 17.2321 25.5053C16.5145 25.2311 16.1249 24.6636 15.9395 24.1072C15.7633 23.5784 15.7504 23.0133 15.7817 22.5543C15.8138 22.0825 15.8988 21.6437 15.9726 21.3299C16.01 21.1709 16.0457 21.0392 16.0726 20.9452C16.0861 20.8982 16.0975 20.8604 16.1059 20.8331L16.1134 20.8092L16.1199 20.7847C16.1272 20.7569 16.1385 20.7118 16.1523 20.6511C16.1799 20.5295 16.2172 20.3462 16.2516 20.1144C16.3206 19.6486 16.3759 18.9995 16.3229 18.2687C16.2651 17.4719 16.0813 16.5958 15.6554 15.7509C15.3671 17.5118 14.5249 19.9262 12.41 22.8329L12.3982 22.8487C11.3896 24.1792 10.7469 25.1653 10.5571 26.1006C10.3906 26.9212 10.5515 27.8458 11.609 29.121C11.9616 29.5462 11.9027 30.1766 11.4776 30.5291C11.0525 30.8817 10.4221 30.8228 10.0695 30.3977C8.73196 28.7847 8.28055 27.2623 8.59709 25.7028C8.88976 24.2608 9.82244 22.9362 10.7984 21.6484C12.7909 18.9078 13.4831 16.7457 13.6983 15.3224C13.8064 14.6075 13.7956 14.0691 13.7633 13.7261C13.7472 13.5543 13.7255 13.4307 13.7104 13.3578C13.7028 13.3213 13.6968 13.2974 13.6939 13.2865C13.6933 13.284 13.6928 13.2823 13.6925 13.2811C13.5667 12.8656 13.7235 12.4156 14.0816 12.1685ZM17.8392 23.627C17.8394 23.6262 17.845 23.6239 17.8553 23.6226C17.8442 23.6272 17.839 23.6279 17.8392 23.627ZM17.9384 23.6343C17.9409 23.6352 17.9434 23.6361 17.946 23.6371C17.945 23.6367 17.944 23.6364 17.9429 23.636C17.9415 23.6355 17.94 23.6349 17.9384 23.6343Z" />
</svg>
    