<svg width="32" height="32" viewBox="0 0 32 32" fill="none" xmlns="http://www.w3.org/2000/svg">
    <path fill-rule="evenodd" clip-rule="evenodd" d="M19.9334 7.9411C20.1317 8.45657 19.8745 9.03516 19.359 9.23342C18.427 9.59189 17.8 10.433 17.8 11.5001C17.8 12.8478 18.9523 14.0001 20.3 14.0001C20.8005 14.0001 21.2245 13.8592 21.5856 13.6426C22.0591 13.3584 22.6734 13.512 22.9575 13.9856C23.2417 14.4592 23.0881 15.0734 22.6145 15.3576C21.9756 15.7409 21.1996 16.0001 20.3 16.0001C17.8478 16.0001 15.8 13.9524 15.8 11.5001C15.8 9.56713 16.9731 8.00826 18.6411 7.36673C19.1565 7.16847 19.7351 7.42562 19.9334 7.9411Z" />
    <path fill-rule="evenodd" clip-rule="evenodd" d="M13.8 18C13.2478 18 12.8 18.4477 12.8 19C12.8 19.5523 13.2478 20 13.8 20C14.3523 20 14.8 19.5523 14.8 19C14.8 18.4477 14.3523 18 13.8 18ZM10.8 19C10.8 17.3431 12.1432 16 13.8 16C15.4569 16 16.8 17.3431 16.8 19C16.8 20.6569 15.4569 22 13.8 22C12.1432 22 10.8 20.6569 10.8 19Z" />
    <path fill-rule="evenodd" clip-rule="evenodd" d="M4.2838 22.3992C4.50517 21.8933 5.0948 21.6625 5.60078 21.8839C8.67512 23.2289 12.2387 24.0001 15.8 24.0001C19.3612 24.0001 22.9248 23.2289 25.9991 21.8839C26.5051 21.6625 27.0948 21.8933 27.3161 22.3992C27.5375 22.9052 27.3068 23.4948 26.8008 23.7162C23.4751 25.1712 19.6387 26.0001 15.8 26.0001C11.9612 26.0001 8.1248 25.1712 4.79914 23.7162C4.29316 23.4948 4.06244 22.9052 4.2838 22.3992Z" />
    <path fill-rule="evenodd" clip-rule="evenodd" d="M15.8 1C16.1765 1 16.5211 1.21146 16.6916 1.54713L29.4916 26.7471C29.6146 26.9894 29.6338 27.2713 29.5447 27.528C29.4555 27.7847 29.2658 27.9941 29.0191 28.108C24.9907 29.9672 20.548 31 15.8 31C11.052 31 6.60925 29.9672 2.58094 28.108C2.33422 27.9941 2.14446 27.7847 2.05533 27.528C1.9662 27.2713 1.98536 26.9894 2.10842 26.7471L14.9084 1.54713C15.0789 1.21146 15.4235 1 15.8 1ZM4.36998 26.711C7.88569 28.1873 11.7191 29 15.8 29C19.881 29 23.7143 28.1873 27.23 26.711L15.8 4.20816L4.36998 26.711Z" />
</svg>
    