<svg width="32" height="32" viewBox="0 0 32 32" fill="none" xmlns="http://www.w3.org/2000/svg">
    <path fill-rule="evenodd" clip-rule="evenodd" d="M1.29263 19.2932C1.48019 19.1055 1.73465 19 2 19H30C30.2653 19 30.5198 19.1055 30.7074 19.2932C30.8949 19.4809 31.0002 19.7354 31 20.0007C30.9982 22.4246 30.0496 24.7587 28.3334 26.7036C26.6212 28.644 24.2217 30.1136 21.4687 30.9562C21.3738 30.9852 21.2752 31 21.176 31H10.824C10.7137 31 10.6076 30.9822 10.5084 30.9492C7.76496 30.1054 5.37402 28.6386 3.66658 26.7036C1.95043 24.7587 1.00181 22.4246 1 20.0007C0.999802 19.7354 1.10507 19.4809 1.29263 19.2932ZM10.976 29H21.024C23.4143 28.2437 25.4274 26.9742 26.8338 25.3803C28.0101 24.0472 28.7161 22.5417 28.9303 21H3.06974C3.28391 22.5417 3.98986 24.0472 5.16622 25.3803C6.57263 26.9742 8.58574 28.2437 10.976 29Z" />
    <path fill-rule="evenodd" clip-rule="evenodd" d="M0.133866 8.57063C0.266474 8.34095 0.484893 8.17335 0.741072 8.10471C3.04669 7.48692 5.50329 7.81034 7.57044 9.00381C9.6376 10.1973 11.146 12.1631 11.7638 14.4687L12.2814 16.4005C12.3501 16.6567 12.3141 16.9297 12.1815 17.1593C12.0489 17.389 11.8305 17.5566 11.5743 17.6253C9.26869 18.2431 6.81209 17.9196 4.74494 16.7262C2.67778 15.5327 1.16939 13.5669 0.551604 11.2613L0.0339655 9.32945C-0.0346775 9.07327 0.00125768 8.80032 0.133866 8.57063ZM2.24321 9.84706L2.48346 10.7437C2.96396 12.5369 4.13715 14.0659 5.74494 14.9941C7.06121 15.7541 8.5805 16.0604 10.0722 15.8829L9.83192 14.9863C9.35142 13.193 8.17823 11.6641 6.57044 10.7359C5.25417 9.97591 3.73488 9.66952 2.24321 9.84706Z" />
    <path fill-rule="evenodd" clip-rule="evenodd" d="M9.96097 1.03413C10.2171 0.96549 10.4901 1.00142 10.7198 1.13403C12.7869 2.32751 14.2953 4.29328 14.9131 6.59889C15.3772 8.33098 15.3101 10.1482 14.7421 11.8215C14.5645 12.3445 13.9967 12.6245 13.4737 12.447C12.9507 12.2694 12.6707 11.7016 12.8482 11.1786C13.2901 9.87705 13.3422 8.46364 12.9813 7.11653C12.5879 5.64841 11.7302 4.35746 10.5499 3.42824L10.0858 4.23211C9.64988 4.98716 9.36322 5.80893 9.2315 6.65406C9.14645 7.19975 8.63513 7.57318 8.08943 7.48813C7.54373 7.40308 7.17031 6.89176 7.25536 6.34606C7.4247 5.25954 7.7933 4.20285 8.35376 3.23211L9.35376 1.50006C9.48637 1.27037 9.70479 1.10278 9.96097 1.03413Z" />
    <path fill-rule="evenodd" clip-rule="evenodd" d="M16.9201 4.98935C17.0689 4.45749 17.6207 4.14697 18.1525 4.29579C19.8363 4.76692 21.3145 5.77514 22.3664 7.15953C23.7912 7.24384 25.6441 7.76458 27.1834 9.10017C28.9714 10.6516 30.2127 13.1947 29.9982 17.0555C29.9676 17.6069 29.4958 18.0291 28.9443 17.9985C28.3929 17.9678 27.9707 17.496 28.0013 16.9445C28.1868 13.6053 27.1255 11.6978 25.8727 10.6108C24.5759 9.48568 22.9434 9.12687 21.8611 9.14779C21.5181 9.15441 21.1956 8.98472 21.0068 8.69825C20.2111 7.49086 19.0061 6.61144 17.6136 6.22181C17.0818 6.073 16.7712 5.52121 16.9201 4.98935Z" />
</svg>
    