<svg width="32" height="32" viewBox="0 0 32 32" fill="none" xmlns="http://www.w3.org/2000/svg">
    <path fill-rule="evenodd" clip-rule="evenodd" d="M1.29263 19.2932C1.48019 19.1055 1.73465 19 2 19H30C30.2653 19 30.5198 19.1055 30.7074 19.2932C30.8949 19.4809 31.0002 19.7354 31 20.0007C30.9982 22.4246 30.0496 24.7587 28.3334 26.7036C26.6212 28.644 24.2217 30.1136 21.4687 30.9562C21.3738 30.9852 21.2752 31 21.176 31H10.824C10.7137 31 10.6076 30.9822 10.5084 30.9492C7.76496 30.1054 5.37402 28.6386 3.66658 26.7036C1.95043 24.7587 1.00181 22.4246 1 20.0007C0.999802 19.7354 1.10507 19.4809 1.29263 19.2932ZM10.976 29H21.024C23.4143 28.2437 25.4274 26.9742 26.8338 25.3803C28.0101 24.0472 28.7161 22.5417 28.9303 21H3.06974C3.28391 22.5417 3.98986 24.0472 5.16622 25.3803C6.57263 26.9742 8.58574 28.2437 10.976 29Z" fill="#2D2E32" />
    <path fill-rule="evenodd" clip-rule="evenodd" d="M16.6805 3.26553C17.0862 2.89073 17.7189 2.91573 18.0937 3.32137L17.3731 3.98716C18.0937 3.32137 18.0941 3.32185 18.0946 3.32234L18.0955 3.32337L18.0976 3.32562L18.1023 3.33079L18.114 3.34391C18.1228 3.35388 18.1336 3.36631 18.1462 3.38115C18.1713 3.41081 18.2034 3.45024 18.2407 3.49903C18.3151 3.59638 18.411 3.73257 18.512 3.90434C18.7128 4.24587 18.9423 4.74265 19.0531 5.36431C19.2851 6.66569 18.9611 8.31022 17.2919 10.0073C16.1051 11.3048 15.9988 12.3565 16.2029 13.1236C16.4273 13.9673 17.0899 14.7 17.8075 15.156C18.2737 15.4523 18.4114 16.0703 18.1151 16.5364C17.8189 17.0025 17.2009 17.1402 16.7348 16.844C15.7359 16.2091 14.6613 15.1085 14.2701 13.6377C13.8592 12.0929 14.2577 10.3534 15.8306 8.6416C15.8387 8.63274 15.847 8.62402 15.8555 8.61546C17.1227 7.3325 17.1925 6.32326 17.0842 5.71524C17.0245 5.38047 16.8993 5.10736 16.788 4.91811C16.7329 4.8245 16.6834 4.75507 16.6514 4.71316C16.6355 4.69232 16.6242 4.67871 16.6192 4.67272C16.6183 4.67174 16.6177 4.67097 16.6172 4.67041C16.2503 4.26449 16.2776 3.63781 16.6805 3.26553Z" fill="#2D2E32" />
    <path fill-rule="evenodd" clip-rule="evenodd" d="M23.5609 3.26553C23.9666 2.89073 24.5992 2.91573 24.974 3.32137L24.2535 3.98716C24.974 3.32137 24.9745 3.32185 24.9749 3.32234L24.9759 3.32337L24.9779 3.32562L24.9826 3.33079L24.9944 3.34391C25.0032 3.35388 25.014 3.36631 25.0266 3.38115C25.0517 3.41081 25.0838 3.45024 25.1211 3.49903C25.1955 3.59638 25.2914 3.73257 25.3924 3.90434C25.5932 4.24587 25.8227 4.74265 25.9335 5.36431C26.1654 6.66569 25.8415 8.31022 24.1722 10.0073C22.9855 11.3048 22.8792 12.3565 23.0832 13.1236C23.3076 13.9673 23.9703 14.7 24.6879 15.156C25.154 15.4523 25.2917 16.0703 24.9955 16.5364C24.6993 17.0025 24.0813 17.1402 23.6151 16.844C22.6163 16.2091 21.5416 15.1085 21.1504 13.6377C20.7395 12.0929 21.1381 10.3534 22.711 8.6416C22.7191 8.63274 22.7274 8.62402 22.7359 8.61546C24.0031 7.3325 24.0729 6.32326 23.9645 5.71524C23.9049 5.38047 23.7796 5.10736 23.6683 4.91811C23.6133 4.8245 23.5638 4.75507 23.5318 4.71316C23.5159 4.69232 23.5046 4.67871 23.4995 4.67272C23.4987 4.67174 23.498 4.67097 23.4976 4.67041C23.1306 4.26449 23.158 3.63781 23.5609 3.26553Z" fill="#2D2E32" />
    <path fill-rule="evenodd" clip-rule="evenodd" d="M9.56092 3.26553C9.96656 2.89073 10.5992 2.91573 10.974 3.32137L10.2535 3.98716C10.974 3.32137 10.9745 3.32185 10.9749 3.32234L10.9759 3.32337L10.9779 3.32562L10.9826 3.33079L10.9944 3.34391C11.0032 3.35388 11.014 3.36631 11.0266 3.38115C11.0517 3.41081 11.0838 3.45024 11.1211 3.49903C11.1955 3.59638 11.2914 3.73257 11.3924 3.90434C11.5932 4.24587 11.8227 4.74265 11.9335 5.36431C12.1654 6.66569 11.8415 8.31022 10.1722 10.0073C8.98548 11.3048 8.87921 12.3565 9.08324 13.1236C9.30763 13.9673 9.97032 14.7 10.6879 15.156C11.154 15.4523 11.2917 16.0703 10.9955 16.5364C10.6993 17.0025 10.0813 17.1402 9.61515 16.844C8.61626 16.2091 7.54164 15.1085 7.15044 13.6377C6.73955 12.0929 7.13808 10.3534 8.71098 8.6416C8.71912 8.63274 8.72742 8.62402 8.73587 8.61546C10.0031 7.3325 10.0729 6.32326 9.96453 5.71524C9.90486 5.38047 9.77963 5.10736 9.66835 4.91811C9.6133 4.8245 9.5638 4.75507 9.53178 4.71316C9.51587 4.69232 9.50459 4.67871 9.49953 4.67272C9.4987 4.67174 9.49804 4.67097 9.49756 4.67041C9.13064 4.26449 9.15801 3.63781 9.56092 3.26553Z" fill="#2D2E32" />
</svg>
    