<svg width="32" height="32" viewBox="0 0 32 32" fill="none" xmlns="http://www.w3.org/2000/svg">
    <path fill-rule="evenodd" clip-rule="evenodd" d="M0.333252 30.6666C0.333252 30.1143 0.780967 29.6666 1.33325 29.6666H30.3999C30.9522 29.6666 31.3999 30.1143 31.3999 30.6666C31.3999 31.2189 30.9522 31.6666 30.3999 31.6666H1.33325C0.780967 31.6666 0.333252 31.2189 0.333252 30.6666Z" fill="#2D2E32" />
    <path fill-rule="evenodd" clip-rule="evenodd" d="M15.9999 13C15.0794 13 14.3333 13.7462 14.3333 14.6666C14.3333 15.5871 15.0794 16.3333 15.9999 16.3333C16.9204 16.3333 17.6666 15.5871 17.6666 14.6666C17.6666 13.7462 16.9204 13 15.9999 13ZM12.3333 14.6666C12.3333 12.6416 13.9749 11 15.9999 11C18.025 11 19.6666 12.6416 19.6666 14.6666C19.6666 16.6917 18.025 18.3333 15.9999 18.3333C13.9749 18.3333 12.3333 16.6917 12.3333 14.6666Z" fill="#2D2E32" />
    <path fill-rule="evenodd" clip-rule="evenodd" d="M15.9998 18.3333C14.8803 18.3333 13.7955 18.4844 12.7641 18.7668C12.2314 18.9127 11.6814 18.5991 11.5355 18.0664C11.3896 17.5337 11.7032 16.9837 12.2359 16.8378C13.4372 16.5089 14.6996 16.3333 15.9998 16.3333C17.3001 16.3333 18.5625 16.5089 19.7638 16.8378C20.2964 16.9837 20.61 17.5337 20.4642 18.0664C20.3183 18.5991 19.7682 18.9127 19.2356 18.7668C18.2042 18.4844 17.1194 18.3333 15.9998 18.3333ZM4.36623 24.0962C4.86541 24.3325 5.0785 24.9287 4.84219 25.4279C4.08857 27.0198 3.6665 28.7955 3.6665 30.6666C3.6665 31.2189 3.21879 31.6666 2.6665 31.6666C2.11422 31.6666 1.6665 31.2189 1.6665 30.6666C1.6665 28.4917 2.15766 26.4244 3.03452 24.5721C3.27083 24.0729 3.86706 23.8599 4.36623 24.0962ZM27.6334 24.0962C28.1326 23.8599 28.7288 24.0729 28.9652 24.5721C29.842 26.4244 30.3332 28.4917 30.3332 30.6666C30.3332 31.2189 29.8855 31.6666 29.3332 31.6666C28.7809 31.6666 28.3332 31.2189 28.3332 30.6666C28.3332 28.7955 27.9111 27.0198 27.1575 25.4279C26.9212 24.9287 27.1343 24.3325 27.6334 24.0962Z" fill="#2D2E32" />
    <path fill-rule="evenodd" clip-rule="evenodd" d="M10.6066 10.1071C8.18046 12.5332 8.18046 16.4668 10.6066 18.8929C10.9971 19.2834 10.9971 19.9166 10.6066 20.3071C10.2161 20.6976 9.58291 20.6976 9.19239 20.3071C5.9852 17.0999 5.9852 11.9001 9.19239 8.69289C9.58291 8.30237 10.2161 8.30237 10.6066 8.69289C10.9971 9.08342 10.9971 9.71658 10.6066 10.1071Z" fill="#2D2E32" />
    <path fill-rule="evenodd" clip-rule="evenodd" d="M21.3928 8.69289C21.7834 8.30237 22.4165 8.30237 22.807 8.69289C26.0142 11.9001 26.0142 17.0999 22.807 20.3071C22.4165 20.6976 21.7834 20.6976 21.3928 20.3071C21.0023 19.9166 21.0023 19.2834 21.3928 18.8929C23.819 16.4668 23.819 12.5332 21.3928 10.1071C21.0023 9.71658 21.0023 9.08342 21.3928 8.69289Z" fill="#2D2E32" />
    <path fill-rule="evenodd" clip-rule="evenodd" d="M24.7926 23.7071C24.4021 23.3166 24.4021 22.6834 24.7926 22.2929C29.0966 17.989 29.0966 11.011 24.7926 6.70711C24.4021 6.31659 24.4021 5.68342 24.7926 5.2929C25.1832 4.90238 25.8163 4.90238 26.2069 5.2929C31.2918 10.3778 31.2918 18.6222 26.2069 23.7071C25.8163 24.0976 25.1832 24.0976 24.7926 23.7071Z" fill="#2D2E32" />
    <path fill-rule="evenodd" clip-rule="evenodd" d="M7.20711 23.7071C6.81658 24.0976 6.18342 24.0976 5.79289 23.7071C0.707921 18.6222 0.707922 10.3778 5.79289 5.2929C6.18342 4.90238 6.81658 4.90238 7.20711 5.2929C7.59763 5.68342 7.59763 6.31659 7.20711 6.70711C2.90319 11.011 2.90319 17.989 7.20711 22.2929C7.59763 22.6834 7.59763 23.3166 7.20711 23.7071Z" fill="#2D2E32" />
</svg>
    