<svg width="32" height="32" viewBox="0 0 32 32" fill="none" xmlns="http://www.w3.org/2000/svg">
    <path fill-rule="evenodd" clip-rule="evenodd" d="M5 27C5.55228 27 6 27.4477 6 28V31C6 31.5523 5.55228 32 5 32C4.44772 32 4 31.5523 4 31V28C4 27.4477 4.44772 27 5 27Z" />
    <path fill-rule="evenodd" clip-rule="evenodd" d="M1.31802 14.318C2.16193 13.4741 3.30653 13 4.5 13C5.69347 13 6.83807 13.4741 7.68198 14.318C8.52589 15.1619 9 16.3065 9 17.5V20H16C16.5523 20 17 20.4477 17 21C17 21.5523 16.5523 22 16 22H8C7.44772 22 7 21.5523 7 21V17.5C7 16.837 6.73661 16.2011 6.26777 15.7322C5.79893 15.2634 5.16304 15 4.5 15C3.83696 15 3.20107 15.2634 2.73223 15.7322C2.26339 16.2011 2 16.837 2 17.5V27H14C14.5523 27 15 27.4477 15 28C15 28.5523 14.5523 29 14 29H1C0.447715 29 0 28.5523 0 28V17.5C0 16.3065 0.474106 15.1619 1.31802 14.318ZM24.318 14.318C25.1619 13.4741 26.3065 13 27.5 13C28.6935 13 29.8381 13.4741 30.682 14.318C31.5259 15.1619 32 16.3065 32 17.5V19.75C32 20.3023 31.5523 20.75 31 20.75C30.4477 20.75 30 20.3023 30 19.75V17.5C30 16.837 29.7366 16.2011 29.2678 15.7322C28.7989 15.2634 28.163 15 27.5 15C26.837 15 26.2011 15.2634 25.7322 15.7322C25.2634 16.2011 25 16.837 25 17.5C25 18.0523 24.5523 18.5 24 18.5C23.4477 18.5 23 18.0523 23 17.5C23 16.3065 23.4741 15.1619 24.318 14.318Z" />
    <path fill-rule="evenodd" clip-rule="evenodd" d="M5.17157 1.17157C5.92172 0.421427 6.93913 0 8 0H24C25.0609 0 26.0783 0.421427 26.8284 1.17157C27.5786 1.92172 28 2.93913 28 4V10C28 10.5523 27.5523 11 27 11C26.4477 11 26 10.5523 26 10V4C26 3.46957 25.7893 2.96086 25.4142 2.58579C25.0391 2.21071 24.5304 2 24 2H8C7.46957 2 6.96086 2.21071 6.58579 2.58579C6.21071 2.96086 6 3.46957 6 4V10C6 10.5523 5.55228 11 5 11C4.44772 11 4 10.5523 4 10V4C4 2.93913 4.42143 1.92172 5.17157 1.17157Z" />
    <path fill-rule="evenodd" clip-rule="evenodd" d="M21.9819 24.1896C21.0974 24.8855 20.4188 25.7309 20.0201 26.2954L19.2033 25.7185L20.0227 26.2916C20.0079 26.3128 20 26.338 20 26.3638C20 26.3892 20.0077 26.414 20.022 26.4349C20.421 26.9994 21.0988 27.8432 21.9819 28.5379C22.8685 29.2354 23.8903 29.7275 25 29.7275C26.1097 29.7275 27.1315 29.2354 28.0181 28.5379C28.9026 27.842 29.5812 26.9966 29.9799 26.4321L30.7967 27.0091L29.9773 26.4359C29.9921 26.4148 30 26.3896 30 26.3638C30 26.3384 29.9923 26.3136 29.978 26.2926C29.579 25.7281 28.9012 24.8844 28.0181 24.1896C27.1315 23.4921 26.1097 23 25 23C23.8903 23 22.8685 23.4921 21.9819 24.1896ZM20.7453 22.6178C21.836 21.7597 23.2837 21 25 21C26.7163 21 28.164 21.7597 29.2547 22.6178C30.3475 23.4774 31.1542 24.4913 31.6135 25.1415L31.6162 25.1453L31.6162 25.1453C31.866 25.5025 32 25.9279 32 26.3638C32 26.7997 31.866 27.225 31.6162 27.5822L31.6135 27.586C31.1542 28.2363 30.3475 29.2501 29.2547 30.1098C28.164 30.9678 26.7163 31.7275 25 31.7275C23.2837 31.7275 21.836 30.9678 20.7453 30.1098C19.6525 29.2501 18.8458 28.2363 18.3865 27.586L18.3838 27.5822L18.3838 27.5822C18.134 27.225 18 26.7997 18 26.3638C18 25.9279 18.134 25.5025 18.3838 25.1453L18.3865 25.1415L18.3865 25.1415C18.8458 24.4913 19.6525 23.4774 20.7453 22.6178Z" />
    <path fill-rule="evenodd" clip-rule="evenodd" d="M25 26C24.7239 26 24.5 26.2239 24.5 26.5C24.5 26.7761 24.7239 27 25 27C25.2761 27 25.5 26.7761 25.5 26.5C25.5 26.2239 25.2761 26 25 26ZM22.5 26.5C22.5 25.1193 23.6193 24 25 24C26.3807 24 27.5 25.1193 27.5 26.5C27.5 27.8807 26.3807 29 25 29C23.6193 29 22.5 27.8807 22.5 26.5Z" />
</svg>
    