<svg width="32" height="32" viewBox="0 0 32 32" fill="none" xmlns="http://www.w3.org/2000/svg">
    <path fill-rule="evenodd" clip-rule="evenodd" d="M2.24227 8.34744C2.43223 8.12686 2.70889 8 3.00001 8H25C25.2899 8 25.5655 8.1258 25.7555 8.3448C25.9454 8.5638 26.031 8.85444 25.99 9.14142L24.99 16.1414C24.9119 16.6882 24.4053 17.0681 23.8586 16.99C23.3119 16.9118 22.932 16.4053 23.0101 15.8586L23.847 10H4.16119L6.86119 28H16C16.5523 28 17 28.4477 17 29C17 29.5523 16.5523 30 16 30H6.00001C5.50501 30 5.0845 29.6379 5.01107 29.1483L2.01107 9.14834C1.96789 8.86045 2.0523 8.56803 2.24227 8.34744Z" fill="#2D2E32" />
    <path fill-rule="evenodd" clip-rule="evenodd" d="M14 0C14.5523 0 15 0.447715 15 1V9C15 9.55229 14.5523 10 14 10C13.4477 10 13 9.55229 13 9V1C13 0.447715 13.4477 0 14 0Z" fill="#2D2E32" />
    <path fill-rule="evenodd" clip-rule="evenodd" d="M19.1415 1.01006C19.6883 1.08816 20.0682 1.59469 19.9901 2.14143L18.9901 9.14143C18.912 9.68816 18.4054 10.0681 17.8587 9.98995C17.312 9.91185 16.9321 9.40532 17.0102 8.85858L18.0102 1.85858C18.0883 1.31185 18.5948 0.931951 19.1415 1.01006Z" fill="#2D2E32" />
    <path fill-rule="evenodd" clip-rule="evenodd" d="M24.3714 3.07153C24.8842 3.27664 25.1336 3.85861 24.9285 4.3714L22.9285 9.3714C22.7234 9.88418 22.1414 10.1336 21.6286 9.92848C21.1158 9.72337 20.8664 9.1414 21.0715 8.62862L23.0715 3.62862C23.2767 3.11583 23.8586 2.86642 24.3714 3.07153Z" fill="#2D2E32" />
    <path fill-rule="evenodd" clip-rule="evenodd" d="M8.85871 1.01006C9.40544 0.931951 9.91197 1.31185 9.99008 1.85858L10.9901 8.85858C11.0682 9.40532 10.6883 9.91185 10.1415 9.98995C9.59481 10.0681 9.08828 9.68816 9.01018 9.14143L8.01018 2.14143C7.93207 1.59469 8.31197 1.08816 8.85871 1.01006Z" fill="#2D2E32" />
    <path fill-rule="evenodd" clip-rule="evenodd" d="M3.62863 3.07153C4.14141 2.86642 4.72339 3.11583 4.9285 3.62862L6.9285 8.62862C7.13361 9.1414 6.8842 9.72337 6.37141 9.92848C5.85863 10.1336 5.27666 9.88418 5.07155 9.3714L3.07155 4.3714C2.86643 3.85861 3.11585 3.27664 3.62863 3.07153Z" fill="#2D2E32" />
    <path fill-rule="evenodd" clip-rule="evenodd" d="M25 20C22.2386 20 20 22.2386 20 25C20 27.7614 22.2386 30 25 30C27.7614 30 30 27.7614 30 25C30 22.2386 27.7614 20 25 20ZM18 25C18 21.134 21.134 18 25 18C28.866 18 32 21.134 32 25C32 28.866 28.866 32 25 32C21.134 32 18 28.866 18 25Z" fill="#2D2E32" />
    <path fill-rule="evenodd" clip-rule="evenodd" d="M25 21.4286C25.5523 21.4286 26 21.8763 26 22.4286V24H27.5714C28.1237 24 28.5714 24.4477 28.5714 25C28.5714 25.5523 28.1237 26 27.5714 26H25C24.4477 26 24 25.5523 24 25V22.4286C24 21.8763 24.4477 21.4286 25 21.4286Z" fill="#2D2E32" />
    <path fill-rule="evenodd" clip-rule="evenodd" d="M25 28.5714C24.4477 28.5714 24 28.1237 24 27.5714L24 26L22.4286 26C21.8763 26 21.4286 25.5523 21.4286 25C21.4286 24.4477 21.8763 24 22.4286 24L25 24C25.5523 24 26 24.4477 26 25L26 27.5714C26 28.1237 25.5523 28.5714 25 28.5714Z" fill="#2D2E32" />
</svg>
    