<svg width="32" height="32" viewBox="0 0 32 32" fill="none" xmlns="http://www.w3.org/2000/svg">
    <path fill-rule="evenodd" clip-rule="evenodd" d="M11.603 0.380175C11.8806 0.731706 11.8906 1.22497 11.6274 1.58745C10.0053 3.82167 9.09091 6.54304 9.09091 9.46684C9.09091 17.5507 15.9116 24.1463 24.4545 24.1463C26.7366 24.1463 28.783 23.7492 30.6082 22.9719C31.0174 22.7976 31.4924 22.9145 31.774 23.2588C32.0556 23.603 32.076 24.0918 31.8241 24.4583C28.6963 29.0094 23.373 31.9999 17.3636 31.9999C7.79749 31.9999 0 24.5886 0 15.3205C0 8.5075 4.31059 2.62291 10.4342 0.076588C10.8478 -0.095395 11.3254 0.028643 11.603 0.380175ZM8.25702 3.54357C4.45102 6.2169 2 10.5263 2 15.3205C2 23.4044 8.82069 29.9999 17.3636 29.9999C21.4944 29.9999 25.2517 28.4095 28.0202 25.826C26.8813 26.0402 25.6921 26.1463 24.4545 26.1463C14.8884 26.1463 7.09091 18.7349 7.09091 9.46684C7.09091 7.3811 7.49812 5.37908 8.25702 3.54357Z" />
    <path fill-rule="evenodd" clip-rule="evenodd" d="M15.5 6C16.0523 6 16.5 6.44772 16.5 7V12C16.5 12.5523 16.0523 13 15.5 13C14.9477 13 14.5 12.5523 14.5 12V7C14.5 6.44772 14.9477 6 15.5 6Z" />
    <path fill-rule="evenodd" clip-rule="evenodd" d="M19 9.5C19 10.0523 18.5523 10.5 18 10.5L13 10.5C12.4477 10.5 12 10.0523 12 9.5C12 8.94771 12.4477 8.5 13 8.5L18 8.5C18.5523 8.5 19 8.94772 19 9.5Z" />
    <path fill-rule="evenodd" clip-rule="evenodd" d="M25.8989 9.89893C26.4512 9.89893 26.8989 10.3466 26.8989 10.8989V18.8989C26.8989 19.4512 26.4512 19.8989 25.8989 19.8989C25.3466 19.8989 24.8989 19.4512 24.8989 18.8989V10.8989C24.8989 10.3466 25.3466 9.89893 25.8989 9.89893Z" />
    <path fill-rule="evenodd" clip-rule="evenodd" d="M30.8989 14.8989C30.8989 15.4512 30.4512 15.8989 29.8989 15.8989L21.8989 15.8989C21.3466 15.8989 20.8989 15.4512 20.8989 14.8989C20.8989 14.3466 21.3466 13.8989 21.8989 13.8989L29.8989 13.8989C30.4512 13.8989 30.8989 14.3466 30.8989 14.8989Z" />
</svg>
    