<svg width="32" height="32" viewBox="0 0 32 32" fill="none" xmlns="http://www.w3.org/2000/svg">
    <path fill-rule="evenodd" clip-rule="evenodd" d="M0.333252 22C0.333252 21.4477 0.780967 21 1.33325 21H10.6666C11.2189 21 11.6666 21.4477 11.6666 22C11.6666 22.5523 11.2189 23 10.6666 23H1.33325C0.780967 23 0.333252 22.5523 0.333252 22ZM22 22C22 21.4477 22.4477 21 23 21H30.3999C30.9522 21 31.3999 21.4477 31.3999 22C31.3999 22.5523 30.9522 23 30.3999 23H23C22.4477 23 22 22.5523 22 22Z" />
    <path fill-rule="evenodd" clip-rule="evenodd" d="M15.9999 4C15.0794 4 14.3333 4.74619 14.3333 5.66667C14.3333 6.58714 15.0794 7.33333 15.9999 7.33333C16.9204 7.33333 17.6666 6.58714 17.6666 5.66667C17.6666 4.74619 16.9204 4 15.9999 4ZM12.3333 5.66667C12.3333 3.64162 13.9749 2 15.9999 2C18.025 2 19.6666 3.64162 19.6666 5.66667C19.6666 7.69171 18.025 9.33333 15.9999 9.33333C13.9749 9.33333 12.3333 7.69171 12.3333 5.66667Z" />
    <path fill-rule="evenodd" clip-rule="evenodd" d="M15.9998 9.33337C9.21879 9.33337 3.6665 14.8857 3.6665 21.6667C3.6665 22.219 3.21879 22.6667 2.6665 22.6667C2.11422 22.6667 1.6665 22.219 1.6665 21.6667C1.6665 13.7811 8.11422 7.33337 15.9998 7.33337C23.8855 7.33337 30.3332 13.7811 30.3332 21.6667C30.3332 22.219 29.8855 22.6667 29.3332 22.6667C28.7809 22.6667 28.3332 22.219 28.3332 21.6667C28.3332 14.8857 22.7809 9.33337 15.9998 9.33337Z" />
    <path fill-rule="evenodd" clip-rule="evenodd" d="M19.7071 24.7071C20.0976 24.3166 20.0976 23.6834 19.7071 23.2929L14.7071 18.2929C14.3166 17.9024 13.6834 17.9024 13.2929 18.2929C12.9024 18.6834 12.9024 19.3166 13.2929 19.7071L17.5858 24L13.2929 28.2929C12.9024 28.6834 12.9024 29.3166 13.2929 29.7071C13.6834 30.0976 14.3166 30.0976 14.7071 29.7071L19.7071 24.7071Z" />
</svg>
    