<svg width="32" height="32" viewBox="0 0 32 32" fill="none" xmlns="http://www.w3.org/2000/svg">
    <path fill-rule="evenodd" clip-rule="evenodd" d="M2 3C2 2.44772 2.44772 2 3 2H5.75C6.30228 2 6.75 2.44772 6.75 3C6.75 3.55228 6.30228 4 5.75 4H4V5.75C4 6.30228 3.55228 6.75 3 6.75C2.44772 6.75 2 6.30228 2 5.75V3ZM10.25 3C10.25 2.44772 10.6977 2 11.25 2H16.75C17.3023 2 17.75 2.44772 17.75 3C17.75 3.55228 17.3023 4 16.75 4H11.25C10.6977 4 10.25 3.55228 10.25 3ZM21.25 3C21.25 2.44772 21.6977 2 22.25 2H25C25.5523 2 26 2.44772 26 3V3.5C26 3.68215 25.9513 3.85292 25.8662 4C25.9513 4.14709 26 4.31785 26 4.5V5C26 5.55228 25.5523 6 25 6C24.4477 6 24 5.55228 24 5V4.5C24 4.31786 24.0487 4.14709 24.1338 4H22.25C21.6977 4 21.25 3.55228 21.25 3ZM3 10.25C3.55228 10.25 4 10.6977 4 11.25V16.75C4 17.3023 3.55228 17.75 3 17.75C2.44772 17.75 2 17.3023 2 16.75V11.25C2 10.6977 2.44772 10.25 3 10.25ZM3 21.25C3.55228 21.25 4 21.6977 4 22.25V24.1338C4.14709 24.0487 4.31786 24 4.5 24H5C5.55228 24 6 24.4477 6 25C6 25.5523 5.55228 26 5 26H4.5C4.31785 26 4.14708 25.9513 4 25.8662C3.85291 25.9513 3.68215 26 3.5 26H3C2.44772 26 2 25.5523 2 25V22.25C2 21.6977 2.44772 21.25 3 21.25Z" />
    <path fill-rule="evenodd" clip-rule="evenodd" d="M8 9C8 8.44772 8.44772 8 9 8H29C29.5523 8 30 8.44772 30 9V29C30 29.5523 29.5523 30 29 30H9C8.44772 30 8 29.5523 8 29V9ZM10 10V28H28V10H10Z" />
    <path fill-rule="evenodd" clip-rule="evenodd" d="M16.5251 16.0606C16.9156 15.6701 17.5488 15.6701 17.9393 16.0606L22.889 21.0104C23.2796 21.4009 23.2796 22.0341 22.889 22.4246C22.4985 22.8151 21.8653 22.8151 21.4748 22.4246L16.5251 17.4748C16.1345 17.0843 16.1345 16.4511 16.5251 16.0606Z" />
    <path fill-rule="evenodd" clip-rule="evenodd" d="M22.3343 17.3004C22.8862 17.3195 23.3182 17.7823 23.2992 18.3343L23.1814 21.752C23.1632 22.2772 22.7417 22.6988 22.2164 22.7169L18.7987 22.8348C18.2468 22.8538 17.7839 22.4218 17.7649 21.8698C17.7458 21.3179 18.1779 20.855 18.7298 20.836L21.2147 20.7503L21.3004 18.2654C21.3194 17.7134 21.7823 17.2814 22.3343 17.3004Z" />
</svg>
    