<svg width="32" height="32" viewBox="0 0 32 32" fill="none" xmlns="http://www.w3.org/2000/svg">
    <path fill-rule="evenodd" clip-rule="evenodd" d="M14 16C14 17.1046 14.8954 18 16 18C17.1046 18 18 17.1046 18 16C18 14.8954 17.1046 14 16 14C14.8954 14 14 14.8954 14 16ZM16 20C13.7909 20 12 18.2091 12 16C12 13.7909 13.7909 12 16 12C18.2091 12 20 13.7909 20 16C20 18.2091 18.2091 20 16 20Z" fill="#2D2E32" />
    <path fill-rule="evenodd" clip-rule="evenodd" d="M10.3432 10.3431C7.219 13.4673 7.219 18.5327 10.3432 21.6569C10.7337 22.0474 10.7337 22.6805 10.3432 23.0711C9.95267 23.4616 9.3195 23.4616 8.92898 23.0711C5.02373 19.1658 5.02373 12.8342 8.92898 8.92893C9.3195 8.53841 9.95267 8.53841 10.3432 8.92893C10.7337 9.31946 10.7337 9.95262 10.3432 10.3431ZM21.6569 8.92893C22.0474 8.53841 22.6806 8.53841 23.0711 8.92893C26.9764 12.8342 26.9764 19.1658 23.0711 23.0711C22.6806 23.4616 22.0474 23.4616 21.6569 23.0711C21.2664 22.6805 21.2664 22.0474 21.6569 21.6569C24.7811 18.5327 24.7811 13.4673 21.6569 10.3431C21.2664 9.95262 21.2664 9.31946 21.6569 8.92893Z" fill="#2D2E32" />
    <path fill-rule="evenodd" clip-rule="evenodd" d="M6.10051 27.3139C5.70998 27.7044 5.07682 27.7044 4.68629 27.3139C-1.5621 21.0655 -1.5621 10.9348 4.68629 4.68644C5.07682 4.29591 5.70998 4.29591 6.10051 4.68644C6.49103 5.07696 6.49103 5.71013 6.10051 6.10065C0.633165 11.568 0.633165 20.4323 6.10051 25.8996C6.49103 26.2902 6.49103 26.9233 6.10051 27.3139ZM25.8995 27.3139C25.509 26.9233 25.509 26.2902 25.8995 25.8996C31.3668 20.4323 31.3668 11.568 25.8995 6.10065C25.509 5.71013 25.509 5.07696 25.8995 4.68644C26.29 4.29591 26.9232 4.29591 27.3137 4.68644C33.5621 10.9348 33.5621 21.0655 27.3137 27.3139C26.9232 27.7044 26.29 27.7044 25.8995 27.3139Z" fill="#2D2E32" />
</svg>
    