<svg width="32" height="32" viewBox="0 0 32 32" fill="none" xmlns="http://www.w3.org/2000/svg">
    <path fill-rule="evenodd" clip-rule="evenodd" d="M14 16C14 17.1046 14.8954 18 16 18C17.1046 18 18 17.1046 18 16C18 14.8954 17.1046 14 16 14C14.8954 14 14 14.8954 14 16ZM16 20C13.7909 20 12 18.2091 12 16C12 13.7909 13.7909 12 16 12C18.2091 12 20 13.7909 20 16C20 18.2091 18.2091 20 16 20Z" />
    <path fill-rule="evenodd" clip-rule="evenodd" d="M4 19C4 20.1046 4.89543 21 6 21C7.10457 21 8 20.1046 8 19C8 17.8954 7.10457 17 6 17C4.89543 17 4 17.8954 4 19ZM6 23C3.79086 23 2 21.2091 2 19C2 16.7909 3.79086 15 6 15C8.20914 15 10 16.7909 10 19C10 21.2091 8.20914 23 6 23Z" />
    <path fill-rule="evenodd" clip-rule="evenodd" d="M24 13C24 14.1046 24.8954 15 26 15C27.1046 15 28 14.1046 28 13C28 11.8954 27.1046 11 26 11C24.8954 11 24 11.8954 24 13ZM26 17C23.7909 17 22 15.2091 22 13C22 10.7909 23.7909 9 26 9C28.2091 9 30 10.7909 30 13C30 15.2091 28.2091 17 26 17Z" />
</svg>
    