<svg width="32" height="32" viewBox="0 0 32 32" fill="none" xmlns="http://www.w3.org/2000/svg">
    <path fill-rule="evenodd" clip-rule="evenodd" d="M2 1C2 0.447715 2.44772 0 3 0H25C25.5523 0 26 0.447715 26 1V31C26 31.5523 25.5523 32 25 32H3C2.44772 32 2 31.5523 2 31V1ZM4 2V30H24V2H4Z" />
    <path fill-rule="evenodd" clip-rule="evenodd" d="M14.472 11.1183C14.7971 11.2923 15.0001 11.6312 15.0001 12V18.5C15.0001 18.5 15.0001 18.5 15.0001 18.5001C15.0003 18.5025 15.0024 18.5375 15.0221 18.5893C15.0411 18.6393 15.0723 18.6938 15.1215 18.745C15.2004 18.8272 15.4216 19 16.0001 19C16.1707 19 16.3288 18.9992 16.4873 18.9823C16.6466 18.9652 16.7621 18.9355 16.8397 18.9006C16.9079 18.8699 16.9288 18.8441 16.9398 18.827C16.9517 18.8085 17.0001 18.7244 17.0001 18.5C17.0001 17.9477 17.4478 17.5 18.0001 17.5C18.5524 17.5 19.0001 17.9477 19.0001 18.5C19.0001 19.0256 18.8819 19.504 18.6229 19.9074C18.3631 20.3121 18.009 20.5676 17.6605 20.7244C17.0437 21.002 16.3582 21.0007 16.04 21.0001C16.026 21 16.0127 21 16.0001 21C14.9786 21 14.1998 20.6728 13.6787 20.13C13.1819 19.6126 13.0001 18.9809 13.0001 18.5V13.8685L11.5548 14.8321C11.0953 15.1384 10.4744 15.0142 10.1681 14.5547C9.8617 14.0952 9.98588 13.4743 10.4454 13.168L13.4454 11.168C13.7523 10.9634 14.1468 10.9443 14.472 11.1183Z" />
    <path d="M14 9C14.8284 9 15.5 8.32843 15.5 7.5C15.5 6.67157 14.8284 6 14 6C13.1716 6 12.5 6.67157 12.5 7.5C12.5 8.32843 13.1716 9 14 9Z" />
    <path fill-rule="evenodd" clip-rule="evenodd" d="M8 25C8 24.4477 8.44772 24 9 24H19C19.5523 24 20 24.4477 20 25C20 25.5523 19.5523 26 19 26H9C8.44772 26 8 25.5523 8 25Z" />
    <path fill-rule="evenodd" clip-rule="evenodd" d="M29 4C29.5523 4 30 4.44772 30 5V27C30 27.5523 29.5523 28 29 28C28.4477 28 28 27.5523 28 27V5C28 4.44772 28.4477 4 29 4Z" />
</svg>
    