<svg width="32" height="32" viewBox="0 0 32 32" fill="none" xmlns="http://www.w3.org/2000/svg">
    <path fill-rule="evenodd" clip-rule="evenodd" d="M4 5C4 4.44772 4.44772 4 5 4H27C27.5523 4 28 4.44772 28 5V27C28 27.5523 27.5523 28 27 28H5C4.44772 28 4 27.5523 4 27V5ZM6 6V26H26V6H6Z" />
    <path fill-rule="evenodd" clip-rule="evenodd" d="M14 12.5C14 11.9477 14.4477 11.5 15 11.5H22C22.5523 11.5 23 11.9477 23 12.5C23 13.0523 22.5523 13.5 22 13.5H15C14.4477 13.5 14 13.0523 14 12.5Z" />
    <path fill-rule="evenodd" clip-rule="evenodd" d="M18.9844 9.26895C19.3882 8.89211 20.021 8.91393 20.3978 9.31769L22.7311 11.8177C23.0897 12.2019 23.0897 12.7981 22.7311 13.1823L20.3978 15.6823C20.021 16.0861 19.3882 16.1079 18.9844 15.7311C18.5807 15.3542 18.5589 14.7214 18.9357 14.3177L20.6322 12.5L18.9357 10.6823C18.5589 10.2786 18.5807 9.64578 18.9844 9.26895Z" />
    <path fill-rule="evenodd" clip-rule="evenodd" d="M18 19.5C18 20.0523 17.5523 20.5 17 20.5H10C9.44772 20.5 9 20.0523 9 19.5C9 18.9477 9.44772 18.5 10 18.5H17C17.5523 18.5 18 18.9477 18 19.5Z" />
    <path fill-rule="evenodd" clip-rule="evenodd" d="M13.0156 22.7311C12.6118 23.1079 11.979 23.0861 11.6022 22.6823L9.26886 20.1823C8.91027 19.7981 8.91027 19.2019 9.26886 18.8177L11.6022 16.3177C11.979 15.9139 12.6118 15.8921 13.0156 16.2689C13.4193 16.6458 13.4411 17.2786 13.0643 17.6823L11.3678 19.5L13.0643 21.3177C13.4411 21.7214 13.4193 22.3542 13.0156 22.7311Z" />
    <path fill-rule="evenodd" clip-rule="evenodd" d="M11 1C11 0.447715 11.4477 0 12 0H20C20.5523 0 21 0.447715 21 1C21 1.55228 20.5523 2 20 2H12C11.4477 2 11 1.55228 11 1Z" />
    <path fill-rule="evenodd" clip-rule="evenodd" d="M11 31C11 30.4477 11.4477 30 12 30H20C20.5523 30 21 30.4477 21 31C21 31.5523 20.5523 32 20 32H12C11.4477 32 11 31.5523 11 31Z" />
    <path fill-rule="evenodd" clip-rule="evenodd" d="M31 11C31.5523 11 32 11.4477 32 12L32 20C32 20.5523 31.5523 21 31 21C30.4477 21 30 20.5523 30 20L30 12C30 11.4477 30.4477 11 31 11Z" />
    <path fill-rule="evenodd" clip-rule="evenodd" d="M1 11C1.55228 11 2 11.4477 2 12L2 20C2 20.5523 1.55228 21 1 21C0.447715 21 -4.17544e-07 20.5523 -3.93402e-07 20L-4.37114e-08 12C-1.95703e-08 11.4477 0.447715 11 1 11Z" />
</svg>
    