<svg width="32" height="32" viewBox="0 0 32 32" fill="none" xmlns="http://www.w3.org/2000/svg">
    <path fill-rule="evenodd" clip-rule="evenodd" d="M7 9C7 8.44772 7.44772 8 8 8H20C20.5523 8 21 8.44772 21 9V17C21 17.5523 20.5523 18 20 18C19.4477 18 19 17.5523 19 17V10H9V29C9 29.2652 9.10536 29.5196 9.29289 29.7071C9.48043 29.8946 9.73478 30 10 30H16C16.5523 30 17 30.4477 17 31C17 31.5523 16.5523 32 16 32H10C9.20435 32 8.44129 31.6839 7.87868 31.1213C7.31607 30.5587 7 29.7957 7 29V9Z" />
    <path fill-rule="evenodd" clip-rule="evenodd" d="M15.6032 22.1401C14.9951 22.2266 14.4326 22.5346 14.1246 22.781L12.8752 21.2192C13.4006 20.7989 14.2882 20.3069 15.3217 20.16C16.3991 20.0069 17.6482 20.2342 18.707 21.293C19.5411 22.1271 20.699 22.6514 21.7822 22.7546C22.8679 22.858 23.7223 22.5369 24.1999 21.9001C24.5313 21.4582 25.1581 21.3687 25.5999 21.7001C26.0418 22.0314 26.1313 22.6582 25.7999 23.1001C24.7776 24.4632 23.132 24.8922 21.5926 24.7456C20.0509 24.5987 18.4587 23.8731 17.2928 22.7072C16.7516 22.166 16.1674 22.0599 15.6032 22.1401Z" />
    <path fill-rule="evenodd" clip-rule="evenodd" d="M12.2323 17.3593C12.4223 17.1316 12.7035 17 13 17H26C26.2965 17 26.5778 17.1316 26.7678 17.3593C26.9578 17.5869 27.0369 17.8871 26.9839 18.1789L24.6202 31.1789C24.5338 31.6544 24.1197 32 23.6364 32H15.3636C14.8804 32 14.4662 31.6544 14.3798 31.1789L12.0161 18.1789C11.9631 17.8871 12.0423 17.5869 12.2323 17.3593ZM14.1982 19L16.1982 30H22.8018L24.8018 19H14.1982Z" />
    <path fill-rule="evenodd" clip-rule="evenodd" d="M6 1C6 0.447715 6.44772 0 7 0H12C12.5043 0 12.9297 0.375536 12.9923 0.875965L13.9923 8.87597C14.0608 9.42399 13.6721 9.92378 13.124 9.99228C12.576 10.0608 12.0762 9.67205 12.0077 9.12403L11.1172 2H7C6.44772 2 6 1.55228 6 1Z" />
    <path fill-rule="evenodd" clip-rule="evenodd" d="M26.5 11C26.2239 11 26 11.2239 26 11.5C26 11.7761 26.2239 12 26.5 12C26.7761 12 27 11.7761 27 11.5C27 11.2239 26.7761 11 26.5 11ZM24 11.5C24 10.1193 25.1193 9 26.5 9C27.8807 9 29 10.1193 29 11.5C29 12.8807 27.8807 14 26.5 14C25.1193 14 24 12.8807 24 11.5Z" />
    <path fill-rule="evenodd" clip-rule="evenodd" d="M22 2C21.4477 2 21 2.44772 21 3C21 3.55228 21.4477 4 22 4C22.5523 4 23 3.55228 23 3C23 2.44772 22.5523 2 22 2ZM19 3C19 1.34315 20.3431 0 22 0C23.6569 0 25 1.34315 25 3C25 4.65685 23.6569 6 22 6C20.3431 6 19 4.65685 19 3Z" />
</svg>
    