<svg width="32" height="32" viewBox="0 0 32 32" fill="none" xmlns="http://www.w3.org/2000/svg">
    <path fill-rule="evenodd" clip-rule="evenodd" d="M5.09106 14.2727C4.53878 14.2727 4.09106 13.825 4.09106 13.2727L4.09106 0.999977C4.09106 0.447692 4.53878 -2.29078e-05 5.09106 -2.29319e-05C5.64335 -2.2956e-05 6.09106 0.447692 6.09106 0.999977L6.09106 13.2727C6.09106 13.825 5.64335 14.2727 5.09106 14.2727Z" fill="#2D2E32" />
    <path fill-rule="evenodd" clip-rule="evenodd" d="M5.09106 32C4.53878 32 4.09106 31.5523 4.09106 31L4.09106 26.9091C4.09106 26.3568 4.53878 25.9091 5.09106 25.9091C5.64335 25.9091 6.09106 26.3568 6.09106 26.9091L6.09106 31C6.09106 31.5523 5.64335 32 5.09106 32Z" fill="#2D2E32" />
    <path fill-rule="evenodd" clip-rule="evenodd" d="M16.0002 3.36353C15.448 3.36353 15.0002 2.91581 15.0002 2.36353L15.0002 0.999887C15.0002 0.447603 15.448 -0.000112553 16.0002 -0.000112577C16.5525 -0.000112601 17.0002 0.447603 17.0002 0.999887L17.0002 2.36353C17.0002 2.91581 16.5525 3.36353 16.0002 3.36353Z" fill="#2D2E32" />
    <path fill-rule="evenodd" clip-rule="evenodd" d="M16.0002 32C15.448 32 15.0002 31.5523 15.0002 31L15.0002 16C15.0002 15.4477 15.448 15 16.0002 15C16.5525 15 17.0002 15.4477 17.0002 16L17.0002 31C17.0002 31.5523 16.5525 32 16.0002 32Z" fill="#2D2E32" />
    <path fill-rule="evenodd" clip-rule="evenodd" d="M26.9092 14.2727C26.3569 14.2727 25.9092 13.825 25.9092 13.2727L25.9092 0.999977C25.9092 0.447692 26.3569 -2.29078e-05 26.9092 -2.29319e-05C27.4615 -2.2956e-05 27.9092 0.447692 27.9092 0.999977L27.9092 13.2727C27.9092 13.825 27.4615 14.2727 26.9092 14.2727Z" fill="#2D2E32" />
    <path fill-rule="evenodd" clip-rule="evenodd" d="M26.9092 32C26.3569 32 25.9092 31.5523 25.9092 31L25.9092 26.9091C25.9092 26.3568 26.3569 25.9091 26.9092 25.9091C27.4615 25.9091 27.9092 26.3568 27.9092 26.9091L27.9092 31C27.9092 31.5523 27.4615 32 26.9092 32Z" fill="#2D2E32" />
    <path fill-rule="evenodd" clip-rule="evenodd" d="M2 22.8183C2 24.5253 3.38385 25.9092 5.09091 25.9092C6.79797 25.9092 8.18182 24.5253 8.18182 22.8183C8.18182 21.1112 6.79797 19.7274 5.09091 19.7274C3.38385 19.7274 2 21.1112 2 22.8183ZM5.09091 27.9092C2.27928 27.9092 -9.96304e-08 25.6299 -2.22531e-07 22.8183C-3.45431e-07 20.0066 2.27928 17.7274 5.09091 17.7274C7.90254 17.7274 10.1818 20.0066 10.1818 22.8183C10.1818 25.6299 7.90254 27.9092 5.09091 27.9092Z" fill="#2D2E32" />
    <path fill-rule="evenodd" clip-rule="evenodd" d="M12.9092 11.9091C12.9092 13.6162 14.293 15 16.0001 15C17.7072 15 19.091 13.6162 19.091 11.9091C19.091 10.202 17.7072 8.81818 16.0001 8.81818C14.293 8.81818 12.9092 10.202 12.9092 11.9091ZM16.0001 17C13.1885 17 10.9092 14.7207 10.9092 11.9091C10.9092 9.09746 13.1885 6.81818 16.0001 6.81818C18.8117 6.81818 21.091 9.09746 21.091 11.9091C21.091 14.7207 18.8117 17 16.0001 17Z" fill="#2D2E32" />
    <path fill-rule="evenodd" clip-rule="evenodd" d="M23.8181 22.8183C23.8181 24.5253 25.202 25.9092 26.909 25.9092C28.6161 25.9092 29.9999 24.5253 29.9999 22.8183C29.9999 21.1112 28.6161 19.7274 26.909 19.7274C25.202 19.7274 23.8181 21.1112 23.8181 22.8183ZM26.909 27.9092C24.0974 27.9092 21.8181 25.6299 21.8181 22.8183C21.8181 20.0066 24.0974 17.7274 26.909 17.7274C29.7207 17.7274 31.9999 20.0066 31.9999 22.8183C31.9999 25.6299 29.7207 27.9092 26.909 27.9092Z" fill="#2D2E32" />
</svg>
    