<svg width="32" height="32" viewBox="0 0 32 32" fill="none" xmlns="http://www.w3.org/2000/svg">
    <path fill-rule="evenodd" clip-rule="evenodd" d="M21 15C21.5523 15 22 15.4477 22 16V26C22 26.5523 21.5523 27 21 27C20.4477 27 20 26.5523 20 26V16C20 15.4477 20.4477 15 21 15Z" />
    <path fill-rule="evenodd" clip-rule="evenodd" d="M15 21C15 20.4477 15.4477 20 16 20H26C26.5523 20 27 20.4477 27 21C27 21.5523 26.5523 22 26 22H16C15.4477 22 15 21.5523 15 21Z" />
    <path fill-rule="evenodd" clip-rule="evenodd" d="M11 1C11 0.447715 11.4477 0 12 0H20C20.5523 0 21 0.447715 21 1C21 1.55228 20.5523 2 20 2H12C11.4477 2 11 1.55228 11 1Z" />
    <path fill-rule="evenodd" clip-rule="evenodd" d="M1 11C1.55228 11 2 11.4477 2 12L2 20C2 20.5523 1.55228 21 1 21C0.447715 21 -4.17544e-07 20.5523 -3.93402e-07 20L-4.37114e-08 12C-1.95703e-08 11.4477 0.447715 11 1 11Z" />
    <path fill-rule="evenodd" clip-rule="evenodd" d="M4 5C4 4.44772 4.44772 4 5 4H27C27.5523 4 28 4.44772 28 5V7C28 7.55228 27.5523 8 27 8C26.4477 8 26 7.55228 26 7V6H6V26H7C7.55228 26 8 26.4477 8 27C8 27.5523 7.55228 28 7 28H5C4.44772 28 4 27.5523 4 27V5Z" />
    <path fill-rule="evenodd" clip-rule="evenodd" d="M10 11C10 10.4477 10.4477 10 11 10H31C31.5523 10 32 10.4477 32 11V31C32 31.5523 31.5523 32 31 32H11C10.4477 32 10 31.5523 10 31V11ZM12 12V30H30V12H12Z" />
</svg>
    