<svg width="32" height="32" viewBox="0 0 32 32" fill="none" xmlns="http://www.w3.org/2000/svg">
    <path fill-rule="evenodd" clip-rule="evenodd" d="M4.32378 5.8367C4.40367 5.35401 4.82109 5 5.31035 5H26C26.2938 5 26.5727 5.12916 26.7627 5.3532C26.9527 5.57723 27.0346 5.87348 26.9866 6.1633L23.6762 26.1633C23.5963 26.646 23.1789 27 22.6897 27H2.00001C1.70625 27 1.42735 26.8708 1.23735 26.6468C1.04735 26.4228 0.965461 26.1265 1.01343 25.8367L4.32378 5.8367ZM6.15844 7L3.17913 25H21.8416L24.8209 7H6.15844Z" />
    <path fill-rule="evenodd" clip-rule="evenodd" d="M8 16C8 15.4477 8.44772 15 9 15H19C19.5523 15 20 15.4477 20 16C20 16.5523 19.5523 17 19 17H9C8.44772 17 8 16.5523 8 16Z" />
    <path fill-rule="evenodd" clip-rule="evenodd" d="M15.1962 10.0194C15.7377 10.1277 16.0889 10.6545 15.9806 11.1961L13.9806 21.1961C13.8723 21.7376 13.3455 22.0888 12.8039 21.9805C12.2624 21.8722 11.9112 21.3454 12.0195 20.8038L14.0195 10.8038C14.1278 10.2623 14.6546 9.91106 15.1962 10.0194Z" />
    <path fill-rule="evenodd" clip-rule="evenodd" d="M25.7717 5.02639C26.3094 4.90031 26.8475 5.23399 26.9736 5.77169L31.6632 25.7717C31.7329 26.069 31.663 26.3818 31.4733 26.6212C31.2836 26.8605 30.995 27 30.6896 27H28.8965C28.3442 27 27.8965 26.5523 27.8965 26C27.8965 25.4477 28.3442 25 28.8965 25H29.428L25.0264 6.22827C24.9003 5.69057 25.234 5.15247 25.7717 5.02639Z" />
</svg>
    