<svg width="32" height="32" viewBox="0 0 32 32" fill="none" xmlns="http://www.w3.org/2000/svg">
    <path d="M23.5 3.99991C23 3.69991 22.4 3.89991 22.1 4.39991C21.8 4.89991 22 5.49991 22.5 5.79991C26.5 8.09991 29 12.3999 29 17.0999C29 24.2999 23.2 30.0999 16 30.0999C8.8 30.0999 3 24.1999 3 16.9999C3 12.3999 5.5 8.09991 9.5 5.69991C10 5.39991 10.1 4.79991 9.9 4.29991C9.6 3.89991 9 3.69991 8.5 3.99991C3.9 6.69991 1 11.6999 1 16.9999C1 25.2999 7.7 31.9999 16 31.9999C24.3 31.9999 31 25.2999 31 16.9999C31 11.6999 28.1 6.69991 23.5 3.99991Z" />
    <path d="M16 11C16.6 11 17 10.6 17 10V1C17 0.4 16.6 0 16 0C15.4 0 15 0.4 15 1V10C15 10.6 15.4 11 16 11Z" />
</svg>
    