<svg width="32" height="32" viewBox="0 0 32 32" fill="none" xmlns="http://www.w3.org/2000/svg">
    <path fill-rule="evenodd" clip-rule="evenodd" d="M12.2 11C12.2 10.4477 12.6477 10 13.2 10H18.4C20.903 10 23 11.9611 23 14.4615C23 16.962 20.903 18.9231 18.4 18.9231H10C9.44772 18.9231 9 18.4754 9 17.9231C9 17.3708 9.44772 16.9231 10 16.9231H18.4C19.873 16.9231 21 15.7842 21 14.4615C21 13.1389 19.873 12 18.4 12H13.2C12.6477 12 12.2 11.5523 12.2 11Z" fill="#2D2E32" />
    <path fill-rule="evenodd" clip-rule="evenodd" d="M13.9208 14.1531C14.3036 14.5512 14.2912 15.1842 13.8931 15.567L11.4428 17.9231L13.8931 20.2792C14.2912 20.662 14.3036 21.295 13.9208 21.6931C13.538 22.0913 12.905 22.1037 12.5069 21.7209L9.30689 18.6439C9.11081 18.4554 9 18.1951 9 17.9231C9 17.6511 9.11081 17.3908 9.30689 17.2023L12.5069 14.1254C12.905 13.7426 13.538 13.755 13.9208 14.1531Z" fill="#2D2E32" />
    <path fill-rule="evenodd" clip-rule="evenodd" d="M11 1C11 0.447715 11.4477 0 12 0H20C20.5523 0 21 0.447715 21 1C21 1.55228 20.5523 2 20 2H12C11.4477 2 11 1.55228 11 1Z" fill="#2D2E32" />
    <path fill-rule="evenodd" clip-rule="evenodd" d="M11 31C11 30.4477 11.4477 30 12 30H20C20.5523 30 21 30.4477 21 31C21 31.5523 20.5523 32 20 32H12C11.4477 32 11 31.5523 11 31Z" fill="#2D2E32" />
    <path fill-rule="evenodd" clip-rule="evenodd" d="M31 11C31.5523 11 32 11.4477 32 12L32 20C32 20.5523 31.5523 21 31 21C30.4477 21 30 20.5523 30 20L30 12C30 11.4477 30.4477 11 31 11Z" fill="#2D2E32" />
    <path fill-rule="evenodd" clip-rule="evenodd" d="M1 11C1.55228 11 2 11.4477 2 12L2 20C2 20.5523 1.55228 21 1 21C0.447715 21 -4.17544e-07 20.5523 -3.93402e-07 20L-4.37114e-08 12C-1.95703e-08 11.4477 0.447715 11 1 11Z" fill="#2D2E32" />
    <path fill-rule="evenodd" clip-rule="evenodd" d="M4 5C4 4.44772 4.44772 4 5 4H27C27.5523 4 28 4.44772 28 5V27C28 27.5523 27.5523 28 27 28H5C4.44772 28 4 27.5523 4 27V5ZM6 6V26H26V6H6Z" fill="#2D2E32" />
</svg>
    